<svg width="181" height="135" viewBox="0 0 181 135" fill="none" xmlns="http://www.w3.org/2000/svg">
<path d="M7.63118 12H6.52323L9.72777 3.27273H10.8187L14.0232 12H12.9153L10.3073 4.65341H10.2391L7.63118 12ZM8.04027 8.59091H12.5062V9.52841H8.04027V8.59091ZM17.1826 12V3.27273H20.2337C20.8417 3.27273 21.3431 3.37784 21.738 3.58807C22.1329 3.79545 22.4269 4.07528 22.6201 4.42756C22.8133 4.77699 22.9099 5.16477 22.9099 5.59091C22.9099 5.96591 22.8431 6.27557 22.7096 6.51989C22.5789 6.7642 22.4056 6.95739 22.1897 7.09943C21.9766 7.24148 21.7451 7.34659 21.4951 7.41477V7.5C21.7621 7.51705 22.0306 7.6108 22.3005 7.78125C22.5704 7.9517 22.7962 8.19602 22.9781 8.5142C23.1599 8.83239 23.2508 9.22159 23.2508 9.68182C23.2508 10.1193 23.1514 10.5128 22.9525 10.8622C22.7536 11.2116 22.4397 11.4886 22.0107 11.6932C21.5817 11.8977 21.0235 12 20.336 12H17.1826ZM18.2394 11.0625H20.336C21.0264 11.0625 21.5164 10.929 21.8062 10.6619C22.0988 10.392 22.2451 10.0653 22.2451 9.68182C22.2451 9.38636 22.1698 9.11364 22.0192 8.86364C21.8687 8.6108 21.6542 8.40909 21.3758 8.25852C21.0974 8.10511 20.7678 8.02841 20.3871 8.02841H18.2394V11.0625ZM18.2394 7.10795H20.1996C20.5178 7.10795 20.8048 7.04545 21.0604 6.92045C21.319 6.79545 21.5235 6.61932 21.6741 6.39205C21.8275 6.16477 21.9042 5.89773 21.9042 5.59091C21.9042 5.20739 21.7707 4.8821 21.5036 4.61506C21.2366 4.34517 20.8133 4.21023 20.2337 4.21023H18.2394V7.10795ZM34.1509 7.63636C34.1509 8.55682 33.9847 9.35227 33.6523 10.0227C33.32 10.6932 32.864 11.2102 32.2844 11.5739C31.7049 11.9375 31.043 12.1193 30.2987 12.1193C29.5543 12.1193 28.8924 11.9375 28.3129 11.5739C27.7333 11.2102 27.2773 10.6932 26.945 10.0227C26.6126 9.35227 26.4464 8.55682 26.4464 7.63636C26.4464 6.71591 26.6126 5.92045 26.945 5.25C27.2773 4.57955 27.7333 4.0625 28.3129 3.69886C28.8924 3.33523 29.5543 3.15341 30.2987 3.15341C31.043 3.15341 31.7049 3.33523 32.2844 3.69886C32.864 4.0625 33.32 4.57955 33.6523 5.25C33.9847 5.92045 34.1509 6.71591 34.1509 7.63636ZM33.1282 7.63636C33.1282 6.88068 33.0018 6.2429 32.7489 5.72301C32.4989 5.20312 32.1594 4.80966 31.7305 4.54261C31.3043 4.27557 30.8271 4.14205 30.2987 4.14205C29.7702 4.14205 29.2916 4.27557 28.8626 4.54261C28.4364 4.80966 28.0969 5.20312 27.8441 5.72301C27.5941 6.2429 27.4691 6.88068 27.4691 7.63636C27.4691 8.39205 27.5941 9.02983 27.8441 9.54972C28.0969 10.0696 28.4364 10.4631 28.8626 10.7301C29.2916 10.9972 29.7702 11.1307 30.2987 11.1307C30.8271 11.1307 31.3043 10.9972 31.7305 10.7301C32.1594 10.4631 32.4989 10.0696 32.7489 9.54972C33.0018 9.02983 33.1282 8.39205 33.1282 7.63636ZM43.4552 3.27273H44.512V9.05114C44.512 9.64773 44.3714 10.1804 44.0901 10.6491C43.8117 11.1151 43.4183 11.483 42.9097 11.7528C42.4012 12.0199 41.8046 12.1534 41.12 12.1534C40.4353 12.1534 39.8387 12.0199 39.3302 11.7528C38.8217 11.483 38.4268 11.1151 38.1455 10.6491C37.8671 10.1804 37.7279 9.64773 37.7279 9.05114V3.27273H38.7847V8.96591C38.7847 9.39205 38.8785 9.77131 39.066 10.1037C39.2535 10.4332 39.5205 10.6932 39.8671 10.8835C40.2165 11.071 40.6342 11.1648 41.12 11.1648C41.6058 11.1648 42.0234 11.071 42.3728 10.8835C42.7222 10.6932 42.9893 10.4332 43.1739 10.1037C43.3614 9.77131 43.4552 9.39205 43.4552 8.96591V3.27273ZM47.9452 4.21023V3.27273H54.4906V4.21023H51.7463V12H50.6895V4.21023H47.9452ZM63.0967 12V3.27273H64.1535V11.0625H68.2103V12H63.0967ZM72.5554 12H71.4474L74.652 3.27273H75.7429L78.9474 12H77.8395L75.2315 4.65341H75.1634L72.5554 12ZM72.9645 8.59091H77.4304V9.52841H72.9645V8.59091ZM87.2818 12V3.27273H92.5148V4.21023H88.3386V7.15909H92.1227V8.09659H88.3386V12H87.2818ZM96.1248 12V3.27273H97.1816V11.0625H101.238V12H96.1248ZM104.675 12V3.27273H109.942V4.21023H105.732V7.15909H109.669V8.09659H105.732V11.0625H110.01V12H104.675ZM119.374 3.27273H120.431V9.05114C120.431 9.64773 120.29 10.1804 120.009 10.6491C119.73 11.1151 119.337 11.483 118.828 11.7528C118.32 12.0199 117.723 12.1534 117.039 12.1534C116.354 12.1534 115.757 12.0199 115.249 11.7528C114.74 11.483 114.346 11.1151 114.064 10.6491C113.786 10.1804 113.647 9.64773 113.647 9.05114V3.27273H114.703V8.96591C114.703 9.39205 114.797 9.77131 114.985 10.1037C115.172 10.4332 115.439 10.6932 115.786 10.8835C116.135 11.071 116.553 11.1648 117.039 11.1648C117.525 11.1648 117.942 11.071 118.292 10.8835C118.641 10.6932 118.908 10.4332 119.093 10.1037C119.28 9.77131 119.374 9.39205 119.374 8.96591V3.27273ZM124.341 12V3.27273H127.29C127.972 3.27273 128.532 3.3892 128.969 3.62216C129.407 3.85227 129.73 4.16903 129.941 4.57244C130.151 4.97585 130.256 5.43466 130.256 5.94886C130.256 6.46307 130.151 6.91903 129.941 7.31676C129.73 7.71449 129.408 8.02699 128.973 8.25426C128.539 8.47869 127.983 8.59091 127.307 8.59091H124.921V7.63636H127.273C127.739 7.63636 128.114 7.56818 128.398 7.43182C128.685 7.29545 128.892 7.10227 129.02 6.85227C129.151 6.59943 129.216 6.2983 129.216 5.94886C129.216 5.59943 129.151 5.29403 129.02 5.03267C128.889 4.77131 128.681 4.5696 128.394 4.42756C128.107 4.28267 127.728 4.21023 127.256 4.21023H125.398V12H124.341ZM128.449 8.07955L130.597 12H129.37L127.256 8.07955H128.449ZM138.992 12V3.27273H142.043C142.651 3.27273 143.152 3.37784 143.547 3.58807C143.942 3.79545 144.236 4.07528 144.429 4.42756C144.623 4.77699 144.719 5.16477 144.719 5.59091C144.719 5.96591 144.652 6.27557 144.519 6.51989C144.388 6.7642 144.215 6.95739 143.999 7.09943C143.786 7.24148 143.554 7.34659 143.304 7.41477V7.5C143.572 7.51705 143.84 7.6108 144.11 7.78125C144.38 7.9517 144.606 8.19602 144.787 8.5142C144.969 8.83239 145.06 9.22159 145.06 9.68182C145.06 10.1193 144.961 10.5128 144.762 10.8622C144.563 11.2116 144.249 11.4886 143.82 11.6932C143.391 11.8977 142.833 12 142.145 12H138.992ZM140.049 11.0625H142.145C142.836 11.0625 143.326 10.929 143.616 10.6619C143.908 10.392 144.054 10.0653 144.054 9.68182C144.054 9.38636 143.979 9.11364 143.829 8.86364C143.678 8.6108 143.464 8.40909 143.185 8.25852C142.907 8.10511 142.577 8.02841 142.197 8.02841H140.049V11.0625ZM140.049 7.10795H142.009C142.327 7.10795 142.614 7.04545 142.87 6.92045C143.128 6.79545 143.333 6.61932 143.483 6.39205C143.637 6.16477 143.714 5.89773 143.714 5.59091C143.714 5.20739 143.58 4.8821 143.313 4.61506C143.046 4.34517 142.623 4.21023 142.043 4.21023H140.049V7.10795ZM148.597 12V3.27273H153.864V4.21023H149.653V7.15909H153.591V8.09659H149.653V11.0625H153.932V12H148.597ZM157.569 12V3.27273H158.625V11.0625H162.682V12H157.569ZM166.119 12V3.27273H167.175V11.0625H171.232V12H166.119ZM174.669 12V3.27273H179.936V4.21023H175.725V7.15909H179.663V8.09659H175.725V11.0625H180.004V12H174.669Z" fill="white"/>
<path d="M55.0576 42V33.2727H58.1087C58.7167 33.2727 59.2181 33.3778 59.613 33.5881C60.0079 33.7955 60.3019 34.0753 60.4951 34.4276C60.6883 34.777 60.7849 35.1648 60.7849 35.5909C60.7849 35.9659 60.7181 36.2756 60.5846 36.5199C60.4539 36.7642 60.2806 36.9574 60.0647 37.0994C59.8516 37.2415 59.6201 37.3466 59.3701 37.4148V37.5C59.6371 37.517 59.9056 37.6108 60.1755 37.7812C60.4454 37.9517 60.6712 38.196 60.8531 38.5142C61.0349 38.8324 61.1258 39.2216 61.1258 39.6818C61.1258 40.1193 61.0264 40.5128 60.8275 40.8622C60.6286 41.2116 60.3147 41.4886 59.8857 41.6932C59.4567 41.8977 58.8985 42 58.211 42H55.0576ZM56.1144 41.0625H58.211C58.9014 41.0625 59.3914 40.929 59.6812 40.6619C59.9738 40.392 60.1201 40.0653 60.1201 39.6818C60.1201 39.3864 60.0448 39.1136 59.8942 38.8636C59.7437 38.6108 59.5292 38.4091 59.2508 38.2585C58.9724 38.1051 58.6428 38.0284 58.2621 38.0284H56.1144V41.0625ZM56.1144 37.108H58.0746C58.3928 37.108 58.6798 37.0455 58.9354 36.9205C59.194 36.7955 59.3985 36.6193 59.5491 36.392C59.7025 36.1648 59.7792 35.8977 59.7792 35.5909C59.7792 35.2074 59.6457 34.8821 59.3786 34.6151C59.1116 34.3452 58.6883 34.2102 58.1087 34.2102H56.1144V37.108ZM72.0259 37.6364C72.0259 38.5568 71.8597 39.3523 71.5273 40.0227C71.195 40.6932 70.739 41.2102 70.1594 41.5739C69.5799 41.9375 68.918 42.1193 68.1737 42.1193C67.4293 42.1193 66.7674 41.9375 66.1879 41.5739C65.6083 41.2102 65.1523 40.6932 64.82 40.0227C64.4876 39.3523 64.3214 38.5568 64.3214 37.6364C64.3214 36.7159 64.4876 35.9205 64.82 35.25C65.1523 34.5795 65.6083 34.0625 66.1879 33.6989C66.7674 33.3352 67.4293 33.1534 68.1737 33.1534C68.918 33.1534 69.5799 33.3352 70.1594 33.6989C70.739 34.0625 71.195 34.5795 71.5273 35.25C71.8597 35.9205 72.0259 36.7159 72.0259 37.6364ZM71.0032 37.6364C71.0032 36.8807 70.8768 36.2429 70.6239 35.723C70.3739 35.2031 70.0344 34.8097 69.6055 34.5426C69.1793 34.2756 68.7021 34.142 68.1737 34.142C67.6452 34.142 67.1665 34.2756 66.7376 34.5426C66.3114 34.8097 65.9719 35.2031 65.7191 35.723C65.4691 36.2429 65.3441 36.8807 65.3441 37.6364C65.3441 38.392 65.4691 39.0298 65.7191 39.5497C65.9719 40.0696 66.3114 40.4631 66.7376 40.7301C67.1665 40.9972 67.6452 41.1307 68.1737 41.1307C68.7021 41.1307 69.1793 40.9972 69.6055 40.7301C70.0344 40.4631 70.3739 40.0696 70.6239 39.5497C70.8768 39.0298 71.0032 38.392 71.0032 37.6364ZM81.3302 33.2727H82.387V39.0511C82.387 39.6477 82.2464 40.1804 81.9651 40.6491C81.6867 41.1151 81.2933 41.483 80.7847 41.7528C80.2762 42.0199 79.6796 42.1534 78.995 42.1534C78.3103 42.1534 77.7137 42.0199 77.2052 41.7528C76.6967 41.483 76.3018 41.1151 76.0205 40.6491C75.7421 40.1804 75.6029 39.6477 75.6029 39.0511V33.2727H76.6597V38.9659C76.6597 39.392 76.7535 39.7713 76.941 40.1037C77.1285 40.4332 77.3955 40.6932 77.7421 40.8835C78.0915 41.071 78.5092 41.1648 78.995 41.1648C79.4808 41.1648 79.8984 41.071 80.2478 40.8835C80.5972 40.6932 80.8643 40.4332 81.0489 40.1037C81.2364 39.7713 81.3302 39.392 81.3302 38.9659V33.2727ZM89.4679 39.2727H90.627L91.5986 40.5511L91.8543 40.892L93.3031 42.8182H92.144L91.1895 41.5398L90.9509 41.2159L89.4679 39.2727ZM93.6611 37.6364C93.6611 38.5568 93.4949 39.3523 93.1625 40.0227C92.8301 40.6932 92.3741 41.2102 91.7946 41.5739C91.2151 41.9375 90.5531 42.1193 89.8088 42.1193C89.0645 42.1193 88.4026 41.9375 87.823 41.5739C87.2435 41.2102 86.7875 40.6932 86.4551 40.0227C86.1227 39.3523 85.9565 38.5568 85.9565 37.6364C85.9565 36.7159 86.1227 35.9205 86.4551 35.25C86.7875 34.5795 87.2435 34.0625 87.823 33.6989C88.4026 33.3352 89.0645 33.1534 89.8088 33.1534C90.5531 33.1534 91.2151 33.3352 91.7946 33.6989C92.3741 34.0625 92.8301 34.5795 93.1625 35.25C93.4949 35.9205 93.6611 36.7159 93.6611 37.6364ZM92.6384 37.6364C92.6384 36.8807 92.5119 36.2429 92.2591 35.723C92.0091 35.2031 91.6696 34.8097 91.2406 34.5426C90.8145 34.2756 90.3372 34.142 89.8088 34.142C89.2804 34.142 88.8017 34.2756 88.3727 34.5426C87.9466 34.8097 87.6071 35.2031 87.3543 35.723C87.1043 36.2429 86.9793 36.8807 86.9793 37.6364C86.9793 38.392 87.1043 39.0298 87.3543 39.5497C87.6071 40.0696 87.9466 40.4631 88.3727 40.7301C88.8017 40.9972 89.2804 41.1307 89.8088 41.1307C90.3372 41.1307 90.8145 40.9972 91.2406 40.7301C91.6696 40.4631 92.0091 40.0696 92.2591 39.5497C92.5119 39.0298 92.6384 38.392 92.6384 37.6364ZM102.965 33.2727H104.022V39.0511C104.022 39.6477 103.882 40.1804 103.6 40.6491C103.322 41.1151 102.928 41.483 102.42 41.7528C101.911 42.0199 101.315 42.1534 100.63 42.1534C99.9455 42.1534 99.3489 42.0199 98.8403 41.7528C98.3318 41.483 97.9369 41.1151 97.6557 40.6491C97.3773 40.1804 97.2381 39.6477 97.2381 39.0511V33.2727H98.2949V38.9659C98.2949 39.392 98.3886 39.7713 98.5761 40.1037C98.7636 40.4332 99.0307 40.6932 99.3773 40.8835C99.7267 41.071 100.144 41.1648 100.63 41.1648C101.116 41.1648 101.534 41.071 101.883 40.8835C102.232 40.6932 102.499 40.4332 102.684 40.1037C102.872 39.7713 102.965 39.392 102.965 38.9659V33.2727ZM107.933 42V33.2727H113.2V34.2102H108.989V37.1591H112.927V38.0966H108.989V41.0625H113.268V42H107.933ZM116.427 34.2102V33.2727H122.973V34.2102H120.228V42H119.172V34.2102H116.427ZM131.176 35.4545C131.125 35.0227 130.918 34.6875 130.554 34.4489C130.191 34.2102 129.745 34.0909 129.216 34.0909C128.83 34.0909 128.492 34.1534 128.202 34.2784C127.915 34.4034 127.691 34.5753 127.529 34.794C127.37 35.0128 127.29 35.2614 127.29 35.5398C127.29 35.7727 127.345 35.973 127.456 36.1406C127.57 36.3054 127.715 36.4432 127.891 36.554C128.067 36.6619 128.252 36.7514 128.445 36.8224C128.638 36.8906 128.816 36.946 128.978 36.9886L129.864 37.2273C130.091 37.2869 130.344 37.3693 130.622 37.4744C130.904 37.5795 131.172 37.723 131.428 37.9048C131.686 38.0838 131.899 38.3139 132.067 38.5952C132.235 38.8764 132.318 39.2216 132.318 39.6307C132.318 40.1023 132.195 40.5284 131.948 40.9091C131.703 41.2898 131.345 41.5923 130.874 41.8168C130.405 42.0412 129.836 42.1534 129.165 42.1534C128.54 42.1534 127.999 42.0526 127.541 41.8509C127.087 41.6491 126.729 41.3679 126.468 41.0071C126.209 40.6463 126.063 40.2273 126.029 39.75H127.12C127.148 40.0795 127.259 40.3523 127.452 40.5682C127.648 40.7812 127.895 40.9403 128.193 41.0455C128.495 41.1477 128.818 41.1989 129.165 41.1989C129.568 41.1989 129.931 41.1335 130.252 41.0028C130.573 40.8693 130.827 40.6847 131.014 40.4489C131.202 40.2102 131.296 39.9318 131.296 39.6136C131.296 39.3239 131.215 39.0881 131.053 38.9062C130.891 38.7244 130.678 38.5767 130.414 38.4631C130.149 38.3494 129.864 38.25 129.557 38.1648L128.483 37.858C127.801 37.6619 127.262 37.3821 126.864 37.0185C126.466 36.6548 126.267 36.179 126.267 35.5909C126.267 35.1023 126.399 34.6761 126.664 34.3125C126.931 33.946 127.289 33.6619 127.738 33.4602C128.189 33.2557 128.693 33.1534 129.25 33.1534C129.813 33.1534 130.313 33.2543 130.75 33.456C131.188 33.6548 131.534 33.9276 131.79 34.2741C132.049 34.6207 132.185 35.0142 132.199 35.4545H131.176Z" fill="white"/>
<path d="M42.1327 66H41.0759C41.0134 65.696 40.904 65.429 40.7477 65.1989C40.5943 64.9688 40.4068 64.7756 40.1852 64.6193C39.9665 64.4602 39.7236 64.3409 39.4565 64.2614C39.1895 64.1818 38.9111 64.142 38.6213 64.142C38.0929 64.142 37.6142 64.2756 37.1852 64.5426C36.7591 64.8097 36.4196 65.2031 36.1668 65.723C35.9168 66.2429 35.7918 66.8807 35.7918 67.6364C35.7918 68.392 35.9168 69.0298 36.1668 69.5497C36.4196 70.0696 36.7591 70.4631 37.1852 70.7301C37.6142 70.9972 38.0929 71.1307 38.6213 71.1307C38.9111 71.1307 39.1895 71.0909 39.4565 71.0114C39.7236 70.9318 39.9665 70.8139 40.1852 70.6577C40.4068 70.4986 40.5943 70.304 40.7477 70.0739C40.904 69.8409 41.0134 69.5739 41.0759 69.2727H42.1327C42.0531 69.7187 41.9082 70.1179 41.698 70.4702C41.4878 70.8224 41.2264 71.1222 40.9139 71.3693C40.6014 71.6136 40.2506 71.7997 39.8614 71.9276C39.475 72.0554 39.0616 72.1193 38.6213 72.1193C37.877 72.1193 37.2151 71.9375 36.6355 71.5739C36.056 71.2102 35.6 70.6932 35.2676 70.0227C34.9352 69.3523 34.769 68.5568 34.769 67.6364C34.769 66.7159 34.9352 65.9205 35.2676 65.25C35.6 64.5795 36.056 64.0625 36.6355 63.6989C37.2151 63.3352 37.877 63.1534 38.6213 63.1534C39.0616 63.1534 39.475 63.2173 39.8614 63.3452C40.2506 63.473 40.6014 63.6605 40.9139 63.9077C41.2264 64.152 41.4878 64.4503 41.698 64.8026C41.9082 65.152 42.0531 65.5511 42.1327 66ZM51.3677 63.2727H52.4245V69.0511C52.4245 69.6477 52.2839 70.1804 52.0026 70.6491C51.7242 71.1151 51.3308 71.483 50.8222 71.7528C50.3137 72.0199 49.7171 72.1534 49.0325 72.1534C48.3478 72.1534 47.7512 72.0199 47.2427 71.7528C46.7342 71.483 46.3393 71.1151 46.058 70.6491C45.7796 70.1804 45.6404 69.6477 45.6404 69.0511V63.2727H46.6972V68.9659C46.6972 69.392 46.791 69.7713 46.9785 70.1037C47.166 70.4332 47.433 70.6932 47.7796 70.8835C48.129 71.071 48.5467 71.1648 49.0325 71.1648C49.5183 71.1648 49.9359 71.071 50.2853 70.8835C50.6347 70.6932 50.9018 70.4332 51.0864 70.1037C51.2739 69.7713 51.3677 69.392 51.3677 68.9659V63.2727ZM61.1077 65.4545C61.0565 65.0227 60.8491 64.6875 60.4855 64.4489C60.1219 64.2102 59.6759 64.0909 59.1474 64.0909C58.7611 64.0909 58.423 64.1534 58.1332 64.2784C57.8463 64.4034 57.6219 64.5753 57.4599 64.794C57.3009 65.0128 57.2213 65.2614 57.2213 65.5398C57.2213 65.7727 57.2767 65.973 57.3875 66.1406C57.5011 66.3054 57.646 66.4432 57.8222 66.554C57.9983 66.6619 58.183 66.7514 58.3761 66.8224C58.5693 66.8906 58.7469 66.946 58.9088 66.9886L59.7952 67.2273C60.0224 67.2869 60.2753 67.3693 60.5537 67.4744C60.8349 67.5795 61.1034 67.723 61.3591 67.9048C61.6176 68.0838 61.8307 68.3139 61.9983 68.5952C62.1659 68.8764 62.2497 69.2216 62.2497 69.6307C62.2497 70.1023 62.1261 70.5284 61.879 70.9091C61.6347 71.2898 61.2767 71.5923 60.8051 71.8168C60.3364 72.0412 59.7668 72.1534 59.0963 72.1534C58.4713 72.1534 57.9301 72.0526 57.4727 71.8509C57.0182 71.6491 56.6602 71.3679 56.3989 71.0071C56.1403 70.6463 55.994 70.2273 55.9599 69.75H57.0509C57.0793 70.0795 57.1901 70.3523 57.3832 70.5682C57.5793 70.7812 57.8264 70.9403 58.1247 71.0455C58.4259 71.1477 58.7497 71.1989 59.0963 71.1989C59.4997 71.1989 59.8619 71.1335 60.183 71.0028C60.504 70.8693 60.7582 70.6847 60.9457 70.4489C61.1332 70.2102 61.227 69.9318 61.227 69.6136C61.227 69.3239 61.146 69.0881 60.9841 68.9062C60.8222 68.7244 60.6091 68.5767 60.3449 68.4631C60.0807 68.3494 59.7952 68.25 59.4884 68.1648L58.4145 67.858C57.7327 67.6619 57.1929 67.3821 56.7952 67.0185C56.3974 66.6548 56.1986 66.179 56.1986 65.5909C56.1986 65.1023 56.3307 64.6761 56.5949 64.3125C56.8619 63.946 57.2199 63.6619 57.6687 63.4602C58.1205 63.2557 58.6247 63.1534 59.1815 63.1534C59.744 63.1534 60.244 63.2543 60.6815 63.456C61.119 63.6548 61.4656 63.9276 61.7213 64.2741C61.9798 64.6207 62.1162 65.0142 62.1304 65.4545H61.1077ZM65.31 64.2102V63.2727H71.8555V64.2102H69.1111V72H68.0543V64.2102H65.31ZM82.2869 67.6364C82.2869 68.5568 82.1207 69.3523 81.7883 70.0227C81.4559 70.6932 80.9999 71.2102 80.4204 71.5739C79.8408 71.9375 79.1789 72.1193 78.4346 72.1193C77.6903 72.1193 77.0283 71.9375 76.4488 71.5739C75.8692 71.2102 75.4133 70.6932 75.0809 70.0227C74.7485 69.3523 74.5823 68.5568 74.5823 67.6364C74.5823 66.7159 74.7485 65.9205 75.0809 65.25C75.4133 64.5795 75.8692 64.0625 76.4488 63.6989C77.0283 63.3352 77.6903 63.1534 78.4346 63.1534C79.1789 63.1534 79.8408 63.3352 80.4204 63.6989C80.9999 64.0625 81.4559 64.5795 81.7883 65.25C82.1207 65.9205 82.2869 66.7159 82.2869 67.6364ZM81.2641 67.6364C81.2641 66.8807 81.1377 66.2429 80.8849 65.723C80.6349 65.2031 80.2954 64.8097 79.8664 64.5426C79.4403 64.2756 78.963 64.142 78.4346 64.142C77.9062 64.142 77.4275 64.2756 76.9985 64.5426C76.5724 64.8097 76.2329 65.2031 75.98 65.723C75.73 66.2429 75.605 66.8807 75.605 67.6364C75.605 68.392 75.73 69.0298 75.98 69.5497C76.2329 70.0696 76.5724 70.4631 76.9985 70.7301C77.4275 70.9972 77.9062 71.1307 78.4346 71.1307C78.963 71.1307 79.4403 70.9972 79.8664 70.7301C80.2954 70.4631 80.6349 70.0696 80.8849 69.5497C81.1377 69.0298 81.2641 68.392 81.2641 67.6364ZM85.8638 63.2727H87.1252L90.0911 70.517H90.1934L93.1593 63.2727H94.4207V72H93.432V65.3693H93.3468L90.6195 72H89.665L86.9377 65.3693H86.8525V72H85.8638V63.2727ZM110.878 67.6364C110.878 68.5568 110.712 69.3523 110.38 70.0227C110.047 70.6932 109.591 71.2102 109.012 71.5739C108.432 71.9375 107.77 72.1193 107.026 72.1193C106.282 72.1193 105.62 71.9375 105.04 71.5739C104.461 71.2102 104.005 70.6932 103.672 70.0227C103.34 69.3523 103.174 68.5568 103.174 67.6364C103.174 66.7159 103.34 65.9205 103.672 65.25C104.005 64.5795 104.461 64.0625 105.04 63.6989C105.62 63.3352 106.282 63.1534 107.026 63.1534C107.77 63.1534 108.432 63.3352 109.012 63.6989C109.591 64.0625 110.047 64.5795 110.38 65.25C110.712 65.9205 110.878 66.7159 110.878 67.6364ZM109.856 67.6364C109.856 66.8807 109.729 66.2429 109.476 65.723C109.226 65.2031 108.887 64.8097 108.458 64.5426C108.032 64.2756 107.554 64.142 107.026 64.142C106.498 64.142 106.019 64.2756 105.59 64.5426C105.164 64.8097 104.824 65.2031 104.571 65.723C104.321 66.2429 104.196 66.8807 104.196 67.6364C104.196 68.392 104.321 69.0298 104.571 69.5497C104.824 70.0696 105.164 70.4631 105.59 70.7301C106.019 70.9972 106.498 71.1307 107.026 71.1307C107.554 71.1307 108.032 70.9972 108.458 70.7301C108.887 70.4631 109.226 70.0696 109.476 69.5497C109.729 69.0298 109.856 68.392 109.856 67.6364ZM114.455 72V63.2727H117.404C118.086 63.2727 118.646 63.3892 119.083 63.6222C119.521 63.8523 119.844 64.169 120.055 64.5724C120.265 64.9759 120.37 65.4347 120.37 65.9489C120.37 66.4631 120.265 66.919 120.055 67.3168C119.844 67.7145 119.522 68.027 119.087 68.2543C118.653 68.4787 118.097 68.5909 117.421 68.5909H115.035V67.6364H117.387C117.853 67.6364 118.228 67.5682 118.512 67.4318C118.799 67.2955 119.006 67.1023 119.134 66.8523C119.265 66.5994 119.33 66.2983 119.33 65.9489C119.33 65.5994 119.265 65.294 119.134 65.0327C119.004 64.7713 118.795 64.5696 118.508 64.4276C118.221 64.2827 117.842 64.2102 117.37 64.2102H115.512V72H114.455ZM118.563 68.0795L120.711 72H119.484L117.37 68.0795H118.563ZM126.624 72H123.931V63.2727H126.744C127.59 63.2727 128.315 63.4474 128.917 63.7969C129.519 64.1435 129.981 64.642 130.302 65.2926C130.623 65.9403 130.783 66.7159 130.783 67.6193C130.783 68.5284 130.621 69.3111 130.298 69.9673C129.974 70.6207 129.502 71.1236 128.883 71.4759C128.263 71.8253 127.511 72 126.624 72ZM124.988 71.0625H126.556C127.278 71.0625 127.876 70.9233 128.35 70.6449C128.824 70.3665 129.178 69.9702 129.411 69.456C129.644 68.9418 129.761 68.3295 129.761 67.6193C129.761 66.9148 129.646 66.3082 129.415 65.7997C129.185 65.2884 128.842 64.8963 128.384 64.6236C127.927 64.348 127.357 64.2102 126.675 64.2102H124.988V71.0625ZM134.356 72V63.2727H139.623V64.2102H135.413V67.1591H139.35V68.0966H135.413V71.0625H139.691V72H134.356ZM143.328 72V63.2727H146.277C146.959 63.2727 147.518 63.3892 147.956 63.6222C148.393 63.8523 148.717 64.169 148.927 64.5724C149.138 64.9759 149.243 65.4347 149.243 65.9489C149.243 66.4631 149.138 66.919 148.927 67.3168C148.717 67.7145 148.395 68.027 147.96 68.2543C147.525 68.4787 146.97 68.5909 146.294 68.5909H143.907V67.6364H146.26C146.726 67.6364 147.101 67.5682 147.385 67.4318C147.672 67.2955 147.879 67.1023 148.007 66.8523C148.138 66.5994 148.203 66.2983 148.203 65.9489C148.203 65.5994 148.138 65.294 148.007 65.0327C147.876 64.7713 147.667 64.5696 147.38 64.4276C147.094 64.2827 146.714 64.2102 146.243 64.2102H144.385V72H143.328ZM147.436 68.0795L149.584 72H148.356L146.243 68.0795H147.436Z" fill="white"/>
<path d="M3.83555 102H1.14237V93.2727H3.95487C4.80146 93.2727 5.52589 93.4474 6.12816 93.7969C6.73043 94.1435 7.19208 94.642 7.51311 95.2926C7.83413 95.9403 7.99464 96.7159 7.99464 97.6193C7.99464 98.5284 7.83271 99.3111 7.50884 99.9673C7.18498 100.621 6.71339 101.124 6.09407 101.476C5.47475 101.825 4.72191 102 3.83555 102ZM2.19918 101.062H3.76737C4.48896 101.062 5.08697 100.923 5.5614 100.645C6.03583 100.366 6.38953 99.9702 6.62248 99.456C6.85543 98.9418 6.97191 98.3295 6.97191 97.6193C6.97191 96.9148 6.85686 96.3082 6.62674 95.7997C6.39663 95.2884 6.05288 94.8963 5.59549 94.6236C5.13811 94.348 4.5685 94.2102 3.88668 94.2102H2.19918V101.062ZM11.5674 102V93.2727H16.8344V94.2102H12.6242V97.1591H16.5617V98.0966H12.6242V101.062H16.9026V102H11.5674ZM20.5392 102V93.2727H21.5961V101.062H25.6529V102H20.5392ZM30.1461 93.2727V102H29.0892V93.2727H30.1461ZM34.423 93.2727L37.0139 100.619H37.1162L39.7071 93.2727H40.815L37.6105 102H36.5196L33.315 93.2727H34.423ZM43.9744 102V93.2727H49.2414V94.2102H45.0312V97.1591H48.9687V98.0966H45.0312V101.062H49.3096V102H43.9744ZM52.9463 102V93.2727H55.8951C56.577 93.2727 57.1366 93.3892 57.5741 93.6222C58.0116 93.8523 58.3355 94.169 58.5457 94.5724C58.7559 94.9759 58.861 95.4347 58.861 95.9489C58.861 96.4631 58.7559 96.919 58.5457 97.3168C58.3355 97.7145 58.013 98.027 57.5784 98.2543C57.1437 98.4787 56.5883 98.5909 55.9122 98.5909H53.5258V97.6364H55.8781C56.344 97.6364 56.719 97.5682 57.0031 97.4318C57.29 97.2955 57.4974 97.1023 57.6252 96.8523C57.7559 96.5994 57.8213 96.2983 57.8213 95.9489C57.8213 95.5994 57.7559 95.294 57.6252 95.0327C57.4946 94.7713 57.2858 94.5696 56.9988 94.4276C56.7119 94.2827 56.3326 94.2102 55.861 94.2102H54.0031V102H52.9463ZM57.0542 98.0795L59.202 102H57.9747L55.861 98.0795H57.0542ZM61.3791 93.2727H62.5893L65.0098 97.3466H65.112L67.5325 93.2727H68.7427L65.5893 98.4034V102H64.5325V98.4034L61.3791 93.2727ZM78.1414 93.2727V102H77.0846V93.2727H78.1414ZM88.9808 93.2727V102H87.9581L83.2024 95.1477H83.1172V102H82.0603V93.2727H83.0831L87.8558 100.142H87.941V93.2727H88.9808ZM92.8955 102V93.2727H98.1284V94.2102H93.9523V97.1591H97.7364V98.0966H93.9523V102H92.8955ZM109.102 97.6364C109.102 98.5568 108.936 99.3523 108.604 100.023C108.271 100.693 107.815 101.21 107.236 101.574C106.656 101.938 105.994 102.119 105.25 102.119C104.506 102.119 103.844 101.938 103.264 101.574C102.684 101.21 102.229 100.693 101.896 100.023C101.564 99.3523 101.398 98.5568 101.398 97.6364C101.398 96.7159 101.564 95.9205 101.896 95.25C102.229 94.5795 102.684 94.0625 103.264 93.6989C103.844 93.3352 104.506 93.1534 105.25 93.1534C105.994 93.1534 106.656 93.3352 107.236 93.6989C107.815 94.0625 108.271 94.5795 108.604 95.25C108.936 95.9205 109.102 96.7159 109.102 97.6364ZM108.079 97.6364C108.079 96.8807 107.953 96.2429 107.7 95.723C107.45 95.2031 107.111 94.8097 106.682 94.5426C106.256 94.2756 105.778 94.142 105.25 94.142C104.721 94.142 104.243 94.2756 103.814 94.5426C103.388 94.8097 103.048 95.2031 102.795 95.723C102.545 96.2429 102.42 96.8807 102.42 97.6364C102.42 98.392 102.545 99.0298 102.795 99.5497C103.048 100.07 103.388 100.463 103.814 100.73C104.243 100.997 104.721 101.131 105.25 101.131C105.778 101.131 106.256 100.997 106.682 100.73C107.111 100.463 107.45 100.07 107.7 99.5497C107.953 99.0298 108.079 98.392 108.079 97.6364ZM112.679 102V93.2727H115.628C116.31 93.2727 116.869 93.3892 117.307 93.6222C117.744 93.8523 118.068 94.169 118.279 94.5724C118.489 94.9759 118.594 95.4347 118.594 95.9489C118.594 96.4631 118.489 96.919 118.279 97.3168C118.068 97.7145 117.746 98.027 117.311 98.2543C116.877 98.4787 116.321 98.5909 115.645 98.5909H113.259V97.6364H115.611C116.077 97.6364 116.452 97.5682 116.736 97.4318C117.023 97.2955 117.23 97.1023 117.358 96.8523C117.489 96.5994 117.554 96.2983 117.554 95.9489C117.554 95.5994 117.489 95.294 117.358 95.0327C117.227 94.7713 117.019 94.5696 116.732 94.4276C116.445 94.2827 116.065 94.2102 115.594 94.2102H113.736V102H112.679ZM116.787 98.0795L118.935 102H117.707L115.594 98.0795H116.787ZM122.155 93.2727H123.416L126.382 100.517H126.484L129.45 93.2727H130.712V102H129.723V95.3693H129.638L126.911 102H125.956L123.229 95.3693H123.143V102H122.155V93.2727ZM134.989 102H133.881L137.085 93.2727H138.176L141.381 102H140.273L137.665 94.6534H137.597L134.989 102ZM135.398 98.5909H139.864V99.5284H135.398V98.5909ZM143.043 94.2102V93.2727H149.589V94.2102H146.844V102H145.788V94.2102H143.043ZM154.077 93.2727V102H153.02V93.2727H154.077ZM165.359 97.6364C165.359 98.5568 165.193 99.3523 164.861 100.023C164.528 100.693 164.072 101.21 163.493 101.574C162.913 101.938 162.251 102.119 161.507 102.119C160.763 102.119 160.101 101.938 159.521 101.574C158.942 101.21 158.486 100.693 158.153 100.023C157.821 99.3523 157.655 98.5568 157.655 97.6364C157.655 96.7159 157.821 95.9205 158.153 95.25C158.486 94.5795 158.942 94.0625 159.521 93.6989C160.101 93.3352 160.763 93.1534 161.507 93.1534C162.251 93.1534 162.913 93.3352 163.493 93.6989C164.072 94.0625 164.528 94.5795 164.861 95.25C165.193 95.9205 165.359 96.7159 165.359 97.6364ZM164.336 97.6364C164.336 96.8807 164.21 96.2429 163.957 95.723C163.707 95.2031 163.368 94.8097 162.939 94.5426C162.513 94.2756 162.035 94.142 161.507 94.142C160.978 94.142 160.5 94.2756 160.071 94.5426C159.645 94.8097 159.305 95.2031 159.052 95.723C158.802 96.2429 158.677 96.8807 158.677 97.6364C158.677 98.392 158.802 99.0298 159.052 99.5497C159.305 100.07 159.645 100.463 160.071 100.73C160.5 100.997 160.978 101.131 161.507 101.131C162.035 101.131 162.513 100.997 162.939 100.73C163.368 100.463 163.707 100.07 163.957 99.5497C164.21 99.0298 164.336 98.392 164.336 97.6364ZM175.857 93.2727V102H174.834L170.078 95.1477H169.993V102H168.936V93.2727H169.959L174.732 100.142H174.817V93.2727H175.857Z" fill="white"/>
<path d="M77.3603 132V123.273H82.5933V124.21H78.4172V127.159H82.2012V128.097H78.4172V132H77.3603ZM85.4714 132H84.3635L87.568 123.273H88.6589L91.8635 132H90.7555L88.1475 124.653H88.0794L85.4714 132ZM85.8805 128.591H90.3464V129.528H85.8805V128.591ZM97.7831 129.273H98.9422L99.9138 130.551L100.169 130.892L101.618 132.818H100.459L99.5047 131.54L99.2661 131.216L97.7831 129.273ZM101.976 127.636C101.976 128.557 101.81 129.352 101.478 130.023C101.145 130.693 100.689 131.21 100.11 131.574C99.5303 131.938 98.8684 132.119 98.124 132.119C97.3797 132.119 96.7178 131.938 96.1382 131.574C95.5587 131.21 95.1027 130.693 94.7703 130.023C94.438 129.352 94.2718 128.557 94.2718 127.636C94.2718 126.716 94.438 125.92 94.7703 125.25C95.1027 124.58 95.5587 124.062 96.1382 123.699C96.7178 123.335 97.3797 123.153 98.124 123.153C98.8684 123.153 99.5303 123.335 100.11 123.699C100.689 124.062 101.145 124.58 101.478 125.25C101.81 125.92 101.976 126.716 101.976 127.636ZM100.954 127.636C100.954 126.881 100.827 126.243 100.574 125.723C100.324 125.203 99.9848 124.81 99.5559 124.543C99.1297 124.276 98.6524 124.142 98.124 124.142C97.5956 124.142 97.1169 124.276 96.688 124.543C96.2618 124.81 95.9223 125.203 95.6695 125.723C95.4195 126.243 95.2945 126.881 95.2945 127.636C95.2945 128.392 95.4195 129.03 95.6695 129.55C95.9223 130.07 96.2618 130.463 96.688 130.73C97.1169 130.997 97.5956 131.131 98.124 131.131C98.6524 131.131 99.1297 130.997 99.5559 130.73C99.9848 130.463 100.324 130.07 100.574 129.55C100.827 129.03 100.954 128.392 100.954 127.636Z" fill="white"/>
</svg>
