<svg width="149" height="29" viewBox="0 0 149 29" fill="none" xmlns="http://www.w3.org/2000/svg">
<path d="M10.6279 6.36364C10.6279 5.97538 10.7226 5.62145 10.912 5.30185C11.1014 4.98224 11.3559 4.72775 11.6755 4.53835C11.9951 4.34896 12.349 4.25426 12.7373 4.25426C13.0735 4.25426 13.3836 4.32647 13.6677 4.47088C13.9542 4.61529 14.1909 4.81297 14.3779 5.06392C14.565 5.3125 14.681 5.59422 14.7259 5.90909H13.8666C13.8192 5.66525 13.6878 5.46638 13.4724 5.3125C13.257 5.15625 13.0119 5.07812 12.7373 5.07812C12.5006 5.07812 12.2851 5.13613 12.091 5.25213C11.8969 5.36813 11.7418 5.5232 11.6258 5.71733C11.5098 5.91146 11.4518 6.12689 11.4518 6.36364C11.4518 6.60038 11.5098 6.81581 11.6258 7.00994C11.7418 7.20407 11.8969 7.35914 12.091 7.47514C12.2851 7.59115 12.5006 7.64915 12.7373 7.64915C13.0119 7.64915 13.2439 7.57221 13.4333 7.41832C13.6251 7.26207 13.7458 7.06203 13.7955 6.81818H14.6549C14.6099 7.13305 14.4999 7.41596 14.3247 7.6669C14.1495 7.91548 13.9246 8.11198 13.6499 8.25639C13.3777 8.4008 13.0735 8.47301 12.7373 8.47301C12.349 8.47301 11.9951 8.37831 11.6755 8.18892C11.3559 7.99953 11.1014 7.74503 10.912 7.42543C10.7226 7.10582 10.6279 6.75189 10.6279 6.36364ZM12.7018 10.1136C12.1857 10.1136 11.7004 10.0166 11.2458 9.82244C10.7936 9.62831 10.3947 9.35961 10.0491 9.01634C9.70582 8.67069 9.43593 8.27178 9.23944 7.8196C9.04531 7.36742 8.94943 6.8821 8.95179 6.36364C8.95416 5.84517 9.05241 5.35985 9.24654 4.90767C9.44303 4.45549 9.71292 4.05777 10.0562 3.71449C10.3995 3.36884 10.7972 3.09896 11.2494 2.90483C11.7016 2.7107 12.1857 2.61364 12.7018 2.61364C13.2203 2.61364 13.7056 2.7107 14.1578 2.90483C14.6123 3.09896 15.01 3.36884 15.3509 3.71449C15.6942 4.05777 15.9629 4.45549 16.157 4.90767C16.3512 5.35985 16.4494 5.84517 16.4518 6.36364C16.4542 6.8821 16.3583 7.36742 16.1642 7.8196C15.97 8.27178 15.7013 8.67069 15.358 9.01634C15.0148 9.35961 14.6159 9.62831 14.1613 9.82244C13.7068 10.0166 13.2203 10.1136 12.7018 10.1136ZM12.7018 9.28977C13.1066 9.28977 13.4866 9.21402 13.8417 9.0625C14.1968 8.91098 14.5081 8.70147 14.7757 8.43395C15.0432 8.16643 15.2527 7.8563 15.4042 7.50355C15.5557 7.14844 15.6303 6.76965 15.6279 6.36719C15.6256 5.96236 15.5486 5.58239 15.3971 5.22727C15.2456 4.87216 15.0361 4.56084 14.7686 4.29332C14.501 4.0258 14.1909 3.81629 13.8382 3.66477C13.4854 3.51326 13.1066 3.4375 12.7018 3.4375C12.2993 3.4375 11.9217 3.51326 11.569 3.66477C11.2162 3.81629 10.9061 4.02699 10.6386 4.29688C10.3711 4.56439 10.1604 4.87571 10.0065 5.23082C9.85497 5.58357 9.77802 5.96236 9.77566 6.36719C9.77329 6.76728 9.84786 7.14489 9.99938 7.5C10.1509 7.85275 10.3604 8.16288 10.6279 8.4304C10.8978 8.69792 11.2091 8.90862 11.5619 9.0625C11.917 9.21402 12.297 9.28977 12.7018 9.28977ZM23.8437 10V9.3608L26.2442 6.73295C26.526 6.42519 26.758 6.15767 26.9403 5.9304C27.1225 5.70076 27.2575 5.48532 27.3451 5.28409C27.435 5.08049 27.48 4.86742 27.48 4.64489C27.48 4.3892 27.4185 4.16785 27.2954 3.98082C27.1746 3.7938 27.0089 3.64938 26.7982 3.54759C26.5875 3.44579 26.3508 3.39489 26.088 3.39489C25.8086 3.39489 25.5648 3.45289 25.3564 3.56889C25.1505 3.68253 24.9907 3.84233 24.877 4.0483C24.7658 4.25426 24.7101 4.49574 24.7101 4.77273H23.8721C23.8721 4.34659 23.9703 3.97254 24.1668 3.65057C24.3633 3.3286 24.6308 3.07765 24.9694 2.89773C25.3103 2.7178 25.6926 2.62784 26.1164 2.62784C26.5425 2.62784 26.9201 2.7178 27.2492 2.89773C27.5783 3.07765 27.8363 3.32031 28.0233 3.62571C28.2104 3.93111 28.3039 4.27083 28.3039 4.64489C28.3039 4.91241 28.2554 5.17401 28.1583 5.42969C28.0636 5.683 27.8979 5.96591 27.6611 6.27841C27.4268 6.58854 27.1012 6.96733 26.6846 7.41477L25.051 9.16193V9.21875H28.4317V10H23.8437ZM33.7705 10.0994C33.2355 10.0994 32.7797 9.95384 32.4033 9.66264C32.0269 9.36908 31.7393 8.94413 31.5404 8.38778C31.3415 7.82907 31.2421 7.15436 31.2421 6.36364C31.2421 5.57765 31.3415 4.90649 31.5404 4.35014C31.7416 3.79143 32.0305 3.36529 32.4069 3.07173C32.7857 2.7758 33.2402 2.62784 33.7705 2.62784C34.3008 2.62784 34.7542 2.7758 35.1306 3.07173C35.5094 3.36529 35.7982 3.79143 35.9971 4.35014C36.1983 4.90649 36.2989 5.57765 36.2989 6.36364C36.2989 7.15436 36.1995 7.82907 36.0006 8.38778C35.8018 8.94413 35.5141 9.36908 35.1377 9.66264C34.7613 9.95384 34.3055 10.0994 33.7705 10.0994ZM33.7705 9.31818C34.3008 9.31818 34.7127 9.0625 35.0063 8.55114C35.2999 8.03977 35.4466 7.31061 35.4466 6.36364C35.4466 5.7339 35.3792 5.19768 35.2442 4.75497C35.1117 4.31226 34.9199 3.97491 34.6689 3.7429C34.4204 3.51089 34.1209 3.39489 33.7705 3.39489C33.2449 3.39489 32.8342 3.65412 32.5383 4.17259C32.2423 4.68868 32.0944 5.41903 32.0944 6.36364C32.0944 6.99337 32.1607 7.52841 32.2932 7.96875C32.4258 8.40909 32.6164 8.74408 32.865 8.97372C33.1159 9.20336 33.4178 9.31818 33.7705 9.31818ZM39.1483 10V9.3608L41.5489 6.73295C41.8306 6.42519 42.0626 6.15767 42.2449 5.9304C42.4272 5.70076 42.5622 5.48532 42.6498 5.28409C42.7397 5.08049 42.7847 4.86742 42.7847 4.64489C42.7847 4.3892 42.7232 4.16785 42.6001 3.98082C42.4793 3.7938 42.3136 3.64938 42.1029 3.54759C41.8922 3.44579 41.6555 3.39489 41.3927 3.39489C41.1133 3.39489 40.8695 3.45289 40.6611 3.56889C40.4552 3.68253 40.2954 3.84233 40.1817 4.0483C40.0705 4.25426 40.0148 4.49574 40.0148 4.77273H39.1768C39.1768 4.34659 39.275 3.97254 39.4715 3.65057C39.668 3.3286 39.9355 3.07765 40.2741 2.89773C40.615 2.7178 40.9973 2.62784 41.4211 2.62784C41.8472 2.62784 42.2248 2.7178 42.5539 2.89773C42.883 3.07765 43.141 3.32031 43.328 3.62571C43.5151 3.93111 43.6086 4.27083 43.6086 4.64489C43.6086 4.91241 43.56 5.17401 43.463 5.42969C43.3683 5.683 43.2026 5.96591 42.9658 6.27841C42.7314 6.58854 42.4059 6.96733 41.9893 7.41477L40.3557 9.16193V9.21875H43.7364V10H39.1483ZM49.1178 10.0994C48.8195 10.0947 48.5212 10.0379 48.2229 9.92898C47.9246 9.82008 47.6524 9.6366 47.4062 9.37855C47.1599 9.11813 46.9623 8.76657 46.8131 8.32386C46.664 7.87879 46.5894 7.32008 46.5894 6.64773C46.5894 6.00379 46.6498 5.43324 46.7705 4.93608C46.8912 4.43655 47.0664 4.01634 47.2961 3.67543C47.5257 3.33215 47.8027 3.07173 48.127 2.89418C48.4537 2.71662 48.8219 2.62784 49.2314 2.62784C49.6386 2.62784 50.0009 2.70952 50.3181 2.87287C50.6377 3.03385 50.8981 3.25876 51.0993 3.54759C51.3006 3.83641 51.4308 4.16903 51.49 4.54545H50.6235C50.543 4.21875 50.3867 3.94768 50.1547 3.73224C49.9227 3.51681 49.615 3.40909 49.2314 3.40909C48.668 3.40909 48.2241 3.65412 47.8998 4.14418C47.5778 4.63423 47.4156 5.32197 47.4133 6.20739H47.4701C47.6027 6.00616 47.7601 5.83452 47.9424 5.69247C48.127 5.54806 48.3306 5.43679 48.5532 5.35866C48.7757 5.28054 49.0113 5.24148 49.2599 5.24148C49.6765 5.24148 50.0577 5.34564 50.4033 5.55398C50.749 5.75994 51.026 6.04522 51.2343 6.4098C51.4426 6.77202 51.5468 7.1875 51.5468 7.65625C51.5468 8.10606 51.4462 8.51799 51.2449 8.89205C51.0437 9.26373 50.7608 9.55966 50.3962 9.77983C50.034 9.99763 49.6079 10.1042 49.1178 10.0994ZM49.1178 9.31818C49.4161 9.31818 49.6836 9.24361 49.9204 9.09446C50.1595 8.94531 50.3477 8.74527 50.485 8.49432C50.6247 8.24337 50.6945 7.96402 50.6945 7.65625C50.6945 7.35559 50.627 7.08215 50.4921 6.83594C50.3595 6.58736 50.176 6.38968 49.9417 6.2429C49.7097 6.09612 49.4445 6.02273 49.1462 6.02273C48.9213 6.02273 48.7118 6.06771 48.5177 6.15767C48.3235 6.24527 48.1531 6.366 48.0063 6.51989C47.8619 6.67377 47.7483 6.85014 47.6654 7.04901C47.5825 7.2455 47.5411 7.45265 47.5411 7.67045C47.5411 7.95928 47.6086 8.22917 47.7435 8.48011C47.8808 8.73106 48.0679 8.93348 48.3046 9.08736C48.5437 9.24124 48.8148 9.31818 49.1178 9.31818ZM58.8836 10V2.72727H59.7643V9.21875H63.145V10H58.8836ZM67.5001 10.1278C67.1544 10.1278 66.8408 10.0627 66.559 9.93253C66.2773 9.79995 66.0536 9.60938 65.8879 9.3608C65.7222 9.10985 65.6393 8.80682 65.6393 8.4517C65.6393 8.1392 65.7008 7.88589 65.824 7.69176C65.9471 7.49527 66.1116 7.34138 66.3176 7.23011C66.5235 7.11884 66.7508 7.03598 66.9994 6.98153C67.2503 6.92472 67.5025 6.87973 67.7558 6.84659C68.0872 6.80398 68.3559 6.77202 68.5619 6.75071C68.7702 6.72704 68.9217 6.68797 69.0164 6.63352C69.1135 6.57907 69.162 6.48437 69.162 6.34943V6.32102C69.162 5.97064 69.0661 5.69839 68.8744 5.50426C68.685 5.31013 68.3973 5.21307 68.0115 5.21307C67.6114 5.21307 67.2977 5.30066 67.0704 5.47585C66.8431 5.65104 66.6833 5.83807 66.591 6.03693L65.7955 5.75284C65.9376 5.4214 66.127 5.16335 66.3637 4.97869C66.6028 4.79167 66.8633 4.66146 67.145 4.58807C67.4291 4.51231 67.7084 4.47443 67.983 4.47443C68.1582 4.47443 68.3595 4.49574 68.5867 4.53835C68.8164 4.5786 69.0377 4.66264 69.2508 4.79048C69.4662 4.91832 69.645 5.11127 69.787 5.36932C69.9291 5.62737 70.0001 5.97301 70.0001 6.40625V10H69.162V9.26136H69.1194C69.0626 9.37973 68.9679 9.50639 68.8353 9.64134C68.7027 9.77628 68.5264 9.8911 68.3062 9.9858C68.086 10.0805 67.8173 10.1278 67.5001 10.1278ZM67.6279 9.375C67.9594 9.375 68.2387 9.3099 68.466 9.17969C68.6956 9.04948 68.8685 8.88139 68.9845 8.67543C69.1028 8.46946 69.162 8.25284 69.162 8.02557V7.25852C69.1265 7.30114 69.0484 7.3402 68.9276 7.37571C68.8093 7.40885 68.672 7.43845 68.5157 7.46449C68.3618 7.48816 68.2115 7.50947 68.0647 7.52841C67.9203 7.54498 67.8031 7.55919 67.7132 7.57102C67.4954 7.59943 67.2918 7.6456 67.1024 7.70952C66.9153 7.77107 66.7638 7.86458 66.6478 7.99006C66.5342 8.11316 66.4774 8.28125 66.4774 8.49432C66.4774 8.78551 66.5851 9.00568 66.8005 9.15483C67.0183 9.30161 67.2941 9.375 67.6279 9.375ZM77.4559 10V2.72727H81.8167V3.50852H78.3366V5.96591H81.49V6.74716H78.3366V10H77.4559ZM85.5494 2.72727V10H84.7114V2.72727H85.5494ZM90.8714 10.1136C90.3458 10.1136 89.8924 9.99763 89.5113 9.76562C89.1325 9.53125 88.8401 9.20455 88.6341 8.78551C88.4305 8.36411 88.3287 7.87405 88.3287 7.31534C88.3287 6.75663 88.4305 6.2642 88.6341 5.83807C88.8401 5.40956 89.1266 5.07576 89.4935 4.83665C89.8628 4.59517 90.2937 4.47443 90.7861 4.47443C91.0702 4.47443 91.3508 4.52178 91.6278 4.61648C91.9047 4.71117 92.1569 4.86506 92.3841 5.07812C92.6114 5.28883 92.7925 5.56818 92.9275 5.91619C93.0624 6.2642 93.1299 6.69271 93.1299 7.2017V7.55682H88.9253V6.83239H92.2776C92.2776 6.52462 92.2161 6.25 92.093 6.00852C91.9722 5.76705 91.7994 5.57647 91.5745 5.43679C91.3519 5.29711 91.0892 5.22727 90.7861 5.22727C90.4523 5.22727 90.1635 5.31013 89.9197 5.47585C89.6782 5.6392 89.4923 5.85227 89.3621 6.11506C89.2319 6.37784 89.1668 6.65956 89.1668 6.96023V7.44318C89.1668 7.85511 89.2378 8.20431 89.3799 8.49077C89.5243 8.77486 89.7243 8.99148 89.98 9.14062C90.2357 9.28741 90.5328 9.3608 90.8714 9.3608C91.0915 9.3608 91.2904 9.33002 91.468 9.26847C91.6479 9.20455 91.8029 9.10985 91.9331 8.98438C92.0634 8.85653 92.164 8.69792 92.235 8.50852L93.0447 8.7358C92.9594 9.01042 92.8162 9.25189 92.615 9.46023C92.4137 9.66619 92.1652 9.82718 91.8692 9.94318C91.5733 10.0568 91.2407 10.1136 90.8714 10.1136ZM99.3422 7.76989V4.54545H100.18V10H99.3422V9.0767H99.2854C99.1576 9.35369 98.9587 9.58925 98.6888 9.78338C98.4189 9.97514 98.078 10.071 97.6661 10.071C97.3252 10.071 97.0222 9.99645 96.757 9.8473C96.4919 9.69579 96.2835 9.46851 96.132 9.16548C95.9805 8.86009 95.9047 8.47538 95.9047 8.01136V4.54545H96.7428V7.95455C96.7428 8.35227 96.8541 8.66951 97.0766 8.90625C97.3015 9.14299 97.588 9.26136 97.936 9.26136C98.1443 9.26136 98.3562 9.2081 98.5716 9.10156C98.7894 8.99503 98.9717 8.83168 99.1185 8.61151C99.2677 8.39134 99.3422 8.1108 99.3422 7.76989ZM103.215 10V4.54545H104.025V5.36932H104.082C104.181 5.09943 104.361 4.88045 104.622 4.71236C104.882 4.54427 105.176 4.46023 105.502 4.46023C105.564 4.46023 105.641 4.46141 105.733 4.46378C105.825 4.46615 105.895 4.4697 105.943 4.47443V5.3267C105.914 5.3196 105.849 5.30895 105.747 5.29474C105.648 5.27817 105.542 5.26989 105.431 5.26989C105.166 5.26989 104.929 5.32552 104.721 5.43679C104.515 5.54569 104.352 5.69721 104.231 5.89134C104.113 6.0831 104.053 6.30208 104.053 6.5483V10H103.215ZM112.862 10V2.72727H115.405C115.911 2.72727 116.329 2.81487 116.658 2.99006C116.987 3.16288 117.232 3.39607 117.393 3.68963C117.554 3.98082 117.635 4.30398 117.635 4.65909C117.635 4.97159 117.579 5.22964 117.468 5.43324C117.359 5.63684 117.215 5.79782 117.035 5.91619C116.857 6.03456 116.664 6.12216 116.456 6.17898V6.25C116.678 6.2642 116.902 6.34233 117.127 6.48438C117.352 6.62642 117.54 6.83002 117.692 7.09517C117.843 7.36032 117.919 7.68466 117.919 8.06818C117.919 8.43277 117.836 8.76065 117.67 9.05185C117.505 9.34304 117.243 9.57386 116.886 9.74432C116.528 9.91477 116.063 10 115.49 10H112.862ZM113.743 9.21875H115.49C116.065 9.21875 116.474 9.10748 116.715 8.88494C116.959 8.66004 117.081 8.38778 117.081 8.06818C117.081 7.82197 117.018 7.5947 116.893 7.38636C116.767 7.17566 116.588 7.00758 116.356 6.8821C116.124 6.75426 115.85 6.69034 115.533 6.69034H113.743V9.21875ZM113.743 5.9233H115.376C115.641 5.9233 115.881 5.87121 116.094 5.76705C116.309 5.66288 116.48 5.5161 116.605 5.3267C116.733 5.13731 116.797 4.91477 116.797 4.65909C116.797 4.33949 116.686 4.06842 116.463 3.84588C116.24 3.62098 115.888 3.50852 115.405 3.50852H113.743V5.9233ZM123.039 10.1136C122.514 10.1136 122.06 9.99763 121.679 9.76562C121.3 9.53125 121.008 9.20455 120.802 8.78551C120.599 8.36411 120.497 7.87405 120.497 7.31534C120.497 6.75663 120.599 6.2642 120.802 5.83807C121.008 5.40956 121.295 5.07576 121.661 4.83665C122.031 4.59517 122.462 4.47443 122.954 4.47443C123.238 4.47443 123.519 4.52178 123.796 4.61648C124.073 4.71117 124.325 4.86506 124.552 5.07812C124.779 5.28883 124.96 5.56818 125.095 5.91619C125.23 6.2642 125.298 6.69271 125.298 7.2017V7.55682H121.093V6.83239H124.446C124.446 6.52462 124.384 6.25 124.261 6.00852C124.14 5.76705 123.967 5.57647 123.742 5.43679C123.52 5.29711 123.257 5.22727 122.954 5.22727C122.62 5.22727 122.331 5.31013 122.088 5.47585C121.846 5.6392 121.66 5.85227 121.53 6.11506C121.4 6.37784 121.335 6.65956 121.335 6.96023V7.44318C121.335 7.85511 121.406 8.20431 121.548 8.49077C121.692 8.77486 121.892 8.99148 122.148 9.14062C122.404 9.28741 122.701 9.3608 123.039 9.3608C123.259 9.3608 123.458 9.33002 123.636 9.26847C123.816 9.20455 123.971 9.10985 124.101 8.98438C124.231 8.85653 124.332 8.69792 124.403 8.50852L125.213 8.7358C125.127 9.01042 124.984 9.25189 124.783 9.46023C124.582 9.66619 124.333 9.82718 124.037 9.94318C123.741 10.0568 123.409 10.1136 123.039 10.1136ZM128.911 2.72727V10H128.073V2.72727H128.911ZM132.784 2.72727V10H131.946V2.72727H132.784ZM138.106 10.1136C137.58 10.1136 137.127 9.99763 136.746 9.76562C136.367 9.53125 136.074 9.20455 135.869 8.78551C135.665 8.36411 135.563 7.87405 135.563 7.31534C135.563 6.75663 135.665 6.2642 135.869 5.83807C136.074 5.40956 136.361 5.07576 136.728 4.83665C137.097 4.59517 137.528 4.47443 138.021 4.47443C138.305 4.47443 138.585 4.52178 138.862 4.61648C139.139 4.71117 139.391 4.86506 139.619 5.07812C139.846 5.28883 140.027 5.56818 140.162 5.91619C140.297 6.2642 140.364 6.69271 140.364 7.2017V7.55682H136.16V6.83239H139.512C139.512 6.52462 139.45 6.25 139.327 6.00852C139.207 5.76705 139.034 5.57647 138.809 5.43679C138.586 5.29711 138.324 5.22727 138.021 5.22727C137.687 5.22727 137.398 5.31013 137.154 5.47585C136.913 5.6392 136.727 5.85227 136.597 6.11506C136.466 6.37784 136.401 6.65956 136.401 6.96023V7.44318C136.401 7.85511 136.472 8.20431 136.614 8.49077C136.759 8.77486 136.959 8.99148 137.214 9.14062C137.47 9.28741 137.767 9.3608 138.106 9.3608C138.326 9.3608 138.525 9.33002 138.702 9.26847C138.882 9.20455 139.037 9.10985 139.168 8.98438C139.298 8.85653 139.398 8.69792 139.469 8.50852L140.279 8.7358C140.194 9.01042 140.051 9.25189 139.849 9.46023C139.648 9.66619 139.4 9.82718 139.104 9.94318C138.808 10.0568 138.475 10.1136 138.106 10.1136Z" fill="white"/>
<path d="M3.73171 23.7273H4.69762L5.50728 24.7926L5.72035 25.0767L6.92773 26.6818H5.96183L5.16637 25.6165L4.96751 25.3466L3.73171 23.7273ZM7.22603 22.3636C7.22603 23.1307 7.08754 23.7936 6.81055 24.3523C6.53356 24.911 6.15359 25.3419 5.67063 25.6449C5.18768 25.9479 4.63607 26.0994 4.0158 26.0994C3.39554 26.0994 2.84393 25.9479 2.36097 25.6449C1.87802 25.3419 1.49805 24.911 1.22106 24.3523C0.94407 23.7936 0.805575 23.1307 0.805575 22.3636C0.805575 21.5966 0.94407 20.9337 1.22106 20.375C1.49805 19.8163 1.87802 19.3854 2.36097 19.0824C2.84393 18.7794 3.39554 18.6278 4.0158 18.6278C4.63607 18.6278 5.18768 18.7794 5.67063 19.0824C6.15359 19.3854 6.53356 19.8163 6.81055 20.375C7.08754 20.9337 7.22603 21.5966 7.22603 22.3636ZM6.37376 22.3636C6.37376 21.7339 6.26841 21.2024 6.05771 20.7692C5.84937 20.3359 5.56647 20.008 5.20898 19.7855C4.85387 19.563 4.45614 19.4517 4.0158 19.4517C3.57546 19.4517 3.17655 19.563 2.81907 19.7855C2.46396 20.008 2.18105 20.3359 1.97035 20.7692C1.76201 21.2024 1.65785 21.7339 1.65785 22.3636C1.65785 22.9934 1.76201 23.5249 1.97035 23.9581C2.18105 24.3913 2.46396 24.7192 2.81907 24.9418C3.17655 25.1643 3.57546 25.2756 4.0158 25.2756C4.45614 25.2756 4.85387 25.1643 5.20898 24.9418C5.56647 24.7192 5.84937 24.3913 6.05771 23.9581C6.26841 23.5249 6.37376 22.9934 6.37376 22.3636ZM13.5307 23.7699V20.5455H14.3688V26H13.5307V25.0767H13.4739C13.3461 25.3537 13.1472 25.5893 12.8773 25.7834C12.6074 25.9751 12.2665 26.071 11.8546 26.071C11.5137 26.071 11.2106 25.9964 10.9455 25.8473C10.6803 25.6958 10.472 25.4685 10.3205 25.1655C10.169 24.8601 10.0932 24.4754 10.0932 24.0114V20.5455H10.9313V23.9545C10.9313 24.3523 11.0426 24.6695 11.2651 24.9062C11.49 25.143 11.7765 25.2614 12.1245 25.2614C12.3328 25.2614 12.5447 25.2081 12.7601 25.1016C12.9779 24.995 13.1602 24.8317 13.307 24.6115C13.4561 24.3913 13.5307 24.1108 13.5307 23.7699ZM19.6907 26.1136C19.1651 26.1136 18.7118 25.9976 18.3306 25.7656C17.9518 25.5312 17.6594 25.2045 17.4535 24.7855C17.2499 24.3641 17.1481 23.8741 17.1481 23.3153C17.1481 22.7566 17.2499 22.2642 17.4535 21.8381C17.6594 21.4096 17.9459 21.0758 18.3129 20.8366C18.6822 20.5952 19.113 20.4744 19.6055 20.4744C19.8896 20.4744 20.1701 20.5218 20.4471 20.6165C20.7241 20.7112 20.9762 20.8651 21.2035 21.0781C21.4308 21.2888 21.6119 21.5682 21.7468 21.9162C21.8817 22.2642 21.9492 22.6927 21.9492 23.2017V23.5568H17.7447V22.8324H21.0969C21.0969 22.5246 21.0354 22.25 20.9123 22.0085C20.7915 21.767 20.6187 21.5765 20.3938 21.4368C20.1713 21.2971 19.9085 21.2273 19.6055 21.2273C19.2717 21.2273 18.9828 21.3101 18.739 21.4759C18.4975 21.6392 18.3117 21.8523 18.1815 22.1151C18.0513 22.3778 17.9862 22.6596 17.9862 22.9602V23.4432C17.9862 23.8551 18.0572 24.2043 18.1992 24.4908C18.3436 24.7749 18.5437 24.9915 18.7994 25.1406C19.055 25.2874 19.3522 25.3608 19.6907 25.3608C19.9109 25.3608 20.1097 25.33 20.2873 25.2685C20.4672 25.2045 20.6223 25.1098 20.7525 24.9844C20.8827 24.8565 20.9833 24.6979 21.0543 24.5085L21.864 24.7358C21.7788 25.0104 21.6355 25.2519 21.4343 25.4602C21.2331 25.6662 20.9845 25.8272 20.6886 25.9432C20.3926 26.0568 20.06 26.1136 19.6907 26.1136ZM24.5678 26V25.3608L27.6644 21.3835V21.3267H24.6673V20.5455H28.744V21.2131L25.7326 25.1619V25.2188H28.8434V26H24.5678ZM33.6939 26.1136C33.2015 26.1136 32.7694 25.9964 32.3977 25.7621C32.0284 25.5277 31.7396 25.1998 31.5312 24.7784C31.3253 24.357 31.2223 23.8646 31.2223 23.3011C31.2223 22.733 31.3253 22.237 31.5312 21.8132C31.7396 21.3894 32.0284 21.0604 32.3977 20.826C32.7694 20.5916 33.2015 20.4744 33.6939 20.4744C34.1863 20.4744 34.6172 20.5916 34.9865 20.826C35.3582 21.0604 35.647 21.3894 35.853 21.8132C36.0613 22.237 36.1655 22.733 36.1655 23.3011C36.1655 23.8646 36.0613 24.357 35.853 24.7784C35.647 25.1998 35.3582 25.5277 34.9865 25.7621C34.6172 25.9964 34.1863 26.1136 33.6939 26.1136ZM33.6939 25.3608C34.0679 25.3608 34.3757 25.2649 34.6172 25.0732C34.8587 24.8814 35.0374 24.6293 35.1534 24.3168C35.2694 24.0043 35.3274 23.6657 35.3274 23.3011C35.3274 22.9366 35.2694 22.5968 35.1534 22.282C35.0374 21.9671 34.8587 21.7126 34.6172 21.5185C34.3757 21.3243 34.0679 21.2273 33.6939 21.2273C33.3198 21.2273 33.0121 21.3243 32.7706 21.5185C32.5291 21.7126 32.3504 21.9671 32.2344 22.282C32.1184 22.5968 32.0604 22.9366 32.0604 23.3011C32.0604 23.6657 32.1184 24.0043 32.2344 24.3168C32.3504 24.6293 32.5291 24.8814 32.7706 25.0732C33.0121 25.2649 33.3198 25.3608 33.6939 25.3608ZM39.7828 22.7188V26H38.9448V20.5455H39.7544V21.3977H39.8255C39.9533 21.1207 40.1474 20.8982 40.4078 20.7301C40.6683 20.5597 41.0044 20.4744 41.4164 20.4744C41.7857 20.4744 42.1088 20.5502 42.3858 20.7017C42.6628 20.8509 42.8783 21.0781 43.0321 21.3835C43.186 21.6866 43.263 22.0701 43.263 22.5341V26H42.4249V22.5909C42.4249 22.1624 42.3136 21.8286 42.0911 21.5895C41.8685 21.348 41.5632 21.2273 41.1749 21.2273C40.9074 21.2273 40.6683 21.2853 40.4576 21.4013C40.2492 21.5173 40.0847 21.6866 39.964 21.9091C39.8432 22.1316 39.7828 22.4015 39.7828 22.7188ZM56.5728 21H55.6921C55.64 20.7467 55.5489 20.5241 55.4187 20.3324C55.2908 20.1406 55.1346 19.9796 54.9499 19.8494C54.7676 19.7169 54.5652 19.6174 54.3427 19.5511C54.1201 19.4848 53.8881 19.4517 53.6467 19.4517C53.2063 19.4517 52.8074 19.563 52.4499 19.7855C52.0948 20.008 51.8119 20.3359 51.6012 20.7692C51.3929 21.2024 51.2887 21.7339 51.2887 22.3636C51.2887 22.9934 51.3929 23.5249 51.6012 23.9581C51.8119 24.3913 52.0948 24.7192 52.4499 24.9418C52.8074 25.1643 53.2063 25.2756 53.6467 25.2756C53.8881 25.2756 54.1201 25.2424 54.3427 25.1761C54.5652 25.1098 54.7676 25.0116 54.9499 24.8814C55.1346 24.7488 55.2908 24.5866 55.4187 24.3949C55.5489 24.2008 55.64 23.9782 55.6921 23.7273H56.5728C56.5065 24.099 56.3858 24.4316 56.2106 24.7251C56.0354 25.0187 55.8176 25.2685 55.5572 25.4744C55.2968 25.678 55.0044 25.8331 54.68 25.9396C54.3581 26.0462 54.0136 26.0994 53.6467 26.0994C53.0264 26.0994 52.4748 25.9479 51.9918 25.6449C51.5089 25.3419 51.1289 24.911 50.8519 24.3523C50.5749 23.7936 50.4364 23.1307 50.4364 22.3636C50.4364 21.5966 50.5749 20.9337 50.8519 20.375C51.1289 19.8163 51.5089 19.3854 51.9918 19.0824C52.4748 18.7794 53.0264 18.6278 53.6467 18.6278C54.0136 18.6278 54.3581 18.6811 54.68 18.7876C55.0044 18.8942 55.2968 19.0504 55.5572 19.2564C55.8176 19.46 56.0354 19.7086 56.2106 20.0021C56.3858 20.2933 56.5065 20.6259 56.5728 21ZM59.3823 26V20.5455H60.2203V26H59.3823ZM59.8084 19.6364C59.6451 19.6364 59.5042 19.5807 59.3858 19.4695C59.2698 19.3582 59.2118 19.2244 59.2118 19.0682C59.2118 18.9119 59.2698 18.7782 59.3858 18.6669C59.5042 18.5556 59.6451 18.5 59.8084 18.5C59.9718 18.5 60.1114 18.5556 60.2275 18.6669C60.3458 18.7782 60.405 18.9119 60.405 19.0682C60.405 19.2244 60.3458 19.3582 60.2275 19.4695C60.1114 19.5807 59.9718 19.6364 59.8084 19.6364ZM65.6275 20.5455V21.2557H62.8008V20.5455H65.6275ZM63.6246 19.2386H64.4627V24.4375C64.4627 24.6742 64.497 24.8518 64.5657 24.9702C64.6367 25.0862 64.7267 25.1643 64.8356 25.2045C64.9469 25.2424 65.064 25.2614 65.1871 25.2614C65.2795 25.2614 65.3552 25.2566 65.4144 25.2472C65.4736 25.2353 65.521 25.2259 65.5565 25.2188L65.7269 25.9716C65.6701 25.9929 65.5908 26.0142 65.489 26.0355C65.3872 26.0592 65.2582 26.071 65.1019 26.071C64.8652 26.071 64.6332 26.0201 64.4059 25.9183C64.181 25.8165 63.994 25.6615 63.8448 25.4531C63.698 25.2448 63.6246 24.982 63.6246 24.6648V19.2386ZM68.9279 28.0455C68.7859 28.0455 68.6592 28.0336 68.5479 28.0099C68.4367 27.9886 68.3597 27.9673 68.3171 27.946L68.5302 27.2074C68.7338 27.2595 68.9137 27.2784 69.07 27.2642C69.2262 27.25 69.3647 27.1802 69.4854 27.0547C69.6085 26.9316 69.721 26.7315 69.8228 26.4545L69.979 26.0284L67.962 20.5455H68.8711L70.3768 24.892H70.4336L71.9393 20.5455H72.8484L70.533 26.7955C70.4289 27.0772 70.2998 27.3104 70.146 27.495C69.9921 27.6821 69.8133 27.8205 69.6097 27.9105C69.4085 28.0005 69.1812 28.0455 68.9279 28.0455ZM76.3627 25.0057L76.3059 25.3892C76.2657 25.6591 76.2041 25.9479 76.1213 26.2557C76.0408 26.5634 75.9567 26.8535 75.8691 27.1257C75.7815 27.398 75.7093 27.6146 75.6525 27.7756H75.0133C75.0441 27.6241 75.0843 27.424 75.1341 27.1754C75.1838 26.9268 75.2335 26.6487 75.2832 26.3409C75.3353 26.0355 75.3779 25.723 75.411 25.4034L75.4537 25.0057H76.3627ZM83.8416 26V18.7273H86.299C86.8696 18.7273 87.3359 18.8303 87.6982 19.0362C88.0627 19.2398 88.3326 19.5156 88.5078 19.8636C88.683 20.2116 88.7706 20.5999 88.7706 21.0284C88.7706 21.4569 88.683 21.8464 88.5078 22.1967C88.335 22.5471 88.0675 22.8265 87.7053 23.0348C87.343 23.2408 86.879 23.3438 86.3132 23.3438H84.5518V22.5625H86.2848C86.6754 22.5625 86.9891 22.495 87.2259 22.3601C87.4626 22.2251 87.6342 22.0429 87.7408 21.8132C87.8497 21.5812 87.9041 21.3196 87.9041 21.0284C87.9041 20.7372 87.8497 20.4768 87.7408 20.2472C87.6342 20.0175 87.4614 19.8376 87.2223 19.7074C86.9832 19.5748 86.666 19.5085 86.2706 19.5085H84.7223V26H83.8416ZM92.4137 22.7188V26H91.5756V18.7273H92.4137V21.3977H92.4847C92.6126 21.116 92.8043 20.8923 93.06 20.7266C93.3181 20.5585 93.6613 20.4744 94.0898 20.4744C94.4615 20.4744 94.7871 20.549 95.0664 20.6982C95.3458 20.8449 95.5624 21.071 95.7163 21.3764C95.8725 21.6795 95.9506 22.0653 95.9506 22.5341V26H95.1126V22.5909C95.1126 22.1577 95.0001 21.8227 94.7752 21.5859C94.5527 21.3468 94.2437 21.2273 93.8484 21.2273C93.5737 21.2273 93.3275 21.2853 93.1097 21.4013C92.8943 21.5173 92.7238 21.6866 92.5984 21.9091C92.4753 22.1316 92.4137 22.4015 92.4137 22.7188ZM98.9838 26V20.5455H99.8219V26H98.9838ZM99.41 19.6364C99.2466 19.6364 99.1058 19.5807 98.9874 19.4695C98.8714 19.3582 98.8134 19.2244 98.8134 19.0682C98.8134 18.9119 98.8714 18.7782 98.9874 18.6669C99.1058 18.5556 99.2466 18.5 99.41 18.5C99.5733 18.5 99.713 18.5556 99.829 18.6669C99.9474 18.7782 100.007 18.9119 100.007 19.0682C100.007 19.2244 99.9474 19.3582 99.829 19.4695C99.713 19.5807 99.5733 19.6364 99.41 19.6364ZM103.695 18.7273V26H102.857V18.7273H103.695ZM106.73 26V20.5455H107.568V26H106.73ZM107.156 19.6364C106.993 19.6364 106.852 19.5807 106.733 19.4695C106.617 19.3582 106.559 19.2244 106.559 19.0682C106.559 18.9119 106.617 18.7782 106.733 18.6669C106.852 18.5556 106.993 18.5 107.156 18.5C107.319 18.5 107.459 18.5556 107.575 18.6669C107.693 18.7782 107.753 18.9119 107.753 19.0682C107.753 19.2244 107.693 19.3582 107.575 19.4695C107.459 19.5807 107.319 19.6364 107.156 19.6364ZM110.603 28.0455V20.5455H111.413V21.4119H111.512C111.574 21.3172 111.659 21.1965 111.768 21.0497C111.879 20.9006 112.038 20.768 112.244 20.652C112.452 20.5336 112.734 20.4744 113.089 20.4744C113.548 20.4744 113.953 20.5893 114.303 20.8189C114.654 21.0485 114.927 21.3741 115.124 21.7955C115.32 22.2169 115.418 22.714 115.418 23.2869C115.418 23.8646 115.32 24.3653 115.124 24.7891C114.927 25.2105 114.655 25.5372 114.307 25.7692C113.959 25.9988 113.558 26.1136 113.103 26.1136C112.753 26.1136 112.472 26.0556 112.261 25.9396C112.051 25.8213 111.888 25.6875 111.775 25.5384C111.661 25.3868 111.574 25.2614 111.512 25.1619H111.441V28.0455H110.603ZM111.427 23.2727C111.427 23.6847 111.487 24.0481 111.608 24.3629C111.729 24.6754 111.905 24.9205 112.137 25.098C112.369 25.2732 112.653 25.3608 112.989 25.3608C113.34 25.3608 113.632 25.2685 113.866 25.0838C114.103 24.8968 114.281 24.6458 114.399 24.331C114.52 24.0137 114.58 23.661 114.58 23.2727C114.58 22.8892 114.521 22.5436 114.403 22.2358C114.287 21.9257 114.11 21.6806 113.874 21.5007C113.639 21.3184 113.344 21.2273 112.989 21.2273C112.648 21.2273 112.362 21.3137 112.13 21.4865C111.898 21.657 111.723 21.8961 111.604 22.2038C111.486 22.5092 111.427 22.8655 111.427 23.2727ZM118.197 28.0455V20.5455H119.006V21.4119H119.106C119.167 21.3172 119.253 21.1965 119.362 21.0497C119.473 20.9006 119.631 20.768 119.837 20.652C120.046 20.5336 120.327 20.4744 120.683 20.4744C121.142 20.4744 121.547 20.5893 121.897 20.8189C122.247 21.0485 122.521 21.3741 122.717 21.7955C122.914 22.2169 123.012 22.714 123.012 23.2869C123.012 23.8646 122.914 24.3653 122.717 24.7891C122.521 25.2105 122.249 25.5372 121.901 25.7692C121.553 25.9988 121.151 26.1136 120.697 26.1136C120.346 26.1136 120.066 26.0556 119.855 25.9396C119.644 25.8213 119.482 25.6875 119.369 25.5384C119.255 25.3868 119.167 25.2614 119.106 25.1619H119.035V28.0455H118.197ZM119.021 23.2727C119.021 23.6847 119.081 24.0481 119.202 24.3629C119.322 24.6754 119.499 24.9205 119.731 25.098C119.963 25.2732 120.247 25.3608 120.583 25.3608C120.933 25.3608 121.226 25.2685 121.46 25.0838C121.697 24.8968 121.875 24.6458 121.993 24.331C122.114 24.0137 122.174 23.661 122.174 23.2727C122.174 22.8892 122.115 22.5436 121.996 22.2358C121.88 21.9257 121.704 21.6806 121.467 21.5007C121.233 21.3184 120.938 21.2273 120.583 21.2273C120.242 21.2273 119.956 21.3137 119.724 21.4865C119.492 21.657 119.317 21.8961 119.198 22.2038C119.08 22.5092 119.021 22.8655 119.021 23.2727ZM125.79 26V20.5455H126.629V26H125.79ZM126.217 19.6364C126.053 19.6364 125.912 19.5807 125.794 19.4695C125.678 19.3582 125.62 19.2244 125.62 19.0682C125.62 18.9119 125.678 18.7782 125.794 18.6669C125.912 18.5556 126.053 18.5 126.217 18.5C126.38 18.5 126.52 18.5556 126.636 18.6669C126.754 18.7782 126.813 18.9119 126.813 19.0682C126.813 19.2244 126.754 19.3582 126.636 19.4695C126.52 19.5807 126.38 19.6364 126.217 19.6364ZM130.502 22.7188V26H129.664V20.5455H130.473V21.3977H130.544C130.672 21.1207 130.866 20.8982 131.127 20.7301C131.387 20.5597 131.723 20.4744 132.135 20.4744C132.504 20.4744 132.828 20.5502 133.105 20.7017C133.382 20.8509 133.597 21.0781 133.751 21.3835C133.905 21.6866 133.982 22.0701 133.982 22.5341V26H133.144V22.5909C133.144 22.1624 133.032 21.8286 132.81 21.5895C132.587 21.348 132.282 21.2273 131.894 21.2273C131.626 21.2273 131.387 21.2853 131.176 21.4013C130.968 21.5173 130.803 21.6866 130.683 21.9091C130.562 22.1316 130.502 22.4015 130.502 22.7188ZM139.3 26.1136C138.775 26.1136 138.321 25.9976 137.94 25.7656C137.561 25.5312 137.269 25.2045 137.063 24.7855C136.859 24.3641 136.757 23.8741 136.757 23.3153C136.757 22.7566 136.859 22.2642 137.063 21.8381C137.269 21.4096 137.555 21.0758 137.922 20.8366C138.292 20.5952 138.722 20.4744 139.215 20.4744C139.499 20.4744 139.779 20.5218 140.056 20.6165C140.333 20.7112 140.586 20.8651 140.813 21.0781C141.04 21.2888 141.221 21.5682 141.356 21.9162C141.491 22.2642 141.559 22.6927 141.559 23.2017V23.5568H137.354V22.8324H140.706C140.706 22.5246 140.645 22.25 140.522 22.0085C140.401 21.767 140.228 21.5765 140.003 21.4368C139.781 21.2971 139.518 21.2273 139.215 21.2273C138.881 21.2273 138.592 21.3101 138.348 21.4759C138.107 21.6392 137.921 21.8523 137.791 22.1151C137.661 22.3778 137.596 22.6596 137.596 22.9602V23.4432C137.596 23.8551 137.667 24.2043 137.809 24.4908C137.953 24.7749 138.153 24.9915 138.409 25.1406C138.664 25.2874 138.962 25.3608 139.3 25.3608C139.52 25.3608 139.719 25.33 139.897 25.2685C140.077 25.2045 140.232 25.1098 140.362 24.9844C140.492 24.8565 140.593 24.6979 140.664 24.5085L141.473 24.7358C141.388 25.0104 141.245 25.2519 141.044 25.4602C140.842 25.6662 140.594 25.8272 140.298 25.9432C140.002 26.0568 139.669 26.1136 139.3 26.1136ZM148.197 21.767L147.444 21.9801C147.397 21.8546 147.327 21.7327 147.235 21.6143C147.145 21.4936 147.022 21.3942 146.865 21.3161C146.709 21.2379 146.509 21.1989 146.265 21.1989C145.931 21.1989 145.653 21.2758 145.431 21.4297C145.211 21.5812 145.1 21.7741 145.1 22.0085C145.1 22.2169 145.176 22.3814 145.328 22.5021C145.479 22.6229 145.716 22.7235 146.038 22.804L146.848 23.0028C147.335 23.1212 147.699 23.3023 147.938 23.5462C148.177 23.7876 148.297 24.099 148.297 24.4801C148.297 24.7926 148.207 25.072 148.027 25.3182C147.849 25.5644 147.6 25.7585 147.281 25.9006C146.961 26.0426 146.59 26.1136 146.166 26.1136C145.609 26.1136 145.149 25.9929 144.784 25.7514C144.42 25.5099 144.189 25.1572 144.092 24.6932L144.887 24.4943C144.963 24.7879 145.106 25.008 145.317 25.1548C145.53 25.3016 145.808 25.375 146.152 25.375C146.542 25.375 146.852 25.2921 147.082 25.1264C147.314 24.9583 147.43 24.7571 147.43 24.5227C147.43 24.3333 147.364 24.1747 147.231 24.0469C147.099 23.9167 146.895 23.8196 146.62 23.7557L145.711 23.5426C145.212 23.4242 144.845 23.2408 144.61 22.9922C144.378 22.7412 144.262 22.4276 144.262 22.0511C144.262 21.7434 144.349 21.4711 144.522 21.2344C144.697 20.9976 144.935 20.8118 145.235 20.6768C145.538 20.5419 145.882 20.4744 146.265 20.4744C146.805 20.4744 147.229 20.5928 147.537 20.8295C147.847 21.0663 148.067 21.3788 148.197 21.767Z" fill="white"/>
</svg>
