<svg width="200" height="47" viewBox="0 0 200 47" fill="none" xmlns="http://www.w3.org/2000/svg">
<rect width="200" height="47" rx="23.5" fill="white" fill-opacity="0.1"/>
<rect x="0.5" y="0.5" width="199" height="46" rx="23" stroke="#C3858F" stroke-opacity="0.34"/>
<g filter="url(#filter1_n_51_570)">
<path d="M60.0452 29.1806C59.1935 29.1806 58.4495 28.9914 57.8129 28.6129C57.1763 28.2258 56.6817 27.6839 56.329 26.9871C55.9763 26.2903 55.8 25.4731 55.8 24.5355C55.8 23.572 55.9806 22.729 56.3419 22.0065C56.7118 21.2753 57.2194 20.7075 57.8645 20.3032C58.5097 19.8903 59.2581 19.6839 60.1097 19.6839C60.5226 19.6839 60.8796 19.7269 61.1806 19.8129C61.4817 19.8903 61.7355 19.9892 61.9419 20.1097C62.157 20.2215 62.3419 20.3204 62.4968 20.4065C62.6602 20.4839 62.8065 20.5226 62.9355 20.5226C63.0645 20.5226 63.1634 20.4624 63.2323 20.3419C63.3097 20.2215 63.3656 20.0237 63.4 19.7484H63.9161C63.8989 20.0065 63.886 20.286 63.8774 20.5871C63.8688 20.8796 63.8645 21.2323 63.8645 21.6452C63.8645 22.0581 63.8645 22.5742 63.8645 23.1935H63.3355C63.2495 22.5742 63.0731 22.0452 62.8065 21.6065C62.5398 21.1677 62.2043 20.8323 61.8 20.6C61.4043 20.3677 60.957 20.2516 60.4581 20.2516C59.5548 20.2516 58.8495 20.6172 58.3419 21.3484C57.843 22.0796 57.5935 23.1032 57.5935 24.4194C57.5935 25.7355 57.8473 26.7677 58.3548 27.5161C58.8624 28.2559 59.5634 28.6258 60.4581 28.6258C60.9656 28.6258 61.4215 28.5097 61.8258 28.2774C62.2301 28.0366 62.5613 27.6925 62.8194 27.2452C63.086 26.7978 63.2624 26.2731 63.3484 25.671H63.8645C63.8645 26.2645 63.8645 26.7677 63.8645 27.1806C63.8731 27.5935 63.8817 27.9548 63.8903 28.2645C63.8989 28.5656 63.9075 28.8495 63.9161 29.1161H63.4C63.3656 28.8323 63.314 28.6344 63.2452 28.5226C63.1763 28.4108 63.0731 28.3548 62.9355 28.3548C62.7978 28.3548 62.6473 28.3978 62.4839 28.4839C62.329 28.5613 62.1441 28.6559 61.929 28.7677C61.714 28.8796 61.4516 28.9742 61.1419 29.0516C60.8409 29.1376 60.4753 29.1806 60.0452 29.1806ZM67.6933 29.1806C67.0224 29.1806 66.5062 28.9742 66.145 28.5613C65.7923 28.1398 65.6159 27.5419 65.6159 26.7677V23.9806C65.6159 23.5677 65.517 23.2796 65.3192 23.1161C65.1213 22.9441 64.7815 22.8538 64.2998 22.8452V22.3419C64.4632 22.3505 64.6353 22.3591 64.8159 22.3677C65.0052 22.3763 65.1987 22.3806 65.3966 22.3806C65.7235 22.3806 66.0331 22.3677 66.3256 22.3419C66.6267 22.3075 66.9149 22.2602 67.1901 22.2V26.9355C67.1901 27.4258 67.2847 27.7957 67.474 28.0452C67.6632 28.286 67.9471 28.4065 68.3256 28.4065C68.6267 28.4065 68.9062 28.3204 69.1643 28.1484C69.4224 27.9763 69.646 27.7226 69.8353 27.3871L69.8095 27.9548C69.6116 28.3419 69.3278 28.643 68.9579 28.8581C68.588 29.0731 68.1665 29.1806 67.6933 29.1806ZM69.7579 29.1419V23.9677C69.7579 23.5634 69.6761 23.2796 69.5127 23.1161C69.3493 22.9441 69.0611 22.8538 68.6482 22.8452V22.3419C68.803 22.3505 68.9622 22.3591 69.1256 22.3677C69.289 22.3763 69.4611 22.3806 69.6417 22.3806C69.96 22.3806 70.2568 22.3677 70.5321 22.3419C70.8159 22.3075 71.0826 22.2602 71.3321 22.2V27.3613C71.3321 27.7656 71.431 28.0538 71.6288 28.2258C71.8267 28.3978 72.1622 28.4882 72.6353 28.4968V29C72.4718 28.9828 72.2998 28.9742 72.1192 28.9742C71.9385 28.9656 71.7536 28.9613 71.5643 28.9613C71.2288 28.9613 70.9106 28.9742 70.6095 29C70.317 29.0344 70.0331 29.0817 69.7579 29.1419ZM75.8947 29.1806C75.5248 29.1806 75.2151 29.1419 74.9656 29.0645C74.7162 28.9871 74.5097 28.9097 74.3463 28.8323C74.1828 28.7548 74.0409 28.7161 73.9205 28.7161C73.714 28.7161 73.5635 28.8495 73.4689 29.1161H72.9656C72.9914 28.8925 73.0086 28.6602 73.0172 28.4194C73.0258 28.1699 73.0301 27.8946 73.0301 27.5935C73.0387 27.2839 73.0387 26.9269 73.0301 26.5226H73.5205C73.6581 27.2366 73.9119 27.7742 74.2818 28.1355C74.6516 28.4882 75.1334 28.6645 75.7269 28.6645C76.1484 28.6645 76.471 28.5742 76.6947 28.3935C76.9269 28.2129 77.043 27.9634 77.043 27.6452C77.043 27.3355 76.9183 27.0817 76.6689 26.8839C76.428 26.686 76.0022 26.5011 75.3914 26.329C74.6086 26.0968 74.0366 25.8 73.6753 25.4387C73.314 25.0774 73.1334 24.6258 73.1334 24.0839C73.1334 23.4989 73.3269 23.0344 73.714 22.6903C74.1011 22.3376 74.6215 22.1613 75.2753 22.1613C75.6194 22.1613 75.9076 22.2 76.1398 22.2774C76.3807 22.3462 76.5828 22.4237 76.7463 22.5097C76.9097 22.5871 77.0559 22.6258 77.185 22.6258C77.271 22.6258 77.3441 22.5957 77.4043 22.5355C77.4645 22.4667 77.5162 22.3634 77.5592 22.2258H78.0624C78.0452 22.4151 78.0323 22.6129 78.0237 22.8194C78.0151 23.0172 78.0065 23.2495 77.9979 23.5161C77.9979 23.7742 78.0022 24.0968 78.0108 24.4839H77.5076C77.3957 23.9075 77.1592 23.4602 76.7979 23.1419C76.4366 22.8237 76.0022 22.6645 75.4947 22.6645C75.142 22.6645 74.8667 22.7462 74.6689 22.9097C74.471 23.0731 74.3721 23.3054 74.3721 23.6065C74.3721 23.9161 74.5054 24.1785 74.7721 24.3935C75.0387 24.6 75.499 24.7978 76.1527 24.9871C76.9011 25.1935 77.443 25.4645 77.7785 25.8C78.114 26.1269 78.2818 26.5656 78.2818 27.1161C78.2818 27.7613 78.0667 28.2688 77.6366 28.6387C77.2151 29 76.6344 29.1806 75.8947 29.1806ZM81.8902 29.1806C81.2279 29.1806 80.7289 28.9957 80.3934 28.6258C80.0666 28.2473 79.9031 27.6839 79.9031 26.9355V22.8452H78.4322V22.3419H79.9031V20.4323C80.2042 20.4323 80.4838 20.4151 80.7418 20.3806C80.9999 20.3376 81.2408 20.2817 81.4644 20.2129V22.3419H83.5289V22.8452H81.4644V27.3355C81.4644 27.6968 81.5375 27.9634 81.6838 28.1355C81.83 28.3075 82.0494 28.3935 82.3418 28.3935C82.6171 28.3935 82.8451 28.3075 83.0257 28.1355C83.215 27.9634 83.3655 27.7054 83.4773 27.3613L83.8773 27.5161C83.7139 28.0925 83.473 28.514 83.1547 28.7806C82.8365 29.0473 82.415 29.1806 81.8902 29.1806ZM87.0262 29.1806C86.4069 29.1806 85.852 29.0559 85.3617 28.8065C84.88 28.5484 84.4972 28.1613 84.2133 27.6452C83.938 27.129 83.8004 26.471 83.8004 25.671C83.8004 24.871 83.938 24.2129 84.2133 23.6968C84.4972 23.172 84.88 22.7849 85.3617 22.5355C85.852 22.286 86.4112 22.1613 87.0391 22.1613C87.6671 22.1613 88.2219 22.286 88.7036 22.5355C89.1853 22.7849 89.5638 23.172 89.8391 23.6968C90.123 24.2129 90.2649 24.871 90.2649 25.671C90.2649 26.471 90.123 27.129 89.8391 27.6452C89.5638 28.1613 89.181 28.5484 88.6907 28.8065C88.209 29.0559 87.6542 29.1806 87.0262 29.1806ZM87.0391 28.6774C87.495 28.6774 87.8692 28.4409 88.1617 27.9677C88.4542 27.486 88.6004 26.7204 88.6004 25.671C88.6004 24.6129 88.4499 23.8473 88.1488 23.3742C87.8563 22.8925 87.4864 22.6516 87.0391 22.6516C86.5746 22.6516 86.1918 22.8925 85.8907 23.3742C85.5983 23.8473 85.452 24.6129 85.452 25.671C85.452 26.7204 85.5983 27.486 85.8907 27.9677C86.1918 28.4409 86.5746 28.6774 87.0391 28.6774ZM99.3128 29V28.4968C99.6311 28.4882 99.8504 28.4194 99.9709 28.2903C100.091 28.1527 100.152 27.9118 100.152 27.5677V24.4194C100.152 23.929 100.057 23.5591 99.8676 23.3097C99.687 23.0602 99.416 22.9355 99.0547 22.9355C98.7451 22.9355 98.4483 23.0301 98.1644 23.2194C97.8891 23.4086 97.6483 23.714 97.4418 24.1355L97.3773 23.6839C97.6096 23.1505 97.9322 22.7634 98.3451 22.5226C98.758 22.2817 99.2053 22.1613 99.687 22.1613C100.341 22.1613 100.84 22.3677 101.184 22.7806C101.536 23.1935 101.713 23.7871 101.713 24.5613V27.5677C101.713 27.9118 101.807 28.1527 101.997 28.2903C102.195 28.4194 102.539 28.4882 103.029 28.4968V29C102.9 28.9914 102.719 28.9871 102.487 28.9871C102.263 28.9785 102.018 28.9699 101.752 28.9613C101.485 28.9527 101.222 28.9484 100.964 28.9484C100.646 28.9484 100.332 28.957 100.022 28.9742C99.7128 28.9828 99.4762 28.9914 99.3128 29ZM90.6289 29V28.4968C91.1193 28.4882 91.459 28.4194 91.6483 28.2903C91.8375 28.1527 91.9322 27.9118 91.9322 27.5677V23.9806C91.9322 23.5677 91.8332 23.2796 91.6354 23.1161C91.4461 22.9441 91.1107 22.8538 90.6289 22.8452V22.3419C90.8096 22.3505 90.9902 22.3591 91.1709 22.3677C91.3515 22.3763 91.5365 22.3806 91.7257 22.3806C92.0612 22.3806 92.3752 22.3677 92.6676 22.3419C92.9687 22.3075 93.2483 22.2602 93.5064 22.2V27.5677C93.5064 27.9118 93.5666 28.1527 93.687 28.2903C93.8074 28.4194 94.0225 28.4882 94.3322 28.4968V29C94.1515 28.9914 93.915 28.9828 93.6225 28.9742C93.3386 28.957 93.0375 28.9484 92.7193 28.9484C92.358 28.9484 91.9795 28.957 91.5838 28.9742C91.1967 28.9828 90.8784 28.9914 90.6289 29ZM95.2096 29V28.4968C95.5279 28.4882 95.7429 28.4194 95.8547 28.2903C95.9752 28.1527 96.0354 27.9118 96.0354 27.5677V24.4194C96.0354 23.929 95.9451 23.5591 95.7644 23.3097C95.5838 23.0602 95.3128 22.9355 94.9515 22.9355C94.6504 22.9355 94.3709 23.0215 94.1128 23.1935C93.8547 23.3656 93.6311 23.6194 93.4418 23.9548V23.4C93.6483 23.0043 93.9408 22.6989 94.3193 22.4839C94.6977 22.2688 95.1236 22.1613 95.5967 22.1613C96.2418 22.1613 96.7365 22.3677 97.0805 22.7806C97.4332 23.1849 97.6096 23.7699 97.6096 24.5355V27.5677C97.6096 27.9118 97.6698 28.1527 97.7902 28.2903C97.9107 28.4194 98.13 28.4882 98.4483 28.4968V29C98.302 28.9914 98.0741 28.9828 97.7644 28.9742C97.4547 28.957 97.1494 28.9484 96.8483 28.9484C96.5386 28.9484 96.2289 28.957 95.9193 28.9742C95.6096 28.9828 95.373 28.9914 95.2096 29ZM110.34 29.1806C109.42 29.1806 108.616 28.9914 107.928 28.6129C107.239 28.2258 106.702 27.6796 106.315 26.9742C105.936 26.2688 105.747 25.4344 105.747 24.471C105.747 23.5247 105.94 22.6946 106.328 21.9806C106.715 21.2581 107.252 20.6946 107.94 20.2903C108.637 19.886 109.442 19.6839 110.353 19.6839C111.274 19.6839 112.078 19.8774 112.766 20.2645C113.454 20.643 113.988 21.1849 114.366 21.8903C114.745 22.5871 114.934 23.4215 114.934 24.3935C114.934 25.3398 114.74 26.1742 114.353 26.8968C113.975 27.6108 113.437 28.1699 112.74 28.5742C112.052 28.9785 111.252 29.1806 110.34 29.1806ZM110.366 28.7032C110.917 28.7032 111.398 28.5269 111.811 28.1742C112.233 27.8129 112.56 27.3097 112.792 26.6645C113.024 26.0194 113.14 25.271 113.14 24.4194C113.14 23.5505 113.016 22.7978 112.766 22.1613C112.517 21.5247 112.177 21.0344 111.747 20.6903C111.325 20.3376 110.848 20.1613 110.315 20.1613C109.773 20.1613 109.291 20.3419 108.869 20.7032C108.457 21.0559 108.13 21.5548 107.889 22.2C107.657 22.8366 107.54 23.5849 107.54 24.4452C107.54 25.314 107.665 26.0667 107.915 26.7032C108.164 27.3398 108.504 27.8344 108.934 28.1871C109.364 28.5312 109.842 28.7032 110.366 28.7032ZM115.354 29V28.4968C115.853 28.4882 116.193 28.4194 116.373 28.2903C116.563 28.1527 116.657 27.9118 116.657 27.5677V23.9806C116.657 23.5763 116.558 23.2882 116.36 23.1161C116.163 22.9441 115.827 22.8538 115.354 22.8452V22.3419C115.569 22.3505 115.763 22.3591 115.935 22.3677C116.107 22.3763 116.292 22.3806 116.489 22.3806C117.143 22.3806 117.724 22.3204 118.231 22.2V27.4774C118.231 27.8473 118.356 28.1097 118.606 28.2645C118.855 28.4108 119.289 28.4882 119.909 28.4968V29C119.754 28.9914 119.539 28.9871 119.264 28.9871C118.997 28.9785 118.704 28.9699 118.386 28.9613C118.077 28.9527 117.775 28.9484 117.483 28.9484C117.053 28.9484 116.64 28.957 116.244 28.9742C115.849 28.9828 115.552 28.9914 115.354 29ZM120.515 24.6129C120.309 24.6129 120.141 24.557 120.012 24.4452C119.892 24.3333 119.831 24.1828 119.831 23.9935C119.831 23.8731 119.853 23.7656 119.896 23.671C119.947 23.5763 119.995 23.486 120.038 23.4C120.081 23.314 120.102 23.228 120.102 23.1419C120.102 22.9613 119.973 22.871 119.715 22.871C119.526 22.871 119.328 22.9183 119.122 23.0129C118.924 23.1075 118.739 23.2366 118.567 23.4C118.403 23.5548 118.279 23.7355 118.193 23.9419L118.167 23.4C118.382 23.0129 118.666 22.7118 119.018 22.4968C119.38 22.2731 119.758 22.1613 120.154 22.1613C120.558 22.1613 120.877 22.2774 121.109 22.5097C121.35 22.7419 121.47 23.0602 121.47 23.4645C121.47 23.8086 121.38 24.0882 121.199 24.3032C121.027 24.5097 120.799 24.6129 120.515 24.6129ZM126.328 29.1419V20.6774C126.328 20.2731 126.229 19.9849 126.031 19.8129C125.833 19.6409 125.494 19.5505 125.012 19.5419V19.0387C125.201 19.0473 125.382 19.0559 125.554 19.0645C125.734 19.0731 125.924 19.0774 126.122 19.0774C126.448 19.0774 126.762 19.0645 127.064 19.0387C127.365 19.0043 127.64 18.957 127.889 18.8968V27.3613C127.889 27.757 127.988 28.0452 128.186 28.2258C128.384 28.3978 128.724 28.4882 129.205 28.4968V29C129.025 28.9828 128.844 28.9742 128.664 28.9742C128.483 28.9656 128.294 28.9613 128.096 28.9613C127.777 28.9613 127.468 28.9742 127.167 29C126.866 29.0344 126.586 29.0817 126.328 29.1419ZM124.367 29.1806C123.808 29.1806 123.322 29.043 122.909 28.7677C122.504 28.4839 122.19 28.0839 121.967 27.5677C121.752 27.0516 121.644 26.4409 121.644 25.7355C121.644 24.9871 121.765 24.3462 122.005 23.8129C122.246 23.2796 122.595 22.871 123.051 22.5871C123.507 22.3032 124.044 22.1613 124.664 22.1613C125.137 22.1613 125.532 22.2516 125.851 22.4323C126.177 22.6129 126.401 22.8409 126.522 23.1161L126.431 23.5677C126.328 23.3355 126.156 23.1462 125.915 23C125.683 22.8538 125.403 22.7806 125.076 22.7806C124.5 22.7806 124.057 23.0258 123.747 23.5161C123.446 24.0065 123.296 24.7204 123.296 25.6581C123.296 26.5613 123.433 27.2538 123.709 27.7355C123.993 28.2086 124.401 28.4452 124.934 28.4452C125.279 28.4452 125.58 28.3333 125.838 28.1097C126.104 27.8774 126.298 27.5548 126.418 27.1419L126.483 27.6194C126.345 28.1183 126.091 28.5054 125.722 28.7806C125.36 29.0473 124.909 29.1806 124.367 29.1806ZM132.56 29.1806C131.924 29.1806 131.369 29.043 130.896 28.7677C130.431 28.4839 130.07 28.0796 129.812 27.5548C129.563 27.0301 129.438 26.4065 129.438 25.6839C129.438 24.9441 129.567 24.3118 129.825 23.7871C130.092 23.2624 130.47 22.8624 130.96 22.5871C131.451 22.3032 132.027 22.1613 132.69 22.1613C133.274 22.1613 133.773 22.2731 134.186 22.4968C134.599 22.7118 134.913 23.0516 135.128 23.5161C135.352 23.9806 135.455 24.5828 135.438 25.3226H130.535L130.509 24.8323H133.954C133.963 24.4108 133.92 24.0366 133.825 23.7097C133.739 23.3828 133.597 23.1247 133.399 22.9355C133.201 22.7462 132.948 22.6516 132.638 22.6516C132.242 22.6516 131.898 22.8366 131.606 23.2065C131.313 23.5677 131.141 24.1441 131.09 24.9355L131.115 24.9742C131.107 25.0602 131.098 25.1505 131.09 25.2452C131.09 25.3398 131.09 25.4473 131.09 25.5677C131.09 26.4452 131.257 27.129 131.593 27.6194C131.928 28.1011 132.414 28.3419 133.051 28.3419C133.481 28.3419 133.855 28.2387 134.173 28.0323C134.5 27.8172 134.776 27.486 134.999 27.0387L135.451 27.3097C135.21 27.9032 134.84 28.3634 134.341 28.6903C133.842 29.0172 133.249 29.1806 132.56 29.1806ZM135.813 29V28.4968C136.312 28.4882 136.652 28.4194 136.833 28.2903C137.022 28.1527 137.117 27.9118 137.117 27.5677V23.9806C137.117 23.5763 137.018 23.2882 136.82 23.1161C136.622 22.9441 136.286 22.8538 135.813 22.8452V22.3419C136.028 22.3505 136.222 22.3591 136.394 22.3677C136.566 22.3763 136.751 22.3806 136.949 22.3806C137.603 22.3806 138.183 22.3204 138.691 22.2V27.4774C138.691 27.8473 138.815 28.1097 139.065 28.2645C139.314 28.4108 139.749 28.4882 140.368 28.4968V29C140.213 28.9914 139.998 28.9871 139.723 28.9871C139.456 28.9785 139.164 28.9699 138.846 28.9613C138.536 28.9527 138.235 28.9484 137.942 28.9484C137.512 28.9484 137.099 28.957 136.704 28.9742C136.308 28.9828 136.011 28.9914 135.813 29ZM140.975 24.6129C140.768 24.6129 140.6 24.557 140.471 24.4452C140.351 24.3333 140.291 24.1828 140.291 23.9935C140.291 23.8731 140.312 23.7656 140.355 23.671C140.407 23.5763 140.454 23.486 140.497 23.4C140.54 23.314 140.562 23.228 140.562 23.1419C140.562 22.9613 140.433 22.871 140.175 22.871C139.985 22.871 139.787 22.9183 139.581 23.0129C139.383 23.1075 139.198 23.2366 139.026 23.4C138.863 23.5548 138.738 23.7355 138.652 23.9419L138.626 23.4C138.841 23.0129 139.125 22.7118 139.478 22.4968C139.839 22.2731 140.218 22.1613 140.613 22.1613C141.018 22.1613 141.336 22.2774 141.568 22.5097C141.809 22.7419 141.929 23.0602 141.929 23.4645C141.929 23.8086 141.839 24.0882 141.658 24.3032C141.486 24.5097 141.258 24.6129 140.975 24.6129Z" fill="#4A664A"/>
</g>
<defs>
<filter id="filter1_n_51_570" x="55.8" y="18.8968" width="86.1294" height="10.2839" filterUnits="userSpaceOnUse" color-interpolation-filters="sRGB">
<feFlood flood-opacity="0" result="BackgroundImageFix"/>
<feBlend mode="normal" in="SourceGraphic" in2="BackgroundImageFix" result="shape"/>
<feTurbulence type="fractalNoise" baseFrequency="2 2" stitchTiles="stitch" numOctaves="3" result="noise" seed="1061" />
<feComponentTransfer in="noise" result="coloredNoise1">
<feFuncR type="linear" slope="2" intercept="-0.5" />
<feFuncG type="linear" slope="2" intercept="-0.5" />
<feFuncB type="linear" slope="2" intercept="-0.5" />
<feFuncA type="discrete" tableValues="1 1 1 1 1 1 1 1 1 1 1 1 1 1 1 1 1 1 1 1 1 1 1 1 1 1 1 1 1 1 1 1 1 1 1 1 1 1 1 1 1 1 1 1 1 1 1 1 1 1 1 0 0 0 0 0 0 0 0 0 0 0 0 0 0 0 0 0 0 0 0 0 0 0 0 0 0 0 0 0 0 0 0 0 0 0 0 0 0 0 0 0 0 0 0 0 0 0 0 0 "/>
</feComponentTransfer>
<feComposite operator="in" in2="shape" in="coloredNoise1" result="noise1Clipped" />
<feComponentTransfer in="noise1Clipped" result="color1">
<feFuncA type="table" tableValues="0 0.15" />
</feComponentTransfer>
<feMerge result="effect1_noise_51_570">
<feMergeNode in="shape" />
<feMergeNode in="color1" />
</feMerge>
</filter>
</defs>
</svg>
