<svg width="131" height="17" viewBox="0 0 131 17" fill="none" xmlns="http://www.w3.org/2000/svg">
<g clip-path="url(#clip0_51_588)">
<path d="M71.0886 10.3823C71.0594 10.3646 71.0295 10.3473 70.9993 10.3302C69.9915 9.76202 69.0211 9.49688 68.1787 9.39784C68.7176 9.27114 69.3703 9.10739 70.1629 8.89763C72.6365 8.24291 72.8656 5.25779 72.8656 5.25779C72.8656 5.25779 70.8817 4.02188 68.9686 5.15251C67.9727 5.74111 67.2578 6.44916 66.751 7.12899C66.9106 6.59902 67.0952 5.95179 67.3098 5.16052C67.3203 5.12199 67.33 5.08355 67.339 5.04538C67.8314 2.94424 66.0694 1.42857 65.6139 1.07745C65.5477 1.02643 65.5091 1 65.5091 1C65.5091 1 65.491 1.00969 65.4582 1.02895C65.1407 1.21613 63.4488 2.30851 63.4693 4.32231C63.4811 5.4792 63.7368 6.45221 64.0722 7.23114C63.7532 6.89191 63.3715 6.49618 62.9141 6.03276C62.8277 5.94526 62.7387 5.85532 62.6469 5.76289C62.6186 5.73458 62.5903 5.70695 62.5617 5.68012C61.1695 4.37325 59.2921 4.82393 58.5097 5.0968C58.5001 5.10013 58.4907 5.10341 58.4815 5.10669C58.3768 5.14386 58.2933 5.17718 58.2356 5.20144C58.2185 5.20869 58.2036 5.21506 58.1911 5.22059C58.1598 5.23424 58.1434 5.24213 58.1434 5.24213C58.1434 5.24213 58.141 5.31117 58.147 5.43099C58.1753 5.99756 58.3893 7.70008 59.9114 8.61774C59.9406 8.63536 59.9704 8.65274 60.0007 8.6698C61.0084 9.23798 61.979 9.50308 62.8213 9.60212C62.2824 9.72886 61.6296 9.89261 60.837 10.1023C60.7984 10.1126 60.7603 10.1234 60.7227 10.1348C58.732 10.7362 58.2588 12.8788 58.1587 13.5438C58.1398 13.6692 58.1343 13.7421 58.1343 13.7421C58.1343 13.7421 58.1517 13.753 58.1849 13.7718C58.2015 13.7812 58.222 13.7925 58.2463 13.8055C58.2624 13.8141 58.2802 13.8234 58.2997 13.8334C58.7948 14.0871 60.3254 14.7326 61.8519 13.9467C61.9118 13.9159 61.9715 13.8828 62.0313 13.8475C63.0273 13.2588 63.7421 12.5508 64.249 11.871C64.0893 12.4009 63.9048 13.0482 63.6902 13.8395C63.6797 13.878 63.67 13.9165 63.661 13.9546C63.3762 15.1701 63.8458 16.1896 64.3804 16.9012C64.3893 16.9129 64.3982 16.9245 64.4071 16.9362C64.4433 16.9834 64.4796 17.0292 64.5161 17.0736C64.5529 17.1186 64.5898 17.162 64.6265 17.204C64.7338 17.3266 64.8396 17.4366 64.9384 17.5325C65.0401 17.6313 65.1341 17.7152 65.2149 17.7837C65.2263 17.7934 65.2375 17.8028 65.2484 17.8118C65.2782 17.8367 65.3062 17.8595 65.3314 17.8796C65.3513 17.8955 65.3695 17.9097 65.3861 17.9226C65.4524 17.9734 65.4909 18 65.4909 18C65.4909 18 65.5091 17.9903 65.5419 17.971C65.8593 17.7838 67.5512 16.6915 67.5307 14.6776C67.5189 13.5207 67.2632 12.5477 66.9278 11.7688C67.307 12.172 67.7752 12.6556 68.3531 13.237C68.3814 13.2653 68.4098 13.293 68.4383 13.3198C69.1821 14.0181 70.0646 14.2146 70.8444 14.2045C71.5643 14.1953 72.1969 14.0101 72.5526 13.8811C72.6415 13.8488 72.7131 13.8201 72.7645 13.7986C72.7815 13.7913 72.7965 13.7849 72.8089 13.7794C72.8401 13.7658 72.8566 13.7578 72.8566 13.7578C72.8566 13.7578 72.8589 13.6888 72.853 13.569C72.8247 13.0024 72.6106 11.2999 71.0886 10.3823ZM65.9379 10.2584H65.0621L64.6242 9.5L65.0621 8.74157H65.9379L66.3757 9.5L65.9379 10.2584Z" fill="#6A422C"/>
</g>
<rect y="9" width="48" height="1" fill="#6A422C"/>
<rect x="83" y="9" width="48" height="1" fill="#6A422C"/>
<defs>
<clipPath id="clip0_51_588">
<rect width="17" height="17" fill="white" transform="translate(57)"/>
</clipPath>
</defs>
</svg>
