<svg width="108" height="24" viewBox="0 0 108 24" fill="none" xmlns="http://www.w3.org/2000/svg">
<path d="M19.6531 8.72705V-0.000222206H25.244V1.32506H21.234V3.69438H24.8605V5.01966H21.234V8.72705H19.6531ZM30.2411 8.85915C29.8263 8.85915 29.4527 8.78529 29.1203 8.63756C28.7908 8.48699 28.5294 8.2654 28.3362 7.97279C28.1459 7.68018 28.0507 7.31938 28.0507 6.8904C28.0507 6.52108 28.1189 6.21569 28.2553 5.97421C28.3916 5.73273 28.5777 5.53955 28.8135 5.39466C29.0493 5.24978 29.3149 5.1404 29.6104 5.06654C29.9087 4.98983 30.2169 4.93444 30.5351 4.90035C30.9186 4.86057 31.2297 4.82506 31.4684 4.79381C31.707 4.75972 31.8803 4.70858 31.9882 4.6404C32.099 4.56938 32.1544 4.46001 32.1544 4.31228V4.28671C32.1544 3.96569 32.0593 3.71711 31.8689 3.54097C31.6786 3.36483 31.4044 3.27677 31.0465 3.27677C30.6686 3.27677 30.3689 3.35915 30.1473 3.52393C29.9286 3.6887 29.7809 3.8833 29.7041 4.10773L28.2638 3.90319C28.3774 3.50546 28.5649 3.17307 28.8263 2.90603C29.0877 2.63614 29.4073 2.43444 29.7851 2.30091C30.163 2.16455 30.5806 2.09637 31.038 2.09637C31.3533 2.09637 31.6672 2.1333 31.9797 2.20716C32.2922 2.28103 32.5777 2.40319 32.8362 2.57364C33.0948 2.74126 33.3022 2.96995 33.4584 3.25972C33.6175 3.54949 33.697 3.91171 33.697 4.34637V8.72705H32.2141V7.8279H32.163C32.0692 8.00972 31.9371 8.18018 31.7666 8.33927C31.599 8.49552 31.3874 8.62194 31.1317 8.71853C30.8789 8.81228 30.582 8.85915 30.2411 8.85915ZM30.6416 7.72563C30.9513 7.72563 31.2198 7.66455 31.447 7.54239C31.6743 7.41739 31.849 7.25262 31.9712 7.04807C32.0962 6.84353 32.1587 6.62052 32.1587 6.37904V5.60773C32.1104 5.64751 32.028 5.68444 31.9115 5.71853C31.7979 5.75262 31.6701 5.78245 31.528 5.80802C31.386 5.83358 31.2453 5.85631 31.1061 5.8762C30.9669 5.89608 30.8462 5.91313 30.7439 5.92733C30.5138 5.95858 30.3078 6.00972 30.126 6.08074C29.9442 6.15177 29.8007 6.2512 29.6956 6.37904C29.5905 6.50404 29.538 6.66597 29.538 6.86483C29.538 7.14893 29.6416 7.36341 29.849 7.5083C30.0564 7.65319 30.3206 7.72563 30.6416 7.72563ZM39.9033 8.85489C39.2499 8.85489 38.6888 8.71143 38.2201 8.42449C37.7541 8.13756 37.3948 7.74126 37.1419 7.23557C36.8919 6.72705 36.7669 6.14182 36.7669 5.47989C36.7669 4.81512 36.8948 4.22847 37.1505 3.71995C37.4061 3.20858 37.7669 2.81086 38.2328 2.52677C38.7016 2.23983 39.2556 2.09637 39.8948 2.09637C40.426 2.09637 40.8962 2.19438 41.3053 2.3904C41.7172 2.58358 42.0453 2.85773 42.2897 3.21285C42.534 3.56512 42.6732 3.97705 42.7073 4.44864H41.2328C41.1732 4.1333 41.0311 3.87052 40.8067 3.66029C40.5851 3.44722 40.2882 3.34069 39.9161 3.34069C39.6007 3.34069 39.3238 3.42591 39.0851 3.59637C38.8465 3.76398 38.6604 4.00546 38.5269 4.3208C38.3962 4.63614 38.3309 5.01398 38.3309 5.45432C38.3309 5.90035 38.3962 6.28387 38.5269 6.60489C38.6576 6.92307 38.8408 7.16881 39.0766 7.34211C39.3152 7.51256 39.5951 7.59779 39.9161 7.59779C40.1434 7.59779 40.3465 7.55518 40.5255 7.46995C40.7073 7.38188 40.8593 7.25546 40.9814 7.09069C41.1036 6.92591 41.1874 6.72563 41.2328 6.48983H42.7073C42.6703 6.9529 42.534 7.36341 42.2982 7.72137C42.0624 8.07648 41.7414 8.35489 41.3351 8.5566C40.9289 8.75546 40.4516 8.85489 39.9033 8.85489ZM48.6717 8.85489C48.0154 8.85489 47.4487 8.71853 46.9714 8.4458C46.497 8.17023 46.1319 7.78103 45.8762 7.27819C45.6206 6.77251 45.4927 6.17733 45.4927 5.49268C45.4927 4.81938 45.6206 4.22847 45.8762 3.71995C46.1348 3.20858 46.4956 2.81086 46.9586 2.52677C47.4217 2.23983 47.9657 2.09637 48.5907 2.09637C48.9941 2.09637 49.3748 2.16171 49.7328 2.29239C50.0936 2.42023 50.4117 2.6191 50.6873 2.88898C50.9657 3.15887 51.1845 3.50262 51.3436 3.92023C51.5027 4.33501 51.5822 4.82932 51.5822 5.40319V5.8762H46.2171V4.83643H50.1035C50.1007 4.54097 50.0367 4.27819 49.9117 4.04807C49.7867 3.81512 49.612 3.63188 49.3876 3.49836C49.166 3.36483 48.9075 3.29807 48.612 3.29807C48.2967 3.29807 48.0197 3.37478 47.7811 3.52819C47.5424 3.67876 47.3563 3.87762 47.2228 4.12478C47.0921 4.3691 47.0254 4.63756 47.0225 4.93018V5.83785C47.0225 6.21853 47.0921 6.54523 47.2313 6.81796C47.3706 7.08785 47.5652 7.29523 47.8152 7.44012C48.0652 7.58216 48.3578 7.65319 48.693 7.65319C48.9174 7.65319 49.1206 7.62194 49.3024 7.55944C49.4842 7.4941 49.6419 7.39893 49.7754 7.27393C49.9089 7.14893 50.0098 6.9941 50.0779 6.80944L51.5183 6.97137C51.4274 7.35205 51.2541 7.68444 50.9984 7.96853C50.7456 8.24978 50.4217 8.46853 50.0268 8.62478C49.6319 8.77819 49.1802 8.85489 48.6717 8.85489ZM54.7554 8.72705V-0.000222206H56.298V3.26398H56.362C56.4415 3.10489 56.5537 2.93586 56.6986 2.75688C56.8435 2.57506 57.0395 2.42023 57.2867 2.29239C57.5338 2.16171 57.8492 2.09637 58.2327 2.09637C58.7384 2.09637 59.1943 2.22563 59.6006 2.48415C60.0097 2.73983 60.3336 3.1191 60.5722 3.62194C60.8137 4.12194 60.9344 4.73557 60.9344 5.46285C60.9344 6.1816 60.8165 6.79239 60.5807 7.29523C60.3449 7.79807 60.0239 8.1816 59.6176 8.4458C59.2114 8.71001 58.7512 8.84211 58.237 8.84211C57.862 8.84211 57.5509 8.77961 57.3037 8.65461C57.0566 8.52961 56.8577 8.37904 56.7071 8.2029C56.5594 8.02393 56.4443 7.85489 56.362 7.6958H56.2725V8.72705H54.7554ZM56.2682 5.45432C56.2682 5.87762 56.3279 6.24836 56.4472 6.56654C56.5693 6.88472 56.7441 7.1333 56.9713 7.31228C57.2014 7.48841 57.4799 7.57648 57.8066 7.57648C58.1475 7.57648 58.433 7.48557 58.6631 7.30376C58.8932 7.1191 59.0665 6.86768 59.183 6.54949C59.3023 6.22847 59.362 5.86341 59.362 5.45432C59.362 5.04807 59.3037 4.68728 59.1872 4.37194C59.0708 4.0566 58.8975 3.80944 58.6674 3.63046C58.4372 3.45148 58.1503 3.36199 57.8066 3.36199C57.477 3.36199 57.1972 3.44864 56.9671 3.62194C56.737 3.79523 56.5622 4.03813 56.4429 4.35063C56.3264 4.66313 56.2682 5.03103 56.2682 5.45432ZM66.9009 8.85489C66.2617 8.85489 65.7078 8.71427 65.239 8.43302C64.7703 8.15177 64.4066 7.7583 64.1481 7.25262C63.8924 6.74694 63.7646 6.15603 63.7646 5.47989C63.7646 4.80376 63.8924 4.21143 64.1481 3.7029C64.4066 3.19438 64.7703 2.79949 65.239 2.51824C65.7078 2.23699 66.2617 2.09637 66.9009 2.09637C67.5402 2.09637 68.0941 2.23699 68.5629 2.51824C69.0316 2.79949 69.3938 3.19438 69.6495 3.7029C69.908 4.21143 70.0373 4.80376 70.0373 5.47989C70.0373 6.15603 69.908 6.74694 69.6495 7.25262C69.3938 7.7583 69.0316 8.15177 68.5629 8.43302C68.0941 8.71427 67.5402 8.85489 66.9009 8.85489ZM66.9095 7.6191C67.2561 7.6191 67.5458 7.52393 67.7788 7.33358C68.0117 7.1404 68.185 6.88188 68.2987 6.55802C68.4152 6.23415 68.4734 5.87336 68.4734 5.47563C68.4734 5.07506 68.4152 4.71285 68.2987 4.38898C68.185 4.06228 68.0117 3.80233 67.7788 3.60915C67.5458 3.41597 67.2561 3.31938 66.9095 3.31938C66.5544 3.31938 66.2589 3.41597 66.0231 3.60915C65.7902 3.80233 65.6154 4.06228 65.499 4.38898C65.3853 4.71285 65.3285 5.07506 65.3285 5.47563C65.3285 5.87336 65.3853 6.23415 65.499 6.55802C65.6154 6.88188 65.7902 7.1404 66.0231 7.33358C66.2589 7.52393 66.5544 7.6191 66.9095 7.6191ZM76.0017 8.85489C75.3625 8.85489 74.8085 8.71427 74.3398 8.43302C73.871 8.15177 73.5074 7.7583 73.2489 7.25262C72.9932 6.74694 72.8654 6.15603 72.8654 5.47989C72.8654 4.80376 72.9932 4.21143 73.2489 3.7029C73.5074 3.19438 73.871 2.79949 74.3398 2.51824C74.8085 2.23699 75.3625 2.09637 76.0017 2.09637C76.6409 2.09637 77.1949 2.23699 77.6637 2.51824C78.1324 2.79949 78.4946 3.19438 78.7503 3.7029C79.0088 4.21143 79.1381 4.80376 79.1381 5.47989C79.1381 6.15603 79.0088 6.74694 78.7503 7.25262C78.4946 7.7583 78.1324 8.15177 77.6637 8.43302C77.1949 8.71427 76.6409 8.85489 76.0017 8.85489ZM76.0103 7.6191C76.3568 7.6191 76.6466 7.52393 76.8796 7.33358C77.1125 7.1404 77.2858 6.88188 77.3995 6.55802C77.5159 6.23415 77.5742 5.87336 77.5742 5.47563C77.5742 5.07506 77.5159 4.71285 77.3995 4.38898C77.2858 4.06228 77.1125 3.80233 76.8796 3.60915C76.6466 3.41597 76.3568 3.31938 76.0103 3.31938C75.6551 3.31938 75.3597 3.41597 75.1239 3.60915C74.8909 3.80233 74.7162 4.06228 74.5997 4.38898C74.4861 4.71285 74.4293 5.07506 74.4293 5.47563C74.4293 5.87336 74.4861 6.23415 74.5997 6.55802C74.7162 6.88188 74.8909 7.1404 75.1239 7.33358C75.3597 7.52393 75.6551 7.6191 76.0103 7.6191ZM83.6537 6.67307L83.6494 4.81086H83.8965L86.2488 2.1816H88.0514L85.1579 5.40319H84.8383L83.6537 6.67307ZM82.2474 8.72705V-0.000222206H83.79V8.72705H82.2474ZM86.3554 8.72705L84.2247 5.74836L85.2644 4.66171L88.2005 8.72705H86.3554ZM-0.00011611 23.7271V14.9998H1.0567V22.7896H5.11352V23.7271H-0.00011611ZM10.3397 23.8805C9.92488 23.8805 9.54846 23.8023 9.2104 23.6461C8.87233 23.487 8.60386 23.2583 8.405 22.96C8.20613 22.6589 8.1067 22.2952 8.1067 21.8691C8.1067 21.4941 8.18057 21.1901 8.32829 20.9572C8.47602 20.7214 8.67346 20.5367 8.92062 20.4032C9.16778 20.2697 9.44051 20.1702 9.7388 20.1049C10.0399 20.0367 10.3425 19.9827 10.6465 19.943C11.0442 19.8918 11.3666 19.8535 11.6138 19.8279C11.8638 19.7995 12.0456 19.7526 12.1593 19.6873C12.2757 19.6219 12.334 19.5083 12.334 19.3464V19.3123C12.334 18.8918 12.2189 18.5651 11.9888 18.3322C11.7615 18.0992 11.4164 17.9827 10.9533 17.9827C10.4732 17.9827 10.0968 18.0878 9.82403 18.2981C9.5513 18.5083 9.35954 18.7327 9.24875 18.9714L8.2942 18.6305C8.46466 18.2327 8.69193 17.9231 8.97602 17.7015C9.26295 17.4771 9.57545 17.3208 9.91352 17.2327C10.2544 17.1418 10.5897 17.0964 10.9192 17.0964C11.1294 17.0964 11.3709 17.1219 11.6436 17.1731C11.9192 17.2214 12.1848 17.3222 12.4405 17.4756C12.699 17.629 12.9135 17.8606 13.084 18.1702C13.2544 18.4799 13.3397 18.8947 13.3397 19.4146V23.7271H12.334V22.8407H12.2828C12.2147 22.9827 12.101 23.1347 11.9419 23.2967C11.7828 23.4586 11.5712 23.5964 11.307 23.71C11.0428 23.8236 10.7203 23.8805 10.3397 23.8805ZM10.4931 22.9771C10.8908 22.9771 11.226 22.8989 11.4987 22.7427C11.7743 22.5864 11.9817 22.3847 12.1209 22.1376C12.263 21.8904 12.334 21.6305 12.334 21.3577V20.4373C12.2914 20.4884 12.1976 20.5353 12.0527 20.5779C11.9107 20.6177 11.7459 20.6532 11.5584 20.6844C11.3737 20.7128 11.1934 20.7384 11.0172 20.7611C10.8439 20.781 10.7033 20.7981 10.5953 20.8123C10.334 20.8464 10.0897 20.9018 9.86238 20.9785C9.63795 21.0523 9.45613 21.1646 9.31693 21.3151C9.18057 21.4628 9.11238 21.6646 9.11238 21.9202C9.11238 22.2697 9.24165 22.5339 9.50017 22.7128C9.76153 22.889 10.0925 22.9771 10.4931 22.9771ZM17.1116 23.7271V14.9998H22.3446V15.9373H18.1684V18.8861H21.9525V19.8236H18.1684V23.7271H17.1116ZM26.8239 14.9998V23.7271H25.8182V14.9998H26.8239ZM33.2102 23.8634C32.5795 23.8634 32.0355 23.7242 31.5781 23.4458C31.1235 23.1646 30.7727 22.7725 30.5255 22.2697C30.2812 21.764 30.159 21.1759 30.159 20.5055C30.159 19.835 30.2812 19.2441 30.5255 18.7327C30.7727 18.2185 31.1164 17.818 31.5568 17.531C32 17.2413 32.517 17.0964 33.1079 17.0964C33.4488 17.0964 33.7855 17.1532 34.1179 17.2668C34.4502 17.3805 34.7528 17.5651 35.0255 17.8208C35.2983 18.0736 35.5156 18.4089 35.6775 18.8265C35.8394 19.2441 35.9204 19.7583 35.9204 20.3691V20.7952H30.875V19.9259H34.8977C34.8977 19.5566 34.8238 19.2271 34.6761 18.9373C34.5312 18.6475 34.3238 18.4188 34.0539 18.2512C33.7869 18.0836 33.4715 17.9998 33.1079 17.9998C32.7073 17.9998 32.3608 18.0992 32.0681 18.2981C31.7784 18.4941 31.5554 18.7498 31.3991 19.0651C31.2429 19.3805 31.1647 19.7185 31.1647 20.0793V20.6589C31.1647 21.1532 31.25 21.5722 31.4204 21.916C31.5937 22.2569 31.8338 22.5168 32.1406 22.6958C32.4474 22.8719 32.8039 22.96 33.2102 22.96C33.4744 22.96 33.713 22.9231 33.9261 22.8492C34.142 22.7725 34.3281 22.6589 34.4843 22.5083C34.6406 22.3549 34.7613 22.1646 34.8465 21.9373L35.8181 22.21C35.7159 22.5396 35.544 22.8293 35.3025 23.0793C35.061 23.3265 34.7627 23.5197 34.4076 23.6589C34.0525 23.7952 33.6534 23.8634 33.2102 23.8634ZM43.3752 21.0509V17.1816H44.3809V23.7271H43.3752V22.6191H43.3071C43.1536 22.9515 42.915 23.2342 42.5911 23.4671C42.2673 23.6972 41.8582 23.8123 41.3639 23.8123C40.9548 23.8123 40.5911 23.7228 40.273 23.5438C39.9548 23.362 39.7048 23.0893 39.523 22.7256C39.3411 22.3592 39.2502 21.8975 39.2502 21.3407V17.1816H40.2559V21.2725C40.2559 21.7498 40.3894 22.1305 40.6565 22.4146C40.9264 22.6986 41.2701 22.8407 41.6877 22.8407C41.9377 22.8407 42.192 22.7768 42.4505 22.6489C42.7119 22.5211 42.9306 22.3251 43.1068 22.0609C43.2858 21.7967 43.3752 21.46 43.3752 21.0509ZM48.0229 23.7271V17.1816H48.9945V18.1702H49.0627C49.182 17.8464 49.3979 17.5836 49.7104 17.3819C50.0229 17.1802 50.3752 17.0793 50.7672 17.0793C50.8411 17.0793 50.9334 17.0807 51.0442 17.0836C51.155 17.0864 51.2388 17.0907 51.2956 17.0964V18.1191C51.2615 18.1106 51.1834 18.0978 51.0612 18.0807C50.9419 18.0609 50.8155 18.0509 50.682 18.0509C50.3638 18.0509 50.0797 18.1177 49.8297 18.2512C49.5826 18.3819 49.3865 18.5637 49.2416 18.7967C49.0996 19.0268 49.0286 19.2896 49.0286 19.585V23.7271H48.0229ZM54.4241 23.7271V14.9998H57.4752C58.0832 14.9998 58.5846 15.1049 58.9795 15.3151C59.3744 15.5225 59.6684 15.8023 59.8616 16.1546C60.0548 16.504 60.1514 16.8918 60.1514 17.318C60.1514 17.693 60.0846 18.0026 59.9511 18.2469C59.8204 18.4913 59.6471 18.6844 59.4312 18.8265C59.2181 18.9685 58.9866 19.0736 58.7366 19.1418V19.2271C59.0036 19.2441 59.2721 19.3378 59.542 19.5083C59.8119 19.6788 60.0377 19.9231 60.2196 20.2413C60.4014 20.5594 60.4923 20.9486 60.4923 21.4089C60.4923 21.8464 60.3929 22.2398 60.194 22.5893C59.9951 22.9387 59.6812 23.2157 59.2522 23.4202C58.8232 23.6248 58.265 23.7271 57.5775 23.7271H54.4241ZM55.4809 22.7896H57.5775C58.2679 22.7896 58.7579 22.656 59.0477 22.389C59.3403 22.1191 59.4866 21.7924 59.4866 21.4089C59.4866 21.1134 59.4113 20.8407 59.2607 20.5907C59.1102 20.3378 58.8957 20.1361 58.6173 19.9856C58.3389 19.8322 58.0093 19.7555 57.6286 19.7555H55.4809V22.7896ZM55.4809 18.835H57.4411C57.7593 18.835 58.0463 18.7725 58.3019 18.6475C58.5605 18.5225 58.765 18.3464 58.9156 18.1191C59.069 17.8918 59.1457 17.6248 59.1457 17.318C59.1457 16.9344 59.0122 16.6092 58.7451 16.3421C58.4781 16.0722 58.0548 15.9373 57.4752 15.9373H55.4809V18.835ZM66.6367 23.8634C66.0061 23.8634 65.462 23.7242 65.0046 23.4458C64.5501 23.1646 64.1992 22.7725 63.9521 22.2697C63.7078 21.764 63.5856 21.1759 63.5856 20.5055C63.5856 19.835 63.7078 19.2441 63.9521 18.7327C64.1992 18.2185 64.543 17.818 64.9833 17.531C65.4265 17.2413 65.9436 17.0964 66.5345 17.0964C66.8754 17.0964 67.212 17.1532 67.5444 17.2668C67.8768 17.3805 68.1794 17.5651 68.4521 17.8208C68.7248 18.0736 68.9421 18.4089 69.1041 18.8265C69.266 19.2441 69.347 19.7583 69.347 20.3691V20.7952H64.3015V19.9259H68.3242C68.3242 19.5566 68.2504 19.2271 68.1027 18.9373C67.9578 18.6475 67.7504 18.4188 67.4805 18.2512C67.2134 18.0836 66.8981 17.9998 66.5345 17.9998C66.1339 17.9998 65.7873 18.0992 65.4947 18.2981C65.2049 18.4941 64.9819 18.7498 64.8257 19.0651C64.6694 19.3805 64.5913 19.7185 64.5913 20.0793V20.6589C64.5913 21.1532 64.6765 21.5722 64.847 21.916C65.0203 22.2569 65.2603 22.5168 65.5671 22.6958C65.874 22.8719 66.2305 22.96 66.6367 22.96C66.9009 22.96 67.1396 22.9231 67.3527 22.8492C67.5686 22.7725 67.7546 22.6589 67.9109 22.5083C68.0671 22.3549 68.1879 22.1646 68.2731 21.9373L69.2447 22.21C69.1424 22.5396 68.9705 22.8293 68.7291 23.0793C68.4876 23.3265 68.1893 23.5197 67.8342 23.6589C67.4791 23.7952 67.0799 23.8634 66.6367 23.8634ZM73.6825 14.9998V23.7271H72.6768V14.9998H73.6825ZM78.3301 14.9998V23.7271H77.3245V14.9998H78.3301ZM84.7164 23.8634C84.0858 23.8634 83.5417 23.7242 83.0843 23.4458C82.6298 23.1646 82.2789 22.7725 82.0318 22.2697C81.7875 21.764 81.6653 21.1759 81.6653 20.5055C81.6653 19.835 81.7875 19.2441 82.0318 18.7327C82.2789 18.2185 82.6227 17.818 83.063 17.531C83.5062 17.2413 84.0233 17.0964 84.6142 17.0964C84.9551 17.0964 85.2917 17.1532 85.6241 17.2668C85.9565 17.3805 86.2591 17.5651 86.5318 17.8208C86.8045 18.0736 87.0218 18.4089 87.1838 18.8265C87.3457 19.2441 87.4267 19.7583 87.4267 20.3691V20.7952H82.3812V19.9259H86.4039C86.4039 19.5566 86.3301 19.2271 86.1823 18.9373C86.0375 18.6475 85.8301 18.4188 85.5602 18.2512C85.2931 18.0836 84.9778 17.9998 84.6142 17.9998C84.2136 17.9998 83.867 18.0992 83.5744 18.2981C83.2846 18.4941 83.0616 18.7498 82.9054 19.0651C82.7491 19.3805 82.671 19.7185 82.671 20.0793V20.6589C82.671 21.1532 82.7562 21.5722 82.9267 21.916C83.1 22.2569 83.34 22.5168 83.6468 22.6958C83.9537 22.8719 84.3102 22.96 84.7164 22.96C84.9806 22.96 85.2193 22.9231 85.4323 22.8492C85.6483 22.7725 85.8343 22.6589 85.9906 22.5083C86.1468 22.3549 86.2676 22.1646 86.3528 21.9373L87.3244 22.21C87.2221 22.5396 87.0502 22.8293 86.8088 23.0793C86.5673 23.3265 86.269 23.5197 85.9139 23.6589C85.5588 23.7952 85.1596 23.8634 84.7164 23.8634ZM90.8928 23.7271V14.9998H93.8417C94.5264 14.9998 95.086 15.1234 95.5207 15.3705C95.9582 15.6148 96.2821 15.9458 96.4923 16.3634C96.7025 16.781 96.8076 17.2469 96.8076 17.7611C96.8076 18.2753 96.7025 18.7427 96.4923 19.1631C96.2849 19.5836 95.9639 19.9188 95.5292 20.1688C95.0946 20.416 94.5377 20.5396 93.8588 20.5396H91.7451V19.6021H93.8247C94.2934 19.6021 94.6698 19.5211 94.9539 19.3592C95.238 19.1972 95.444 18.9785 95.5718 18.7029C95.7025 18.4245 95.7678 18.1106 95.7678 17.7611C95.7678 17.4117 95.7025 17.0992 95.5718 16.8236C95.444 16.5481 95.2366 16.3322 94.9497 16.1759C94.6627 16.0168 94.2821 15.9373 93.8076 15.9373H91.9497V23.7271H90.8928ZM100.31 23.7271V14.9998H101.367V18.8861H106.02V14.9998H107.077V23.7271H106.02V19.8236H101.367V23.7271H100.31Z" fill="white"/>
</svg>
