<svg width="46" height="45" viewBox="0 0 46 45" fill="none" xmlns="http://www.w3.org/2000/svg">
<path d="M38.3332 22.5939C38.2974 19.7354 37.4272 16.9465 35.8253 14.5556C34.2233 12.1648 31.9565 10.2714 29.2915 9.09868C26.6264 7.92592 23.6744 7.52257 20.7829 7.93611C17.8915 8.34966 15.181 9.56286 12.9707 11.4329C10.7605 13.3029 9.14249 15.7518 8.3073 18.4913C7.47213 21.2307 7.45454 24.1465 8.25662 26.8955C9.05871 29.6444 10.6471 32.1117 12.8346 34.0072C15.0221 35.9026 17.7178 37.147 20.6041 37.5939V26.9626H16.7707V22.5939H20.6041V19.2751C20.5153 18.5035 20.6008 17.7221 20.8546 16.9863C21.1083 16.2505 21.5241 15.5781 22.0724 15.0166C22.6208 14.4552 23.2884 14.0183 24.0282 13.7368C24.768 13.4553 25.5621 13.3361 26.3541 13.3877C27.5037 13.4031 28.6506 13.5034 29.7849 13.6877V17.4377H27.8682C27.5378 17.3969 27.202 17.4293 26.8861 17.5325C26.5701 17.6356 26.2818 17.807 26.0426 18.0338C25.8034 18.2606 25.6194 18.5371 25.5042 18.8427C25.3888 19.1485 25.3453 19.4757 25.3766 19.8001V22.6314H29.6316L28.9416 27.0001H25.3957V37.5001C29.018 36.9397 32.3151 35.1277 34.6887 32.3928C37.0623 29.6579 38.3553 26.1815 38.3332 22.5939Z" fill="white"/>
</svg>
