<svg width="17" height="17" viewBox="0 0 17 17" fill="none" xmlns="http://www.w3.org/2000/svg">
<g clip-path="url(#clip0_51_546)">
<path d="M14.0886 10.3823C14.0594 10.3646 14.0295 10.3473 13.9993 10.3302C12.9915 9.76202 12.0211 9.49688 11.1787 9.39784C11.7176 9.27114 12.3703 9.10739 13.1629 8.89763C15.6365 8.24291 15.8656 5.25779 15.8656 5.25779C15.8656 5.25779 13.8817 4.02188 11.9686 5.15251C10.9727 5.74111 10.2578 6.44916 9.75101 7.12899C9.91059 6.59902 10.0952 5.95179 10.3098 5.16052C10.3203 5.12199 10.33 5.08355 10.339 5.04538C10.8314 2.94424 9.06939 1.42857 8.61394 1.07745C8.5477 1.02643 8.5091 1 8.5091 1C8.5091 1 8.49096 1.00969 8.45816 1.02895C8.14067 1.21613 6.44876 2.30851 6.46931 4.32231C6.48108 5.4792 6.73682 6.45221 7.07216 7.23114C6.75324 6.89191 6.37148 6.49618 5.91415 6.03276C5.82773 5.94526 5.73871 5.85532 5.64692 5.76289C5.61865 5.73458 5.59025 5.70695 5.5617 5.68012C4.16954 4.37325 2.29209 4.82393 1.50967 5.0968C1.5001 5.10013 1.49069 5.10341 1.48152 5.10669C1.37684 5.14386 1.29326 5.17718 1.23555 5.20144C1.21849 5.20869 1.20356 5.21506 1.1911 5.22059C1.15983 5.23424 1.14337 5.24213 1.14337 5.24213C1.14337 5.24213 1.14105 5.31117 1.14697 5.43099C1.17532 5.99756 1.38933 7.70008 2.91141 8.61774C2.94064 8.63536 2.97043 8.65274 3.00067 8.6698C4.00843 9.23798 4.97895 9.50308 5.82128 9.60212C5.28238 9.72886 4.62963 9.89261 3.83703 10.1023C3.79843 10.1126 3.76034 10.1234 3.72274 10.1348C1.73201 10.7362 1.25882 12.8788 1.15871 13.5438C1.1398 13.6692 1.13428 13.7421 1.13428 13.7421C1.13428 13.7421 1.15174 13.753 1.18486 13.7718C1.20151 13.7812 1.22198 13.7925 1.24629 13.8055C1.26243 13.8141 1.28025 13.8234 1.29967 13.8334C1.7948 14.0871 3.32544 14.7326 4.85188 13.9467C4.91179 13.9159 4.97154 13.8828 5.03133 13.8475C6.02732 13.2588 6.74214 12.5508 7.24901 11.871C7.08934 12.4009 6.90481 13.0482 6.69016 13.8395C6.67971 13.878 6.67002 13.9165 6.66105 13.9546C6.37616 15.1701 6.84578 16.1896 7.38044 16.9012C7.38933 16.9129 7.39818 16.9245 7.40711 16.9362C7.44327 16.9834 7.47959 17.0292 7.51607 17.0736C7.55292 17.1186 7.5898 17.162 7.62652 17.204C7.73385 17.3266 7.83965 17.4366 7.93836 17.5325C8.04012 17.6313 8.13411 17.7152 8.21492 17.7837C8.22633 17.7934 8.23751 17.8028 8.24836 17.8118C8.27823 17.8367 8.30619 17.8595 8.33137 17.8796C8.35128 17.8955 8.36954 17.9097 8.38612 17.9226C8.45235 17.9734 8.49092 18 8.49092 18C8.49092 18 8.50906 17.9903 8.54186 17.971C8.85934 17.7838 10.5512 16.6915 10.5307 14.6776C10.5189 13.5207 10.2632 12.5477 9.92777 11.7688C10.307 12.172 10.7752 12.6556 11.3531 13.237C11.3814 13.2653 11.4098 13.293 11.4383 13.3198C12.1821 14.0181 13.0646 14.2146 13.8444 14.2045C14.5643 14.1953 15.1969 14.0101 15.5526 13.8811C15.6415 13.8488 15.7131 13.8201 15.7645 13.7986C15.7815 13.7913 15.7965 13.7849 15.8089 13.7794C15.8401 13.7658 15.8566 13.7578 15.8566 13.7578C15.8566 13.7578 15.8589 13.6888 15.853 13.569C15.8247 13.0024 15.6106 11.2999 14.0886 10.3823ZM8.93787 10.2584H8.0621L7.6242 9.5L8.0621 8.74157H8.93787L9.37574 9.5L8.93787 10.2584Z" fill="#6A422C"/>
</g>
<defs>
<clipPath id="clip0_51_546">
<rect width="17" height="17" fill="white"/>
</clipPath>
</defs>
</svg>
