<svg width="241" height="13" viewBox="0 0 241 13" fill="none" xmlns="http://www.w3.org/2000/svg">
<path d="M51.3226 9V8.68548C51.5645 8.67473 51.7419 8.65323 51.8548 8.62097C51.9731 8.58871 52.0511 8.52419 52.0887 8.42742C52.1263 8.33065 52.1452 8.18548 52.1452 7.99194V4.29839C52.1452 4.10484 52.1263 3.96237 52.0887 3.87097C52.0511 3.77419 51.9731 3.70699 51.8548 3.66936C51.7366 3.63172 51.5591 3.61022 51.3226 3.60484V3.29032C51.4355 3.2957 51.6156 3.30108 51.8629 3.30645C52.1102 3.30645 52.4194 3.30645 52.7903 3.30645C53.1505 3.30645 53.4382 3.30376 53.6532 3.29839C53.8737 3.29301 54.0484 3.29032 54.1774 3.29032C54.8871 3.29032 55.4194 3.40054 55.7742 3.62097C56.129 3.8414 56.3065 4.17742 56.3065 4.62903C56.3065 4.98925 56.1667 5.28495 55.8871 5.51613C55.6075 5.74194 55.1882 5.90054 54.629 5.99194V6C55.328 6.03763 55.8575 6.18011 56.2177 6.42742C56.578 6.66935 56.7581 7.01344 56.7581 7.45968C56.7581 7.94355 56.5457 8.32258 56.121 8.59677C55.7016 8.86559 55.1156 9 54.3629 9C54.2661 9 54.1532 8.99731 54.0242 8.99194C53.8952 8.98656 53.7312 8.98387 53.5323 8.98387C53.3387 8.97849 53.0941 8.97581 52.7984 8.97581C52.4274 8.97581 52.1156 8.97849 51.8629 8.98387C51.6156 8.98387 51.4355 8.98925 51.3226 9ZM54.129 8.66935C54.5161 8.66935 54.8091 8.5672 55.0081 8.3629C55.207 8.15323 55.3065 7.85215 55.3065 7.45968C55.3065 7.0457 55.1909 6.73118 54.9597 6.51613C54.7339 6.2957 54.4005 6.18548 53.9597 6.18548H53.1532V5.8871H53.9274C54.2715 5.8871 54.5376 5.78226 54.7258 5.57258C54.914 5.3629 55.0081 5.06989 55.0081 4.69355C55.0081 4.34946 54.9247 4.08333 54.7581 3.89516C54.5914 3.70161 54.3441 3.60484 54.0161 3.60484H53.5323V8C53.5323 8.17742 53.5484 8.31452 53.5806 8.41129C53.6183 8.50806 53.6801 8.57527 53.7661 8.6129C53.8522 8.65054 53.9731 8.66935 54.129 8.66935ZM58.9855 9.1129C58.5769 9.1129 58.2221 9.02688 57.921 8.85484C57.6199 8.67742 57.386 8.42473 57.2194 8.09677C57.0581 7.76882 56.9774 7.37903 56.9774 6.92742C56.9774 6.44892 57.0662 6.0457 57.2436 5.71774C57.421 5.38441 57.6683 5.13441 57.9855 4.96774C58.3081 4.7957 58.6817 4.70968 59.1065 4.70968C59.4936 4.70968 59.8188 4.77957 60.0823 4.91935C60.3457 5.05914 60.5446 5.27419 60.6791 5.56452C60.8135 5.85484 60.8753 6.22849 60.8645 6.68548H57.8887L57.8726 6.37903H59.7758C59.7812 6.11559 59.7597 5.88441 59.7113 5.68548C59.6629 5.48118 59.5877 5.32258 59.4855 5.20968C59.3834 5.0914 59.2489 5.03226 59.0823 5.03226C58.8726 5.03226 58.6925 5.14516 58.542 5.37097C58.3968 5.5914 58.3108 5.94624 58.2839 6.43548L58.3 6.46774C58.2946 6.51613 58.2893 6.5672 58.2839 6.62097C58.2839 6.67473 58.2839 6.73925 58.2839 6.81452C58.2839 7.3414 58.3807 7.75269 58.5742 8.04839C58.7731 8.33871 59.0581 8.48387 59.4291 8.48387C59.6925 8.48387 59.9183 8.41935 60.1065 8.29032C60.3 8.16129 60.464 7.96237 60.5984 7.69355L60.8887 7.84677C60.7221 8.26075 60.4774 8.57527 60.1549 8.79032C59.8323 9.00538 59.4425 9.1129 58.9855 9.1129ZM62.2859 9.1129C61.9364 9.1129 61.6596 9.02151 61.4553 8.83871C61.251 8.65591 61.1488 8.40591 61.1488 8.08871C61.1488 7.84677 61.2053 7.65054 61.3182 7.5C61.4311 7.34409 61.5762 7.21774 61.7537 7.12097C61.9364 7.02419 62.1273 6.94355 62.3262 6.87903C62.5305 6.81452 62.7214 6.75269 62.8988 6.69355C63.0816 6.63441 63.2295 6.56452 63.3424 6.48387C63.4553 6.40323 63.5117 6.2957 63.5117 6.16129V5.77419C63.5117 5.53763 63.4499 5.35753 63.3262 5.23387C63.208 5.10484 63.0332 5.04032 62.802 5.04032C62.63 5.04032 62.4902 5.06452 62.3827 5.1129C62.2805 5.16129 62.2295 5.22849 62.2295 5.31452C62.2295 5.38441 62.251 5.4543 62.294 5.52419C62.3424 5.58871 62.3881 5.6586 62.4311 5.73387C62.4741 5.80914 62.4956 5.89247 62.4956 5.98387C62.4956 6.10753 62.4445 6.20699 62.3424 6.28226C62.2402 6.35753 62.1031 6.39516 61.9311 6.39516C61.7429 6.39516 61.5924 6.3414 61.4795 6.23387C61.3719 6.12634 61.3182 5.98118 61.3182 5.79839C61.3182 5.57796 61.3961 5.3871 61.552 5.22581C61.708 5.06452 61.9257 4.93817 62.2053 4.84677C62.4848 4.75538 62.8101 4.70968 63.1811 4.70968C63.5574 4.70968 63.8612 4.76075 64.0924 4.8629C64.3289 4.95968 64.4983 5.12097 64.6004 5.34677C64.708 5.57258 64.7617 5.87634 64.7617 6.25806V8.32258C64.7617 8.44086 64.7805 8.52688 64.8182 8.58065C64.8558 8.62903 64.9149 8.65323 64.9956 8.65323C65.0601 8.65323 65.1246 8.63978 65.1891 8.6129C65.259 8.58602 65.3289 8.54839 65.3988 8.5L65.5278 8.75806C65.3827 8.87634 65.216 8.96505 65.0278 9.02419C64.8451 9.08333 64.6381 9.1129 64.4069 9.1129C63.8316 9.1129 63.5386 8.89785 63.5278 8.46774C63.3773 8.6828 63.1972 8.84409 62.9875 8.95161C62.7832 9.05914 62.5494 9.1129 62.2859 9.1129ZM62.8988 8.47581C63.0171 8.47581 63.13 8.44892 63.2375 8.39516C63.3451 8.3414 63.4364 8.25806 63.5117 8.14516V6.6129C63.4741 6.69892 63.4096 6.77419 63.3182 6.83871C63.2321 6.89785 63.1354 6.95699 63.0278 7.01613C62.9203 7.07527 62.8155 7.14247 62.7133 7.21774C62.6166 7.29301 62.5332 7.38441 62.4633 7.49194C62.3988 7.59946 62.3666 7.73118 62.3666 7.8871C62.3666 8.07527 62.4123 8.22043 62.5037 8.32258C62.6004 8.42473 62.7321 8.47581 62.8988 8.47581ZM67.1254 9.1129C66.7006 9.1129 66.3727 8.98656 66.1415 8.73387C65.9157 8.48118 65.8028 8.11828 65.8028 7.64516V5.84677C65.8028 5.59409 65.749 5.41667 65.6415 5.31452C65.534 5.20699 65.3539 5.14785 65.1012 5.1371V4.82258C65.2141 4.82796 65.3243 4.83333 65.4318 4.83871C65.5447 4.84409 65.6657 4.84677 65.7947 4.84677C66.0367 4.84677 66.2598 4.83871 66.4641 4.82258C66.6738 4.80108 66.87 4.77151 67.0528 4.73387V7.77419C67.0528 8.03226 67.1039 8.22849 67.206 8.3629C67.3136 8.49194 67.4695 8.55645 67.6738 8.55645C67.8297 8.55645 67.9722 8.51344 68.1012 8.42742C68.2356 8.33602 68.3485 8.20161 68.4399 8.02419V8.37903C68.3109 8.61022 68.1334 8.79032 67.9076 8.91935C67.6818 9.04839 67.4211 9.1129 67.1254 9.1129ZM68.3996 9.08871V5.83065C68.3996 5.58333 68.3539 5.4086 68.2625 5.30645C68.1765 5.2043 68.0259 5.14785 67.8109 5.1371V4.82258C67.9184 4.82796 68.0205 4.83333 68.1173 4.83871C68.2195 4.84409 68.327 4.84677 68.4399 4.84677C68.6765 4.84677 68.8942 4.83871 69.0931 4.82258C69.2974 4.80108 69.4829 4.77151 69.6496 4.73387V7.97581C69.6496 8.22849 69.7033 8.4086 69.8109 8.51613C69.9184 8.62366 70.1012 8.68011 70.3592 8.68548V9C70.241 8.98925 70.1254 8.98387 70.0125 8.98387C69.9049 8.97849 69.7894 8.97581 69.6657 8.97581C69.4238 8.97581 69.198 8.98387 68.9883 9C68.7786 9.02151 68.5824 9.05108 68.3996 9.08871ZM72.1493 9.1129C71.7246 9.1129 71.402 8.99731 71.1816 8.76613C70.9665 8.52957 70.859 8.1828 70.859 7.72581V5.1371H70.0203V4.82258H70.859V3.67742C71.1009 3.67742 71.3241 3.66398 71.5284 3.6371C71.7327 3.60484 71.9262 3.56183 72.109 3.50806V4.82258H73.2461V5.1371H72.109V8.00806C72.109 8.19086 72.1466 8.32796 72.2219 8.41935C72.3025 8.50538 72.4181 8.54839 72.5687 8.54839C72.7085 8.54839 72.8267 8.50538 72.9235 8.41935C73.0257 8.33333 73.1144 8.20161 73.1896 8.02419L73.4316 8.14516C73.3133 8.48387 73.152 8.73118 72.9477 8.8871C72.7488 9.03763 72.4827 9.1129 72.1493 9.1129ZM73.2002 9V8.68548C73.4636 8.68011 73.6464 8.6371 73.7486 8.55645C73.8561 8.47581 73.9098 8.32527 73.9098 8.10484V5.84677C73.9098 5.60484 73.8588 5.43011 73.7566 5.32258C73.6598 5.20968 73.4744 5.14785 73.2002 5.1371V4.82258C73.3131 4.82796 73.4233 4.83333 73.5308 4.83871C73.6437 4.84409 73.7566 4.84677 73.8695 4.84677C74.1168 4.84677 74.348 4.83871 74.5631 4.82258C74.7781 4.80108 74.977 4.77151 75.1598 4.73387V8.10484C75.1598 8.33065 75.2136 8.48387 75.3211 8.56452C75.4287 8.63978 75.6115 8.68011 75.8695 8.68548V9C75.7889 8.99462 75.676 8.99194 75.5308 8.99194C75.391 8.98656 75.2351 8.98118 75.0631 8.97581C74.8964 8.97043 74.727 8.96774 74.555 8.96774C74.3023 8.96774 74.0469 8.97312 73.7889 8.98387C73.5308 8.98925 73.3346 8.99462 73.2002 9ZM74.4986 4.04839C74.3104 4.04839 74.141 3.98925 73.9905 3.87097C73.8453 3.75269 73.7727 3.58871 73.7727 3.37903C73.7727 3.16398 73.8453 2.99731 73.9905 2.87903C74.141 2.76075 74.3104 2.70161 74.4986 2.70161C74.6867 2.70161 74.8561 2.76075 75.0066 2.87903C75.1572 2.99731 75.2324 3.16129 75.2324 3.37097C75.2324 3.58602 75.1572 3.75269 75.0066 3.87097C74.8561 3.98925 74.6867 4.04839 74.4986 4.04839ZM75.7568 9V8.68548C76.031 8.68011 76.2192 8.63441 76.3213 8.54839C76.4235 8.46237 76.4745 8.31183 76.4745 8.09677V4.71774C76.4745 4.06183 76.6412 3.56183 76.9745 3.21774C77.3079 2.86828 77.7864 2.69355 78.41 2.69355C78.8616 2.69355 79.2138 2.77688 79.4665 2.94355C79.7245 3.11022 79.8536 3.3414 79.8536 3.6371C79.8536 3.83065 79.7918 3.98656 79.6681 4.10484C79.5498 4.21774 79.3885 4.27419 79.1842 4.27419C79.0337 4.27419 78.9127 4.23925 78.8213 4.16935C78.7353 4.09409 78.6923 3.99731 78.6923 3.87903C78.6923 3.78226 78.7111 3.69624 78.7487 3.62097C78.7918 3.54032 78.8321 3.46774 78.8697 3.40323C78.9073 3.33333 78.9262 3.26882 78.9262 3.20968C78.9262 3.07527 78.8052 3.00806 78.5633 3.00806C78.2783 3.00806 78.0659 3.11022 77.9262 3.31452C77.7918 3.51882 77.7245 3.83871 77.7245 4.27419V8.03226C77.7245 8.26344 77.7971 8.43011 77.9423 8.53226C78.0928 8.62903 78.3428 8.68011 78.6923 8.68548V9C78.5848 8.99462 78.4423 8.99194 78.2649 8.99194C78.0928 8.98656 77.9047 8.98118 77.7004 8.97581C77.4961 8.97043 77.2971 8.96774 77.1036 8.96774C76.8133 8.96774 76.5471 8.97312 76.3052 8.98387C76.0686 8.98925 75.8858 8.99462 75.7568 9ZM75.7326 5.1371V4.82258H78.8052V5.1371H75.7326ZM80.5258 9.1129C80.101 9.1129 79.7731 8.98656 79.5419 8.73387C79.3161 8.48118 79.2032 8.11828 79.2032 7.64516V5.84677C79.2032 5.59409 79.1494 5.41667 79.0419 5.31452C78.9344 5.20699 78.7543 5.14785 78.5016 5.1371V4.82258C78.6145 4.82796 78.7247 4.83333 78.8322 4.83871C78.9451 4.84409 79.0661 4.84677 79.1951 4.84677C79.4371 4.84677 79.6602 4.83871 79.8645 4.82258C80.0742 4.80108 80.2704 4.77151 80.4532 4.73387V7.77419C80.4532 8.03226 80.5043 8.22849 80.6064 8.3629C80.7139 8.49194 80.8699 8.55645 81.0742 8.55645C81.2301 8.55645 81.3725 8.51344 81.5016 8.42742C81.636 8.33602 81.7489 8.20161 81.8403 8.02419V8.37903C81.7113 8.61022 81.5338 8.79032 81.308 8.91935C81.0822 9.04839 80.8215 9.1129 80.5258 9.1129ZM81.8 9.08871V5.83065C81.8 5.58333 81.7543 5.4086 81.6629 5.30645C81.5768 5.2043 81.4263 5.14785 81.2113 5.1371V4.82258C81.3188 4.82796 81.4209 4.83333 81.5177 4.83871C81.6199 4.84409 81.7274 4.84677 81.8403 4.84677C82.0768 4.84677 82.2946 4.83871 82.4935 4.82258C82.6978 4.80108 82.8833 4.77151 83.05 4.73387V7.97581C83.05 8.22849 83.1037 8.4086 83.2113 8.51613C83.3188 8.62366 83.5016 8.68011 83.7596 8.68548V9C83.6414 8.98925 83.5258 8.98387 83.4129 8.98387C83.3053 8.97849 83.1897 8.97581 83.0661 8.97581C82.8242 8.97581 82.5983 8.98387 82.3887 9C82.179 9.02151 81.9828 9.05108 81.8 9.08871ZM83.6113 9V8.68548C83.8693 8.68011 84.0494 8.6371 84.1516 8.55645C84.2591 8.47581 84.3129 8.32527 84.3129 8.10484V3.80645C84.3129 3.56452 84.2618 3.3871 84.1597 3.27419C84.0629 3.16129 83.8801 3.10215 83.6113 3.09677V2.77419C83.7188 2.77957 83.829 2.78495 83.9419 2.79032C84.0548 2.7957 84.165 2.79839 84.2726 2.79839C84.5145 2.79839 84.743 2.79032 84.958 2.77419C85.1785 2.75269 85.3801 2.72312 85.5629 2.68548V8.10484C85.5629 8.33065 85.6166 8.48387 85.7242 8.56452C85.8317 8.63978 86.0145 8.68011 86.2726 8.68548V9C86.1919 8.99462 86.079 8.99194 85.9338 8.99194C85.7941 8.98656 85.6381 8.98118 85.4661 8.97581C85.2994 8.97043 85.1301 8.96774 84.958 8.96774C84.7107 8.96774 84.4554 8.97312 84.1919 8.98387C83.9338 8.98925 83.7403 8.99462 83.6113 9ZM87.7288 9V8.68548C87.9708 8.67473 88.1482 8.65323 88.2611 8.62097C88.3794 8.58871 88.4573 8.52419 88.495 8.42742C88.5326 8.33065 88.5514 8.18548 88.5514 7.99194V4.29839C88.5514 4.10484 88.5326 3.96237 88.495 3.87097C88.4573 3.77419 88.3794 3.70699 88.2611 3.66936C88.1482 3.63172 87.9708 3.61022 87.7288 3.60484V3.29032C88.3041 3.30645 89.2288 3.31452 90.503 3.31452C90.7557 3.31452 90.9923 3.31452 91.2127 3.31452C91.4331 3.30914 91.6401 3.30645 91.8337 3.30645C92.0272 3.30108 92.2019 3.2957 92.3579 3.29032C92.3579 3.63441 92.3686 3.96237 92.3901 4.27419C92.417 4.58065 92.4519 4.87634 92.495 5.16129H92.1643C92.089 4.7957 91.9896 4.5 91.8659 4.27419C91.7423 4.04839 91.589 3.88441 91.4063 3.78226C91.2288 3.68011 91.0111 3.62903 90.753 3.62903H89.9385V7.99194C89.9385 8.18011 89.9627 8.32258 90.0111 8.41935C90.0595 8.51613 90.1562 8.58333 90.3014 8.62097C90.4466 8.65323 90.667 8.67473 90.9627 8.68548V9C90.7853 8.99462 90.5541 8.98925 90.2692 8.98387C89.9896 8.97849 89.6589 8.97581 89.2772 8.97581C88.9869 8.97581 88.71 8.97849 88.4466 8.98387C88.1831 8.98925 87.9439 8.99462 87.7288 9ZM89.6804 6.33871V6.03226H91.2046V6.33871H89.6804ZM91.2853 7.50806C91.2584 7.23925 91.2046 7.01882 91.124 6.84677C91.0487 6.67473 90.9439 6.54839 90.8095 6.46774C90.6804 6.38172 90.5192 6.33871 90.3256 6.33871V6.03226C90.5837 6.03226 90.7907 5.94355 90.9466 5.76613C91.1079 5.58333 91.2127 5.31989 91.2611 4.97581H91.5675C91.546 5.28763 91.5353 5.53226 91.5353 5.70968C91.5407 5.88172 91.5433 6.04032 91.5433 6.18548C91.5433 6.30376 91.5433 6.42473 91.5433 6.54839C91.5487 6.66667 91.5541 6.80376 91.5595 6.95968C91.5702 7.11022 91.581 7.29301 91.5917 7.50806H91.2853ZM92.4433 9V8.68548C92.7014 8.68011 92.8815 8.6371 92.9836 8.55645C93.0911 8.47581 93.1449 8.32527 93.1449 8.10484V3.80645C93.1449 3.56452 93.0938 3.3871 92.9917 3.27419C92.8949 3.16129 92.7121 3.10215 92.4433 3.09677V2.77419C92.5508 2.77957 92.661 2.78495 92.7739 2.79032C92.8868 2.7957 92.9971 2.79839 93.1046 2.79839C93.3465 2.79839 93.575 2.79032 93.7901 2.77419C94.0105 2.75269 94.2121 2.72312 94.3949 2.68548V8.10484C94.3949 8.33065 94.4487 8.48387 94.5562 8.56452C94.6637 8.63978 94.8465 8.68011 95.1046 8.68548V9C95.0239 8.99462 94.911 8.99194 94.7659 8.99194C94.6261 8.98656 94.4702 8.98118 94.2981 8.97581C94.1315 8.97043 93.9621 8.96774 93.7901 8.96774C93.5428 8.96774 93.2874 8.97312 93.0239 8.98387C92.7659 8.98925 92.5723 8.99462 92.4433 9ZM97.2622 9.1129C96.8482 9.1129 96.4827 9.03226 96.1654 8.87097C95.8482 8.70968 95.5982 8.46774 95.4154 8.14516C95.238 7.8172 95.1493 7.4086 95.1493 6.91935C95.1493 6.42473 95.238 6.01613 95.4154 5.69355C95.5982 5.36559 95.8482 5.12097 96.1654 4.95968C96.4827 4.79301 96.8509 4.70968 97.2703 4.70968C97.6896 4.70968 98.0552 4.79032 98.3671 4.95161C98.6843 5.1129 98.9316 5.35753 99.109 5.68548C99.2918 6.01344 99.3832 6.42473 99.3832 6.91935C99.3832 7.4086 99.2918 7.8172 99.109 8.14516C98.9316 8.46774 98.6843 8.70968 98.3671 8.87097C98.0552 9.03226 97.687 9.1129 97.2622 9.1129ZM97.2703 8.79839C97.5015 8.79839 97.6923 8.65054 97.8429 8.35484C97.9934 8.05376 98.0687 7.57527 98.0687 6.91935C98.0687 6.24731 97.9934 5.76344 97.8429 5.46774C97.6923 5.17204 97.5015 5.02419 97.2703 5.02419C97.0337 5.02419 96.8375 5.17204 96.6816 5.46774C96.531 5.76344 96.4558 6.24462 96.4558 6.91129C96.4558 7.57258 96.531 8.05376 96.6816 8.35484C96.8375 8.65054 97.0337 8.79839 97.2703 8.79839ZM101.266 9.06452L99.8623 5.66936C99.7763 5.45968 99.6769 5.31989 99.5639 5.25C99.451 5.18011 99.3139 5.14247 99.1527 5.1371V4.82258C99.3516 4.83333 99.5451 4.8414 99.7333 4.84677C99.9215 4.85215 100.134 4.85484 100.37 4.85484C100.639 4.85484 100.887 4.85215 101.112 4.84677C101.344 4.8414 101.551 4.83333 101.733 4.82258V5.1371C101.448 5.14785 101.274 5.20161 101.209 5.29839C101.15 5.38979 101.166 5.55376 101.257 5.79032L101.967 7.52419L101.798 7.6129L102.862 4.80645L103.12 5L101.564 9.06452H101.266ZM103.822 9.06452L102.507 6.25L102.862 4.80645H103.169L104.475 7.58871L104.306 7.71774L104.798 6.37903C104.9 6.11022 104.94 5.8871 104.919 5.70968C104.897 5.53226 104.825 5.39785 104.701 5.30645C104.583 5.20968 104.424 5.15323 104.225 5.1371V4.82258C104.349 4.82796 104.47 4.83333 104.588 4.83871C104.712 4.84409 104.83 4.84946 104.943 4.85484C105.056 4.85484 105.161 4.85484 105.257 4.85484C105.408 4.85484 105.559 4.85215 105.709 4.84677C105.865 4.8414 105.991 4.83333 106.088 4.82258V5.1371C105.895 5.19086 105.736 5.28495 105.612 5.41935C105.489 5.54839 105.376 5.74731 105.274 6.01613L104.12 9.06452H103.822ZM107.905 9.1129C107.497 9.1129 107.142 9.02688 106.841 8.85484C106.54 8.67742 106.306 8.42473 106.139 8.09677C105.978 7.76882 105.897 7.37903 105.897 6.92742C105.897 6.44892 105.986 6.0457 106.163 5.71774C106.341 5.38441 106.588 5.13441 106.905 4.96774C107.228 4.7957 107.602 4.70968 108.026 4.70968C108.413 4.70968 108.739 4.77957 109.002 4.91935C109.266 5.05914 109.465 5.27419 109.599 5.56452C109.733 5.85484 109.795 6.22849 109.784 6.68548H106.809L106.793 6.37903H108.696C108.701 6.11559 108.68 5.88441 108.631 5.68548C108.583 5.48118 108.508 5.32258 108.405 5.20968C108.303 5.0914 108.169 5.03226 108.002 5.03226C107.793 5.03226 107.612 5.14516 107.462 5.37097C107.317 5.5914 107.231 5.94624 107.204 6.43548L107.22 6.46774C107.215 6.51613 107.209 6.5672 107.204 6.62097C107.204 6.67473 107.204 6.73925 107.204 6.81452C107.204 7.3414 107.301 7.75269 107.494 8.04839C107.693 8.33871 107.978 8.48387 108.349 8.48387C108.612 8.48387 108.838 8.41935 109.026 8.29032C109.22 8.16129 109.384 7.96237 109.518 7.69355L109.809 7.84677C109.642 8.26075 109.397 8.57527 109.075 8.79032C108.752 9.00538 108.362 9.1129 107.905 9.1129ZM109.851 9V8.68548C110.125 8.68011 110.31 8.6371 110.407 8.55645C110.509 8.47043 110.56 8.31989 110.56 8.10484V5.84677C110.56 5.59409 110.506 5.41667 110.399 5.31452C110.291 5.20699 110.109 5.14785 109.851 5.1371V4.82258C110.023 4.82796 110.157 4.83333 110.254 4.83871C110.356 4.84409 110.469 4.84677 110.592 4.84677C111.066 4.84677 111.472 4.80914 111.81 4.73387V8.03226C111.81 8.26882 111.88 8.43548 112.02 8.53226C112.16 8.62903 112.407 8.68011 112.762 8.68548V9C112.66 8.99462 112.523 8.99194 112.351 8.99194C112.179 8.98656 111.993 8.98118 111.794 8.97581C111.595 8.97043 111.402 8.96774 111.213 8.96774C110.939 8.96774 110.673 8.97312 110.415 8.98387C110.162 8.98925 109.974 8.99462 109.851 9ZM113.101 6.40323C112.955 6.40323 112.84 6.36559 112.754 6.29032C112.668 6.20968 112.625 6.10484 112.625 5.97581C112.625 5.89516 112.638 5.82258 112.665 5.75806C112.697 5.69355 112.727 5.63172 112.754 5.57258C112.781 5.51344 112.794 5.4543 112.794 5.39516C112.794 5.27688 112.719 5.21774 112.568 5.21774C112.466 5.21774 112.364 5.24194 112.262 5.29032C112.16 5.33871 112.066 5.4086 111.98 5.5C111.899 5.58602 111.834 5.68817 111.786 5.80645L111.77 5.45968C111.894 5.22849 112.063 5.0457 112.278 4.91129C112.493 4.77688 112.722 4.70968 112.963 4.70968C113.222 4.70968 113.423 4.78495 113.568 4.93548C113.713 5.08602 113.786 5.2957 113.786 5.56452C113.786 5.8172 113.722 6.02151 113.592 6.17742C113.469 6.32796 113.305 6.40323 113.101 6.40323ZM115.722 9.1129C115.491 9.1129 115.297 9.08871 115.141 9.04032C114.991 8.99194 114.861 8.94624 114.754 8.90323C114.652 8.85484 114.56 8.83065 114.48 8.83065C114.345 8.83065 114.249 8.91129 114.189 9.07258H113.875C113.891 8.92204 113.902 8.77151 113.907 8.62097C113.913 8.46505 113.915 8.29301 113.915 8.10484C113.915 7.91129 113.915 7.69355 113.915 7.45161H114.222C114.324 7.89247 114.491 8.22581 114.722 8.45161C114.958 8.67204 115.254 8.78226 115.609 8.78226C115.84 8.78226 116.017 8.73387 116.141 8.6371C116.27 8.54032 116.335 8.40591 116.335 8.23387C116.335 8.06183 116.262 7.91935 116.117 7.80645C115.972 7.68817 115.714 7.57258 115.343 7.45968C114.859 7.31452 114.504 7.12097 114.278 6.87903C114.058 6.6371 113.948 6.3414 113.948 5.99194C113.948 5.60484 114.074 5.2957 114.327 5.06452C114.585 4.82796 114.929 4.70968 115.359 4.70968C115.579 4.70968 115.765 4.73387 115.915 4.78226C116.066 4.83065 116.195 4.87903 116.302 4.92742C116.41 4.97581 116.501 5 116.577 5C116.63 5 116.676 4.98118 116.714 4.94355C116.757 4.90054 116.789 4.83871 116.81 4.75806H117.125C117.114 4.87097 117.106 4.99194 117.101 5.12097C117.095 5.24462 117.09 5.39247 117.085 5.56452C117.085 5.73118 117.087 5.94086 117.093 6.19355H116.778C116.687 5.8172 116.531 5.53226 116.31 5.33871C116.09 5.13979 115.829 5.04032 115.528 5.04032C115.318 5.04032 115.155 5.08871 115.036 5.18548C114.923 5.27688 114.867 5.40591 114.867 5.57258C114.867 5.75538 114.945 5.90591 115.101 6.02419C115.257 6.14247 115.531 6.25806 115.923 6.37097C116.386 6.50538 116.724 6.6828 116.939 6.90323C117.155 7.12366 117.262 7.41398 117.262 7.77419C117.262 8.19355 117.125 8.52151 116.851 8.75806C116.577 8.99462 116.2 9.1129 115.722 9.1129ZM118.858 9V8.68548C119.133 8.68011 119.321 8.63441 119.423 8.54839C119.525 8.46237 119.576 8.31183 119.576 8.09677V4.71774C119.576 4.06183 119.743 3.56183 120.076 3.21774C120.409 2.86828 120.888 2.69355 121.512 2.69355C121.963 2.69355 122.315 2.77688 122.568 2.94355C122.826 3.11022 122.955 3.3414 122.955 3.6371C122.955 3.83065 122.893 3.98656 122.77 4.10484C122.651 4.21774 122.49 4.27419 122.286 4.27419C122.135 4.27419 122.014 4.23925 121.923 4.16935C121.837 4.09409 121.794 3.99731 121.794 3.87903C121.794 3.78226 121.813 3.69624 121.85 3.62097C121.893 3.54032 121.934 3.46774 121.971 3.40323C122.009 3.33333 122.028 3.26882 122.028 3.20968C122.028 3.07527 121.907 3.00806 121.665 3.00806C121.38 3.00806 121.168 3.11022 121.028 3.31452C120.893 3.51882 120.826 3.83871 120.826 4.27419V8.03226C120.826 8.26344 120.899 8.43011 121.044 8.53226C121.194 8.62903 121.444 8.68011 121.794 8.68548V9C121.686 8.99462 121.544 8.99194 121.366 8.99194C121.194 8.98656 121.006 8.98118 120.802 8.97581C120.598 8.97043 120.399 8.96774 120.205 8.96774C119.915 8.96774 119.649 8.97312 119.407 8.98387C119.17 8.98925 118.987 8.99462 118.858 9ZM118.834 5.1371V4.82258H121.907V5.1371H118.834ZM123.967 9.1129C123.553 9.1129 123.188 9.03226 122.871 8.87097C122.553 8.70968 122.303 8.46774 122.121 8.14516C121.943 7.8172 121.854 7.4086 121.854 6.91935C121.854 6.42473 121.943 6.01613 122.121 5.69355C122.303 5.36559 122.553 5.12097 122.871 4.95968C123.188 4.79301 123.556 4.70968 123.975 4.70968C124.395 4.70968 124.76 4.79032 125.072 4.95161C125.389 5.1129 125.637 5.35753 125.814 5.68548C125.997 6.01344 126.088 6.42473 126.088 6.91935C126.088 7.4086 125.997 7.8172 125.814 8.14516C125.637 8.46774 125.389 8.70968 125.072 8.87097C124.76 9.03226 124.392 9.1129 123.967 9.1129ZM123.975 8.79839C124.207 8.79839 124.397 8.65054 124.548 8.35484C124.698 8.05376 124.774 7.57527 124.774 6.91935C124.774 6.24731 124.698 5.76344 124.548 5.46774C124.397 5.17204 124.207 5.02419 123.975 5.02419C123.739 5.02419 123.543 5.17204 123.387 5.46774C123.236 5.76344 123.161 6.24462 123.161 6.91129C123.161 7.57258 123.236 8.05376 123.387 8.35484C123.543 8.65054 123.739 8.79839 123.975 8.79839ZM126.188 9V8.68548C126.463 8.68011 126.648 8.6371 126.745 8.55645C126.847 8.47043 126.898 8.31989 126.898 8.10484V5.84677C126.898 5.59409 126.844 5.41667 126.737 5.31452C126.629 5.20699 126.447 5.14785 126.188 5.1371V4.82258C126.36 4.82796 126.495 4.83333 126.592 4.83871C126.694 4.84409 126.807 4.84677 126.93 4.84677C127.403 4.84677 127.809 4.80914 128.148 4.73387V8.03226C128.148 8.26882 128.218 8.43548 128.358 8.53226C128.498 8.62903 128.745 8.68011 129.1 8.68548V9C128.998 8.99462 128.86 8.99194 128.688 8.99194C128.516 8.98656 128.331 8.98118 128.132 8.97581C127.933 8.97043 127.74 8.96774 127.551 8.96774C127.277 8.96774 127.011 8.97312 126.753 8.98387C126.5 8.98925 126.312 8.99462 126.188 9ZM129.438 6.40323C129.293 6.40323 129.178 6.36559 129.092 6.29032C129.006 6.20968 128.963 6.10484 128.963 5.97581C128.963 5.89516 128.976 5.82258 129.003 5.75806C129.035 5.69355 129.065 5.63172 129.092 5.57258C129.119 5.51344 129.132 5.4543 129.132 5.39516C129.132 5.27688 129.057 5.21774 128.906 5.21774C128.804 5.21774 128.702 5.24194 128.6 5.29032C128.498 5.33871 128.403 5.4086 128.317 5.5C128.237 5.58602 128.172 5.68817 128.124 5.80645L128.108 5.45968C128.231 5.22849 128.401 5.0457 128.616 4.91129C128.831 4.77688 129.059 4.70968 129.301 4.70968C129.559 4.70968 129.761 4.78495 129.906 4.93548C130.051 5.08602 130.124 5.2957 130.124 5.56452C130.124 5.8172 130.059 6.02151 129.93 6.17742C129.807 6.32796 129.643 6.40323 129.438 6.40323ZM131.563 9V8.68548C131.805 8.67473 131.982 8.65323 132.095 8.62097C132.213 8.58871 132.291 8.52419 132.329 8.42742C132.367 8.33065 132.385 8.18548 132.385 7.99194V4.29839C132.385 4.10484 132.367 3.96237 132.329 3.87097C132.291 3.77419 132.213 3.70699 132.095 3.66936C131.982 3.63172 131.805 3.61022 131.563 3.60484V3.29032C131.853 3.2957 132.235 3.30108 132.708 3.30645C133.181 3.31183 133.732 3.31452 134.361 3.31452C134.614 3.31452 134.85 3.31452 135.071 3.31452C135.291 3.30914 135.496 3.30645 135.684 3.30645C135.872 3.30108 136.041 3.2957 136.192 3.29032C136.192 3.60215 136.203 3.91129 136.224 4.21774C136.246 4.51882 136.278 4.8172 136.321 5.1129H135.998C135.923 4.76344 135.821 4.48118 135.692 4.26613C135.568 4.0457 135.415 3.88441 135.232 3.78226C135.055 3.68011 134.84 3.62903 134.587 3.62903H133.772V8.1129C133.772 8.26882 133.786 8.3871 133.813 8.46774C133.84 8.54839 133.891 8.60215 133.966 8.62903C134.047 8.65054 134.162 8.66129 134.313 8.66129H134.474C134.764 8.66129 135.025 8.59677 135.256 8.46774C135.488 8.33871 135.692 8.13978 135.869 7.87097C136.047 7.59677 136.205 7.25 136.345 6.83065H136.668C136.63 7.22849 136.6 7.60753 136.579 7.96774C136.563 8.32258 136.557 8.66667 136.563 9C136.294 8.98925 135.977 8.98387 135.611 8.98387C135.246 8.97849 134.813 8.97581 134.313 8.97581C133.695 8.97581 133.154 8.97849 132.692 8.98387C132.229 8.98387 131.853 8.98925 131.563 9ZM133.514 6.28226V5.97581H134.998V6.28226H133.514ZM135.119 7.33871C135.092 7.09677 135.039 6.89785 134.958 6.74194C134.883 6.58602 134.778 6.47043 134.643 6.39516C134.514 6.31989 134.353 6.28226 134.16 6.28226V5.97581C134.418 5.97581 134.625 5.8871 134.781 5.70968C134.942 5.52688 135.047 5.26344 135.095 4.91935H135.402C135.38 5.23656 135.369 5.48118 135.369 5.65323C135.375 5.82527 135.377 5.98387 135.377 6.12903C135.377 6.23656 135.377 6.34677 135.377 6.45968C135.383 6.5672 135.388 6.69086 135.393 6.83065C135.404 6.97043 135.415 7.13979 135.426 7.33871H135.119ZM138.785 9.06452L137.156 5.64516C137.075 5.47312 136.978 5.34946 136.865 5.27419C136.758 5.19355 136.615 5.14785 136.438 5.1371V4.82258C136.615 4.83333 136.806 4.8414 137.01 4.84677C137.215 4.85215 137.462 4.85484 137.752 4.85484C137.989 4.85484 138.201 4.85215 138.389 4.84677C138.583 4.8414 138.779 4.83333 138.978 4.82258V5.1371C138.725 5.14785 138.57 5.20699 138.51 5.31452C138.451 5.42204 138.478 5.59409 138.591 5.83065L139.47 7.67742L139.277 7.83871L139.906 6.39516C140.008 6.16398 140.059 5.95968 140.059 5.78226C140.064 5.60484 140.021 5.45968 139.93 5.34677C139.844 5.23387 139.709 5.16398 139.527 5.1371V4.82258C139.656 4.82796 139.777 4.83333 139.889 4.83871C140.002 4.84409 140.11 4.84946 140.212 4.85484C140.314 4.85484 140.408 4.85484 140.494 4.85484C140.618 4.85484 140.752 4.85215 140.897 4.84677C141.048 4.83602 141.182 4.82796 141.301 4.82258V5.1371C141.086 5.19624 140.908 5.29839 140.768 5.44355C140.629 5.58333 140.494 5.80376 140.365 6.10484L139.083 9.06452H138.785ZM143.062 9.1129C142.653 9.1129 142.298 9.02688 141.997 8.85484C141.696 8.67742 141.462 8.42473 141.296 8.09677C141.134 7.76882 141.054 7.37903 141.054 6.92742C141.054 6.44892 141.142 6.0457 141.32 5.71774C141.497 5.38441 141.744 5.13441 142.062 4.96774C142.384 4.7957 142.758 4.70968 143.183 4.70968C143.57 4.70968 143.895 4.77957 144.158 4.91935C144.422 5.05914 144.621 5.27419 144.755 5.56452C144.89 5.85484 144.951 6.22849 144.941 6.68548H141.965L141.949 6.37903H143.852C143.857 6.11559 143.836 5.88441 143.787 5.68548C143.739 5.48118 143.664 5.32258 143.562 5.20968C143.46 5.0914 143.325 5.03226 143.158 5.03226C142.949 5.03226 142.769 5.14516 142.618 5.37097C142.473 5.5914 142.387 5.94624 142.36 6.43548L142.376 6.46774C142.371 6.51613 142.365 6.5672 142.36 6.62097C142.36 6.67473 142.36 6.73925 142.36 6.81452C142.36 7.3414 142.457 7.75269 142.65 8.04839C142.849 8.33871 143.134 8.48387 143.505 8.48387C143.769 8.48387 143.994 8.41935 144.183 8.29032C144.376 8.16129 144.54 7.96237 144.675 7.69355L144.965 7.84677C144.798 8.26075 144.554 8.57527 144.231 8.79032C143.908 9.00538 143.519 9.1129 143.062 9.1129ZM145.007 9V8.68548C145.281 8.68011 145.466 8.6371 145.563 8.55645C145.665 8.47043 145.716 8.31989 145.716 8.10484V5.84677C145.716 5.59409 145.663 5.41667 145.555 5.31452C145.448 5.20699 145.265 5.14785 145.007 5.1371V4.82258C145.179 4.82796 145.313 4.83333 145.41 4.83871C145.512 4.84409 145.625 4.84677 145.749 4.84677C146.222 4.84677 146.628 4.80914 146.966 4.73387V8.03226C146.966 8.26882 147.036 8.43548 147.176 8.53226C147.316 8.62903 147.563 8.68011 147.918 8.68548V9C147.816 8.99462 147.679 8.99194 147.507 8.99194C147.335 8.98656 147.149 8.98118 146.95 8.97581C146.751 8.97043 146.558 8.96774 146.37 8.96774C146.096 8.96774 145.829 8.97312 145.571 8.98387C145.319 8.98925 145.13 8.99462 145.007 9ZM148.257 6.40323C148.112 6.40323 147.996 6.36559 147.91 6.29032C147.824 6.20968 147.781 6.10484 147.781 5.97581C147.781 5.89516 147.794 5.82258 147.821 5.75806C147.854 5.69355 147.883 5.63172 147.91 5.57258C147.937 5.51344 147.95 5.4543 147.95 5.39516C147.95 5.27688 147.875 5.21774 147.725 5.21774C147.622 5.21774 147.52 5.24194 147.418 5.29032C147.316 5.33871 147.222 5.4086 147.136 5.5C147.055 5.58602 146.991 5.68817 146.942 5.80645L146.926 5.45968C147.05 5.22849 147.219 5.0457 147.434 4.91129C147.649 4.77688 147.878 4.70968 148.12 4.70968C148.378 4.70968 148.579 4.78495 148.725 4.93548C148.87 5.08602 148.942 5.2957 148.942 5.56452C148.942 5.8172 148.878 6.02151 148.749 6.17742C148.625 6.32796 148.461 6.40323 148.257 6.40323ZM151.191 9.52419L149.384 5.66129C149.298 5.48387 149.199 5.35484 149.086 5.27419C148.978 5.19355 148.836 5.14785 148.659 5.1371V4.82258C148.852 4.83333 149.054 4.8414 149.263 4.84677C149.473 4.85215 149.71 4.85484 149.973 4.85484C150.226 4.85484 150.446 4.85215 150.634 4.84677C150.822 4.8414 151.011 4.83333 151.199 4.82258V5.1371C150.952 5.14785 150.796 5.2043 150.731 5.30645C150.667 5.4086 150.691 5.58333 150.804 5.83065L151.779 7.91935L151.578 8.03226L152.207 6.39516C152.298 6.14785 152.341 5.93548 152.336 5.75806C152.336 5.58065 152.288 5.44086 152.191 5.33871C152.094 5.23118 151.952 5.16398 151.763 5.1371V4.82258C151.882 4.82796 151.995 4.83333 152.102 4.83871C152.215 4.84409 152.325 4.84946 152.433 4.85484C152.54 4.85484 152.64 4.85484 152.731 4.85484C152.855 4.85484 152.992 4.85215 153.142 4.84677C153.293 4.83602 153.425 4.82796 153.538 4.82258V5.1371C153.322 5.19624 153.145 5.30108 153.005 5.45161C152.871 5.60215 152.745 5.83602 152.626 6.15323L151.352 9.52419H151.191ZM150.038 10.9758C149.736 10.9758 149.497 10.9032 149.32 10.7581C149.142 10.6183 149.054 10.4328 149.054 10.2016C149.054 10.0027 149.116 9.8414 149.239 9.71774C149.363 9.59946 149.524 9.54032 149.723 9.54032C149.874 9.54032 149.992 9.57527 150.078 9.64516C150.164 9.71505 150.207 9.80914 150.207 9.92742C150.207 10.0027 150.191 10.0726 150.159 10.1371C150.132 10.207 150.102 10.2715 150.07 10.3306C150.043 10.3898 150.029 10.4489 150.029 10.5081C150.029 10.6048 150.086 10.6532 150.199 10.6532C150.328 10.6532 150.441 10.6102 150.538 10.5242C150.64 10.4382 150.726 10.3065 150.796 10.129L151.312 8.75806L151.602 8.84677L151.102 10.1694C151.038 10.3468 150.957 10.4946 150.86 10.6129C150.763 10.7312 150.648 10.8199 150.513 10.879C150.379 10.9435 150.22 10.9758 150.038 10.9758ZM158.067 9.1129C157.454 9.1129 156.919 8.98925 156.462 8.74194C156.005 8.49462 155.648 8.15054 155.39 7.70968C155.137 7.26344 155.011 6.74462 155.011 6.15323C155.011 5.5672 155.14 5.05108 155.398 4.60484C155.656 4.1586 156.013 3.80914 156.47 3.55645C156.927 3.30376 157.46 3.17742 158.067 3.17742C158.68 3.17742 159.215 3.30108 159.672 3.54839C160.129 3.7957 160.484 4.14247 160.736 4.58871C160.989 5.02957 161.115 5.5457 161.115 6.1371C161.115 6.72312 160.986 7.23925 160.728 7.68548C160.476 8.13172 160.121 8.48118 159.664 8.73387C159.207 8.98656 158.675 9.1129 158.067 9.1129ZM158.075 8.81452C158.382 8.81452 158.653 8.7043 158.89 8.48387C159.132 8.26344 159.322 7.9543 159.462 7.55645C159.602 7.15323 159.672 6.6828 159.672 6.14516C159.672 5.59677 159.599 5.12366 159.454 4.72581C159.309 4.32796 159.113 4.02151 158.865 3.80645C158.624 3.58602 158.355 3.47581 158.059 3.47581C157.753 3.47581 157.478 3.58602 157.236 3.80645C156.995 4.02688 156.804 4.33871 156.664 4.74194C156.529 5.13978 156.462 5.60753 156.462 6.14516C156.462 6.68817 156.532 7.16129 156.672 7.56452C156.817 7.96237 157.011 8.27151 157.253 8.49194C157.5 8.70699 157.774 8.81452 158.075 8.81452ZM163.463 9.1129C163.059 9.1129 162.713 9.02688 162.422 8.85484C162.132 8.67742 161.906 8.42742 161.745 8.10484C161.583 7.77688 161.503 7.38978 161.503 6.94355C161.503 6.47581 161.586 6.07527 161.753 5.74194C161.925 5.4086 162.167 5.15323 162.479 4.97581C162.79 4.79839 163.164 4.70968 163.6 4.70968C163.911 4.70968 164.186 4.75806 164.422 4.85484C164.659 4.94624 164.844 5.07796 164.979 5.25C165.113 5.41667 165.18 5.61022 165.18 5.83065C165.18 6.0457 165.113 6.22581 164.979 6.37097C164.844 6.51075 164.664 6.58065 164.438 6.58065C164.277 6.58065 164.145 6.54032 164.043 6.45968C163.946 6.37903 163.898 6.27151 163.898 6.1371C163.898 6.00806 163.933 5.90054 164.003 5.81452C164.073 5.72312 164.14 5.63979 164.204 5.56452C164.274 5.48387 164.309 5.39785 164.309 5.30645C164.309 5.23118 164.272 5.17204 164.196 5.12903C164.121 5.08602 164.022 5.06452 163.898 5.06452C163.559 5.06452 163.293 5.21774 163.1 5.52419C162.906 5.83065 162.809 6.25538 162.809 6.79839C162.809 7.3414 162.903 7.75806 163.092 8.04839C163.28 8.33871 163.554 8.48387 163.914 8.48387C164.156 8.48387 164.363 8.41935 164.535 8.29032C164.713 8.15591 164.86 7.95699 164.979 7.69355L165.269 7.84677C165.118 8.26075 164.887 8.57527 164.575 8.79032C164.269 9.00538 163.898 9.1129 163.463 9.1129ZM167.406 9.1129C167.003 9.1129 166.656 9.02688 166.366 8.85484C166.075 8.67742 165.849 8.42742 165.688 8.10484C165.527 7.77688 165.446 7.38978 165.446 6.94355C165.446 6.47581 165.53 6.07527 165.696 5.74194C165.868 5.4086 166.11 5.15323 166.422 4.97581C166.734 4.79839 167.107 4.70968 167.543 4.70968C167.855 4.70968 168.129 4.75806 168.366 4.85484C168.602 4.94624 168.788 5.07796 168.922 5.25C169.056 5.41667 169.124 5.61022 169.124 5.83065C169.124 6.0457 169.056 6.22581 168.922 6.37097C168.788 6.51075 168.607 6.58065 168.382 6.58065C168.22 6.58065 168.089 6.54032 167.987 6.45968C167.89 6.37903 167.841 6.27151 167.841 6.1371C167.841 6.00806 167.876 5.90054 167.946 5.81452C168.016 5.72312 168.083 5.63979 168.148 5.56452C168.218 5.48387 168.253 5.39785 168.253 5.30645C168.253 5.23118 168.215 5.17204 168.14 5.12903C168.064 5.08602 167.965 5.06452 167.841 5.06452C167.503 5.06452 167.237 5.21774 167.043 5.52419C166.849 5.83065 166.753 6.25538 166.753 6.79839C166.753 7.3414 166.847 7.75806 167.035 8.04839C167.223 8.33871 167.497 8.48387 167.857 8.48387C168.099 8.48387 168.306 8.41935 168.478 8.29032C168.656 8.15591 168.804 7.95699 168.922 7.69355L169.212 7.84677C169.062 8.26075 168.831 8.57527 168.519 8.79032C168.212 9.00538 167.841 9.1129 167.406 9.1129ZM170.54 9.1129C170.19 9.1129 169.913 9.02151 169.709 8.83871C169.505 8.65591 169.403 8.40591 169.403 8.08871C169.403 7.84677 169.459 7.65054 169.572 7.5C169.685 7.34409 169.83 7.21774 170.008 7.12097C170.19 7.02419 170.381 6.94355 170.58 6.87903C170.784 6.81452 170.975 6.75269 171.153 6.69355C171.336 6.63441 171.483 6.56452 171.596 6.48387C171.709 6.40323 171.766 6.2957 171.766 6.16129V5.77419C171.766 5.53763 171.704 5.35753 171.58 5.23387C171.462 5.10484 171.287 5.04032 171.056 5.04032C170.884 5.04032 170.744 5.06452 170.637 5.1129C170.534 5.16129 170.483 5.22849 170.483 5.31452C170.483 5.38441 170.505 5.4543 170.548 5.52419C170.596 5.58871 170.642 5.6586 170.685 5.73387C170.728 5.80914 170.749 5.89247 170.749 5.98387C170.749 6.10753 170.698 6.20699 170.596 6.28226C170.494 6.35753 170.357 6.39516 170.185 6.39516C169.997 6.39516 169.846 6.3414 169.733 6.23387C169.626 6.12634 169.572 5.98118 169.572 5.79839C169.572 5.57796 169.65 5.3871 169.806 5.22581C169.962 5.06452 170.18 4.93817 170.459 4.84677C170.739 4.75538 171.064 4.70968 171.435 4.70968C171.811 4.70968 172.115 4.76075 172.346 4.8629C172.583 4.95968 172.752 5.12097 172.854 5.34677C172.962 5.57258 173.016 5.87634 173.016 6.25806V8.32258C173.016 8.44086 173.034 8.52688 173.072 8.58065C173.11 8.62903 173.169 8.65323 173.249 8.65323C173.314 8.65323 173.379 8.63978 173.443 8.6129C173.513 8.58602 173.583 8.54839 173.653 8.5L173.782 8.75806C173.637 8.87634 173.47 8.96505 173.282 9.02419C173.099 9.08333 172.892 9.1129 172.661 9.1129C172.086 9.1129 171.793 8.89785 171.782 8.46774C171.631 8.6828 171.451 8.84409 171.241 8.95161C171.037 9.05914 170.803 9.1129 170.54 9.1129ZM171.153 8.47581C171.271 8.47581 171.384 8.44892 171.491 8.39516C171.599 8.3414 171.69 8.25806 171.766 8.14516V6.6129C171.728 6.69892 171.663 6.77419 171.572 6.83871C171.486 6.89785 171.389 6.95699 171.282 7.01613C171.174 7.07527 171.069 7.14247 170.967 7.21774C170.87 7.29301 170.787 7.38441 170.717 7.49194C170.653 7.59946 170.62 7.73118 170.62 7.8871C170.62 8.07527 170.666 8.22043 170.758 8.32258C170.854 8.42473 170.986 8.47581 171.153 8.47581ZM175.642 9.1129C175.41 9.1129 175.217 9.08871 175.061 9.04032C174.91 8.99194 174.781 8.94624 174.674 8.90323C174.572 8.85484 174.48 8.83065 174.4 8.83065C174.265 8.83065 174.169 8.91129 174.109 9.07258H173.795C173.811 8.92204 173.822 8.77151 173.827 8.62097C173.832 8.46505 173.835 8.29301 173.835 8.10484C173.835 7.91129 173.835 7.69355 173.835 7.45161H174.142C174.244 7.89247 174.41 8.22581 174.642 8.45161C174.878 8.67204 175.174 8.78226 175.529 8.78226C175.76 8.78226 175.937 8.73387 176.061 8.6371C176.19 8.54032 176.255 8.40591 176.255 8.23387C176.255 8.06183 176.182 7.91935 176.037 7.80645C175.892 7.68817 175.634 7.57258 175.263 7.45968C174.779 7.31452 174.424 7.12097 174.198 6.87903C173.978 6.6371 173.867 6.3414 173.867 5.99194C173.867 5.60484 173.994 5.2957 174.246 5.06452C174.505 4.82796 174.849 4.70968 175.279 4.70968C175.499 4.70968 175.685 4.73387 175.835 4.78226C175.986 4.83065 176.115 4.87903 176.222 4.92742C176.33 4.97581 176.421 5 176.496 5C176.55 5 176.596 4.98118 176.634 4.94355C176.677 4.90054 176.709 4.83871 176.73 4.75806H177.045C177.034 4.87097 177.026 4.99194 177.021 5.12097C177.015 5.24462 177.01 5.39247 177.005 5.56452C177.005 5.73118 177.007 5.94086 177.013 6.19355H176.698C176.607 5.8172 176.451 5.53226 176.23 5.33871C176.01 5.13979 175.749 5.04032 175.448 5.04032C175.238 5.04032 175.074 5.08871 174.956 5.18548C174.843 5.27688 174.787 5.40591 174.787 5.57258C174.787 5.75538 174.865 5.90591 175.021 6.02419C175.177 6.14247 175.451 6.25806 175.843 6.37097C176.306 6.50538 176.644 6.6828 176.859 6.90323C177.074 7.12366 177.182 7.41398 177.182 7.77419C177.182 8.19355 177.045 8.52151 176.771 8.75806C176.496 8.99462 176.12 9.1129 175.642 9.1129ZM177.335 9V8.68548C177.598 8.68011 177.781 8.6371 177.883 8.55645C177.991 8.47581 178.045 8.32527 178.045 8.10484V5.84677C178.045 5.60484 177.994 5.43011 177.891 5.32258C177.795 5.20968 177.609 5.14785 177.335 5.1371V4.82258C177.448 4.82796 177.558 4.83333 177.666 4.83871C177.778 4.84409 177.891 4.84677 178.004 4.84677C178.252 4.84677 178.483 4.83871 178.698 4.82258C178.913 4.80108 179.112 4.77151 179.295 4.73387V8.10484C179.295 8.33065 179.348 8.48387 179.456 8.56452C179.563 8.63978 179.746 8.68011 180.004 8.68548V9C179.924 8.99462 179.811 8.99194 179.666 8.99194C179.526 8.98656 179.37 8.98118 179.198 8.97581C179.031 8.97043 178.862 8.96774 178.69 8.96774C178.437 8.96774 178.182 8.97312 177.924 8.98387C177.666 8.98925 177.469 8.99462 177.335 9ZM178.633 4.04839C178.445 4.04839 178.276 3.98925 178.125 3.87097C177.98 3.75269 177.908 3.58871 177.908 3.37903C177.908 3.16398 177.98 2.99731 178.125 2.87903C178.276 2.76075 178.445 2.70161 178.633 2.70161C178.821 2.70161 178.991 2.76075 179.141 2.87903C179.292 2.99731 179.367 3.16129 179.367 3.37097C179.367 3.58602 179.292 3.75269 179.141 3.87097C178.991 3.98925 178.821 4.04839 178.633 4.04839ZM182.161 9.1129C181.747 9.1129 181.381 9.03226 181.064 8.87097C180.747 8.70968 180.497 8.46774 180.314 8.14516C180.136 7.8172 180.048 7.4086 180.048 6.91935C180.048 6.42473 180.136 6.01613 180.314 5.69355C180.497 5.36559 180.747 5.12097 181.064 4.95968C181.381 4.79301 181.749 4.70968 182.169 4.70968C182.588 4.70968 182.954 4.79032 183.265 4.95161C183.583 5.1129 183.83 5.35753 184.007 5.68548C184.19 6.01344 184.282 6.42473 184.282 6.91935C184.282 7.4086 184.19 7.8172 184.007 8.14516C183.83 8.46774 183.583 8.70968 183.265 8.87097C182.954 9.03226 182.585 9.1129 182.161 9.1129ZM182.169 8.79839C182.4 8.79839 182.591 8.65054 182.741 8.35484C182.892 8.05376 182.967 7.57527 182.967 6.91935C182.967 6.24731 182.892 5.76344 182.741 5.46774C182.591 5.17204 182.4 5.02419 182.169 5.02419C181.932 5.02419 181.736 5.17204 181.58 5.46774C181.429 5.76344 181.354 6.24462 181.354 6.91129C181.354 7.57258 181.429 8.05376 181.58 8.35484C181.736 8.65054 181.932 8.79839 182.169 8.79839ZM187.237 9V8.68548C187.425 8.68011 187.551 8.6371 187.616 8.55645C187.686 8.47043 187.721 8.31989 187.721 8.10484V6.05645C187.721 5.79301 187.667 5.59677 187.559 5.46774C187.452 5.33333 187.296 5.26613 187.091 5.26613C186.93 5.26613 186.782 5.31183 186.648 5.40323C186.514 5.49462 186.398 5.62903 186.301 5.80645V5.45161C186.436 5.22043 186.616 5.04032 186.841 4.91129C187.073 4.77688 187.339 4.70968 187.64 4.70968C188.07 4.70968 188.398 4.83602 188.624 5.08871C188.855 5.3414 188.971 5.7043 188.971 6.17742V8.10484C188.971 8.31989 189.022 8.47043 189.124 8.55645C189.226 8.6371 189.411 8.68011 189.68 8.68548V9C189.6 8.99462 189.487 8.99194 189.341 8.99194C189.196 8.98656 189.04 8.98118 188.874 8.97581C188.707 8.97043 188.54 8.96774 188.374 8.96774C188.153 8.96774 187.936 8.97312 187.721 8.98387C187.505 8.98925 187.344 8.99462 187.237 9ZM184.382 9V8.68548C184.651 8.68011 184.836 8.6371 184.938 8.55645C185.04 8.47043 185.091 8.31989 185.091 8.10484V5.84677C185.091 5.59409 185.038 5.41667 184.93 5.31452C184.828 5.20699 184.645 5.14785 184.382 5.1371V4.82258C184.5 4.82796 184.616 4.83333 184.729 4.83871C184.841 4.84409 184.954 4.84677 185.067 4.84677C185.32 4.84677 185.551 4.83871 185.761 4.82258C185.971 4.80108 186.164 4.77151 186.341 4.73387V8.10484C186.341 8.31989 186.376 8.47043 186.446 8.55645C186.516 8.6371 186.643 8.68011 186.825 8.68548V9C186.707 8.99462 186.548 8.98925 186.35 8.98387C186.151 8.97312 185.946 8.96774 185.737 8.96774C185.495 8.96774 185.245 8.97312 184.987 8.98387C184.734 8.98925 184.532 8.99462 184.382 9Z" fill="#C3858F"/>
<line y1="6.5" x2="43" y2="6.5" stroke="#C3858F"/>
<line x1="198" y1="6.5" x2="241" y2="6.5" stroke="#C3858F"/>
</svg>
