<svg width="120" height="27" viewBox="0 0 120 27" fill="none" xmlns="http://www.w3.org/2000/svg">
<path d="M25.6348 -0.000222206V8.72705H24.0539V-0.000222206H25.6348ZM30.6213 4.89182V8.72705H29.0786V2.1816H30.5531V3.29381H30.6298C30.7804 2.92733 31.0204 2.63614 31.35 2.42023C31.6823 2.20432 32.0929 2.09637 32.5815 2.09637C33.0332 2.09637 33.4267 2.19296 33.7619 2.38614C34.1 2.57932 34.3613 2.85915 34.546 3.22563C34.7335 3.59211 34.8258 4.03671 34.823 4.55944V8.72705H33.2804V4.79807C33.2804 4.36057 33.1667 4.01824 32.9394 3.77108C32.715 3.52393 32.4039 3.40035 32.0062 3.40035C31.7363 3.40035 31.4963 3.46001 31.286 3.57932C31.0786 3.6958 30.9153 3.86483 30.796 4.08643C30.6795 4.30802 30.6213 4.57648 30.6213 4.89182ZM43.3644 3.91171L41.9582 4.06512C41.9184 3.92307 41.8488 3.78955 41.7494 3.66455C41.6528 3.53955 41.5221 3.4387 41.3573 3.36199C41.1926 3.28529 40.9909 3.24694 40.7522 3.24694C40.4312 3.24694 40.1613 3.31654 39.9426 3.45574C39.7267 3.59495 39.6201 3.77535 39.623 3.99694C39.6201 4.18728 39.6897 4.34211 39.8318 4.46143C39.9767 4.58074 40.2153 4.67876 40.5477 4.75546L41.6642 4.9941C42.2835 5.12762 42.7437 5.33927 43.0448 5.62904C43.3488 5.91881 43.5022 6.29807 43.5051 6.76682C43.5022 7.17876 43.3815 7.54239 43.1429 7.85773C42.9071 8.17023 42.5789 8.41455 42.1585 8.59069C41.738 8.76682 41.2551 8.85489 40.7096 8.85489C39.9085 8.85489 39.2636 8.68728 38.775 8.35205C38.2863 8.01398 37.9951 7.54381 37.9014 6.94154L39.4056 6.79665C39.4738 7.09211 39.6187 7.31512 39.8403 7.46569C40.0619 7.61626 40.3502 7.69154 40.7054 7.69154C41.0718 7.69154 41.3659 7.61626 41.5875 7.46569C41.8119 7.31512 41.9241 7.12904 41.9241 6.90745C41.9241 6.71995 41.8517 6.56512 41.7068 6.44296C41.5647 6.3208 41.3431 6.22705 41.042 6.16171L39.9255 5.92733C39.2977 5.79665 38.8332 5.57648 38.5321 5.26682C38.2309 4.95432 38.0818 4.55944 38.0846 4.08216C38.0818 3.67876 38.1912 3.32932 38.4127 3.03387C38.6372 2.73557 38.9483 2.50546 39.346 2.34353C39.7465 2.17876 40.2082 2.09637 40.7309 2.09637C41.498 2.09637 42.1017 2.25972 42.542 2.58643C42.9852 2.91313 43.2593 3.35489 43.3644 3.91171ZM49.8455 2.1816V3.37478H46.0828V2.1816H49.8455ZM47.0117 0.613414H48.5544V6.7583C48.5544 6.96569 48.5856 7.12478 48.6481 7.23557C48.7134 7.34353 48.7987 7.41739 48.9038 7.45716C49.0089 7.49694 49.1254 7.51682 49.2532 7.51682C49.3498 7.51682 49.4379 7.50972 49.5174 7.49552C49.5998 7.48131 49.6623 7.46853 49.7049 7.45716L49.9649 8.66313C49.8825 8.69154 49.7646 8.72279 49.6112 8.75688C49.4606 8.79097 49.2759 8.81086 49.0572 8.81654C48.6708 8.8279 48.3228 8.76966 48.0132 8.64182C47.7035 8.51114 47.4578 8.30944 47.2759 8.03671C47.097 7.76398 47.0089 7.42307 47.0117 7.01398V0.613414ZM54.8192 8.85915C54.4044 8.85915 54.0309 8.78529 53.6985 8.63756C53.3689 8.48699 53.1076 8.2654 52.9144 7.97279C52.724 7.68018 52.6289 7.31938 52.6289 6.8904C52.6289 6.52108 52.697 6.21569 52.8334 5.97421C52.9698 5.73273 53.1559 5.53955 53.3916 5.39466C53.6274 5.24978 53.8931 5.1404 54.1885 5.06654C54.4868 4.98983 54.7951 4.93444 55.1132 4.90035C55.4968 4.86057 55.8078 4.82506 56.0465 4.79381C56.2851 4.75972 56.4584 4.70858 56.5664 4.6404C56.6772 4.56938 56.7326 4.46001 56.7326 4.31228V4.28671C56.7326 3.96569 56.6374 3.71711 56.447 3.54097C56.2567 3.36483 55.9826 3.27677 55.6246 3.27677C55.2468 3.27677 54.947 3.35915 54.7255 3.52393C54.5067 3.6887 54.359 3.8833 54.2823 4.10773L52.8419 3.90319C52.9556 3.50546 53.1431 3.17307 53.4044 2.90603C53.6658 2.63614 53.9854 2.43444 54.3632 2.30091C54.7411 2.16455 55.1587 2.09637 55.6161 2.09637C55.9314 2.09637 56.2453 2.1333 56.5578 2.20716C56.8703 2.28103 57.1559 2.40319 57.4144 2.57364C57.6729 2.74126 57.8803 2.96995 58.0365 3.25972C58.1956 3.54949 58.2752 3.91171 58.2752 4.34637V8.72705H56.7922V7.8279H56.7411C56.6473 8.00972 56.5152 8.18018 56.3448 8.33927C56.1772 8.49552 55.9655 8.62194 55.7098 8.71853C55.457 8.81228 55.1601 8.85915 54.8192 8.85915ZM55.2198 7.72563C55.5294 7.72563 55.7979 7.66455 56.0252 7.54239C56.2524 7.41739 56.4272 7.25262 56.5493 7.04807C56.6743 6.84353 56.7368 6.62052 56.7368 6.37904V5.60773C56.6885 5.64751 56.6061 5.68444 56.4897 5.71853C56.376 5.75262 56.2482 5.78245 56.1061 5.80802C55.9641 5.83358 55.8235 5.85631 55.6843 5.8762C55.5451 5.89608 55.4243 5.91313 55.322 5.92733C55.0919 5.95858 54.886 6.00972 54.7041 6.08074C54.5223 6.15177 54.3789 6.2512 54.2737 6.37904C54.1686 6.50404 54.1161 6.66597 54.1161 6.86483C54.1161 7.14893 54.2198 7.36341 54.4272 7.5083C54.6345 7.65319 54.8987 7.72563 55.2198 7.72563ZM64.4729 11.318C63.9189 11.318 63.4431 11.2427 63.0453 11.0921C62.6476 10.9444 62.328 10.7455 62.0865 10.4955C61.8451 10.2455 61.6774 9.96853 61.5837 9.66455L62.9729 9.3279C63.0354 9.45574 63.1263 9.58216 63.2456 9.70716C63.3649 9.83501 63.5255 9.94012 63.7272 10.0225C63.9317 10.1077 64.1888 10.1503 64.4985 10.1503C64.936 10.1503 65.2982 10.0438 65.5851 9.83074C65.872 9.62052 66.0155 9.27393 66.0155 8.79097V7.55091H65.9388C65.8593 7.71001 65.7428 7.87336 65.5894 8.04097C65.4388 8.20858 65.2385 8.34921 64.9885 8.46285C64.7414 8.57648 64.4303 8.6333 64.0553 8.6333C63.5524 8.6333 63.0965 8.5154 62.6874 8.27961C62.2811 8.04097 61.9573 7.68586 61.7158 7.21427C61.4772 6.73983 61.3578 6.14608 61.3578 5.43302C61.3578 4.71427 61.4772 4.10773 61.7158 3.61341C61.9573 3.11626 62.2826 2.73983 62.6916 2.48415C63.1007 2.22563 63.5567 2.09637 64.0595 2.09637C64.4431 2.09637 64.7584 2.16171 65.0056 2.29239C65.2556 2.42023 65.4544 2.57506 65.6022 2.75688C65.7499 2.93586 65.8621 3.10489 65.9388 3.26398H66.024V2.1816H67.5453V8.83358C67.5453 9.39324 67.4118 9.85631 67.1448 10.2228C66.8777 10.5893 66.5127 10.8634 66.0496 11.0452C65.5865 11.2271 65.061 11.318 64.4729 11.318ZM64.4857 7.42307C64.8124 7.42307 65.0908 7.34353 65.3209 7.18444C65.551 7.02535 65.7257 6.79665 65.8451 6.49836C65.9644 6.20006 66.024 5.84211 66.024 5.42449C66.024 5.01256 65.9644 4.65177 65.8451 4.34211C65.7286 4.03245 65.5553 3.79239 65.3252 3.62194C65.0979 3.44864 64.8181 3.36199 64.4857 3.36199C64.1419 3.36199 63.855 3.45148 63.6249 3.63046C63.3948 3.80944 63.2215 4.05518 63.105 4.36768C62.9885 4.67733 62.9303 5.02961 62.9303 5.42449C62.9303 5.82506 62.9885 6.17591 63.105 6.47705C63.2243 6.77535 63.399 7.0083 63.6291 7.17591C63.8621 7.34069 64.1476 7.42307 64.4857 7.42307ZM70.9263 8.72705V2.1816H72.422V3.27251H72.4902C72.6095 2.89466 72.8141 2.60347 73.1039 2.39893C73.3965 2.19154 73.7303 2.08785 74.1053 2.08785C74.1905 2.08785 74.2857 2.09211 74.3908 2.10063C74.4987 2.10631 74.5882 2.11626 74.6593 2.13046V3.54949C74.5939 3.52677 74.4902 3.50688 74.3482 3.48983C74.209 3.46995 74.074 3.46001 73.9433 3.46001C73.6621 3.46001 73.4093 3.52108 73.1848 3.64324C72.9632 3.76256 72.7885 3.92876 72.6607 4.14182C72.5328 4.35489 72.4689 4.60063 72.4689 4.87904V8.72705H70.9263ZM79.2504 8.85915C78.8357 8.85915 78.4621 8.78529 78.1297 8.63756C77.8002 8.48699 77.5388 8.2654 77.3456 7.97279C77.1553 7.68018 77.0601 7.31938 77.0601 6.8904C77.0601 6.52108 77.1283 6.21569 77.2647 5.97421C77.401 5.73273 77.5871 5.53955 77.8229 5.39466C78.0587 5.24978 78.3243 5.1404 78.6198 5.06654C78.9181 4.98983 79.2263 4.93444 79.5445 4.90035C79.928 4.86057 80.2391 4.82506 80.4777 4.79381C80.7164 4.75972 80.8897 4.70858 80.9976 4.6404C81.1084 4.56938 81.1638 4.46001 81.1638 4.31228V4.28671C81.1638 3.96569 81.0686 3.71711 80.8783 3.54097C80.6879 3.36483 80.4138 3.27677 80.0558 3.27677C79.678 3.27677 79.3783 3.35915 79.1567 3.52393C78.9379 3.6887 78.7902 3.8833 78.7135 4.10773L77.2732 3.90319C77.3868 3.50546 77.5743 3.17307 77.8357 2.90603C78.097 2.63614 78.4166 2.43444 78.7945 2.30091C79.1723 2.16455 79.5899 2.09637 80.0473 2.09637C80.3627 2.09637 80.6766 2.1333 80.9891 2.20716C81.3016 2.28103 81.5871 2.40319 81.8456 2.57364C82.1041 2.74126 82.3115 2.96995 82.4678 3.25972C82.6269 3.54949 82.7064 3.91171 82.7064 4.34637V8.72705H81.2235V7.8279H81.1723C81.0786 8.00972 80.9465 8.18018 80.776 8.33927C80.6084 8.49552 80.3968 8.62194 80.1411 8.71853C79.8882 8.81228 79.5914 8.85915 79.2504 8.85915ZM79.651 7.72563C79.9607 7.72563 80.2291 7.66455 80.4564 7.54239C80.6837 7.41739 80.8584 7.25262 80.9806 7.04807C81.1056 6.84353 81.1681 6.62052 81.1681 6.37904V5.60773C81.1198 5.64751 81.0374 5.68444 80.9209 5.71853C80.8073 5.75262 80.6794 5.78245 80.5374 5.80802C80.3953 5.83358 80.2547 5.85631 80.1155 5.8762C79.9763 5.89608 79.8556 5.91313 79.7533 5.92733C79.5232 5.95858 79.3172 6.00972 79.1354 6.08074C78.9536 6.15177 78.8101 6.2512 78.705 6.37904C78.5999 6.50404 78.5473 6.66597 78.5473 6.86483C78.5473 7.14893 78.651 7.36341 78.8584 7.5083C79.0658 7.65319 79.33 7.72563 79.651 7.72563ZM86.0576 8.72705V2.1816H87.532V3.29381H87.6087C87.7451 2.91881 87.9709 2.6262 88.2862 2.41597C88.6016 2.2029 88.978 2.09637 89.4155 2.09637C89.8587 2.09637 90.2323 2.20432 90.5362 2.42023C90.8431 2.6333 91.059 2.92449 91.184 3.29381H91.2522C91.397 2.93018 91.6414 2.6404 91.9851 2.42449C92.3317 2.20574 92.7422 2.09637 93.2166 2.09637C93.8189 2.09637 94.3104 2.28671 94.6911 2.66739C95.0718 3.04807 95.2621 3.60347 95.2621 4.33358V8.72705H93.7152V4.57222C93.7152 4.16597 93.6073 3.8691 93.3914 3.6816C93.1754 3.49126 92.9112 3.39608 92.5987 3.39608C92.2266 3.39608 91.9354 3.51256 91.7252 3.74552C91.5178 3.97563 91.4141 4.27535 91.4141 4.64466V8.72705H89.9013V4.5083C89.9013 4.17023 89.799 3.90035 89.5945 3.69864C89.3928 3.49694 89.1286 3.39608 88.8019 3.39608C88.5803 3.39608 88.3786 3.4529 88.1968 3.56654C88.0149 3.67733 87.8701 3.83501 87.7621 4.03955C87.6541 4.24126 87.6002 4.47705 87.6002 4.74694V8.72705H86.0576ZM5.36927 26.0282C4.49996 26.0282 3.73149 25.9089 3.06388 25.6702C2.39626 25.4344 1.83518 25.0864 1.38064 24.6262C0.926092 24.166 0.582342 23.6021 0.349387 22.9344C0.116433 22.2668 -4.43608e-05 21.5026 -4.43608e-05 20.6418C-4.43608e-05 19.8094 0.117853 19.0651 0.353649 18.4089C0.592285 17.7526 0.937456 17.1958 1.38916 16.7384C1.84371 16.2782 2.39484 15.9273 3.04257 15.6859C3.69314 15.4444 4.42893 15.3236 5.24996 15.3236C6.04825 15.3236 6.74711 15.4543 7.34655 15.7157C7.94882 15.9742 8.45166 16.3251 8.85507 16.7682C9.26132 17.2086 9.5653 17.7043 9.767 18.2555C9.97155 18.8066 10.0738 19.3748 10.0738 19.96C10.0738 20.3719 10.0539 20.7896 10.0142 21.2128C9.97439 21.6361 9.89058 22.0253 9.76274 22.3805C9.6349 22.7327 9.43746 23.0168 9.17041 23.2327C8.90621 23.4486 8.54825 23.5566 8.09655 23.5566C7.89768 23.5566 7.67893 23.5253 7.4403 23.4628C7.20166 23.4003 6.99001 23.2967 6.80535 23.1518C6.62069 23.0069 6.51132 22.8123 6.47723 22.568H6.42609C6.35791 22.7327 6.2528 22.889 6.11075 23.0367C5.97155 23.1844 5.78831 23.3023 5.56104 23.3904C5.3366 23.4785 5.06246 23.5168 4.73859 23.5055C4.36927 23.4913 4.04399 23.4089 3.76274 23.2583C3.48149 23.1049 3.24569 22.8975 3.05535 22.6361C2.86785 22.3719 2.72581 22.0665 2.62922 21.7199C2.53547 21.3705 2.48859 20.9941 2.48859 20.5907C2.48859 20.2072 2.54541 19.8563 2.65905 19.5381C2.77268 19.2199 2.93035 18.9415 3.13206 18.7029C3.3366 18.4643 3.57524 18.2739 3.84797 18.1319C4.12354 17.987 4.42041 17.8975 4.73859 17.8634C5.02268 17.835 5.28121 17.8478 5.51416 17.9018C5.74711 17.9529 5.93888 18.031 6.08944 18.1361C6.24001 18.2384 6.33518 18.3521 6.37496 18.4771H6.42609V17.9998H7.3295V21.8521C7.3295 22.0907 7.39626 22.3009 7.52979 22.4827C7.66331 22.6646 7.85791 22.7555 8.11359 22.7555C8.40336 22.7555 8.62496 22.656 8.77836 22.4572C8.93461 22.2583 9.04115 21.9515 9.09797 21.5367C9.15763 21.1219 9.18746 20.5907 9.18746 19.943C9.18746 19.5623 9.1349 19.1873 9.02979 18.818C8.92751 18.4458 8.77126 18.0978 8.56104 17.7739C8.35365 17.4501 8.09087 17.1646 7.77268 16.9174C7.4545 16.6702 7.08092 16.4771 6.65194 16.3378C6.22581 16.1958 5.74143 16.1248 5.19882 16.1248C4.53121 16.1248 3.93319 16.2285 3.40479 16.4359C2.87922 16.6404 2.43177 16.9401 2.06246 17.335C1.69598 17.7271 1.41615 18.2043 1.22297 18.7668C1.03263 19.3265 0.937456 19.9628 0.937456 20.6759C0.937456 21.4003 1.03263 22.0438 1.22297 22.6063C1.41615 23.1688 1.70024 23.6432 2.07524 24.0296C2.45308 24.416 2.92041 24.7086 3.47723 24.9074C4.03405 25.1092 4.67609 25.21 5.40336 25.21C5.71586 25.21 6.0241 25.1802 6.32808 25.1205C6.63206 25.0609 6.90052 24.9955 7.13348 24.9245C7.36643 24.8535 7.53405 24.8009 7.63632 24.7668L7.87496 25.5509C7.69882 25.6248 7.46871 25.6986 7.18461 25.7725C6.90336 25.8464 6.60223 25.9074 6.28121 25.9557C5.96302 26.004 5.65905 26.0282 5.36927 26.0282ZM4.87496 22.6361C5.25564 22.6361 5.56388 22.5594 5.79967 22.406C6.03547 22.2526 6.20734 22.0211 6.3153 21.7114C6.42325 21.4018 6.47723 21.0111 6.47723 20.5396C6.47723 20.0623 6.41757 19.6901 6.29825 19.4231C6.17893 19.156 6.0028 18.9685 5.76984 18.8606C5.53689 18.7526 5.24996 18.6986 4.90905 18.6986C4.58518 18.6986 4.30819 18.7839 4.07808 18.9543C3.85081 19.1219 3.67609 19.3464 3.55393 19.6276C3.43461 19.906 3.37496 20.21 3.37496 20.5396C3.37496 20.9032 3.42325 21.2455 3.51984 21.5665C3.61643 21.8847 3.7741 22.1432 3.99285 22.3421C4.2116 22.5381 4.50564 22.6361 4.87496 22.6361ZM14.3848 14.9998V23.7271H13.3791V14.9998H14.3848ZM19.9529 23.8805C19.5382 23.8805 19.1617 23.8023 18.8237 23.6461C18.4856 23.487 18.2171 23.2583 18.0183 22.96C17.8194 22.6589 17.72 22.2952 17.72 21.8691C17.72 21.4941 17.7938 21.1901 17.9416 20.9572C18.0893 20.7214 18.2867 20.5367 18.5339 20.4032C18.7811 20.2697 19.0538 20.1702 19.3521 20.1049C19.6532 20.0367 19.9558 19.9827 20.2598 19.943C20.6575 19.8918 20.9799 19.8535 21.2271 19.8279C21.4771 19.7995 21.6589 19.7526 21.7725 19.6873C21.889 19.6219 21.9473 19.5083 21.9473 19.3464V19.3123C21.9473 18.8918 21.8322 18.5651 21.6021 18.3322C21.3748 18.0992 21.0296 17.9827 20.5666 17.9827C20.0865 17.9827 19.71 18.0878 19.4373 18.2981C19.1646 18.5083 18.9728 18.7327 18.862 18.9714L17.9075 18.6305C18.0779 18.2327 18.3052 17.9231 18.5893 17.7015C18.8762 17.4771 19.1887 17.3208 19.5268 17.2327C19.8677 17.1418 20.2029 17.0964 20.5325 17.0964C20.7427 17.0964 20.9842 17.1219 21.2569 17.1731C21.5325 17.2214 21.7981 17.3222 22.0538 17.4756C22.3123 17.629 22.5268 17.8606 22.6973 18.1702C22.8677 18.4799 22.9529 18.8947 22.9529 19.4146V23.7271H21.9473V22.8407H21.8961C21.8279 22.9827 21.7143 23.1347 21.5552 23.2967C21.3961 23.4586 21.1845 23.5964 20.9203 23.71C20.6561 23.8236 20.3336 23.8805 19.9529 23.8805ZM20.1063 22.9771C20.5041 22.9771 20.8393 22.8989 21.112 22.7427C21.3876 22.5864 21.595 22.3847 21.7342 22.1376C21.8762 21.8904 21.9473 21.6305 21.9473 21.3577V20.4373C21.9046 20.4884 21.8109 20.5353 21.666 20.5779C21.524 20.6177 21.3592 20.6532 21.1717 20.6844C20.987 20.7128 20.8066 20.7384 20.6305 20.7611C20.4572 20.781 20.3166 20.7981 20.2086 20.8123C19.9473 20.8464 19.7029 20.9018 19.4757 20.9785C19.2512 21.0523 19.0694 21.1646 18.9302 21.3151C18.7938 21.4628 18.7257 21.6646 18.7257 21.9202C18.7257 22.2697 18.8549 22.5339 19.1135 22.7128C19.3748 22.889 19.7058 22.9771 20.1063 22.9771ZM29.5033 17.1816V18.0339H25.9749V17.1816H29.5033ZM27.0317 23.7271V16.2782C27.0317 15.9032 27.1198 15.5907 27.2959 15.3407C27.472 15.0907 27.7007 14.9032 27.982 14.7782C28.2632 14.6532 28.5601 14.5907 28.8726 14.5907C29.1198 14.5907 29.3215 14.6106 29.4777 14.6503C29.634 14.6901 29.7505 14.7271 29.8272 14.7611L29.5374 15.6305C29.4862 15.6134 29.4152 15.5921 29.3243 15.5665C29.2362 15.541 29.1198 15.5282 28.9749 15.5282C28.6425 15.5282 28.4024 15.612 28.2547 15.7796C28.1098 15.9472 28.0374 16.193 28.0374 16.5168V23.7271H27.0317ZM33.7184 14.9998V23.7271H32.7127V14.9998H33.7184ZM40.1047 23.8634C39.474 23.8634 38.93 23.7242 38.4726 23.4458C38.0181 23.1646 37.6672 22.7725 37.4201 22.2697C37.1757 21.764 37.0536 21.1759 37.0536 20.5055C37.0536 19.835 37.1757 19.2441 37.4201 18.7327C37.6672 18.2185 38.011 17.818 38.4513 17.531C38.8945 17.2413 39.4115 17.0964 40.0024 17.0964C40.3434 17.0964 40.68 17.1532 41.0124 17.2668C41.3448 17.3805 41.6473 17.5651 41.9201 17.8208C42.1928 18.0736 42.4101 18.4089 42.572 18.8265C42.734 19.2441 42.8149 19.7583 42.8149 20.3691V20.7952H37.7695V19.9259H41.7922C41.7922 19.5566 41.7184 19.2271 41.5706 18.9373C41.4257 18.6475 41.2184 18.4188 40.9485 18.2512C40.6814 18.0836 40.3661 17.9998 40.0024 17.9998C39.6019 17.9998 39.2553 18.0992 38.9627 18.2981C38.6729 18.4941 38.4499 18.7498 38.2936 19.0651C38.1374 19.3805 38.0593 19.7185 38.0593 20.0793V20.6589C38.0593 21.1532 38.1445 21.5722 38.3149 21.916C38.4882 22.2569 38.7283 22.5168 39.0351 22.6958C39.3419 22.8719 39.6985 22.96 40.1047 22.96C40.3689 22.96 40.6076 22.9231 40.8206 22.8492C41.0365 22.7725 41.2226 22.6589 41.3789 22.5083C41.5351 22.3549 41.6559 22.1646 41.7411 21.9373L42.7127 22.21C42.6104 22.5396 42.4385 22.8293 42.197 23.0793C41.9556 23.3265 41.6573 23.5197 41.3022 23.6589C40.947 23.7952 40.5479 23.8634 40.1047 23.8634ZM50.2698 21.0509V17.1816H51.2755V23.7271H50.2698V22.6191H50.2016C50.0482 22.9515 49.8095 23.2342 49.4857 23.4671C49.1618 23.6972 48.7527 23.8123 48.2584 23.8123C47.8493 23.8123 47.4857 23.7228 47.1675 23.5438C46.8493 23.362 46.5993 23.0893 46.4175 22.7256C46.2357 22.3592 46.1448 21.8975 46.1448 21.3407V17.1816H47.1505V21.2725C47.1505 21.7498 47.284 22.1305 47.551 22.4146C47.8209 22.6986 48.1647 22.8407 48.5823 22.8407C48.8323 22.8407 49.0865 22.7768 49.3451 22.6489C49.6064 22.5211 49.8252 22.3251 50.0013 22.0609C50.1803 21.7967 50.2698 21.46 50.2698 21.0509ZM54.9174 23.7271V17.1816H55.889V18.1702H55.9572C56.0765 17.8464 56.2924 17.5836 56.6049 17.3819C56.9174 17.1802 57.2697 17.0793 57.6617 17.0793C57.7356 17.0793 57.8279 17.0807 57.9387 17.0836C58.0495 17.0864 58.1333 17.0907 58.1902 17.0964V18.1191C58.1561 18.1106 58.0779 18.0978 57.9558 18.0807C57.8365 18.0609 57.71 18.0509 57.5765 18.0509C57.2583 18.0509 56.9742 18.1177 56.7242 18.2512C56.4771 18.3819 56.2811 18.5637 56.1362 18.7967C55.9941 19.0268 55.9231 19.2896 55.9231 19.585V23.7271H54.9174ZM61.3186 23.7271V14.9998H62.3243V18.2214H62.4095C62.4834 18.1077 62.5857 17.9628 62.7164 17.7867C62.8499 17.6077 63.0402 17.4486 63.2874 17.3094C63.5374 17.1674 63.8755 17.0964 64.3016 17.0964C64.8527 17.0964 65.3385 17.2342 65.759 17.5097C66.1794 17.7853 66.5076 18.1759 66.7434 18.6816C66.9791 19.1873 67.097 19.7839 67.097 20.4714C67.097 21.1646 66.9791 21.7654 66.7434 22.2739C66.5076 22.7796 66.1809 23.1717 65.7632 23.4501C65.3456 23.7256 64.8641 23.8634 64.3186 23.8634C63.8982 23.8634 63.5615 23.7938 63.3087 23.6546C63.0559 23.5126 62.8612 23.3521 62.7249 23.1731C62.5885 22.9913 62.4834 22.8407 62.4095 22.7214H62.2902V23.7271H61.3186ZM62.3073 20.4543C62.3073 20.9486 62.3797 21.3847 62.5246 21.7626C62.6695 22.1376 62.8811 22.4316 63.1595 22.6447C63.438 22.8549 63.7789 22.96 64.1823 22.96C64.6027 22.96 64.9536 22.8492 65.2348 22.6276C65.5189 22.4032 65.732 22.1021 65.874 21.7242C66.0189 21.3435 66.0914 20.9202 66.0914 20.4543C66.0914 19.9941 66.0203 19.5793 65.8783 19.21C65.7391 18.8378 65.5274 18.5438 65.2434 18.3279C64.9621 18.1092 64.6084 17.9998 64.1823 17.9998C63.7732 17.9998 63.4294 18.1035 63.151 18.3109C62.8726 18.5154 62.6624 18.8023 62.5203 19.1717C62.3783 19.5381 62.3073 19.9657 62.3073 20.4543ZM73.1797 23.8634C72.549 23.8634 72.005 23.7242 71.5476 23.4458C71.0931 23.1646 70.7422 22.7725 70.4951 22.2697C70.2507 21.764 70.1286 21.1759 70.1286 20.5055C70.1286 19.835 70.2507 19.2441 70.4951 18.7327C70.7422 18.2185 71.086 17.818 71.5263 17.531C71.9695 17.2413 72.4865 17.0964 73.0774 17.0964C73.4183 17.0964 73.755 17.1532 74.0874 17.2668C74.4198 17.3805 74.7223 17.5651 74.9951 17.8208C75.2678 18.0736 75.4851 18.4089 75.647 18.8265C75.809 19.2441 75.8899 19.7583 75.8899 20.3691V20.7952H70.8445V19.9259H74.8672C74.8672 19.5566 74.7933 19.2271 74.6456 18.9373C74.5007 18.6475 74.2933 18.4188 74.0235 18.2512C73.7564 18.0836 73.4411 17.9998 73.0774 17.9998C72.6769 17.9998 72.3303 18.0992 72.0377 18.2981C71.7479 18.4941 71.5249 18.7498 71.3686 19.0651C71.2124 19.3805 71.1343 19.7185 71.1343 20.0793V20.6589C71.1343 21.1532 71.2195 21.5722 71.3899 21.916C71.5632 22.2569 71.8033 22.5168 72.1101 22.6958C72.4169 22.8719 72.7735 22.96 73.1797 22.96C73.4439 22.96 73.6826 22.9231 73.8956 22.8492C74.1115 22.7725 74.2976 22.6589 74.4539 22.5083C74.6101 22.3549 74.7308 22.1646 74.8161 21.9373L75.7877 22.21C75.6854 22.5396 75.5135 22.8293 75.272 23.0793C75.0306 23.3265 74.7323 23.5197 74.3772 23.6589C74.022 23.7952 73.6229 23.8634 73.1797 23.8634ZM80.2255 14.9998V23.7271H79.2198V14.9998H80.2255ZM84.8731 14.9998V23.7271H83.8674V14.9998H84.8731ZM91.2594 23.8634C90.6287 23.8634 90.0847 23.7242 89.6273 23.4458C89.1728 23.1646 88.8219 22.7725 88.5747 22.2697C88.3304 21.764 88.2083 21.1759 88.2083 20.5055C88.2083 19.835 88.3304 19.2441 88.5747 18.7327C88.8219 18.2185 89.1657 17.818 89.606 17.531C90.0492 17.2413 90.5662 17.0964 91.1571 17.0964C91.498 17.0964 91.8347 17.1532 92.1671 17.2668C92.4995 17.3805 92.802 17.5651 93.0747 17.8208C93.3475 18.0736 93.5648 18.4089 93.7267 18.8265C93.8887 19.2441 93.9696 19.7583 93.9696 20.3691V20.7952H88.9242V19.9259H92.9469C92.9469 19.5566 92.873 19.2271 92.7253 18.9373C92.5804 18.6475 92.373 18.4188 92.1032 18.2512C91.8361 18.0836 91.5208 17.9998 91.1571 17.9998C90.7566 17.9998 90.41 18.0992 90.1174 18.2981C89.8276 18.4941 89.6046 18.7498 89.4483 19.0651C89.2921 19.3805 89.2139 19.7185 89.2139 20.0793V20.6589C89.2139 21.1532 89.2992 21.5722 89.4696 21.916C89.6429 22.2569 89.883 22.5168 90.1898 22.6958C90.4966 22.8719 90.8532 22.96 91.2594 22.96C91.5236 22.96 91.7622 22.9231 91.9753 22.8492C92.1912 22.7725 92.3773 22.6589 92.5335 22.5083C92.6898 22.3549 92.8105 22.1646 92.8958 21.9373L93.8674 22.21C93.7651 22.5396 93.5932 22.8293 93.3517 23.0793C93.1103 23.3265 92.812 23.5197 92.4568 23.6589C92.1017 23.7952 91.7026 23.8634 91.2594 23.8634ZM97.2995 26.1816V17.1816H98.2711V18.2214H98.3904C98.4642 18.1077 98.5665 17.9628 98.6972 17.7867C98.8307 17.6077 99.0211 17.4486 99.2682 17.3094C99.5182 17.1674 99.8563 17.0964 100.282 17.0964C100.834 17.0964 101.319 17.2342 101.74 17.5097C102.16 17.7853 102.488 18.1759 102.724 18.6816C102.96 19.1873 103.078 19.7839 103.078 20.4714C103.078 21.1646 102.96 21.7654 102.724 22.2739C102.488 22.7796 102.162 23.1717 101.744 23.4501C101.326 23.7256 100.845 23.8634 100.299 23.8634C99.879 23.8634 99.5424 23.7938 99.2895 23.6546C99.0367 23.5126 98.8421 23.3521 98.7057 23.1731C98.5693 22.9913 98.4642 22.8407 98.3904 22.7214H98.3051V26.1816H97.2995ZM98.2881 20.4543C98.2881 20.9486 98.3605 21.3847 98.5054 21.7626C98.6503 22.1376 98.862 22.4316 99.1404 22.6447C99.4188 22.8549 99.7597 22.96 100.163 22.96C100.584 22.96 100.934 22.8492 101.216 22.6276C101.5 22.4032 101.713 22.1021 101.855 21.7242C102 21.3435 102.072 20.9202 102.072 20.4543C102.072 19.9941 102.001 19.5793 101.859 19.21C101.72 18.8378 101.508 18.5438 101.224 18.3279C100.943 18.1092 100.589 17.9998 100.163 17.9998C99.754 17.9998 99.4103 18.1035 99.1318 18.3109C98.8534 18.5154 98.6432 18.8023 98.5012 19.1717C98.3591 19.5381 98.2881 19.9657 98.2881 20.4543ZM107.418 19.7896V23.7271H106.412V14.9998H107.418V18.2043H107.503C107.656 17.8663 107.886 17.5978 108.193 17.3989C108.503 17.1972 108.915 17.0964 109.429 17.0964C109.875 17.0964 110.266 17.1859 110.601 17.3648C110.936 17.541 111.196 17.8123 111.381 18.1788C111.568 18.5424 111.662 19.0055 111.662 19.568V23.7271H110.656V19.6361C110.656 19.1163 110.521 18.7143 110.251 18.4302C109.984 18.1432 109.614 17.9998 109.139 17.9998C108.81 17.9998 108.514 18.0694 108.253 18.2086C107.994 18.3478 107.79 18.5509 107.639 18.818C107.492 19.085 107.418 19.4089 107.418 19.7896ZM119.819 23.7271V24.6646H114.364V23.7271H119.819Z" fill="white"/>
</svg>
