<svg width="29" height="29" viewBox="0 0 29 29" fill="none" xmlns="http://www.w3.org/2000/svg">
<path fill-rule="evenodd" clip-rule="evenodd" d="M14.5 21.75C18.5041 21.75 21.75 18.5041 21.75 14.5C21.75 10.4959 18.5041 7.25 14.5 7.25C10.4959 7.25 7.25 10.4959 7.25 14.5C7.25 18.5041 10.4959 21.75 14.5 21.75ZM14.5 19.3333C17.1693 19.3333 19.3333 17.1693 19.3333 14.5C19.3333 11.8306 17.1693 9.66667 14.5 9.66667C11.8306 9.66667 9.66667 11.8306 9.66667 14.5C9.66667 17.1693 11.8306 19.3333 14.5 19.3333Z" fill="white"/>
<path d="M21.7501 6.0415C21.0827 6.0415 20.5417 6.5825 20.5417 7.24984C20.5417 7.91718 21.0827 8.45817 21.7501 8.45817C22.4174 8.45817 22.9584 7.91718 22.9584 7.24984C22.9584 6.5825 22.4174 6.0415 21.7501 6.0415Z" fill="white"/>
<path fill-rule="evenodd" clip-rule="evenodd" d="M1.99845 5.16707C1.20825 6.71793 1.20825 8.74812 1.20825 12.8085V16.1918C1.20825 20.2522 1.20825 22.2824 1.99845 23.8332C2.69354 25.1974 3.80264 26.3065 5.16682 27.0016C6.71768 27.7918 8.74788 27.7918 12.8083 27.7918H16.1916C20.2519 27.7918 22.2822 27.7918 23.833 27.0016C25.1972 26.3065 26.3063 25.1974 27.0013 23.8332C27.7916 22.2824 27.7916 20.2522 27.7916 16.1918V12.8085C27.7916 8.74812 27.7916 6.71793 27.0013 5.16707C26.3063 3.80288 25.1972 2.69378 23.833 1.9987C22.2822 1.2085 20.2519 1.2085 16.1916 1.2085H12.8083C8.74788 1.2085 6.71768 1.2085 5.16682 1.9987C3.80264 2.69378 2.69354 3.80288 1.99845 5.16707ZM16.1916 3.62516H12.8083C10.7382 3.62516 9.33097 3.62705 8.24327 3.71591C7.18375 3.80247 6.64193 3.95938 6.26397 4.15196C5.35451 4.61536 4.61511 5.35476 4.15172 6.26421C3.95913 6.64218 3.80223 7.18399 3.71566 8.24351C3.6268 9.33121 3.62492 10.7384 3.62492 12.8085V16.1918C3.62492 18.2619 3.6268 19.6691 3.71566 20.7568C3.80223 21.8164 3.95913 22.3582 4.15172 22.7362C4.61511 23.6456 5.35451 24.3849 6.26397 24.8483C6.64193 25.0409 7.18375 25.1979 8.24327 25.2844C9.33097 25.3732 10.7382 25.3752 12.8083 25.3752H16.1916C18.2617 25.3752 19.6688 25.3732 20.7565 25.2844C21.8161 25.1979 22.358 25.0409 22.7359 24.8483C23.6453 24.3849 24.3847 23.6456 24.8481 22.7362C25.0407 22.3582 25.1977 21.8164 25.2842 20.7568C25.373 19.6691 25.3749 18.2619 25.3749 16.1918V12.8085C25.3749 10.7384 25.373 9.33121 25.2842 8.24351C25.1977 7.18399 25.0407 6.64218 24.8481 6.26421C24.3847 5.35476 23.6453 4.61536 22.7359 4.15196C22.358 3.95938 21.8161 3.80247 20.7565 3.71591C19.6688 3.62705 18.2617 3.62516 16.1916 3.62516Z" fill="white"/>
</svg>
