<svg width="283" height="36" viewBox="0 0 283 36" fill="none" xmlns="http://www.w3.org/2000/svg">
<path d="M2.35736e-05 34.7298V33C1.36024 32.9409 2.35083 32.8226 2.9718 32.6452C3.62234 32.4382 4.03631 32.0686 4.21373 31.5363C4.42072 31.004 4.52422 30.2204 4.52422 29.1855V8.87097C4.52422 7.77689 4.42072 6.9785 4.21373 6.47581C4.00674 5.94355 3.57798 5.58872 2.92744 5.4113C2.30648 5.20431 1.33067 5.08603 2.35736e-05 5.05646V3.32662C1.18282 3.35619 2.49868 3.38576 3.9476 3.41533C5.39653 3.4449 6.91938 3.45968 8.51615 3.45968C10.6156 3.45968 12.4342 3.4449 13.9718 3.41533C15.539 3.38576 16.8105 3.35619 17.7863 3.32662V5.05646C16.16 5.08603 14.9476 5.20431 14.1492 5.4113C13.3508 5.61829 12.8186 5.98791 12.5524 6.52017C12.2863 7.02285 12.1532 7.80646 12.1532 8.87097V29.8508C12.1532 30.6788 12.2124 31.3145 12.3307 31.7581C12.4785 32.2016 12.7594 32.4973 13.1734 32.6452C13.5874 32.793 14.2379 32.8669 15.125 32.8669H16.0121C17.2541 32.8669 18.3925 32.66 19.4274 32.246C20.4624 31.832 21.3938 31.1962 22.2218 30.3387C23.0498 29.4812 23.789 28.4315 24.4395 27.1895C25.1196 25.918 25.7406 24.4543 26.3024 22.7984H28.0766C27.8696 24.8979 27.707 26.9382 27.5887 28.9194C27.5 30.9005 27.4705 32.8374 27.5 34.7298C26.2285 34.6707 24.6909 34.6411 22.8871 34.6411C21.0834 34.6116 18.8508 34.5968 16.1895 34.5968C12.6116 34.5968 9.4476 34.6116 6.6976 34.6411C3.97717 34.6411 1.74465 34.6707 2.35736e-05 34.7298ZM35.0649 35.3508C33.1429 35.3508 31.6201 34.8481 30.4964 33.8427C29.3727 32.8374 28.8109 31.4624 28.8109 29.7177C28.8109 28.3871 29.1214 27.3078 29.7424 26.4798C30.3633 25.6223 31.1617 24.9274 32.1375 24.3952C33.1429 23.8629 34.1926 23.4194 35.2867 23.0645C36.4104 22.7097 37.4601 22.3696 38.4359 22.0444C39.4413 21.7191 40.2545 21.3347 40.8754 20.8911C41.4964 20.4476 41.8069 19.8562 41.8069 19.1169V16.9879C41.8069 15.6868 41.4668 14.6962 40.7867 14.0161C40.1362 13.3065 39.1752 12.9516 37.9037 12.9516C36.9574 12.9516 36.1886 13.0847 35.5972 13.3508C35.0354 13.6169 34.7545 13.9866 34.7545 14.4597C34.7545 14.8441 34.8727 15.2285 35.1093 15.6129C35.3754 15.9677 35.6268 16.3522 35.8633 16.7661C36.0999 17.1801 36.2182 17.6384 36.2182 18.1411C36.2182 18.8212 35.9373 19.3683 35.3754 19.7823C34.8136 20.1962 34.0596 20.4032 33.1133 20.4032C32.0784 20.4032 31.2504 20.1075 30.6295 19.5161C30.0381 18.9247 29.7424 18.1263 29.7424 17.121C29.7424 15.9086 30.1711 14.8589 31.0287 13.9718C31.8862 13.0847 33.0838 12.3898 34.6214 11.8871C36.159 11.3844 37.948 11.1331 39.9883 11.1331C42.0582 11.1331 43.7289 11.414 45.0004 11.9758C46.3015 12.5081 47.233 13.3952 47.7948 14.6371C48.3862 15.879 48.6819 17.5497 48.6819 19.6492V31.004C48.6819 31.6546 48.7854 32.1277 48.9924 32.4234C49.1994 32.6895 49.5246 32.8226 49.9682 32.8226C50.323 32.8226 50.6779 32.7487 51.0327 32.6008C51.4171 32.453 51.8015 32.246 52.1859 31.9798L52.8956 33.3992C52.0972 34.0497 51.1805 34.5376 50.1456 34.8629C49.1402 35.1882 48.0018 35.3508 46.7303 35.3508C43.5663 35.3508 41.9547 34.168 41.8956 31.8024C41.0676 32.9852 40.077 33.8723 38.9238 34.4637C37.8002 35.0551 36.5139 35.3508 35.0649 35.3508ZM38.4359 31.8468C39.0865 31.8468 39.7074 31.6989 40.2988 31.4032C40.8902 31.1075 41.3929 30.6492 41.8069 30.0282V21.6008C41.5999 22.0739 41.2451 22.4879 40.7424 22.8427C40.2692 23.168 39.737 23.4933 39.1456 23.8186C38.5542 24.1438 37.9776 24.5134 37.4158 24.9274C36.8835 25.3414 36.4252 25.8441 36.0408 26.4355C35.6859 27.0269 35.5085 27.7513 35.5085 28.6089C35.5085 29.6438 35.7598 30.4422 36.2625 31.004C36.7948 31.5659 37.5193 31.8468 38.4359 31.8468ZM60.2315 34.7298V33C61.5621 32.9409 62.5379 32.8226 63.1589 32.6452C63.8094 32.4677 64.2382 32.1129 64.4452 31.5806C64.6522 31.0484 64.7557 30.25 64.7557 29.1855V8.87097C64.7557 7.80646 64.6522 7.02285 64.4452 6.52017C64.2382 5.98791 63.8094 5.61829 63.1589 5.4113C62.5379 5.20431 61.5621 5.08603 60.2315 5.05646V3.32662C63.3954 3.41533 68.4815 3.45968 75.4895 3.45968C76.8793 3.45968 78.1804 3.45968 79.3928 3.45968C80.6051 3.43011 81.7436 3.41533 82.8081 3.41533C83.8726 3.38576 84.8336 3.35619 85.6911 3.32662C85.6911 5.21909 85.7503 7.02285 85.8686 8.73791C86.0164 10.4234 86.2086 12.0497 86.4452 13.6169H84.6266C84.2127 11.6062 83.6656 9.97984 82.9855 8.73791C82.3054 7.49597 81.4627 6.59409 80.4573 6.03226C79.4815 5.47044 78.2839 5.18952 76.8645 5.18952H72.3847V29.1855C72.3847 30.2204 72.5178 31.004 72.7839 31.5363C73.05 32.0686 73.5823 32.4382 74.3807 32.6452C75.179 32.8226 76.3914 32.9409 78.0178 33V34.7298C77.042 34.7003 75.7704 34.6707 74.2032 34.6411C72.6656 34.6116 70.8471 34.5968 68.7476 34.5968C67.1508 34.5968 65.628 34.6116 64.179 34.6411C62.7301 34.6707 61.4143 34.7003 60.2315 34.7298ZM70.9653 20.0927V18.4073H79.3484V20.0927H70.9653ZM79.792 26.5242C79.6441 25.0457 79.3484 23.8333 78.9049 22.8871C78.4909 21.9409 77.9143 21.246 77.175 20.8024C76.4653 20.3293 75.5782 20.0927 74.5137 20.0927V18.4073C75.9331 18.4073 77.0715 17.9194 77.929 16.9436C78.8161 15.9382 79.3928 14.4893 79.6589 12.5968H81.3444C81.2261 14.3118 81.167 15.6573 81.167 16.6331C81.1965 17.5793 81.2113 18.4516 81.2113 19.25C81.2113 19.9005 81.2113 20.5659 81.2113 21.246C81.2409 21.8965 81.2704 22.6505 81.3 23.5081C81.3592 24.336 81.4183 25.3414 81.4774 26.5242H79.792ZM86.161 34.7298V33C87.5804 32.9704 88.571 32.7339 89.1328 32.2903C89.7242 31.8468 90.0199 31.0188 90.0199 29.8065V6.16533C90.0199 4.83468 89.739 3.85888 89.1772 3.23791C88.6449 2.61694 87.6395 2.29167 86.161 2.2621V0.487908C86.7524 0.517477 87.3586 0.547047 87.9796 0.576617C88.6005 0.606187 89.2067 0.620972 89.7981 0.620972C91.1288 0.620972 92.3855 0.576617 93.5683 0.487908C94.7807 0.369628 95.8895 0.206994 96.8949 4.76837e-06V29.8065C96.8949 31.0484 97.1906 31.8911 97.782 32.3347C98.3734 32.7487 99.3788 32.9704 100.798 33V34.7298C100.355 34.7003 99.7336 34.6855 98.9352 34.6855C98.1664 34.6559 97.3089 34.6263 96.3626 34.5968C95.446 34.5672 94.5145 34.5524 93.5683 34.5524C92.2081 34.5524 90.8035 34.582 89.3546 34.6411C87.9352 34.6707 86.8707 34.7003 86.161 34.7298ZM112.089 35.3508C109.841 35.3508 107.89 34.8777 106.234 33.9315C104.578 32.9556 103.291 31.5659 102.375 29.7621C101.488 27.9583 101.044 25.8145 101.044 23.3306C101.044 20.6989 101.532 18.4812 102.508 16.6774C103.484 14.8441 104.844 13.4691 106.589 12.5524C108.363 11.6062 110.418 11.1331 112.754 11.1331C114.883 11.1331 116.672 11.5175 118.121 12.2863C119.57 13.0551 120.664 14.2379 121.403 15.8347C122.142 17.4315 122.482 19.4866 122.423 22H106.056L105.968 20.3145H116.435C116.465 18.8656 116.347 17.5941 116.08 16.5C115.814 15.3763 115.4 14.504 114.839 13.8831C114.277 13.2325 113.537 12.9073 112.621 12.9073C111.468 12.9073 110.477 13.5282 109.649 14.7702C108.851 15.9825 108.377 17.9341 108.23 20.625L108.318 20.8024C108.289 21.0686 108.259 21.3495 108.23 21.6452C108.23 21.9409 108.23 22.2957 108.23 22.7097C108.23 25.6075 108.762 27.8696 109.826 29.496C110.921 31.0927 112.488 31.8911 114.528 31.8911C115.977 31.8911 117.219 31.5363 118.254 30.8266C119.318 30.1169 120.22 29.0229 120.959 27.5444L122.556 28.3871C121.64 30.664 120.294 32.3938 118.52 33.5766C116.746 34.7594 114.602 35.3508 112.089 35.3508ZM133.289 35.3508C130.953 35.3508 129.15 34.6559 127.878 33.2661C126.636 31.8763 126.015 29.8804 126.015 27.2782V17.3871C126.015 15.9973 125.72 15.0215 125.128 14.4597C124.537 13.8683 123.546 13.543 122.156 13.4839V11.754C122.777 11.7836 123.384 11.8132 123.975 11.8427C124.596 11.8723 125.261 11.8871 125.971 11.8871C127.302 11.8871 128.529 11.8427 129.652 11.754C130.806 11.6358 131.885 11.4731 132.89 11.2661V27.9879C132.89 29.4073 133.171 30.4866 133.733 31.2258C134.324 31.9355 135.182 32.2903 136.306 32.2903C137.163 32.2903 137.947 32.0538 138.656 31.5806C139.396 31.078 140.017 30.3387 140.519 29.3629V31.3145C139.81 32.586 138.834 33.5766 137.592 34.2863C136.35 34.996 134.916 35.3508 133.289 35.3508ZM140.297 35.2177V17.2984C140.297 15.9382 140.046 14.9772 139.543 14.4153C139.07 13.8535 138.242 13.543 137.06 13.4839V11.754C137.651 11.7836 138.213 11.8132 138.745 11.8427C139.307 11.8723 139.898 11.8871 140.519 11.8871C141.82 11.8871 143.018 11.8427 144.112 11.754C145.236 11.6358 146.256 11.4731 147.172 11.2661V29.0968C147.172 30.4866 147.468 31.4772 148.06 32.0686C148.651 32.66 149.656 32.9704 151.076 33V34.7298C150.425 34.6707 149.789 34.6411 149.168 34.6411C148.577 34.6116 147.941 34.5968 147.261 34.5968C145.931 34.5968 144.689 34.6411 143.535 34.7298C142.382 34.8481 141.303 35.0108 140.297 35.2177ZM150.437 34.7298V33C151.945 32.9704 152.965 32.7339 153.498 32.2903C154.059 31.8172 154.34 30.9893 154.34 29.8065V17.3871C154.34 15.9973 154.045 15.0215 153.453 14.4597C152.862 13.8683 151.856 13.543 150.437 13.4839V11.754C151.383 11.7836 152.123 11.8132 152.655 11.8427C153.217 11.8723 153.838 11.8871 154.518 11.8871C157.12 11.8871 159.352 11.6801 161.215 11.2661V29.4073C161.215 30.7083 161.6 31.625 162.369 32.1573C163.137 32.6895 164.498 32.9704 166.449 33V34.7298C165.887 34.7003 165.133 34.6855 164.187 34.6855C163.241 34.6559 162.221 34.6263 161.127 34.5968C160.033 34.5672 158.968 34.5524 157.933 34.5524C156.425 34.5524 154.961 34.582 153.542 34.6411C152.152 34.6707 151.117 34.7003 150.437 34.7298ZM168.312 20.4476C167.514 20.4476 166.878 20.2406 166.405 19.8266C165.932 19.3831 165.695 18.8065 165.695 18.0968C165.695 17.6532 165.769 17.254 165.917 16.8992C166.094 16.5444 166.257 16.2043 166.405 15.879C166.553 15.5538 166.627 15.2285 166.627 14.9032C166.627 14.2527 166.213 13.9274 165.385 13.9274C164.823 13.9274 164.261 14.0605 163.699 14.3266C163.137 14.5927 162.62 14.9772 162.147 15.4798C161.703 15.953 161.348 16.5148 161.082 17.1653L160.994 15.2581C161.674 13.9866 162.605 12.9812 163.788 12.2419C164.971 11.5027 166.227 11.1331 167.558 11.1331C168.977 11.1331 170.086 11.547 170.885 12.375C171.683 13.203 172.082 14.3562 172.082 15.8347C172.082 17.2245 171.727 18.3481 171.018 19.2056C170.338 20.0336 169.436 20.4476 168.312 20.4476ZM179.996 34.7298V33C181.327 32.9409 182.303 32.8226 182.924 32.6452C183.574 32.4677 184.003 32.1129 184.21 31.5806C184.417 31.0484 184.52 30.25 184.52 29.1855V8.87097C184.52 7.80646 184.417 7.02285 184.21 6.52017C184.003 5.98791 183.574 5.61829 182.924 5.4113C182.273 5.20431 181.297 5.08603 179.996 5.05646V3.32662C180.617 3.35619 181.608 3.38576 182.968 3.41533C184.328 3.41533 186.028 3.41533 188.069 3.41533C190.05 3.41533 191.632 3.40054 192.815 3.37097C194.027 3.3414 194.988 3.32662 195.698 3.32662C199.601 3.32662 202.528 3.9328 204.48 5.14517C206.432 6.35753 207.407 8.20565 207.407 10.6895C207.407 12.6707 206.639 14.297 205.101 15.5686C203.563 16.8105 201.257 17.6828 198.182 18.1855V18.2298C202.026 18.4368 204.938 19.2204 206.92 20.5806C208.901 21.9113 209.891 23.8038 209.891 26.2581C209.891 28.9194 208.723 31.004 206.387 32.5121C204.081 33.9906 200.858 34.7298 196.718 34.7298C196.186 34.7298 195.565 34.7151 194.855 34.6855C194.145 34.6559 193.243 34.6411 192.149 34.6411C191.085 34.6116 189.739 34.5968 188.113 34.5968C186.073 34.5968 184.358 34.6116 182.968 34.6411C181.608 34.6411 180.617 34.6707 179.996 34.7298ZM195.432 32.9113C197.561 32.9113 199.172 32.3495 200.266 31.2258C201.36 30.0726 201.907 28.4167 201.907 26.2581C201.907 23.9812 201.272 22.2513 200 21.0686C198.758 19.8562 196.925 19.25 194.5 19.25H190.065V17.6089H194.323C196.215 17.6089 197.679 17.0323 198.714 15.879C199.749 14.7258 200.266 13.1143 200.266 11.0444C200.266 9.15189 199.808 7.68818 198.891 6.65323C197.975 5.58872 196.614 5.05646 194.811 5.05646H192.149V29.2298C192.149 30.2056 192.238 30.9597 192.415 31.4919C192.622 32.0242 192.963 32.3938 193.436 32.6008C193.909 32.8078 194.574 32.9113 195.432 32.9113ZM222.142 35.3508C219.895 35.3508 217.943 34.8777 216.287 33.9315C214.631 32.9556 213.345 31.5659 212.429 29.7621C211.541 27.9583 211.098 25.8145 211.098 23.3306C211.098 20.6989 211.586 18.4812 212.562 16.6774C213.537 14.8441 214.898 13.4691 216.642 12.5524C218.416 11.6062 220.472 11.1331 222.808 11.1331C224.937 11.1331 226.726 11.5175 228.174 12.2863C229.623 13.0551 230.717 14.2379 231.457 15.8347C232.196 17.4315 232.536 19.4866 232.477 22H216.11L216.021 20.3145H226.489C226.519 18.8656 226.4 17.5941 226.134 16.5C225.868 15.3763 225.454 14.504 224.892 13.8831C224.33 13.2325 223.591 12.9073 222.674 12.9073C221.521 12.9073 220.531 13.5282 219.703 14.7702C218.904 15.9825 218.431 17.9341 218.283 20.625L218.372 20.8024C218.342 21.0686 218.313 21.3495 218.283 21.6452C218.283 21.9409 218.283 22.2957 218.283 22.7097C218.283 25.6075 218.816 27.8696 219.88 29.496C220.974 31.0927 222.541 31.8911 224.582 31.8911C226.031 31.8911 227.273 31.5363 228.308 30.8266C229.372 30.1169 230.274 29.0229 231.013 27.5444L232.61 28.3871C231.693 30.664 230.348 32.3938 228.574 33.5766C226.799 34.7594 224.656 35.3508 222.142 35.3508ZM232.502 34.7298V33C233.921 32.9704 234.912 32.7339 235.474 32.2903C236.065 31.8468 236.361 31.0188 236.361 29.8065V6.16533C236.361 4.83468 236.08 3.85888 235.518 3.23791C234.986 2.61694 233.98 2.29167 232.502 2.2621V0.487908C233.093 0.517477 233.699 0.547047 234.32 0.576617C234.941 0.606187 235.548 0.620972 236.139 0.620972C237.47 0.620972 238.726 0.576617 239.909 0.487908C241.121 0.369628 242.23 0.206994 243.236 4.76837e-06V29.8065C243.236 31.0484 243.531 31.8911 244.123 32.3347C244.714 32.7487 245.72 32.9704 247.139 33V34.7298C246.695 34.7003 246.074 34.6855 245.276 34.6855C244.507 34.6559 243.65 34.6263 242.703 34.5968C241.787 34.5672 240.855 34.5524 239.909 34.5524C238.549 34.5524 237.144 34.582 235.695 34.6411C234.276 34.6707 233.212 34.7003 232.502 34.7298ZM246.456 34.7298V33C247.875 32.9704 248.866 32.7339 249.428 32.2903C250.019 31.8468 250.315 31.0188 250.315 29.8065V6.16533C250.315 4.83468 250.034 3.85888 249.472 3.23791C248.94 2.61694 247.934 2.29167 246.456 2.2621V0.487908C247.047 0.517477 247.654 0.547047 248.275 0.576617C248.895 0.606187 249.502 0.620972 250.093 0.620972C251.424 0.620972 252.68 0.576617 253.863 0.487908C255.076 0.369628 256.184 0.206994 257.19 4.76837e-06V29.8065C257.19 31.0484 257.486 31.8911 258.077 32.3347C258.668 32.7487 259.674 32.9704 261.093 33V34.7298C260.65 34.7003 260.029 34.6855 259.23 34.6855C258.461 34.6559 257.604 34.6263 256.658 34.5968C255.741 34.5672 254.809 34.5524 253.863 34.5524C252.503 34.5524 251.098 34.582 249.65 34.6411C248.23 34.6707 247.166 34.7003 246.456 34.7298ZM272.383 35.3508C270.136 35.3508 268.185 34.8777 266.529 33.9315C264.873 32.9556 263.586 31.5659 262.67 29.7621C261.783 27.9583 261.339 25.8145 261.339 23.3306C261.339 20.6989 261.827 18.4812 262.803 16.6774C263.779 14.8441 265.139 13.4691 266.883 12.5524C268.658 11.6062 270.713 11.1331 273.049 11.1331C275.178 11.1331 276.967 11.5175 278.416 12.2863C279.865 13.0551 280.959 14.2379 281.698 15.8347C282.437 17.4315 282.777 19.4866 282.718 22H266.351L266.262 20.3145H276.73C276.76 18.8656 276.641 17.5941 276.375 16.5C276.109 15.3763 275.695 14.504 275.133 13.8831C274.572 13.2325 273.832 12.9073 272.916 12.9073C271.762 12.9073 270.772 13.5282 269.944 14.7702C269.146 15.9825 268.672 17.9341 268.525 20.625L268.613 20.8024C268.584 21.0686 268.554 21.3495 268.525 21.6452C268.525 21.9409 268.525 22.2957 268.525 22.7097C268.525 25.6075 269.057 27.8696 270.121 29.496C271.215 31.0927 272.783 31.8911 274.823 31.8911C276.272 31.8911 277.514 31.5363 278.549 30.8266C279.613 30.1169 280.515 29.0229 281.254 27.5444L282.851 28.3871C281.935 30.664 280.589 32.3938 278.815 33.5766C277.041 34.7594 274.897 35.3508 272.383 35.3508Z" fill="black" fill-opacity="0.01"/>
</svg>
