<svg width="308" height="60" viewBox="0 0 308 60" fill="none" xmlns="http://www.w3.org/2000/svg">
<g filter="url(#filter0_d_13_57)">
<path d="M12.3001 43.0298V41.3C13.6603 41.2409 14.6509 41.1226 15.2718 40.9452C15.9224 40.7382 16.3364 40.3685 16.5138 39.8363C16.7208 39.304 16.8243 38.5204 16.8243 37.4855V17.171C16.8243 16.0769 16.7208 15.2785 16.5138 14.7758C16.3068 14.2435 15.878 13.8887 15.2275 13.7113C14.6065 13.5043 13.6307 13.386 12.3001 13.3565V11.6266C13.4829 11.6562 14.7987 11.6858 16.2477 11.7153C17.6966 11.7449 19.2194 11.7597 20.8162 11.7597C22.9157 11.7597 24.7342 11.7449 26.2718 11.7153C27.8391 11.6858 29.1106 11.6562 30.0864 11.6266V13.3565C28.46 13.386 27.2477 13.5043 26.4493 13.7113C25.6509 13.9183 25.1186 14.2879 24.8525 14.8202C24.5864 15.3228 24.4533 16.1065 24.4533 17.171V38.1508C24.4533 38.9788 24.5124 39.6145 24.6307 40.0581C24.7786 40.5016 25.0595 40.7973 25.4735 40.9452C25.8874 41.093 26.538 41.1669 27.4251 41.1669H28.3122C29.5541 41.1669 30.6925 40.9599 31.7275 40.546C32.7624 40.132 33.6939 39.4962 34.5218 38.6387C35.3498 37.7812 36.0891 36.7315 36.7396 35.4895C37.4197 34.218 38.0407 32.7543 38.6025 31.0984H40.3767C40.1697 33.1978 40.0071 35.2382 39.8888 37.2194C39.8001 39.2005 39.7705 41.1374 39.8001 43.0298C38.5286 42.9707 36.9909 42.9411 35.1872 42.9411C33.3834 42.9116 31.1509 42.8968 28.4896 42.8968C24.9116 42.8968 21.7477 42.9116 18.9977 42.9411C16.2772 42.9411 14.0447 42.9707 12.3001 43.0298ZM47.365 43.6508C45.443 43.6508 43.9201 43.1481 42.7964 42.1427C41.6728 41.1374 41.111 39.7624 41.111 38.0177C41.111 36.6871 41.4214 35.6078 42.0424 34.7798C42.6634 33.9223 43.4618 33.2274 44.4376 32.6952C45.443 32.1629 46.4927 31.7194 47.5868 31.3645C48.7104 31.0097 49.7602 30.6696 50.736 30.3444C51.7413 30.0191 52.5545 29.6347 53.1755 29.1911C53.7964 28.7476 54.1069 28.1562 54.1069 27.4169V25.2879C54.1069 23.9868 53.7669 22.9962 53.0868 22.3161C52.4362 21.6065 51.4752 21.2516 50.2037 21.2516C49.2575 21.2516 48.4887 21.3847 47.8973 21.6508C47.3354 21.9169 47.0545 22.2866 47.0545 22.7597C47.0545 23.1441 47.1728 23.5285 47.4094 23.9129C47.6755 24.2677 47.9268 24.6522 48.1634 25.0661C48.3999 25.4801 48.5182 25.9384 48.5182 26.4411C48.5182 27.1212 48.2373 27.6683 47.6755 28.0823C47.1137 28.4962 46.3596 28.7032 45.4134 28.7032C44.3784 28.7032 43.5505 28.4075 42.9295 27.8161C42.3381 27.2247 42.0424 26.4263 42.0424 25.421C42.0424 24.2086 42.4712 23.1589 43.3287 22.2718C44.1862 21.3847 45.3838 20.6898 46.9214 20.1871C48.4591 19.6844 50.2481 19.4331 52.2884 19.4331C54.3583 19.4331 56.029 19.714 57.3005 20.2758C58.6016 20.8081 59.533 21.6952 60.0948 22.9371C60.6862 24.179 60.9819 25.8497 60.9819 27.9492V39.304C60.9819 39.9546 61.0854 40.4277 61.2924 40.7234C61.4994 40.9895 61.8247 41.1226 62.2682 41.1226C62.6231 41.1226 62.9779 41.0487 63.3327 40.9008C63.7171 40.753 64.1016 40.546 64.486 40.2798L65.1956 41.6992C64.3973 42.3497 63.4806 42.8376 62.4456 43.1629C61.4403 43.4882 60.3018 43.6508 59.0303 43.6508C55.8663 43.6508 54.2548 42.468 54.1956 40.1024C53.3677 41.2852 52.3771 42.1723 51.2239 42.7637C50.1002 43.3551 48.8139 43.6508 47.365 43.6508ZM50.736 40.1468C51.3865 40.1468 52.0075 39.9989 52.5989 39.7032C53.1903 39.4075 53.693 38.9492 54.1069 38.3282V29.9008C53.8999 30.3739 53.5451 30.7879 53.0424 31.1427C52.5693 31.468 52.037 31.7933 51.4456 32.1185C50.8542 32.4438 50.2776 32.8134 49.7158 33.2274C49.1835 33.6414 48.7252 34.1441 48.3408 34.7355C47.986 35.3269 47.8085 36.0513 47.8085 36.9089C47.8085 37.9438 48.0599 38.7422 48.5626 39.304C49.0948 39.8659 49.8193 40.1468 50.736 40.1468ZM72.5315 43.0298V41.3C73.8622 41.2409 74.838 41.1226 75.4589 40.9452C76.1095 40.7677 76.5382 40.4129 76.7452 39.8806C76.9522 39.3484 77.0557 38.55 77.0557 37.4855V17.171C77.0557 16.1065 76.9522 15.3228 76.7452 14.8202C76.5382 14.2879 76.1095 13.9183 75.4589 13.7113C74.838 13.5043 73.8622 13.386 72.5315 13.3565V11.6266C75.6955 11.7153 80.7815 11.7597 87.7896 11.7597C89.1794 11.7597 90.4804 11.7597 91.6928 11.7597C92.9052 11.7301 94.0436 11.7153 95.1081 11.7153C96.1726 11.6858 97.1337 11.6562 97.9912 11.6266C97.9912 13.5191 98.0503 15.3229 98.1686 17.0379C98.3165 18.7234 98.5087 20.3497 98.7452 21.9169H96.9267C96.5127 19.9062 95.9657 18.2798 95.2855 17.0379C94.6054 15.796 93.7627 14.8941 92.7573 14.3323C91.7815 13.7704 90.5839 13.4895 89.1646 13.4895H84.6847V37.4855C84.6847 38.5204 84.8178 39.304 85.0839 39.8363C85.3501 40.3685 85.8823 40.7382 86.6807 40.9452C87.4791 41.1226 88.6915 41.2409 90.3178 41.3V43.0298C89.342 43.0003 88.0705 42.9707 86.5033 42.9411C84.9657 42.9116 83.1471 42.8968 81.0476 42.8968C79.4509 42.8968 77.928 42.9116 76.4791 42.9411C75.0302 42.9707 73.7143 43.0003 72.5315 43.0298ZM83.2654 28.3927V26.7073H91.6485V28.3927H83.2654ZM92.092 34.8242C91.9442 33.3457 91.6485 32.1333 91.2049 31.1871C90.7909 30.2409 90.2143 29.546 89.4751 29.1024C88.7654 28.6293 87.8783 28.3927 86.8138 28.3927V26.7073C88.2331 26.7073 89.3716 26.2194 90.2291 25.2435C91.1162 24.2382 91.6928 22.7892 91.9589 20.8968H93.6444C93.5261 22.6118 93.467 23.9573 93.467 24.9331C93.4966 25.8793 93.5114 26.7516 93.5114 27.55C93.5114 28.2005 93.5114 28.8659 93.5114 29.546C93.5409 30.1965 93.5705 30.9505 93.6001 31.8081C93.6592 32.636 93.7183 33.6414 93.7775 34.8242H92.092ZM98.4611 43.0298V41.3C99.8804 41.2704 100.871 41.0339 101.433 40.5903C102.024 40.1468 102.32 39.3188 102.32 38.1065V14.4653C102.32 13.1347 102.039 12.1589 101.477 11.5379C100.945 10.9169 99.9396 10.5917 98.4611 10.5621V8.7879C99.0525 8.81747 99.6587 8.84704 100.28 8.87661C100.901 8.90618 101.507 8.92097 102.098 8.92097C103.429 8.92097 104.686 8.87661 105.868 8.7879C107.081 8.66962 108.19 8.50699 109.195 8.3V38.1065C109.195 39.3484 109.491 40.1911 110.082 40.6347C110.673 41.0487 111.679 41.2704 113.098 41.3V43.0298C112.655 43.0003 112.034 42.9855 111.235 42.9855C110.466 42.9559 109.609 42.9263 108.663 42.8968C107.746 42.8672 106.815 42.8524 105.868 42.8524C104.508 42.8524 103.104 42.882 101.655 42.9411C100.235 42.9707 99.1708 43.0003 98.4611 43.0298ZM124.389 43.6508C122.141 43.6508 120.19 43.1777 118.534 42.2315C116.878 41.2556 115.592 39.8659 114.675 38.0621C113.788 36.2583 113.344 34.1145 113.344 31.6306C113.344 28.9989 113.832 26.7812 114.808 24.9774C115.784 23.1441 117.144 21.7691 118.889 20.8524C120.663 19.9062 122.718 19.4331 125.054 19.4331C127.183 19.4331 128.972 19.8175 130.421 20.5863C131.87 21.3551 132.964 22.5379 133.703 24.1347C134.442 25.7315 134.782 27.7866 134.723 30.3H118.356L118.268 28.6145H128.735C128.765 27.1656 128.647 25.8941 128.38 24.8C128.114 23.6763 127.7 22.804 127.139 22.1831C126.577 21.5325 125.837 21.2073 124.921 21.2073C123.768 21.2073 122.777 21.8282 121.949 23.0702C121.151 24.2825 120.678 26.2341 120.53 28.925L120.618 29.1024C120.589 29.3685 120.559 29.6495 120.53 29.9452C120.53 30.2409 120.53 30.5957 120.53 31.0097C120.53 33.9075 121.062 36.1696 122.126 37.796C123.221 39.3927 124.788 40.1911 126.828 40.1911C128.277 40.1911 129.519 39.8363 130.554 39.1266C131.618 38.4169 132.52 37.3228 133.26 35.8444L134.856 36.6871C133.94 38.964 132.594 40.6938 130.82 41.8766C129.046 43.0594 126.902 43.6508 124.389 43.6508ZM145.589 43.6508C143.253 43.6508 141.45 42.9559 140.178 41.5661C138.936 40.1763 138.315 38.1804 138.315 35.5782V25.6871C138.315 24.2973 138.02 23.3215 137.428 22.7597C136.837 22.1683 135.846 21.843 134.456 21.7839V20.054C135.077 20.0836 135.684 20.1132 136.275 20.1427C136.896 20.1723 137.561 20.1871 138.271 20.1871C139.602 20.1871 140.829 20.1427 141.952 20.054C143.106 19.9358 144.185 19.7731 145.19 19.5661V36.2879C145.19 37.7073 145.471 38.7866 146.033 39.5258C146.624 40.2355 147.482 40.5903 148.606 40.5903C149.463 40.5903 150.247 40.3538 150.956 39.8806C151.696 39.378 152.317 38.6387 152.819 37.6629V39.6145C152.11 40.886 151.134 41.8766 149.892 42.5863C148.65 43.296 147.216 43.6508 145.589 43.6508ZM152.598 43.5177V25.5984C152.598 24.2382 152.346 23.2772 151.844 22.7153C151.37 22.1535 150.542 21.843 149.36 21.7839V20.054C149.951 20.0836 150.513 20.1132 151.045 20.1427C151.607 20.1723 152.198 20.1871 152.819 20.1871C154.12 20.1871 155.318 20.1427 156.412 20.054C157.536 19.9358 158.556 19.7731 159.473 19.5661V37.3968C159.473 38.7866 159.768 39.7772 160.36 40.3685C160.951 40.9599 161.956 41.2704 163.376 41.3V43.0298C162.725 42.9707 162.089 42.9411 161.469 42.9411C160.877 42.9116 160.241 42.8968 159.561 42.8968C158.231 42.8968 156.989 42.9411 155.835 43.0298C154.682 43.1481 153.603 43.3108 152.598 43.5177ZM162.737 43.0298V41.3C164.245 41.2704 165.265 41.0339 165.798 40.5903C166.359 40.1172 166.64 39.2892 166.64 38.1065V25.6871C166.64 24.2973 166.345 23.3215 165.753 22.7597C165.162 22.1683 164.156 21.843 162.737 21.7839V20.054C163.683 20.0836 164.423 20.1132 164.955 20.1427C165.517 20.1723 166.138 20.1871 166.818 20.1871C169.42 20.1871 171.652 19.9801 173.515 19.5661V37.7073C173.515 39.0083 173.9 39.925 174.669 40.4573C175.437 40.9895 176.798 41.2704 178.749 41.3V43.0298C178.187 43.0003 177.433 42.9855 176.487 42.9855C175.541 42.9559 174.521 42.9263 173.427 42.8968C172.333 42.8672 171.268 42.8524 170.233 42.8524C168.725 42.8524 167.261 42.882 165.842 42.9411C164.452 42.9707 163.417 43.0003 162.737 43.0298ZM180.612 28.7476C179.814 28.7476 179.178 28.5406 178.705 28.1266C178.232 27.6831 177.995 27.1065 177.995 26.3968C177.995 25.9532 178.069 25.554 178.217 25.1992C178.394 24.8444 178.557 24.5043 178.705 24.179C178.853 23.8538 178.927 23.5285 178.927 23.2032C178.927 22.5527 178.513 22.2274 177.685 22.2274C177.123 22.2274 176.561 22.3605 175.999 22.6266C175.437 22.8927 174.92 23.2772 174.447 23.7798C174.003 24.253 173.648 24.8148 173.382 25.4653L173.294 23.5581C173.974 22.2866 174.905 21.2812 176.088 20.5419C177.271 19.8027 178.527 19.4331 179.858 19.4331C181.277 19.4331 182.386 19.847 183.185 20.675C183.983 21.503 184.382 22.6562 184.382 24.1347C184.382 25.5245 184.027 26.6481 183.318 27.5056C182.638 28.3336 181.736 28.7476 180.612 28.7476ZM192.296 43.0298V41.3C193.627 41.2409 194.603 41.1226 195.224 40.9452C195.874 40.7677 196.303 40.4129 196.51 39.8806C196.717 39.3484 196.82 38.55 196.82 37.4855V17.171C196.82 16.1065 196.717 15.3228 196.51 14.8202C196.303 14.2879 195.874 13.9183 195.224 13.7113C194.573 13.5043 193.597 13.386 192.296 13.3565V11.6266C192.917 11.6562 193.908 11.6858 195.268 11.7153C196.628 11.7153 198.328 11.7153 200.369 11.7153C202.35 11.7153 203.932 11.7005 205.115 11.671C206.327 11.6414 207.288 11.6266 207.998 11.6266C211.901 11.6266 214.828 12.2328 216.78 13.4452C218.732 14.6575 219.707 16.5056 219.707 18.9895C219.707 20.9707 218.939 22.597 217.401 23.8685C215.863 25.1105 213.557 25.9828 210.482 26.4855V26.5298C214.326 26.7368 217.238 27.5204 219.22 28.8806C221.201 30.2113 222.191 32.1038 222.191 34.5581C222.191 37.2194 221.023 39.304 218.687 40.8121C216.381 42.2906 213.158 43.0298 209.018 43.0298C208.486 43.0298 207.865 43.0151 207.155 42.9855C206.445 42.9559 205.543 42.9411 204.449 42.9411C203.385 42.9116 202.039 42.8968 200.413 42.8968C198.373 42.8968 196.658 42.9116 195.268 42.9411C193.908 42.9411 192.917 42.9707 192.296 43.0298ZM207.732 41.2113C209.861 41.2113 211.472 40.6495 212.566 39.5258C213.66 38.3726 214.207 36.7167 214.207 34.5581C214.207 32.2812 213.572 30.5513 212.3 29.3685C211.058 28.1562 209.225 27.55 206.8 27.55H202.365V25.9089H206.623C208.515 25.9089 209.979 25.3323 211.014 24.179C212.049 23.0258 212.566 21.4142 212.566 19.3444C212.566 17.4519 212.108 15.9882 211.191 14.9532C210.275 13.8887 208.914 13.3565 207.111 13.3565H204.449V37.5298C204.449 38.5056 204.538 39.2597 204.716 39.7919C204.923 40.3242 205.263 40.6938 205.736 40.9008C206.209 41.1078 206.874 41.2113 207.732 41.2113ZM234.442 43.6508C232.195 43.6508 230.243 43.1777 228.587 42.2315C226.932 41.2556 225.645 39.8659 224.729 38.0621C223.841 36.2583 223.398 34.1145 223.398 31.6306C223.398 28.9989 223.886 26.7812 224.862 24.9774C225.837 23.1441 227.198 21.7691 228.942 20.8524C230.716 19.9062 232.772 19.4331 235.108 19.4331C237.237 19.4331 239.026 19.8175 240.475 20.5863C241.923 21.3551 243.018 22.5379 243.757 24.1347C244.496 25.7315 244.836 27.7866 244.777 30.3H228.41L228.321 28.6145H238.789C238.819 27.1656 238.7 25.8941 238.434 24.8C238.168 23.6763 237.754 22.804 237.192 22.1831C236.63 21.5325 235.891 21.2073 234.975 21.2073C233.821 21.2073 232.831 21.8282 232.003 23.0702C231.204 24.2825 230.731 26.2341 230.583 28.925L230.672 29.1024C230.643 29.3685 230.613 29.6495 230.583 29.9452C230.583 30.2409 230.583 30.5957 230.583 31.0097C230.583 33.9075 231.116 36.1696 232.18 37.796C233.274 39.3927 234.841 40.1911 236.882 40.1911C238.331 40.1911 239.573 39.8363 240.608 39.1266C241.672 38.4169 242.574 37.3228 243.313 35.8444L244.91 36.6871C243.993 38.964 242.648 40.6938 240.874 41.8766C239.1 43.0594 236.956 43.6508 234.442 43.6508ZM244.802 43.0298V41.3C246.221 41.2704 247.212 41.0339 247.774 40.5903C248.365 40.1468 248.661 39.3188 248.661 38.1065V14.4653C248.661 13.1347 248.38 12.1589 247.818 11.5379C247.286 10.9169 246.28 10.5917 244.802 10.5621V8.7879C245.393 8.81747 245.999 8.84704 246.62 8.87661C247.241 8.90618 247.848 8.92097 248.439 8.92097C249.77 8.92097 251.026 8.87661 252.209 8.7879C253.422 8.66962 254.53 8.50699 255.536 8.3V38.1065C255.536 39.3484 255.831 40.1911 256.423 40.6347C257.014 41.0487 258.02 41.2704 259.439 41.3V43.0298C258.995 43.0003 258.374 42.9855 257.576 42.9855C256.807 42.9559 255.95 42.9263 255.004 42.8968C254.087 42.8672 253.155 42.8524 252.209 42.8524C250.849 42.8524 249.444 42.882 247.995 42.9411C246.576 42.9707 245.512 43.0003 244.802 43.0298ZM258.756 43.0298V41.3C260.175 41.2704 261.166 41.0339 261.728 40.5903C262.319 40.1468 262.615 39.3188 262.615 38.1065V14.4653C262.615 13.1347 262.334 12.1589 261.772 11.5379C261.24 10.9169 260.234 10.5917 258.756 10.5621V8.7879C259.347 8.81747 259.954 8.84704 260.575 8.87661C261.196 8.90618 261.802 8.92097 262.393 8.92097C263.724 8.92097 264.98 8.87661 266.163 8.7879C267.376 8.66962 268.484 8.50699 269.49 8.3V38.1065C269.49 39.3484 269.786 40.1911 270.377 40.6347C270.968 41.0487 271.974 41.2704 273.393 41.3V43.0298C272.95 43.0003 272.329 42.9855 271.53 42.9855C270.761 42.9559 269.904 42.9263 268.958 42.8968C268.041 42.8672 267.109 42.8524 266.163 42.8524C264.803 42.8524 263.398 42.882 261.95 42.9411C260.53 42.9707 259.466 43.0003 258.756 43.0298ZM284.683 43.6508C282.436 43.6508 280.485 43.1777 278.829 42.2315C277.173 41.2556 275.886 39.8659 274.97 38.0621C274.083 36.2583 273.639 34.1145 273.639 31.6306C273.639 28.9989 274.127 26.7812 275.103 24.9774C276.079 23.1441 277.439 21.7691 279.183 20.8524C280.958 19.9062 283.013 19.4331 285.349 19.4331C287.478 19.4331 289.267 19.8175 290.716 20.5863C292.165 21.3551 293.259 22.5379 293.998 24.1347C294.737 25.7315 295.077 27.7866 295.018 30.3H278.651L278.563 28.6145H289.03C289.06 27.1656 288.942 25.8941 288.675 24.8C288.409 23.6763 287.995 22.804 287.433 22.1831C286.872 21.5325 286.132 21.2073 285.216 21.2073C284.063 21.2073 283.072 21.8282 282.244 23.0702C281.446 24.2825 280.972 26.2341 280.825 28.925L280.913 29.1024C280.884 29.3685 280.854 29.6495 280.825 29.9452C280.825 30.2409 280.825 30.5957 280.825 31.0097C280.825 33.9075 281.357 36.1696 282.421 37.796C283.515 39.3927 285.083 40.1911 287.123 40.1911C288.572 40.1911 289.814 39.8363 290.849 39.1266C291.913 38.4169 292.815 37.3228 293.554 35.8444L295.151 36.6871C294.235 38.964 292.889 40.6938 291.115 41.8766C289.341 43.0594 287.197 43.6508 284.683 43.6508Z" fill="white"/>
</g>
<defs>
<filter id="filter0_d_13_57" x="4.86374e-05" y="2.86102e-06" width="307.451" height="59.9508" filterUnits="userSpaceOnUse" color-interpolation-filters="sRGB">
<feFlood flood-opacity="0" result="BackgroundImageFix"/>
<feColorMatrix in="SourceAlpha" type="matrix" values="0 0 0 0 0 0 0 0 0 0 0 0 0 0 0 0 0 0 127 0" result="hardAlpha"/>
<feOffset dy="4"/>
<feGaussianBlur stdDeviation="6.15"/>
<feComposite in2="hardAlpha" operator="out"/>
<feColorMatrix type="matrix" values="0 0 0 0 1 0 0 0 0 0.278846 0 0 0 0 0.278846 0 0 0 0.13 0"/>
<feBlend mode="normal" in2="BackgroundImageFix" result="effect1_dropShadow_13_57"/>
<feBlend mode="normal" in="SourceGraphic" in2="effect1_dropShadow_13_57" result="shape"/>
</filter>
</defs>
</svg>
