<svg width="408" height="72" viewBox="0 0 408 72" fill="none" xmlns="http://www.w3.org/2000/svg">
<path d="M150.567 67V66.5282C150.986 66.5121 151.297 66.4798 151.499 66.4315C151.7 66.375 151.829 66.2742 151.886 66.129C151.95 65.9839 151.982 65.7702 151.982 65.4879V59.9476C151.982 59.6492 151.95 59.4315 151.886 59.2944C151.821 59.1573 151.688 59.0605 151.486 59.004C151.285 58.9476 150.978 58.9153 150.567 58.9073V58.4355C150.793 58.4435 151.079 58.4516 151.426 58.4597C151.773 58.4677 152.168 58.4718 152.611 58.4718C153.168 58.4718 153.656 58.4677 154.075 58.4597C154.495 58.4516 154.821 58.4435 155.055 58.4355V58.9073C154.515 58.9153 154.111 58.9476 153.845 59.004C153.579 59.0524 153.406 59.1492 153.325 59.2944C153.245 59.4315 153.204 59.6492 153.204 59.9476V65.5121C153.204 65.7863 153.228 65.996 153.277 66.1411C153.325 66.2782 153.422 66.371 153.567 66.4194C153.712 66.4677 153.938 66.4919 154.245 66.4919H154.753C155.132 66.4919 155.454 66.4556 155.72 66.3831C155.995 66.3105 156.224 66.1855 156.41 66.0081C156.603 65.8306 156.777 65.5847 156.93 65.2702C157.083 64.9476 157.228 64.5403 157.366 64.0484H157.849C157.785 64.5484 157.736 65.0403 157.704 65.5242C157.672 66.0081 157.656 66.5 157.656 67C157.301 66.9839 156.882 66.9758 156.398 66.9758C155.922 66.9677 155.349 66.9637 154.68 66.9637C153.769 66.9637 152.966 66.9677 152.273 66.9758C151.579 66.9758 151.011 66.9839 150.567 67ZM161.223 67.1694C160.642 67.1694 160.134 67.0403 159.699 66.7823C159.271 66.5161 158.941 66.1371 158.707 65.6452C158.473 65.1532 158.356 64.5726 158.356 63.9032C158.356 63.2258 158.473 62.6411 158.707 62.1492C158.941 61.6492 159.279 61.2661 159.723 61C160.166 60.7339 160.695 60.6008 161.307 60.6008C161.832 60.6008 162.283 60.7016 162.662 60.9032C163.049 61.1048 163.344 61.4234 163.545 61.8589C163.755 62.2944 163.852 62.8629 163.836 63.5645H159.13L159.118 63.1048H162.626C162.634 62.7097 162.59 62.3589 162.493 62.0524C162.396 61.746 162.243 61.504 162.033 61.3266C161.832 61.1492 161.57 61.0605 161.247 61.0605C160.836 61.0605 160.473 61.2339 160.158 61.5806C159.852 61.9274 159.67 62.4718 159.614 63.2137L159.626 63.25C159.618 63.3306 159.614 63.4194 159.614 63.5161C159.614 63.6129 159.614 63.7137 159.614 63.8185C159.614 64.6734 159.779 65.3347 160.11 65.8024C160.441 66.2621 160.916 66.4919 161.537 66.4919C161.941 66.4919 162.299 66.3952 162.614 66.2016C162.936 66 163.203 65.6895 163.412 65.2702L163.836 65.5121C163.626 66.0363 163.291 66.4435 162.832 66.7339C162.38 67.0242 161.844 67.1694 161.223 67.1694ZM167.243 67.1694C166.638 67.1694 166.187 66.996 165.888 66.6492C165.59 66.2944 165.441 65.7621 165.441 65.0524V61.2419H163.989V60.7823H165.441V58.9315C165.666 58.9234 165.876 58.9073 166.07 58.8831C166.263 58.8508 166.441 58.8105 166.602 58.7621V60.7823H168.719V61.2419H166.602V65.3911C166.602 65.7782 166.678 66.0645 166.832 66.25C166.985 66.4274 167.219 66.5161 167.533 66.5161C167.824 66.5161 168.062 66.4234 168.247 66.2379C168.441 66.0524 168.586 65.7782 168.683 65.4153L169.058 65.5242C168.937 66.0887 168.727 66.504 168.428 66.7702C168.138 67.0363 167.743 67.1694 167.243 67.1694ZM169.633 61.5685L169.5 61.2177C169.927 61.0806 170.254 60.8952 170.48 60.6613C170.706 60.4194 170.818 60.1653 170.818 59.8992C170.818 59.7056 170.746 59.6089 170.601 59.6089C170.52 59.6089 170.431 59.629 170.335 59.6694C170.246 59.7016 170.137 59.7177 170.008 59.7177C169.774 59.7177 169.585 59.6452 169.439 59.5C169.302 59.3468 169.234 59.1532 169.234 58.9194C169.234 58.6613 169.322 58.4516 169.5 58.2903C169.685 58.121 169.923 58.0363 170.214 58.0363C170.552 58.0363 170.822 58.1653 171.024 58.4234C171.226 58.6734 171.327 59.0202 171.327 59.4637C171.327 59.9879 171.181 60.4274 170.891 60.7823C170.609 61.129 170.189 61.3911 169.633 61.5685ZM174.494 67.1694C174.148 67.1694 173.853 67.129 173.611 67.0484C173.378 66.9758 173.184 66.9073 173.031 66.8427C172.878 66.7702 172.748 66.7339 172.644 66.7339C172.458 66.7339 172.321 66.8589 172.232 67.1089H171.773C171.789 66.9153 171.801 66.7056 171.809 66.4798C171.817 66.254 171.821 65.996 171.821 65.7056C171.829 65.4073 171.829 65.0685 171.821 64.6895H172.281C172.394 65.3589 172.619 65.8589 172.958 66.1895C173.305 66.5202 173.769 66.6855 174.349 66.6855C174.769 66.6855 175.095 66.5968 175.329 66.4194C175.563 66.2339 175.68 65.9758 175.68 65.6452C175.68 65.3306 175.559 65.0766 175.317 64.8831C175.083 64.6815 174.672 64.5 174.083 64.3387C173.349 64.1371 172.813 63.875 172.474 63.5524C172.136 63.2218 171.966 62.8105 171.966 62.3185C171.966 61.7944 172.14 61.379 172.486 61.0726C172.833 60.7581 173.301 60.6008 173.89 60.6008C174.204 60.6008 174.47 60.6371 174.688 60.7097C174.906 60.7823 175.087 60.8548 175.232 60.9274C175.386 61 175.523 61.0363 175.644 61.0363C175.724 61.0363 175.793 61.0081 175.849 60.9516C175.906 60.8952 175.954 60.8024 175.994 60.6734H176.466C176.45 60.8427 176.438 61.0242 176.43 61.2177C176.422 61.4032 176.414 61.621 176.406 61.871C176.406 62.1129 176.41 62.4073 176.418 62.754H175.946C175.865 62.2298 175.652 61.8185 175.305 61.5202C174.958 61.2137 174.543 61.0605 174.059 61.0605C173.704 61.0605 173.43 61.1452 173.236 61.3145C173.051 61.4758 172.958 61.7056 172.958 62.004C172.958 62.3185 173.087 62.5806 173.345 62.7903C173.603 62.9919 174.051 63.1815 174.688 63.3589C175.39 63.5605 175.894 63.8105 176.2 64.1089C176.515 64.4073 176.672 64.8024 176.672 65.2944C176.672 65.875 176.478 66.3347 176.091 66.6734C175.704 67.004 175.172 67.1694 174.494 67.1694ZM187.911 67V66.5282C188.25 66.5202 188.48 66.4556 188.601 66.3347C188.73 66.2056 188.794 65.9798 188.794 65.6573V62.8145C188.794 62.2984 188.697 61.9073 188.504 61.6411C188.31 61.375 188.024 61.2419 187.645 61.2419C187.306 61.2419 186.992 61.3427 186.702 61.5444C186.411 61.7379 186.153 62.0484 185.927 62.4758L185.867 62.0645C186.093 61.5565 186.399 61.1855 186.786 60.9516C187.181 60.7177 187.605 60.6008 188.056 60.6008C188.669 60.6008 189.141 60.8024 189.472 61.2056C189.802 61.6008 189.968 62.1653 189.968 62.8992V65.6573C189.968 65.9798 190.064 66.2056 190.258 66.3347C190.46 66.4556 190.814 66.5202 191.322 66.5282V67C191.202 66.9919 191.032 66.9879 190.814 66.9879C190.605 66.9798 190.375 66.9718 190.125 66.9637C189.875 66.9556 189.633 66.9516 189.399 66.9516C189.109 66.9516 188.822 66.9597 188.54 66.9758C188.266 66.9839 188.056 66.9919 187.911 67ZM179.685 67V66.5282C180.193 66.5202 180.544 66.4556 180.738 66.3347C180.939 66.2056 181.04 65.9798 181.04 65.6573V62.3065C181.04 61.9194 180.939 61.6492 180.738 61.496C180.536 61.3427 180.185 61.2581 179.685 61.2419V60.7702C179.847 60.7782 180.012 60.7863 180.181 60.7944C180.351 60.8024 180.528 60.8065 180.714 60.8065C180.988 60.8065 181.25 60.7944 181.5 60.7702C181.75 60.7379 181.988 60.6935 182.214 60.6371V65.6573C182.214 65.9798 182.274 66.2056 182.395 66.3347C182.524 66.4556 182.758 66.5202 183.097 66.5282V67C182.919 66.9919 182.697 66.9839 182.431 66.9758C182.173 66.9597 181.899 66.9516 181.609 66.9516C181.278 66.9516 180.935 66.9597 180.581 66.9758C180.226 66.9839 179.927 66.9919 179.685 67ZM184.028 67V66.5282C184.367 66.5202 184.597 66.4556 184.718 66.3347C184.847 66.2056 184.911 65.9798 184.911 65.6573V62.8145C184.911 62.2984 184.814 61.9073 184.621 61.6411C184.427 61.375 184.141 61.2419 183.762 61.2419C183.439 61.2419 183.141 61.3347 182.867 61.5202C182.593 61.6976 182.351 61.9637 182.141 62.3185L182.153 61.7863C182.347 61.4153 182.621 61.125 182.976 60.9153C183.339 60.7056 183.742 60.6008 184.185 60.6008C184.79 60.6008 185.258 60.7984 185.589 61.1935C185.919 61.5887 186.085 62.1573 186.085 62.8992V65.6573C186.085 65.9798 186.145 66.2056 186.266 66.3347C186.395 66.4556 186.629 66.5202 186.968 66.5282V67C186.831 66.9919 186.621 66.9839 186.339 66.9758C186.064 66.9597 185.786 66.9516 185.504 66.9516C185.222 66.9516 184.939 66.9597 184.657 66.9758C184.383 66.9839 184.173 66.9919 184.028 67ZM193.397 67.1694C192.849 67.1694 192.413 67.0282 192.091 66.746C191.776 66.4556 191.619 66.0685 191.619 65.5847C191.619 65.2056 191.708 64.8992 191.885 64.6653C192.062 64.4315 192.292 64.246 192.574 64.1089C192.865 63.9718 193.167 63.8589 193.482 63.7702C193.804 63.6734 194.107 63.5887 194.389 63.5161C194.679 63.4435 194.913 63.3548 195.091 63.25C195.276 63.1371 195.369 62.9919 195.369 62.8145V62.2339C195.369 61.8548 195.256 61.5685 195.03 61.375C194.804 61.1815 194.47 61.0847 194.026 61.0847C193.704 61.0847 193.433 61.129 193.216 61.2177C192.998 61.3065 192.889 61.4153 192.889 61.5444C192.889 61.625 192.917 61.7097 192.974 61.7984C193.03 61.879 193.083 61.9718 193.131 62.0766C193.187 62.1734 193.216 62.2823 193.216 62.4032C193.216 62.5565 193.155 62.6815 193.034 62.7782C192.921 62.875 192.772 62.9234 192.587 62.9234C192.369 62.9234 192.191 62.8548 192.054 62.7177C191.917 62.5726 191.849 62.3831 191.849 62.1492C191.849 61.8508 191.962 61.5847 192.187 61.3508C192.413 61.1169 192.716 60.9355 193.095 60.8065C193.482 60.6694 193.917 60.6008 194.401 60.6008C194.901 60.6008 195.308 60.6774 195.623 60.8306C195.937 60.9839 196.167 61.2218 196.312 61.5444C196.466 61.8669 196.542 62.2863 196.542 62.8024V65.996C196.542 66.1895 196.574 66.3306 196.639 66.4194C196.704 66.5081 196.804 66.5524 196.941 66.5524C197.079 66.5524 197.216 66.5202 197.353 66.4556C197.49 66.3831 197.623 66.2984 197.752 66.2016L197.982 66.5887C197.772 66.7742 197.55 66.9153 197.316 67.0121C197.091 67.1169 196.829 67.1694 196.53 67.1694C195.756 67.1694 195.369 66.8145 195.369 66.1048C195.135 66.4516 194.853 66.7177 194.522 66.9032C194.191 67.0806 193.816 67.1694 193.397 67.1694ZM193.857 66.4315C194.155 66.4315 194.433 66.3589 194.691 66.2137C194.949 66.0685 195.175 65.8589 195.369 65.5847V63.4315C195.288 63.5685 195.147 63.6815 194.945 63.7702C194.752 63.8508 194.534 63.9355 194.292 64.0242C194.05 64.1048 193.816 64.2016 193.591 64.3145C193.373 64.4274 193.191 64.5726 193.046 64.75C192.901 64.9274 192.829 65.1573 192.829 65.4395C192.829 65.746 192.917 65.9879 193.095 66.1653C193.28 66.3427 193.534 66.4315 193.857 66.4315ZM197.761 67V66.5282C198.286 66.5121 198.64 66.4435 198.826 66.3226C199.02 66.1935 199.116 65.9718 199.116 65.6573V59.1855C199.116 58.8065 199.015 58.5403 198.814 58.3871C198.612 58.2258 198.261 58.1371 197.761 58.121V57.6492C197.931 57.6573 198.1 57.6653 198.27 57.6734C198.447 57.6815 198.62 57.6855 198.79 57.6855C199.33 57.6855 199.83 57.629 200.29 57.5161V65.6573C200.29 65.9718 200.354 66.1935 200.483 66.3226C200.612 66.4435 200.854 66.5121 201.209 66.5282V67C201.056 66.9919 200.838 66.9839 200.556 66.9758C200.274 66.9597 199.987 66.9516 199.697 66.9516C199.342 66.9516 198.979 66.9597 198.608 66.9758C198.237 66.9839 197.955 66.9919 197.761 67ZM202.274 67V66.5282C202.62 66.4879 202.83 66.4194 202.903 66.3226C202.983 66.2177 202.963 66.0444 202.842 65.8024L202.322 64.7258C202.169 64.4032 201.999 64.1815 201.814 64.0605C201.636 63.9395 201.39 63.879 201.076 63.879H200.084V63.4073H201.197C201.463 63.4073 201.685 63.3669 201.862 63.2863C202.04 63.2056 202.205 63.0645 202.358 62.8629L202.673 62.4395C202.81 62.2621 202.895 62.1048 202.927 61.9677C202.959 61.8226 202.939 61.7016 202.866 61.6048C202.802 61.5 202.681 61.4194 202.503 61.3629C202.326 61.2984 202.088 61.2621 201.79 61.254V60.7823C202.015 60.7903 202.278 60.7984 202.576 60.8065C202.874 60.8145 203.197 60.8185 203.544 60.8185C203.77 60.8185 203.975 60.8185 204.161 60.8185C204.346 60.8105 204.52 60.8065 204.681 60.8065C204.842 60.7984 204.991 60.7903 205.128 60.7823V61.254C204.83 61.3024 204.576 61.371 204.366 61.4597C204.157 61.5484 203.971 61.6613 203.81 61.7984C203.657 61.9355 203.495 62.1129 203.326 62.3306L202.407 63.6129L202.104 63.3226C202.33 63.3548 202.52 63.4113 202.673 63.4919C202.834 63.5726 202.979 63.7016 203.108 63.879C203.245 64.0484 203.382 64.2782 203.52 64.5685L203.991 65.5121C204.128 65.7702 204.261 65.9718 204.39 66.1169C204.528 66.254 204.693 66.3508 204.886 66.4073C205.08 66.4637 205.33 66.504 205.636 66.5282V67C205.33 66.9919 205.076 66.9879 204.874 66.9879C204.673 66.9798 204.495 66.9758 204.342 66.9758C204.197 66.9677 204.052 66.9637 203.907 66.9637C203.673 66.9637 203.443 66.9677 203.217 66.9758C202.991 66.9758 202.677 66.9839 202.274 67ZM208.572 67.1694C207.992 67.1694 207.484 67.0403 207.048 66.7823C206.621 66.5161 206.29 66.1371 206.056 65.6452C205.822 65.1532 205.705 64.5726 205.705 63.9032C205.705 63.2258 205.822 62.6411 206.056 62.1492C206.29 61.6492 206.629 61.2661 207.072 61C207.516 60.7339 208.044 60.6008 208.657 60.6008C209.181 60.6008 209.633 60.7016 210.012 60.9032C210.399 61.1048 210.693 61.4234 210.895 61.8589C211.105 62.2944 211.201 62.8629 211.185 63.5645H206.48L206.468 63.1048H209.976C209.984 62.7097 209.939 62.3589 209.843 62.0524C209.746 61.746 209.593 61.504 209.383 61.3266C209.181 61.1492 208.919 61.0605 208.597 61.0605C208.185 61.0605 207.822 61.2339 207.508 61.5806C207.201 61.9274 207.02 62.4718 206.964 63.2137L206.976 63.25C206.968 63.3306 206.964 63.4194 206.964 63.5161C206.964 63.6129 206.964 63.7137 206.964 63.8185C206.964 64.6734 207.129 65.3347 207.459 65.8024C207.79 66.2621 208.266 66.4919 208.887 66.4919C209.29 66.4919 209.649 66.3952 209.964 66.2016C210.286 66 210.552 65.6895 210.762 65.2702L211.185 65.5121C210.976 66.0363 210.641 66.4435 210.181 66.7339C209.73 67.0242 209.193 67.1694 208.572 67.1694ZM214.182 67V66.5282C214.682 66.5202 215.033 66.4556 215.235 66.3347C215.436 66.2137 215.537 65.9879 215.537 65.6573V62.3065C215.537 61.9355 215.436 61.6694 215.235 61.5081C215.041 61.3468 214.691 61.2581 214.182 61.2419V60.7702C214.344 60.7782 214.509 60.7863 214.678 60.7944C214.856 60.8024 215.029 60.8065 215.199 60.8065C215.489 60.8065 215.759 60.7944 216.009 60.7702C216.259 60.7379 216.493 60.6935 216.711 60.6371V65.6573C216.711 65.9879 216.807 66.2137 217.001 66.3347C217.203 66.4556 217.557 66.5202 218.066 66.5282V67C217.945 66.9919 217.775 66.9879 217.557 66.9879C217.348 66.9798 217.118 66.9718 216.868 66.9637C216.618 66.9556 216.368 66.9516 216.118 66.9516C215.755 66.9516 215.388 66.9597 215.017 66.9758C214.646 66.9839 214.368 66.9919 214.182 67ZM216.082 59.3427C215.856 59.3427 215.662 59.2661 215.501 59.1129C215.34 58.9516 215.259 58.754 215.259 58.5202C215.259 58.2944 215.34 58.1048 215.501 57.9516C215.662 57.7903 215.856 57.7097 216.082 57.7097C216.307 57.7097 216.501 57.7903 216.662 57.9516C216.824 58.1048 216.904 58.2944 216.904 58.5202C216.904 58.754 216.824 58.9516 216.662 59.1129C216.501 59.2661 216.307 59.3427 216.082 59.3427ZM221.091 67.1694C220.486 67.1694 220.034 66.996 219.736 66.6492C219.437 66.2944 219.288 65.7621 219.288 65.0524V61.2419H217.837V60.7823H219.288V58.9315C219.514 58.9234 219.724 58.9073 219.917 58.8831C220.111 58.8508 220.288 58.8105 220.45 58.7621V60.7823H222.566V61.2419H220.45V65.3911C220.45 65.7782 220.526 66.0645 220.679 66.25C220.833 66.4274 221.066 66.5161 221.381 66.5161C221.671 66.5161 221.909 66.4234 222.095 66.2379C222.288 66.0524 222.433 65.7782 222.53 65.4153L222.905 65.5242C222.784 66.0887 222.575 66.504 222.276 66.7702C221.986 67.0363 221.591 67.1694 221.091 67.1694ZM228.59 67.1815L226.352 62.0403C226.231 61.7661 226.07 61.5685 225.868 61.4476C225.666 61.3185 225.408 61.25 225.094 61.2419V60.7702C225.384 60.7863 225.654 60.7984 225.904 60.8065C226.154 60.8145 226.429 60.8185 226.727 60.8185C227.082 60.8185 227.388 60.8145 227.646 60.8065C227.904 60.7984 228.138 60.7863 228.348 60.7702V61.2419C227.945 61.2581 227.691 61.3347 227.586 61.4718C227.489 61.6089 227.517 61.8508 227.67 62.1976L229.219 65.7903L229.025 65.8508L230.187 62.9355C230.332 62.5645 230.4 62.2581 230.392 62.0161C230.392 61.7661 230.316 61.5806 230.162 61.4597C230.017 61.3306 229.795 61.2581 229.497 61.2419V60.7702C229.707 60.7782 229.888 60.7863 230.041 60.7944C230.195 60.7944 230.34 60.7984 230.477 60.8065C230.622 60.8065 230.783 60.8065 230.961 60.8065C231.195 60.8065 231.429 60.8024 231.662 60.7944C231.896 60.7863 232.098 60.7782 232.267 60.7702V61.2419C231.937 61.2661 231.654 61.3831 231.42 61.5927C231.195 61.7944 230.993 62.121 230.816 62.5726L229.013 67.1815H228.59ZM226.884 69.9637C226.497 69.9637 226.183 69.8629 225.941 69.6613C225.699 69.4597 225.578 69.1935 225.578 68.8629C225.578 68.6129 225.654 68.4073 225.808 68.246C225.961 68.0927 226.158 68.0161 226.4 68.0161C226.586 68.0161 226.731 68.0605 226.836 68.1492C226.941 68.246 226.993 68.375 226.993 68.5363C226.993 68.6492 226.973 68.746 226.933 68.8266C226.9 68.9153 226.864 68.996 226.824 69.0685C226.783 69.1411 226.763 69.2137 226.763 69.2863C226.763 69.4315 226.852 69.504 227.029 69.504C227.207 69.504 227.368 69.4355 227.513 69.2984C227.658 69.1694 227.783 68.9758 227.888 68.7177L228.662 66.8185L229.062 67.0605L228.372 68.7782C228.259 69.0524 228.13 69.2782 227.985 69.4556C227.848 69.6331 227.691 69.7621 227.513 69.8427C227.336 69.9234 227.126 69.9637 226.884 69.9637ZM235.275 67.1694C234.719 67.1694 234.219 67.0565 233.775 66.8306C233.34 66.5968 232.993 66.2379 232.735 65.754C232.477 65.2702 232.348 64.6492 232.348 63.8911C232.348 63.125 232.477 62.5 232.735 62.0161C232.993 61.5323 233.344 61.1774 233.788 60.9516C234.231 60.7177 234.727 60.6008 235.275 60.6008C235.832 60.6008 236.328 60.7177 236.763 60.9516C237.207 61.1774 237.558 61.5323 237.816 62.0161C238.074 62.5 238.203 63.125 238.203 63.8911C238.203 64.6492 238.074 65.2702 237.816 65.754C237.558 66.2379 237.207 66.5968 236.763 66.8306C236.328 67.0565 235.832 67.1694 235.275 67.1694ZM235.275 66.6976C235.759 66.6976 236.159 66.4758 236.473 66.0323C236.788 65.5887 236.945 64.875 236.945 63.8911C236.945 62.9073 236.788 62.1895 236.473 61.7379C236.159 61.2863 235.759 61.0605 235.275 61.0605C234.784 61.0605 234.38 61.2863 234.066 61.7379C233.759 62.1895 233.606 62.9073 233.606 63.8911C233.606 64.875 233.759 65.5887 234.066 66.0323C234.38 66.4758 234.784 66.6976 235.275 66.6976ZM241.801 67.1694C241.188 67.1694 240.717 66.9718 240.386 66.5766C240.055 66.1734 239.89 65.6048 239.89 64.871V62.3065C239.89 61.9194 239.785 61.6492 239.576 61.496C239.374 61.3347 239.027 61.25 238.535 61.2419V60.7702C238.672 60.7782 238.826 60.7863 238.995 60.7944C239.172 60.8024 239.35 60.8065 239.527 60.8065C239.801 60.8065 240.063 60.7944 240.313 60.7702C240.563 60.7379 240.809 60.6935 241.051 60.6371V64.9919C241.051 65.5 241.148 65.8831 241.342 66.1411C241.543 66.3992 241.842 66.5282 242.237 66.5282C242.551 66.5282 242.846 66.4395 243.12 66.2621C243.394 66.0766 243.632 65.8065 243.834 65.4516L243.822 65.9839C243.636 66.3548 243.366 66.6452 243.011 66.8548C242.656 67.0645 242.253 67.1694 241.801 67.1694ZM243.761 67.1331V62.3065C243.761 61.9194 243.676 61.6492 243.507 61.496C243.338 61.3347 243.039 61.25 242.612 61.2419V60.7702C242.749 60.7782 242.894 60.7863 243.047 60.7944C243.209 60.8024 243.37 60.8065 243.531 60.8065C243.789 60.8065 244.031 60.7944 244.257 60.7702C244.491 60.7379 244.717 60.6935 244.934 60.6371V65.4637C244.934 65.8508 245.035 66.125 245.237 66.2863C245.438 66.4395 245.789 66.5202 246.289 66.5282V67C246.144 66.9839 245.983 66.9758 245.805 66.9758C245.636 66.9677 245.467 66.9637 245.297 66.9637C245.023 66.9637 244.757 66.9758 244.499 67C244.249 67.0323 244.003 67.0766 243.761 67.1331ZM246.333 67V66.5282C246.849 66.5202 247.204 66.4556 247.397 66.3347C247.591 66.2056 247.688 65.9798 247.688 65.6573V62.3065C247.688 61.9194 247.583 61.6492 247.373 61.496C247.172 61.3427 246.825 61.2581 246.333 61.2419V60.7702C246.502 60.7782 246.672 60.7863 246.841 60.7944C247.01 60.8024 247.184 60.8065 247.361 60.8065C247.901 60.8065 248.401 60.75 248.861 60.6371V65.5968C248.861 65.9355 248.986 66.1734 249.236 66.3105C249.486 66.4476 249.922 66.5202 250.543 66.5282V67C250.397 66.9919 250.2 66.9879 249.95 66.9879C249.7 66.9798 249.43 66.9718 249.139 66.9637C248.849 66.9556 248.567 66.9516 248.293 66.9516C247.897 66.9516 247.518 66.9597 247.155 66.9758C246.793 66.9839 246.518 66.9919 246.333 67ZM251.147 62.7298C250.97 62.7298 250.829 62.6815 250.724 62.5847C250.619 62.4798 250.567 62.3508 250.567 62.1976C250.567 62.0927 250.587 62 250.627 61.9194C250.668 61.8306 250.708 61.75 250.748 61.6774C250.788 61.5968 250.809 61.5202 250.809 61.4476C250.809 61.2863 250.684 61.2056 250.434 61.2056C250.24 61.2056 250.034 61.254 249.817 61.3508C249.599 61.4476 249.401 61.5806 249.224 61.75C249.047 61.9113 248.909 62.0968 248.813 62.3065L248.788 61.7984C249.006 61.4194 249.284 61.125 249.623 60.9153C249.97 60.7056 250.333 60.6008 250.712 60.6008C251.083 60.6008 251.381 60.7097 251.607 60.9274C251.833 61.1371 251.946 61.4194 251.946 61.7742C251.946 62.0565 251.869 62.2863 251.716 62.4637C251.571 62.6411 251.381 62.7298 251.147 62.7298ZM255.137 67.1694C254.79 67.1694 254.496 67.129 254.254 67.0484C254.02 66.9758 253.827 66.9073 253.673 66.8427C253.52 66.7702 253.391 66.7339 253.286 66.7339C253.101 66.7339 252.964 66.8589 252.875 67.1089H252.415C252.431 66.9153 252.443 66.7056 252.452 66.4798C252.46 66.254 252.464 65.996 252.464 65.7056C252.472 65.4073 252.472 65.0685 252.464 64.6895H252.923C253.036 65.3589 253.262 65.8589 253.601 66.1895C253.948 66.5202 254.411 66.6855 254.992 66.6855C255.411 66.6855 255.738 66.5968 255.972 66.4194C256.206 66.2339 256.323 65.9758 256.323 65.6452C256.323 65.3306 256.202 65.0766 255.96 64.8831C255.726 64.6815 255.314 64.5 254.726 64.3387C253.992 64.1371 253.456 63.875 253.117 63.5524C252.778 63.2218 252.609 62.8105 252.609 62.3185C252.609 61.7944 252.782 61.379 253.129 61.0726C253.476 60.7581 253.943 60.6008 254.532 60.6008C254.847 60.6008 255.113 60.6371 255.331 60.7097C255.548 60.7823 255.73 60.8548 255.875 60.9274C256.028 61 256.165 61.0363 256.286 61.0363C256.367 61.0363 256.435 61.0081 256.492 60.9516C256.548 60.8952 256.597 60.8024 256.637 60.6734H257.109C257.093 60.8427 257.081 61.0242 257.073 61.2177C257.064 61.4032 257.056 61.621 257.048 61.871C257.048 62.1129 257.052 62.4073 257.06 62.754H256.589C256.508 62.2298 256.294 61.8185 255.948 61.5202C255.601 61.2137 255.185 61.0605 254.702 61.0605C254.347 61.0605 254.073 61.1452 253.879 61.3145C253.693 61.4758 253.601 61.7056 253.601 62.004C253.601 62.3185 253.73 62.5806 253.988 62.7903C254.246 62.9919 254.693 63.1815 255.331 63.3589C256.032 63.5605 256.536 63.8105 256.843 64.1089C257.157 64.4073 257.314 64.8024 257.314 65.2944C257.314 65.875 257.121 66.3347 256.734 66.6734C256.347 67.004 255.814 67.1694 255.137 67.1694ZM259.09 67.1694C258.816 67.1694 258.59 67.0847 258.413 66.9153C258.236 66.746 258.147 66.5282 258.147 66.2621C258.147 66.004 258.236 65.7903 258.413 65.621C258.59 65.4516 258.816 65.3669 259.09 65.3669C259.365 65.3669 259.59 65.4516 259.768 65.621C259.945 65.7903 260.034 66.004 260.034 66.2621C260.034 66.5282 259.945 66.746 259.768 66.9153C259.59 67.0847 259.365 67.1694 259.09 67.1694Z" fill="black"/>
<path d="M46.0931 20.5065L40.7189 11.5645C40.3426 10.9323 39.9587 10.5032 39.5673 10.2774C39.1759 10.0366 38.6415 9.9086 37.9641 9.89355V9.0129C38.5964 9.02796 39.2362 9.04301 39.8835 9.05806C40.5458 9.07312 41.2232 9.08065 41.9157 9.08065C42.8792 9.08065 43.7297 9.07312 44.4673 9.05806C45.22 9.04301 45.8598 9.02796 46.3867 9.0129V9.89355C45.4232 9.9086 44.8136 10.0667 44.5577 10.3677C44.3017 10.6688 44.3695 11.143 44.7609 11.7903L48.3286 17.7516L47.4931 18.2484L50.0899 13.4839C50.7222 12.3247 50.9103 11.4516 50.6544 10.8645C50.4136 10.2624 49.7211 9.93871 48.577 9.89355V9.0129C49.0286 9.02796 49.548 9.04301 50.1351 9.05806C50.7372 9.07312 51.4297 9.08065 52.2125 9.08065C52.7243 9.08065 53.191 9.07312 53.6125 9.05806C54.0491 9.04301 54.4856 9.02796 54.9222 9.0129V9.89355C54.3953 9.96882 53.9362 10.1118 53.5448 10.3226C53.1684 10.5183 52.8222 10.7968 52.506 11.1581C52.205 11.5194 51.8888 12.0011 51.5577 12.6032L47.2222 20.5065H46.0931ZM42.0512 25V24.1194C42.9394 24.1043 43.6017 24.0441 44.0383 23.9387C44.4749 23.8333 44.7684 23.6376 44.9189 23.3516C45.0695 23.0505 45.1448 22.5989 45.1448 21.9968V17.9774L47.0867 19.4903L48.577 17.1645V21.9968C48.577 22.5989 48.6523 23.0505 48.8028 23.3516C48.9534 23.6376 49.2469 23.8333 49.6835 23.9387C50.1351 24.0441 50.7974 24.1043 51.6706 24.1194V25C51.1587 24.9849 50.4738 24.9699 49.6157 24.9548C48.7727 24.9398 47.8695 24.9323 46.906 24.9323C45.8974 24.9323 44.9641 24.9398 44.106 24.9548C43.248 24.9699 42.563 24.9849 42.0512 25ZM59.8158 25.3161C58.6868 25.3161 57.6857 25.0978 56.8126 24.6613C55.9394 24.2097 55.2545 23.5323 54.7577 22.629C54.261 21.7108 54.0126 20.5591 54.0126 19.1742C54.0126 17.7892 54.261 16.6376 54.7577 15.7194C55.2545 14.8011 55.9394 14.1237 56.8126 13.6871C57.6857 13.2355 58.6868 13.0097 59.8158 13.0097C60.9599 13.0097 61.9609 13.2355 62.819 13.6871C63.6771 14.1237 64.3545 14.8011 64.8513 15.7194C65.348 16.6376 65.5964 17.7892 65.5964 19.1742C65.5964 20.5591 65.348 21.7108 64.8513 22.629C64.3545 23.5323 63.6771 24.2097 62.819 24.6613C61.9609 25.0978 60.9599 25.3161 59.8158 25.3161ZM59.8158 24.4355C60.5384 24.4355 61.133 24.0215 61.5997 23.1935C62.0814 22.3505 62.3222 21.0108 62.3222 19.1742C62.3222 17.3075 62.0814 15.9602 61.5997 15.1323C61.133 14.2892 60.5384 13.8677 59.8158 13.8677C59.0782 13.8677 58.476 14.2892 58.0093 15.1323C57.5427 15.9602 57.3093 17.3075 57.3093 19.1742C57.3093 21.0108 57.5427 22.3505 58.0093 23.1935C58.476 24.0215 59.0782 24.4355 59.8158 24.4355ZM72.7241 25.3161C71.5499 25.3161 70.6467 24.9624 70.0144 24.2548C69.3822 23.5323 69.0661 22.5011 69.0661 21.1613V16.1935C69.0661 15.486 68.9005 14.9817 68.5693 14.6806C68.2532 14.3796 67.7037 14.2215 66.9209 14.2065V13.3258C67.237 13.3409 67.5532 13.3559 67.8693 13.371C68.1854 13.386 68.5166 13.3935 68.8628 13.3935C69.4951 13.3935 70.0822 13.371 70.6241 13.3258C71.1661 13.2656 71.6854 13.1828 72.1822 13.0774V21.4774C72.1822 22.2602 72.3403 22.8548 72.6564 23.2613C72.9725 23.6677 73.4392 23.871 74.0564 23.871C74.5381 23.871 74.9822 23.7355 75.3886 23.4645C75.7951 23.1785 76.1489 22.7645 76.4499 22.2226L76.4273 23.2161C76.0661 23.8785 75.5618 24.3978 74.9144 24.7742C74.2822 25.1355 73.5521 25.3161 72.7241 25.3161ZM76.337 25.2484V16.171C76.337 15.4634 76.2015 14.9667 75.9306 14.6806C75.6596 14.3796 75.1929 14.2215 74.5306 14.2065V13.3258C74.8166 13.3409 75.1026 13.3559 75.3886 13.371C75.6747 13.386 75.9682 13.3935 76.2693 13.3935C76.8865 13.3935 77.4585 13.371 77.9854 13.3258C78.5123 13.2656 79.0015 13.1828 79.4532 13.0774V22.1323C79.4532 22.8398 79.6112 23.3441 79.9273 23.6452C80.2585 23.9462 80.8155 24.1043 81.5983 24.1194V25C81.2822 24.9699 80.9661 24.9548 80.6499 24.9548C80.3338 24.9398 80.0101 24.9323 79.679 24.9323C79.0467 24.9323 78.4521 24.9548 77.8951 25C77.3381 25.0602 76.8187 25.143 76.337 25.2484ZM82.5061 25V24.1194C83.319 24.1043 83.876 23.9839 84.1771 23.7581C84.4932 23.5172 84.6513 23.0957 84.6513 22.4935V16.1935C84.6513 15.486 84.4857 14.9892 84.1545 14.7032C83.8384 14.4022 83.2889 14.2366 82.5061 14.2065V13.3258C82.9276 13.3409 83.2814 13.3559 83.5674 13.371C83.8685 13.386 84.1921 13.3935 84.5384 13.3935C85.7728 13.3935 86.8491 13.2882 87.7674 13.0774V22.3129C87.7674 22.9753 87.9706 23.4419 88.3771 23.7129C88.7986 23.9688 89.5287 24.1043 90.5674 24.1194V25C90.2814 24.9849 89.8975 24.9774 89.4158 24.9774C88.9491 24.9624 88.4373 24.9473 87.8803 24.9323C87.3384 24.9172 86.8039 24.9097 86.2771 24.9097C85.5093 24.9097 84.7717 24.9247 84.0642 24.9548C83.3717 24.9699 82.8523 24.9849 82.5061 25ZM91.5609 17.5258C91.1846 17.5258 90.8835 17.4204 90.6577 17.2097C90.4319 16.9989 90.319 16.728 90.319 16.3968C90.319 16.171 90.3566 15.9753 90.4319 15.8097C90.5072 15.629 90.5824 15.4634 90.6577 15.3129C90.733 15.1473 90.7706 14.9892 90.7706 14.8387C90.7706 14.5075 90.5599 14.3419 90.1384 14.3419C89.8222 14.3419 89.4986 14.4172 89.1674 14.5677C88.8513 14.7183 88.5577 14.929 88.2867 15.2C88.0308 15.4559 87.8351 15.757 87.6996 16.1032L87.6545 15.1548C88.0158 14.4774 88.505 13.9505 89.1222 13.5742C89.7394 13.1978 90.3867 13.0097 91.0642 13.0097C91.7717 13.0097 92.3287 13.2204 92.7351 13.6419C93.1566 14.0484 93.3674 14.6129 93.3674 15.3355C93.3674 15.9978 93.2018 16.5323 92.8706 16.9387C92.5394 17.3301 92.1029 17.5258 91.5609 17.5258ZM99.4747 30.2161V29.3355C100.288 29.3204 100.845 29.1925 101.146 28.9516C101.462 28.7258 101.62 28.3118 101.62 27.7097V16.1935C101.62 15.486 101.454 14.9817 101.123 14.6806C100.807 14.3796 100.257 14.2215 99.4747 14.2065V13.3258C99.8058 13.3409 100.13 13.3559 100.446 13.371C100.762 13.386 101.093 13.3935 101.439 13.3935C102.659 13.3935 103.757 13.2882 104.736 13.0774V27.529C104.736 28.1763 104.947 28.6355 105.368 28.9065C105.805 29.1774 106.527 29.3204 107.536 29.3355V30.2161C107.25 30.2011 106.866 30.186 106.384 30.171C105.903 30.171 105.383 30.1634 104.826 30.1484C104.269 30.1333 103.727 30.1258 103.2 30.1258C102.418 30.1258 101.688 30.1333 101.01 30.1484C100.348 30.1785 99.836 30.2011 99.4747 30.2161ZM107.513 25.3161C106.761 25.3161 106.113 25.1882 105.571 24.9323C105.03 24.6613 104.638 24.2925 104.397 23.8258L104.555 23.0129C104.751 23.3892 105.037 23.6828 105.413 23.8935C105.79 24.1043 106.211 24.2097 106.678 24.2097C107.641 24.2097 108.364 23.7806 108.846 22.9226C109.342 22.0495 109.591 20.7699 109.591 19.0839C109.591 17.5333 109.38 16.3591 108.959 15.5613C108.537 14.7634 107.912 14.3645 107.084 14.3645C106.542 14.3645 106.038 14.5376 105.571 14.8839C105.105 15.2151 104.774 15.6441 104.578 16.171L104.465 15.4258C104.736 14.6882 105.203 14.1011 105.865 13.6645C106.542 13.228 107.333 13.0097 108.236 13.0097C109.184 13.0097 110.005 13.2581 110.697 13.7548C111.39 14.2366 111.924 14.9215 112.3 15.8097C112.677 16.6978 112.865 17.7591 112.865 18.9935C112.865 20.3032 112.647 21.4323 112.21 22.3806C111.789 23.329 111.179 24.0591 110.381 24.571C109.583 25.0677 108.627 25.3161 107.513 25.3161ZM120.757 25.3161C119.628 25.3161 118.642 25.0753 117.799 24.5935C116.971 24.0968 116.331 23.3892 115.88 22.471C115.428 21.5527 115.202 20.4613 115.202 19.1968C115.202 17.872 115.443 16.7505 115.925 15.8323C116.407 14.914 117.084 14.214 117.957 13.7323C118.83 13.2505 119.854 13.0097 121.028 13.0097C122.082 13.0097 122.978 13.2054 123.715 13.5968C124.453 13.9731 125.01 14.5677 125.386 15.3806C125.763 16.1935 125.936 17.2473 125.906 18.5419H117.438L117.415 17.6839H123.083C123.098 16.9462 123.03 16.2989 122.88 15.7419C122.744 15.1699 122.519 14.7183 122.202 14.3871C121.886 14.0559 121.472 13.8903 120.96 13.8903C120.313 13.8903 119.756 14.2065 119.29 14.8387C118.838 15.471 118.567 16.472 118.477 17.8419L118.522 17.9323C118.507 18.0677 118.499 18.2183 118.499 18.3839C118.499 18.5495 118.499 18.7376 118.499 18.9484C118.499 20.4387 118.778 21.6054 119.335 22.4484C119.907 23.2914 120.735 23.7129 121.819 23.7129C122.556 23.7129 123.196 23.5323 123.738 23.171C124.295 22.7946 124.762 22.2226 125.138 21.4548L125.951 21.9065C125.514 23.0054 124.852 23.8484 123.964 24.4355C123.076 25.0226 122.007 25.3161 120.757 25.3161ZM127.433 25V24.1194C128.246 24.1043 128.803 23.9839 129.104 23.7581C129.42 23.5172 129.578 23.0957 129.578 22.4935V16.1935C129.578 15.486 129.413 14.9892 129.081 14.7032C128.765 14.4022 128.216 14.2366 127.433 14.2065V13.3258C127.854 13.3409 128.208 13.3559 128.494 13.371C128.795 13.386 129.119 13.3935 129.465 13.3935C130.7 13.3935 131.776 13.2882 132.694 13.0774V22.3129C132.694 22.9753 132.897 23.4419 133.304 23.7129C133.725 23.9688 134.456 24.1043 135.494 24.1194V25C135.208 24.9849 134.824 24.9774 134.343 24.9774C133.876 24.9624 133.364 24.9473 132.807 24.9323C132.265 24.9172 131.731 24.9097 131.204 24.9097C130.436 24.9097 129.699 24.9247 128.991 24.9548C128.299 24.9699 127.779 24.9849 127.433 25ZM136.488 17.5258C136.111 17.5258 135.81 17.4204 135.585 17.2097C135.359 16.9989 135.246 16.728 135.246 16.3968C135.246 16.171 135.284 15.9753 135.359 15.8097C135.434 15.629 135.509 15.4634 135.585 15.3129C135.66 15.1473 135.697 14.9892 135.697 14.8387C135.697 14.5075 135.487 14.3419 135.065 14.3419C134.749 14.3419 134.425 14.4172 134.094 14.5677C133.778 14.7183 133.485 14.929 133.214 15.2C132.958 15.4559 132.762 15.757 132.627 16.1032L132.581 15.1548C132.943 14.4774 133.432 13.9505 134.049 13.5742C134.666 13.1978 135.314 13.0097 135.991 13.0097C136.699 13.0097 137.256 13.2204 137.662 13.6419C138.084 14.0484 138.294 14.6129 138.294 15.3355C138.294 15.9978 138.129 16.5323 137.797 16.9387C137.466 17.3301 137.03 17.5258 136.488 17.5258ZM139.239 25V24.1194C140.052 24.1043 140.609 23.9763 140.91 23.7355C141.226 23.4946 141.384 23.0656 141.384 22.4484V12.9645C141.384 11.143 141.836 9.75054 142.739 8.7871C143.657 7.82366 144.959 7.34194 146.645 7.34194C147.835 7.34194 148.768 7.56774 149.445 8.01935C150.138 8.47097 150.484 9.08817 150.484 9.87097C150.484 10.3978 150.318 10.8269 149.987 11.1581C149.671 11.4742 149.25 11.6323 148.723 11.6323C148.316 11.6323 147.993 11.5344 147.752 11.3387C147.526 11.128 147.413 10.8645 147.413 10.5484C147.413 10.2925 147.466 10.0591 147.571 9.84839C147.677 9.63763 147.782 9.44194 147.887 9.26129C147.993 9.08065 148.045 8.90753 148.045 8.74194C148.045 8.38065 147.707 8.2 147.029 8.2C146.171 8.2 145.539 8.50108 145.132 9.10323C144.726 9.70538 144.523 10.6387 144.523 11.9032V22.3129C144.523 22.9602 144.741 23.4194 145.178 23.6903C145.614 23.9613 146.352 24.1043 147.391 24.1194V25C147.089 24.9849 146.691 24.9774 146.194 24.9774C145.712 24.9624 145.185 24.9473 144.613 24.9323C144.056 24.9172 143.514 24.9097 142.987 24.9097C142.189 24.9097 141.452 24.9247 140.774 24.9548C140.097 24.9699 139.585 24.9849 139.239 25ZM139.149 14.2065V13.3258H147.616V14.2065H139.149ZM154.425 25.3161C153.296 25.3161 152.31 25.0753 151.467 24.5935C150.639 24.0968 149.999 23.3892 149.548 22.471C149.096 21.5527 148.87 20.4613 148.87 19.1968C148.87 17.872 149.111 16.7505 149.593 15.8323C150.075 14.914 150.752 14.214 151.625 13.7323C152.498 13.2505 153.522 13.0097 154.696 13.0097C155.75 13.0097 156.645 13.2054 157.383 13.5968C158.121 13.9731 158.678 14.5677 159.054 15.3806C159.43 16.1935 159.604 17.2473 159.573 18.5419H151.106L151.083 17.6839H156.751C156.766 16.9462 156.698 16.2989 156.548 15.7419C156.412 15.1699 156.186 14.7183 155.87 14.3871C155.554 14.0559 155.14 13.8903 154.628 13.8903C153.981 13.8903 153.424 14.2065 152.957 14.8387C152.506 15.471 152.235 16.472 152.144 17.8419L152.19 17.9323C152.175 18.0677 152.167 18.2183 152.167 18.3839C152.167 18.5495 152.167 18.7376 152.167 18.9484C152.167 20.4387 152.445 21.6054 153.002 22.4484C153.575 23.2914 154.402 23.7129 155.486 23.7129C156.224 23.7129 156.864 23.5323 157.406 23.171C157.963 22.7946 158.429 22.2226 158.806 21.4548L159.619 21.9065C159.182 23.0054 158.52 23.8484 157.632 24.4355C156.743 25.0226 155.675 25.3161 154.425 25.3161ZM167.184 25.3161C166.071 25.3161 165.107 25.0753 164.294 24.5935C163.481 24.0968 162.849 23.3968 162.397 22.4935C161.961 21.5753 161.743 20.4914 161.743 19.2419C161.743 17.9473 161.976 16.8333 162.443 15.9C162.909 14.9667 163.572 14.2516 164.43 13.7548C165.303 13.2581 166.334 13.0097 167.523 13.0097C168.381 13.0097 169.141 13.1452 169.804 13.4161C170.466 13.672 170.986 14.0333 171.362 14.5C171.738 14.9516 171.926 15.486 171.926 16.1032C171.926 16.6753 171.746 17.1495 171.384 17.5258C171.038 17.9022 170.572 18.0903 169.984 18.0903C169.548 18.0903 169.194 17.9774 168.923 17.7516C168.652 17.5258 168.517 17.2323 168.517 16.871C168.517 16.5398 168.607 16.2538 168.788 16.0129C168.968 15.772 169.141 15.5538 169.307 15.3581C169.488 15.1473 169.578 14.9215 169.578 14.6806C169.578 14.4548 169.45 14.2817 169.194 14.1613C168.953 14.0258 168.637 13.9581 168.246 13.9581C167.222 13.9581 166.432 14.3946 165.875 15.2677C165.318 16.1258 165.039 17.3301 165.039 18.8806C165.039 20.4312 165.31 21.628 165.852 22.471C166.409 23.2989 167.215 23.7129 168.268 23.7129C168.961 23.7129 169.563 23.5247 170.075 23.1484C170.587 22.772 171.016 22.2075 171.362 21.4548L172.152 21.9065C171.746 23.0054 171.114 23.8484 170.255 24.4355C169.397 25.0226 168.374 25.3161 167.184 25.3161ZM178.809 25.3161C177.635 25.3161 176.754 24.9925 176.167 24.3452C175.58 23.6828 175.286 22.7043 175.286 21.4097V14.2065H172.825V13.3258H175.286V10.0516C175.873 10.0516 176.423 10.014 176.935 9.93871C177.446 9.86344 177.936 9.75806 178.402 9.62258V13.3258H181.789V14.2065H178.402V22.1548C178.402 22.7269 178.515 23.1559 178.741 23.4419C178.982 23.7129 179.336 23.8484 179.802 23.8484C180.239 23.8484 180.608 23.7129 180.909 23.4419C181.21 23.1559 181.458 22.7419 181.654 22.2L182.354 22.4935C182.038 23.472 181.601 24.1871 181.044 24.6387C180.487 25.0903 179.742 25.3161 178.809 25.3161ZM195.614 25.3161C194.846 25.3161 194.176 25.1731 193.604 24.8871C193.032 24.6011 192.611 24.2548 192.34 23.8484L192.543 23.0355C192.739 23.3817 193.025 23.6602 193.401 23.871C193.777 24.0817 194.206 24.1871 194.688 24.1871C195.666 24.1871 196.404 23.7731 196.901 22.9452C197.398 22.1022 197.646 20.8376 197.646 19.1516C197.646 17.6011 197.428 16.4194 196.991 15.6065C196.57 14.7785 195.945 14.3645 195.117 14.3645C194.605 14.3645 194.116 14.5226 193.649 14.8387C193.198 15.1548 192.874 15.5763 192.678 16.1032L192.543 15.4484C192.799 14.7108 193.258 14.1237 193.92 13.6871C194.583 13.2355 195.365 13.0097 196.269 13.0097C197.232 13.0097 198.06 13.2581 198.752 13.7548C199.46 14.2366 200.002 14.929 200.378 15.8323C200.755 16.7355 200.943 17.8043 200.943 19.0387C200.943 20.3484 200.725 21.4774 200.288 22.4258C199.866 23.3591 199.257 24.0742 198.459 24.571C197.661 25.0677 196.713 25.3161 195.614 25.3161ZM189.63 25.3839L188.998 24.6387C189.178 24.443 189.314 24.2473 189.404 24.0516C189.509 23.8559 189.577 23.6226 189.607 23.3516C189.652 23.0806 189.675 22.757 189.675 22.3806V10.4355C189.675 9.74301 189.517 9.24624 189.201 8.94516C188.9 8.64409 188.35 8.4785 187.552 8.44839V7.56774C187.839 7.5828 188.14 7.59785 188.456 7.6129C188.772 7.62796 189.08 7.63548 189.382 7.63548C190.044 7.63548 190.661 7.6129 191.233 7.56774C191.805 7.50753 192.332 7.42473 192.814 7.31936V24.1871C192.437 24.172 192.054 24.2172 191.662 24.3226C191.271 24.428 190.894 24.571 190.533 24.7516C190.187 24.9323 189.886 25.143 189.63 25.3839ZM209.055 25.3161C207.926 25.3161 206.925 25.0978 206.051 24.6613C205.178 24.2097 204.493 23.5323 203.997 22.629C203.5 21.7108 203.251 20.5591 203.251 19.1742C203.251 17.7892 203.5 16.6376 203.997 15.7194C204.493 14.8011 205.178 14.1237 206.051 13.6871C206.925 13.2355 207.926 13.0097 209.055 13.0097C210.199 13.0097 211.2 13.2355 212.058 13.6871C212.916 14.1237 213.593 14.8011 214.09 15.7194C214.587 16.6376 214.835 17.7892 214.835 19.1742C214.835 20.5591 214.587 21.7108 214.09 22.629C213.593 23.5323 212.916 24.2097 212.058 24.6613C211.2 25.0978 210.199 25.3161 209.055 25.3161ZM209.055 24.4355C209.777 24.4355 210.372 24.0215 210.839 23.1935C211.32 22.3505 211.561 21.0108 211.561 19.1742C211.561 17.3075 211.32 15.9602 210.839 15.1323C210.372 14.2892 209.777 13.8677 209.055 13.8677C208.317 13.8677 207.715 14.2892 207.248 15.1323C206.782 15.9602 206.548 17.3075 206.548 19.1742C206.548 21.0108 206.782 22.3505 207.248 23.1935C207.715 24.0215 208.317 24.4355 209.055 24.4355ZM221.963 25.3161C220.789 25.3161 219.886 24.9624 219.253 24.2548C218.621 23.5323 218.305 22.5011 218.305 21.1613V16.1935C218.305 15.486 218.139 14.9817 217.808 14.6806C217.492 14.3796 216.943 14.2215 216.16 14.2065V13.3258C216.476 13.3409 216.792 13.3559 217.108 13.371C217.424 13.386 217.756 13.3935 218.102 13.3935C218.734 13.3935 219.321 13.371 219.863 13.3258C220.405 13.2656 220.924 13.1828 221.421 13.0774V21.4774C221.421 22.2602 221.579 22.8548 221.895 23.2613C222.211 23.6677 222.678 23.871 223.295 23.871C223.777 23.871 224.221 23.7355 224.628 23.4645C225.034 23.1785 225.388 22.7645 225.689 22.2226L225.666 23.2161C225.305 23.8785 224.801 24.3978 224.153 24.7742C223.521 25.1355 222.791 25.3161 221.963 25.3161ZM225.576 25.2484V16.171C225.576 15.4634 225.44 14.9667 225.169 14.6806C224.899 14.3796 224.432 14.2215 223.769 14.2065V13.3258C224.056 13.3409 224.342 13.3559 224.628 13.371C224.914 13.386 225.207 13.3935 225.508 13.3935C226.125 13.3935 226.697 13.371 227.224 13.3258C227.751 13.2656 228.24 13.1828 228.692 13.0774V22.1323C228.692 22.8398 228.85 23.3441 229.166 23.6452C229.497 23.9462 230.054 24.1043 230.837 24.1194V25C230.521 24.9699 230.205 24.9548 229.889 24.9548C229.573 24.9398 229.249 24.9323 228.918 24.9323C228.286 24.9323 227.691 24.9548 227.134 25C226.577 25.0602 226.058 25.143 225.576 25.2484ZM237.552 30.2161V29.3355C238.575 29.3204 239.298 29.1774 239.719 28.9065C240.141 28.6355 240.352 28.1763 240.352 27.529V14.1387C240.743 14.1387 241.135 14.086 241.526 13.9806C241.917 13.8753 242.286 13.7323 242.632 13.5516C242.994 13.371 243.295 13.1677 243.536 12.9419L244.168 13.6645C244.002 13.8602 243.867 14.0634 243.761 14.2742C243.656 14.4699 243.581 14.7032 243.536 14.9742C243.506 15.2301 243.49 15.5462 243.49 15.9226V27.7097C243.49 28.3118 243.641 28.7258 243.942 28.9516C244.258 29.1925 244.815 29.3204 245.613 29.3355V30.2161C245.267 30.2011 244.755 30.1785 244.078 30.1484C243.415 30.1333 242.693 30.1258 241.91 30.1258C241.383 30.1258 240.833 30.1333 240.261 30.1484C239.704 30.1634 239.185 30.171 238.703 30.171C238.237 30.186 237.853 30.2011 237.552 30.2161ZM237.032 25.3161C236.039 25.3161 235.181 25.0677 234.458 24.571C233.751 24.0742 233.201 23.3742 232.81 22.471C232.418 21.5677 232.223 20.4914 232.223 19.2419C232.223 17.9172 232.433 16.7957 232.855 15.8774C233.292 14.9441 233.909 14.2366 234.707 13.7548C235.519 13.2581 236.475 13.0097 237.574 13.0097C238.101 13.0097 238.575 13.0774 238.997 13.2129C239.433 13.3333 239.802 13.4989 240.103 13.7097C240.404 13.9204 240.638 14.1387 240.803 14.3645L240.6 15.2677C240.419 14.9516 240.141 14.6882 239.765 14.4774C239.403 14.2516 238.974 14.1387 238.478 14.1387C237.514 14.1387 236.776 14.5527 236.265 15.3806C235.768 16.2086 235.519 17.4581 235.519 19.129C235.519 20.6946 235.738 21.8914 236.174 22.7194C236.626 23.5473 237.288 23.9613 238.161 23.9613C238.703 23.9613 239.185 23.7806 239.607 23.4194C240.028 23.0581 240.337 22.5462 240.532 21.8839L240.645 22.629C240.404 23.5022 239.975 24.172 239.358 24.6387C238.741 25.0903 237.966 25.3161 237.032 25.3161ZM251.591 25.3161C250.416 25.3161 249.513 24.9624 248.881 24.2548C248.249 23.5323 247.932 22.5011 247.932 21.1613V16.1935C247.932 15.486 247.767 14.9817 247.436 14.6806C247.12 14.3796 246.57 14.2215 245.787 14.2065V13.3258C246.103 13.3409 246.42 13.3559 246.736 13.371C247.052 13.386 247.383 13.3935 247.729 13.3935C248.361 13.3935 248.949 13.371 249.491 13.3258C250.032 13.2656 250.552 13.1828 251.049 13.0774V21.4774C251.049 22.2602 251.207 22.8548 251.523 23.2613C251.839 23.6677 252.306 23.871 252.923 23.871C253.405 23.871 253.849 23.7355 254.255 23.4645C254.661 23.1785 255.015 22.7645 255.316 22.2226L255.294 23.2161C254.932 23.8785 254.428 24.3978 253.781 24.7742C253.149 25.1355 252.418 25.3161 251.591 25.3161ZM255.203 25.2484V16.171C255.203 15.4634 255.068 14.9667 254.797 14.6806C254.526 14.3796 254.059 14.2215 253.397 14.2065V13.3258C253.683 13.3409 253.969 13.3559 254.255 13.371C254.541 13.386 254.835 13.3935 255.136 13.3935C255.753 13.3935 256.325 13.371 256.852 13.3258C257.379 13.2656 257.868 13.1828 258.32 13.0774V22.1323C258.32 22.8398 258.478 23.3441 258.794 23.6452C259.125 23.9462 259.682 24.1043 260.465 24.1194V25C260.149 24.9699 259.832 24.9548 259.516 24.9548C259.2 24.9398 258.877 24.9323 258.545 24.9323C257.913 24.9323 257.318 24.9548 256.761 25C256.205 25.0602 255.685 25.143 255.203 25.2484ZM267.378 25.3161C266.249 25.3161 265.263 25.0753 264.42 24.5935C263.592 24.0968 262.952 23.3892 262.5 22.471C262.049 21.5527 261.823 20.4613 261.823 19.1968C261.823 17.872 262.064 16.7505 262.545 15.8323C263.027 14.914 263.705 14.214 264.578 13.7323C265.451 13.2505 266.474 13.0097 267.649 13.0097C268.702 13.0097 269.598 13.2054 270.336 13.5968C271.073 13.9731 271.63 14.5677 272.007 15.3806C272.383 16.1935 272.556 17.2473 272.526 18.5419H264.058L264.036 17.6839H269.704C269.719 16.9462 269.651 16.2989 269.5 15.7419C269.365 15.1699 269.139 14.7183 268.823 14.3871C268.507 14.0559 268.093 13.8903 267.581 13.8903C266.934 13.8903 266.377 14.2065 265.91 14.8387C265.458 15.471 265.187 16.472 265.097 17.8419L265.142 17.9323C265.127 18.0677 265.12 18.2183 265.12 18.3839C265.12 18.5495 265.12 18.7376 265.12 18.9484C265.12 20.4387 265.398 21.6054 265.955 22.4484C266.527 23.2914 267.355 23.7129 268.439 23.7129C269.177 23.7129 269.816 23.5323 270.358 23.171C270.915 22.7946 271.382 22.2226 271.758 21.4548L272.571 21.9065C272.135 23.0054 271.472 23.8484 270.584 24.4355C269.696 25.0226 268.627 25.3161 267.378 25.3161ZM279.409 25.3161C278.234 25.3161 277.354 24.9925 276.767 24.3452C276.18 23.6828 275.886 22.7043 275.886 21.4097V14.2065H273.425V13.3258H275.886V10.0516C276.473 10.0516 277.023 10.014 277.534 9.93871C278.046 9.86344 278.535 9.75806 279.002 9.62258V13.3258H282.389V14.2065H279.002V22.1548C279.002 22.7269 279.115 23.1559 279.341 23.4419C279.582 23.7129 279.935 23.8484 280.402 23.8484C280.839 23.8484 281.207 23.7129 281.509 23.4419C281.81 23.1559 282.058 22.7419 282.254 22.2L282.954 22.4935C282.638 23.472 282.201 24.1871 281.644 24.6387C281.087 25.0903 280.342 25.3161 279.409 25.3161ZM292.781 25.3161C291.788 25.3161 290.997 25.0602 290.41 24.5484C289.823 24.0215 289.53 23.314 289.53 22.4258C289.53 21.7333 289.688 21.1763 290.004 20.7548C290.335 20.3183 290.757 19.9645 291.268 19.6935C291.78 19.4226 292.322 19.2043 292.894 19.0387C293.481 18.8581 294.031 18.6925 294.543 18.5419C295.054 18.3763 295.468 18.1882 295.785 17.9774C296.116 17.7516 296.281 17.4581 296.281 17.0968V16.0129C296.281 15.3355 296.101 14.8161 295.739 14.4548C295.378 14.0935 294.844 13.9129 294.136 13.9129C293.624 13.9129 293.203 13.9882 292.872 14.1387C292.54 14.2892 292.375 14.4849 292.375 14.7258C292.375 14.9065 292.435 15.0871 292.556 15.2677C292.676 15.4484 292.789 15.6441 292.894 15.8548C293.015 16.0505 293.075 16.2688 293.075 16.5097C293.075 16.8409 292.939 17.1118 292.668 17.3226C292.413 17.5183 292.066 17.6161 291.63 17.6161C291.133 17.6161 290.734 17.4731 290.433 17.1871C290.147 16.886 290.004 16.4946 290.004 16.0129C290.004 15.4108 290.215 14.8914 290.636 14.4548C291.073 14.0032 291.675 13.6495 292.443 13.3935C293.21 13.1376 294.091 13.0097 295.085 13.0097C296.108 13.0097 296.936 13.1527 297.568 13.4387C298.201 13.7097 298.66 14.1613 298.946 14.7935C299.247 15.4108 299.397 16.2387 299.397 17.2774V23.1032C299.397 23.4495 299.45 23.6978 299.556 23.8484C299.661 23.9989 299.834 24.0742 300.075 24.0742C300.271 24.0742 300.474 24.029 300.685 23.9387C300.895 23.8484 301.106 23.728 301.317 23.5774L301.678 24.3C301.287 24.6312 300.843 24.8796 300.346 25.0452C299.849 25.2258 299.292 25.3161 298.675 25.3161C297.109 25.3161 296.319 24.6989 296.304 23.4645C295.867 24.0817 295.356 24.5484 294.768 24.8645C294.181 25.1656 293.519 25.3161 292.781 25.3161ZM294.227 23.6452C294.633 23.6452 295.009 23.5548 295.356 23.3742C295.702 23.1785 296.01 22.9 296.281 22.5387V18.3387C296.146 18.5645 295.935 18.7677 295.649 18.9484C295.378 19.114 295.07 19.2796 294.723 19.4452C294.377 19.6108 294.046 19.7989 293.73 20.0097C293.414 20.2204 293.15 20.4839 292.939 20.8C292.729 21.1011 292.623 21.4849 292.623 21.9516C292.623 22.4785 292.766 22.8925 293.052 23.1935C293.338 23.4946 293.73 23.6452 294.227 23.6452ZM306.887 25.1806L303.026 15.6968C302.785 15.1097 302.499 14.7183 302.168 14.5226C301.837 14.3269 301.43 14.2215 300.948 14.2065V13.3258C301.46 13.3559 301.965 13.3785 302.461 13.3935C302.973 13.4086 303.568 13.4161 304.245 13.4161C304.998 13.4161 305.675 13.4086 306.277 13.3935C306.895 13.3785 307.452 13.3559 307.948 13.3258V14.2065C307.09 14.2366 306.571 14.3796 306.39 14.6355C306.21 14.8914 306.255 15.3656 306.526 16.0581L308.603 21.2742L308.174 21.5452L311.2 13.2581L311.923 13.8L307.723 25.1806H306.887ZM314.136 25.1806L310.432 16.9387L311.2 13.2581H312.081L315.784 21.4548L315.31 21.8161L316.845 17.5935C317.116 16.8559 317.222 16.2462 317.161 15.7645C317.101 15.2677 316.898 14.8914 316.552 14.6355C316.221 14.3796 315.761 14.2366 315.174 14.2065V13.3258C315.551 13.3409 315.904 13.3559 316.236 13.371C316.567 13.386 316.883 13.3935 317.184 13.3935C317.485 13.3935 317.771 13.3935 318.042 13.3935C318.494 13.3935 318.93 13.386 319.352 13.371C319.788 13.3559 320.172 13.3409 320.503 13.3258V14.2065C319.916 14.3269 319.442 14.5753 319.081 14.9516C318.734 15.3129 318.418 15.8774 318.132 16.6452L314.971 25.1806H314.136ZM324.514 25.3161C323.521 25.3161 322.73 25.0602 322.143 24.5484C321.556 24.0215 321.263 23.314 321.263 22.4258C321.263 21.7333 321.421 21.1763 321.737 20.7548C322.068 20.3183 322.49 19.9645 323.001 19.6935C323.513 19.4226 324.055 19.2043 324.627 19.0387C325.214 18.8581 325.764 18.6925 326.276 18.5419C326.787 18.3763 327.201 18.1882 327.518 17.9774C327.849 17.7516 328.014 17.4581 328.014 17.0968V16.0129C328.014 15.3355 327.834 14.8161 327.472 14.4548C327.111 14.0935 326.577 13.9129 325.869 13.9129C325.357 13.9129 324.936 13.9882 324.605 14.1387C324.273 14.2892 324.108 14.4849 324.108 14.7258C324.108 14.9065 324.168 15.0871 324.289 15.2677C324.409 15.4484 324.522 15.6441 324.627 15.8548C324.748 16.0505 324.808 16.2688 324.808 16.5097C324.808 16.8409 324.672 17.1118 324.401 17.3226C324.146 17.5183 323.799 17.6161 323.363 17.6161C322.866 17.6161 322.467 17.4731 322.166 17.1871C321.88 16.886 321.737 16.4946 321.737 16.0129C321.737 15.4108 321.948 14.8914 322.369 14.4548C322.806 14.0032 323.408 13.6495 324.176 13.3935C324.943 13.1376 325.824 13.0097 326.818 13.0097C327.841 13.0097 328.669 13.1527 329.301 13.4387C329.934 13.7097 330.393 14.1613 330.679 14.7935C330.98 15.4108 331.13 16.2387 331.13 17.2774V23.1032C331.13 23.4495 331.183 23.6978 331.289 23.8484C331.394 23.9989 331.567 24.0742 331.808 24.0742C332.004 24.0742 332.207 24.029 332.418 23.9387C332.628 23.8484 332.839 23.728 333.05 23.5774L333.411 24.3C333.02 24.6312 332.576 24.8796 332.079 25.0452C331.582 25.2258 331.025 25.3161 330.408 25.3161C328.842 25.3161 328.052 24.6989 328.037 23.4645C327.6 24.0817 327.089 24.5484 326.501 24.8645C325.914 25.1656 325.252 25.3161 324.514 25.3161ZM325.959 23.6452C326.366 23.6452 326.742 23.5548 327.089 23.3742C327.435 23.1785 327.743 22.9 328.014 22.5387V18.3387C327.879 18.5645 327.668 18.7677 327.382 18.9484C327.111 19.114 326.803 19.2796 326.456 19.4452C326.11 19.6108 325.779 19.7989 325.463 20.0097C325.147 20.2204 324.883 20.4839 324.672 20.8C324.462 21.1011 324.356 21.4849 324.356 21.9516C324.356 22.4785 324.499 22.8925 324.785 23.1935C325.071 23.4946 325.463 23.6452 325.959 23.6452ZM334.013 25V24.1194C334.811 24.1043 335.368 23.9839 335.684 23.7581C336 23.5323 336.158 23.1108 336.158 22.4935V16.1935C336.158 15.5161 336 15.0269 335.684 14.7258C335.383 14.4097 334.826 14.2366 334.013 14.2065V13.3258C334.314 13.3409 334.622 13.3559 334.939 13.371C335.255 13.386 335.571 13.3935 335.887 13.3935C336.534 13.3935 337.136 13.371 337.693 13.3258C338.265 13.2656 338.792 13.1828 339.274 13.0774V22.4935C339.274 23.1108 339.432 23.5323 339.748 23.7581C340.064 23.9839 340.621 24.1043 341.419 24.1194V25C341.193 24.9849 340.877 24.9774 340.471 24.9774C340.079 24.9624 339.643 24.9473 339.161 24.9323C338.695 24.9172 338.228 24.9097 337.761 24.9097C337.054 24.9097 336.339 24.9247 335.616 24.9548C334.909 24.9699 334.374 24.9849 334.013 25ZM337.626 11C337.129 11 336.685 10.8419 336.293 10.5258C335.917 10.2097 335.729 9.78065 335.729 9.23871C335.729 8.68172 335.917 8.24516 336.293 7.92903C336.685 7.6129 337.129 7.45484 337.626 7.45484C338.122 7.45484 338.559 7.6129 338.935 7.92903C339.327 8.24516 339.522 8.67419 339.522 9.21613C339.522 9.77312 339.327 10.2097 338.935 10.5258C338.559 10.8419 338.122 11 337.626 11ZM347.783 25.3161C346.609 25.3161 345.728 24.9925 345.141 24.3452C344.554 23.6828 344.261 22.7043 344.261 21.4097V14.2065H341.799V13.3258H344.261V10.0516C344.848 10.0516 345.397 10.014 345.909 9.93871C346.421 9.86344 346.91 9.75806 347.377 9.62258V13.3258H350.764V14.2065H347.377V22.1548C347.377 22.7269 347.49 23.1559 347.716 23.4419C347.956 23.7129 348.31 23.8484 348.777 23.8484C349.213 23.8484 349.582 23.7129 349.883 23.4419C350.184 23.1559 350.433 22.7419 350.628 22.2L351.328 22.4935C351.012 23.472 350.576 24.1871 350.019 24.6387C349.462 25.0903 348.717 25.3161 347.783 25.3161ZM357.827 25.3161C357.18 25.3161 356.638 25.2484 356.201 25.1129C355.765 24.9774 355.404 24.8419 355.118 24.7065C354.832 24.571 354.576 24.5032 354.35 24.5032C353.988 24.5032 353.725 24.7366 353.559 25.2032H352.679C352.724 24.7968 352.754 24.3828 352.769 23.9613C352.784 23.5247 352.792 23.043 352.792 22.5161C352.792 21.9742 352.792 21.357 352.792 20.6645H353.65C353.906 21.8989 354.357 22.8323 355.005 23.4645C355.667 24.0968 356.51 24.4129 357.534 24.4129C358.211 24.4129 358.738 24.2699 359.114 23.9839C359.491 23.6828 359.679 23.2688 359.679 22.7419C359.679 22.2301 359.468 21.8086 359.047 21.4774C358.64 21.1462 357.91 20.8226 356.856 20.5065C355.501 20.1 354.508 19.5731 353.876 18.9258C353.243 18.2634 352.927 17.4505 352.927 16.4871C352.927 15.4333 353.273 14.5903 353.966 13.9581C354.673 13.3258 355.614 13.0097 356.788 13.0097C357.391 13.0097 357.902 13.0774 358.324 13.2129C358.745 13.3333 359.099 13.4688 359.385 13.6194C359.686 13.7548 359.942 13.8226 360.153 13.8226C360.304 13.8226 360.432 13.7699 360.537 13.6645C360.642 13.5441 360.733 13.371 360.808 13.1452H361.688C361.658 13.4613 361.636 13.8 361.621 14.1613C361.606 14.5075 361.591 14.914 361.576 15.3806C361.576 15.8473 361.583 16.4269 361.598 17.1194H360.718C360.492 16.0957 360.063 15.3054 359.43 14.7484C358.813 14.1914 358.076 13.9129 357.218 13.9129C356.615 13.9129 356.141 14.0484 355.795 14.3194C355.464 14.5903 355.298 14.9817 355.298 15.4935C355.298 16.0204 355.524 16.457 355.976 16.8032C356.427 17.1495 357.21 17.4882 358.324 17.8194C359.634 18.1806 360.582 18.6624 361.169 19.2645C361.771 19.8667 362.072 20.657 362.072 21.6355C362.072 22.7946 361.696 23.6978 360.943 24.3452C360.191 24.9925 359.152 25.3161 357.827 25.3161ZM366.329 25.3161C365.697 25.3161 365.193 25.1505 364.816 24.8194C364.44 24.4882 364.252 24.0366 364.252 23.4645C364.252 22.9075 364.432 22.4634 364.794 22.1323C365.17 21.8011 365.674 21.6355 366.307 21.6355C366.939 21.6355 367.443 21.8011 367.819 22.1323C368.196 22.4634 368.384 22.9075 368.384 23.4645C368.384 24.0366 368.196 24.4882 367.819 24.8194C367.443 25.1505 366.946 25.3161 366.329 25.3161Z" fill="#6A422C"/>
</svg>
