<svg width="200" height="44" viewBox="0 0 200 44" fill="none" xmlns="http://www.w3.org/2000/svg">
<g filter="url(#filter0_n_51_569)">
<rect width="200" height="44" rx="22" fill="#4A664A"/>
<rect x="0.5" y="0.5" width="199" height="43" rx="21.5" stroke="white" stroke-opacity="0.12"/>
</g>
<path d="M62.3613 26.1806C61.8624 26.1806 61.4366 26.129 61.0839 26.0258C60.7398 25.9226 60.4559 25.8237 60.2323 25.729C60.0172 25.6258 59.8409 25.5742 59.7032 25.5742C59.5914 25.5742 59.5011 25.6215 59.4323 25.7161C59.372 25.8022 59.329 25.9355 59.3032 26.1161H58.7742C58.7914 25.9097 58.8043 25.6645 58.8129 25.3806C58.8215 25.0968 58.8258 24.7355 58.8258 24.2968C58.8344 23.8495 58.8387 23.2903 58.8387 22.6194H59.3548C59.4409 23.5742 59.729 24.3183 60.2194 24.8516C60.7183 25.3849 61.3677 25.6516 62.1677 25.6516C62.7269 25.6516 63.1656 25.514 63.4839 25.2387C63.8108 24.9634 63.9742 24.5892 63.9742 24.1161C63.9742 23.8151 63.8968 23.5441 63.7419 23.3032C63.5957 23.0624 63.3548 22.843 63.0194 22.6452C62.6925 22.4387 62.2538 22.2323 61.7032 22.0258C61.0581 21.7935 60.529 21.5398 60.1161 21.2645C59.7118 20.9806 59.4151 20.6667 59.2258 20.3226C59.0366 19.9699 58.9419 19.5785 58.9419 19.1484C58.9419 18.6409 59.0581 18.2065 59.2903 17.8452C59.5226 17.4753 59.8495 17.1914 60.271 16.9935C60.6925 16.7871 61.1914 16.6839 61.7677 16.6839C62.2237 16.6839 62.6022 16.7355 62.9032 16.8387C63.2129 16.9333 63.4667 17.0323 63.6645 17.1355C63.8624 17.2387 64.0301 17.2903 64.1677 17.2903C64.2796 17.2903 64.3656 17.2473 64.4258 17.1613C64.4946 17.0753 64.5462 16.9376 64.5806 16.7484H65.0968C65.0796 16.9462 65.0667 17.1656 65.0581 17.4065C65.0495 17.6387 65.0409 17.9398 65.0323 18.3097C65.0323 18.6796 65.0323 19.157 65.0323 19.7419H64.5161C64.4301 18.9677 64.1548 18.3527 63.6903 17.8968C63.2258 17.4323 62.6495 17.2 61.9613 17.2C61.4624 17.2 61.071 17.3247 60.7871 17.5742C60.5118 17.8151 60.3742 18.1505 60.3742 18.5806C60.3742 18.8645 60.4516 19.1183 60.6065 19.3419C60.7613 19.5656 61.0151 19.7806 61.3677 19.9871C61.729 20.1935 62.2065 20.4086 62.8 20.6323C63.7634 20.9935 64.4559 21.4065 64.8774 21.871C65.3075 22.3269 65.5226 22.886 65.5226 23.5484C65.5226 24.3656 65.2387 25.0108 64.671 25.4839C64.1032 25.9484 63.3333 26.1806 62.3613 26.1806ZM70.6908 26V25.4968C71.0263 25.4882 71.2586 25.4194 71.3876 25.2903C71.5166 25.1527 71.5811 24.9118 71.5811 24.5677V21.4323C71.5811 20.9333 71.4822 20.5591 71.2844 20.3097C71.0865 20.0602 70.7898 19.9355 70.3941 19.9355C70.0844 19.9355 69.7962 20.0215 69.5295 20.1935C69.2629 20.3656 69.0306 20.6194 68.8328 20.9548L68.8457 20.4C69.0607 20.0043 69.3575 19.6989 69.736 19.4839C70.1231 19.2688 70.5575 19.1613 71.0392 19.1613C71.7188 19.1613 72.2392 19.3677 72.6005 19.7806C72.9618 20.1935 73.1424 20.7871 73.1424 21.5613V24.5677C73.1424 24.9118 73.2371 25.1527 73.4263 25.2903C73.6242 25.4194 73.9682 25.4882 74.4586 25.4968V26C74.3295 25.9914 74.1489 25.9871 73.9166 25.9871C73.693 25.9785 73.4478 25.9699 73.1811 25.9613C72.9145 25.9527 72.6521 25.9484 72.3941 25.9484C72.0586 25.9484 71.7274 25.957 71.4005 25.9742C71.0822 25.9828 70.8457 25.9914 70.6908 26ZM66.0199 26V25.4968C66.5188 25.4882 66.8629 25.4194 67.0521 25.2903C67.2414 25.1527 67.336 24.9118 67.336 24.5677V17.6774C67.336 17.2731 67.2371 16.9892 67.0392 16.8258C66.85 16.6538 66.5102 16.5591 66.0199 16.5419V16.0387C66.2091 16.0473 66.3941 16.0559 66.5747 16.0645C66.7553 16.0731 66.9403 16.0774 67.1295 16.0774C67.4564 16.0774 67.7661 16.0645 68.0586 16.0387C68.3596 16.0043 68.6435 15.957 68.9102 15.8968V24.5677C68.9102 24.9118 68.9704 25.1527 69.0908 25.2903C69.2199 25.4194 69.4564 25.4882 69.8005 25.4968V26C69.6199 25.9914 69.3747 25.9828 69.065 25.9742C68.7639 25.957 68.45 25.9484 68.1231 25.9484C67.7532 25.9484 67.3661 25.957 66.9618 25.9742C66.5661 25.9828 66.2521 25.9914 66.0199 26ZM77.8606 26.1806C77.2412 26.1806 76.6864 26.0559 76.1961 25.8065C75.7143 25.5484 75.3316 25.1613 75.0477 24.6452C74.7724 24.129 74.6348 23.471 74.6348 22.671C74.6348 21.871 74.7724 21.2129 75.0477 20.6968C75.3316 20.172 75.7143 19.7849 76.1961 19.5355C76.6864 19.286 77.2455 19.1613 77.8735 19.1613C78.5014 19.1613 79.0563 19.286 79.538 19.5355C80.0197 19.7849 80.3982 20.172 80.6735 20.6968C80.9574 21.2129 81.0993 21.871 81.0993 22.671C81.0993 23.471 80.9574 24.129 80.6735 24.6452C80.3982 25.1613 80.0154 25.5484 79.5251 25.8065C79.0434 26.0559 78.4885 26.1806 77.8606 26.1806ZM77.8735 25.6774C78.3294 25.6774 78.7036 25.4409 78.9961 24.9677C79.2885 24.486 79.4348 23.7204 79.4348 22.671C79.4348 21.6129 79.2842 20.8473 78.9832 20.3742C78.6907 19.8925 78.3208 19.6516 77.8735 19.6516C77.409 19.6516 77.0262 19.8925 76.7251 20.3742C76.4326 20.8473 76.2864 21.6129 76.2864 22.671C76.2864 23.7204 76.4326 24.486 76.7251 24.9677C77.0262 25.4409 77.409 25.6774 77.8735 25.6774ZM81.3261 28.9806V28.4774C81.825 28.4688 82.1691 28.3957 82.3584 28.2581C82.5476 28.129 82.6422 27.8925 82.6422 27.5484V20.9806C82.6422 20.5677 82.5433 20.2796 82.3455 20.1161C82.1476 19.9441 81.8078 19.8538 81.3261 19.8452V19.3419C81.5068 19.3505 81.6874 19.3591 81.868 19.3677C82.0487 19.3763 82.2379 19.3806 82.4358 19.3806C83.0982 19.3806 83.6917 19.3204 84.2164 19.2V27.4581C84.2164 27.8194 84.3412 28.0774 84.5906 28.2323C84.8487 28.3871 85.2831 28.4688 85.8939 28.4774V28.9806C85.7304 28.972 85.5111 28.9634 85.2358 28.9548C84.9691 28.9548 84.6766 28.9505 84.3584 28.9419C84.0487 28.9333 83.7433 28.929 83.4422 28.929C83.0035 28.929 82.5906 28.9333 82.2035 28.9419C81.8164 28.9591 81.524 28.972 81.3261 28.9806ZM85.868 26.1806C85.4293 26.1806 85.0465 26.0989 84.7197 25.9355C84.4014 25.772 84.1734 25.5441 84.0358 25.2516L84.1261 24.8C84.2465 25.0409 84.4229 25.2301 84.6551 25.3677C84.896 25.4968 85.167 25.5613 85.468 25.5613C86.0444 25.5613 86.4831 25.3118 86.7842 24.8129C87.0852 24.314 87.2358 23.5828 87.2358 22.6194C87.2358 21.7333 87.1025 21.0581 86.8358 20.5935C86.5777 20.1204 86.1949 19.8839 85.6874 19.8839C85.3519 19.8839 85.0336 19.9914 84.7326 20.2065C84.4401 20.4129 84.2336 20.6796 84.1132 21.0065L84.0487 20.6065C84.1949 20.1677 84.4659 19.8194 84.8616 19.5613C85.2659 19.2946 85.7347 19.1613 86.268 19.1613C86.8014 19.1613 87.2659 19.2989 87.6616 19.5742C88.0573 19.8495 88.3627 20.2409 88.5777 20.7484C88.7928 21.2559 88.9003 21.8581 88.9003 22.5548C88.9003 23.3032 88.7756 23.9484 88.5261 24.4903C88.2766 25.0323 87.924 25.4495 87.468 25.7419C87.0207 26.0344 86.4874 26.1806 85.868 26.1806ZM92.0174 26V25.4968C92.4389 25.4796 92.7486 25.4452 92.9465 25.3935C93.1529 25.3419 93.2863 25.2387 93.3465 25.0839C93.4153 24.929 93.4497 24.6968 93.4497 24.3871V18.4774C93.4497 18.1677 93.4153 17.9398 93.3465 17.7935C93.2863 17.6387 93.1529 17.5312 92.9465 17.471C92.74 17.4108 92.4303 17.3763 92.0174 17.3677V16.8645C92.1981 16.8731 92.4734 16.8817 92.8432 16.8903C93.2217 16.8903 93.6777 16.8903 94.211 16.8903C94.7185 16.8903 95.1572 16.886 95.5271 16.8774C95.897 16.8688 96.1766 16.8645 96.3658 16.8645C97.3809 16.8645 98.1551 17.0495 98.6884 17.4194C99.2217 17.7806 99.4884 18.3054 99.4884 18.9935C99.4884 19.5527 99.2863 20.0172 98.882 20.3871C98.4777 20.757 97.8927 21.0151 97.1271 21.1613V21.1742C98.1422 21.2516 98.9078 21.4882 99.4239 21.8839C99.94 22.271 100.198 22.8043 100.198 23.4839C100.198 24.2667 99.8841 24.8817 99.2561 25.329C98.6282 25.7763 97.7594 26 96.6497 26C96.5035 26 96.3228 25.9957 96.1078 25.9871C95.8927 25.9785 95.6303 25.9742 95.3207 25.9742C95.011 25.9656 94.6454 25.9613 94.2239 25.9613C93.682 25.9613 93.2217 25.9656 92.8432 25.9742C92.4734 25.9742 92.1981 25.9828 92.0174 26ZM96.1723 25.471C96.9121 25.471 97.4712 25.3032 97.8497 24.9677C98.2282 24.6237 98.4174 24.1204 98.4174 23.4581C98.4174 22.8043 98.2239 22.314 97.8368 21.9871C97.4583 21.6602 96.8906 21.4968 96.1336 21.4968H94.74V21.0194H95.9658C96.5766 21.0194 97.0411 20.8559 97.3594 20.529C97.6777 20.2022 97.8368 19.7333 97.8368 19.1226C97.8368 18.5376 97.6906 18.0989 97.3981 17.8065C97.1142 17.5054 96.6712 17.3591 96.0691 17.3677H95.1529V24.4C95.1529 24.6925 95.1787 24.9161 95.2303 25.071C95.282 25.2258 95.3809 25.3333 95.5271 25.3935C95.6734 25.4452 95.8884 25.471 96.1723 25.471ZM104.067 26.1806C103.447 26.1806 102.893 26.0559 102.402 25.8065C101.921 25.5484 101.538 25.1613 101.254 24.6452C100.979 24.129 100.841 23.471 100.841 22.671C100.841 21.871 100.979 21.2129 101.254 20.6968C101.538 20.172 101.921 19.7849 102.402 19.5355C102.893 19.286 103.452 19.1613 104.08 19.1613C104.708 19.1613 105.263 19.286 105.744 19.5355C106.226 19.7849 106.604 20.172 106.88 20.6968C107.164 21.2129 107.306 21.871 107.306 22.671C107.306 23.471 107.164 24.129 106.88 24.6452C106.604 25.1613 106.222 25.5484 105.731 25.8065C105.25 26.0559 104.695 26.1806 104.067 26.1806ZM104.08 25.6774C104.536 25.6774 104.91 25.4409 105.202 24.9677C105.495 24.486 105.641 23.7204 105.641 22.671C105.641 21.6129 105.49 20.8473 105.189 20.3742C104.897 19.8925 104.527 19.6516 104.08 19.6516C103.615 19.6516 103.232 19.8925 102.931 20.3742C102.639 20.8473 102.493 21.6129 102.493 22.671C102.493 23.7204 102.639 24.486 102.931 24.9677C103.232 25.4409 103.615 25.6774 104.08 25.6774ZM110.893 26.1806C110.222 26.1806 109.706 25.9742 109.345 25.5613C108.992 25.1398 108.816 24.5419 108.816 23.7677V20.9806C108.816 20.5677 108.717 20.2796 108.519 20.1161C108.321 19.9441 107.982 19.8538 107.5 19.8452V19.3419C107.663 19.3505 107.835 19.3591 108.016 19.3677C108.205 19.3763 108.399 19.3806 108.597 19.3806C108.923 19.3806 109.233 19.3677 109.526 19.3419C109.827 19.3075 110.115 19.2602 110.39 19.2V23.9355C110.39 24.4258 110.485 24.7957 110.674 25.0452C110.863 25.286 111.147 25.4065 111.526 25.4065C111.827 25.4065 112.106 25.3204 112.364 25.1484C112.622 24.9763 112.846 24.7226 113.035 24.3871L113.009 24.9548C112.812 25.3419 112.528 25.643 112.158 25.8581C111.788 26.0731 111.366 26.1806 110.893 26.1806ZM112.958 26.1419V20.9677C112.958 20.5634 112.876 20.2796 112.713 20.1161C112.549 19.9441 112.261 19.8538 111.848 19.8452V19.3419C112.003 19.3505 112.162 19.3591 112.326 19.3677C112.489 19.3763 112.661 19.3806 112.842 19.3806C113.16 19.3806 113.457 19.3677 113.732 19.3419C114.016 19.3075 114.283 19.2602 114.532 19.2V24.3613C114.532 24.7656 114.631 25.0538 114.829 25.2258C115.027 25.3978 115.362 25.4882 115.835 25.4968V26C115.672 25.9828 115.5 25.9742 115.319 25.9742C115.139 25.9656 114.954 25.9613 114.764 25.9613C114.429 25.9613 114.111 25.9742 113.809 26C113.517 26.0344 113.233 26.0817 112.958 26.1419ZM119.091 28.9806V28.4774C119.702 28.4688 120.132 28.3871 120.382 28.2323C120.64 28.0774 120.769 27.8194 120.769 27.4581V19.8839C120.966 19.8581 121.164 19.8108 121.362 19.7419C121.569 19.6731 121.758 19.5871 121.93 19.4839C122.111 19.372 122.265 19.2516 122.394 19.1226L122.756 19.5355C122.644 19.6473 122.558 19.7634 122.498 19.8839C122.437 19.9957 122.394 20.129 122.369 20.2839C122.343 20.4301 122.33 20.6108 122.33 20.8258V27.5484C122.33 27.8925 122.425 28.129 122.614 28.2581C122.812 28.3957 123.156 28.4688 123.646 28.4774V28.9806C123.448 28.972 123.156 28.9591 122.769 28.9419C122.39 28.9333 121.982 28.929 121.543 28.929C121.242 28.929 120.932 28.9333 120.614 28.9419C120.296 28.9505 120.003 28.9548 119.736 28.9548C119.47 28.9634 119.255 28.972 119.091 28.9806ZM118.807 26.1806C118.248 26.1806 117.762 26.043 117.349 25.7677C116.945 25.4839 116.631 25.0839 116.407 24.5677C116.192 24.043 116.085 23.428 116.085 22.7226C116.085 21.9742 116.205 21.3333 116.446 20.8C116.696 20.2667 117.048 19.8624 117.504 19.5871C117.96 19.3032 118.498 19.1613 119.117 19.1613C119.435 19.1613 119.719 19.2043 119.969 19.2903C120.227 19.3677 120.442 19.471 120.614 19.6C120.794 19.729 120.923 19.8624 121.001 20L120.872 20.529C120.769 20.3226 120.597 20.1462 120.356 20C120.123 19.8538 119.848 19.7806 119.53 19.7806C118.954 19.7806 118.511 20.0258 118.201 20.5161C117.891 20.9978 117.736 21.7118 117.736 22.6581C117.736 23.5527 117.878 24.2409 118.162 24.7226C118.446 25.2043 118.85 25.4452 119.375 25.4452C119.736 25.4452 120.05 25.3247 120.317 25.0839C120.584 24.843 120.769 24.5032 120.872 24.0645L120.949 24.4903C120.829 25.0323 120.584 25.4495 120.214 25.7419C119.853 26.0344 119.384 26.1806 118.807 26.1806ZM126.496 26.1806C125.826 26.1806 125.309 25.9742 124.948 25.5613C124.595 25.1398 124.419 24.5419 124.419 23.7677V20.9806C124.419 20.5677 124.32 20.2796 124.122 20.1161C123.924 19.9441 123.585 19.8538 123.103 19.8452V19.3419C123.266 19.3505 123.438 19.3591 123.619 19.3677C123.808 19.3763 124.002 19.3806 124.2 19.3806C124.527 19.3806 124.836 19.3677 125.129 19.3419C125.43 19.3075 125.718 19.2602 125.993 19.2V23.9355C125.993 24.4258 126.088 24.7957 126.277 25.0452C126.466 25.286 126.75 25.4065 127.129 25.4065C127.43 25.4065 127.709 25.3204 127.967 25.1484C128.226 24.9763 128.449 24.7226 128.638 24.3871L128.613 24.9548C128.415 25.3419 128.131 25.643 127.761 25.8581C127.391 26.0731 126.97 26.1806 126.496 26.1806ZM128.561 26.1419V20.9677C128.561 20.5634 128.479 20.2796 128.316 20.1161C128.152 19.9441 127.864 19.8538 127.451 19.8452V19.3419C127.606 19.3505 127.765 19.3591 127.929 19.3677C128.092 19.3763 128.264 19.3806 128.445 19.3806C128.763 19.3806 129.06 19.3677 129.335 19.3419C129.619 19.3075 129.886 19.2602 130.135 19.2V24.3613C130.135 24.7656 130.234 25.0538 130.432 25.2258C130.63 25.3978 130.965 25.4882 131.438 25.4968V26C131.275 25.9828 131.103 25.9742 130.922 25.9742C130.742 25.9656 130.557 25.9613 130.367 25.9613C130.032 25.9613 129.714 25.9742 129.413 26C129.12 26.0344 128.836 26.0817 128.561 26.1419ZM134.795 26.1806C134.158 26.1806 133.603 26.043 133.13 25.7677C132.666 25.4839 132.305 25.0796 132.046 24.5548C131.797 24.0301 131.672 23.4065 131.672 22.6839C131.672 21.9441 131.801 21.3118 132.059 20.7871C132.326 20.2624 132.705 19.8624 133.195 19.5871C133.685 19.3032 134.262 19.1613 134.924 19.1613C135.509 19.1613 136.008 19.2731 136.421 19.4968C136.834 19.7118 137.148 20.0516 137.363 20.5161C137.586 20.9806 137.689 21.5828 137.672 22.3226H132.769L132.743 21.8323H136.188C136.197 21.4108 136.154 21.0366 136.059 20.7097C135.973 20.3828 135.831 20.1247 135.634 19.9355C135.436 19.7462 135.182 19.6516 134.872 19.6516C134.477 19.6516 134.132 19.8366 133.84 20.2065C133.548 20.5677 133.376 21.1441 133.324 21.9355L133.35 21.9742C133.341 22.0602 133.332 22.1505 133.324 22.2452C133.324 22.3398 133.324 22.4473 133.324 22.5677C133.324 23.4452 133.492 24.129 133.827 24.6194C134.163 25.1011 134.649 25.3419 135.285 25.3419C135.715 25.3419 136.089 25.2387 136.408 25.0323C136.735 24.8172 137.01 24.486 137.234 24.0387L137.685 24.3097C137.444 24.9032 137.074 25.3634 136.576 25.6903C136.077 26.0172 135.483 26.1806 134.795 26.1806ZM141.115 26.1806C140.453 26.1806 139.954 25.9957 139.618 25.6258C139.292 25.2473 139.128 24.6839 139.128 23.9355V19.8452H137.657V19.3419H139.128V17.4323C139.429 17.4323 139.709 17.4151 139.967 17.3806C140.225 17.3376 140.466 17.2817 140.689 17.2129V19.3419H142.754V19.8452H140.689V24.3355C140.689 24.6968 140.763 24.9634 140.909 25.1355C141.055 25.3075 141.274 25.3935 141.567 25.3935C141.842 25.3935 142.07 25.3075 142.251 25.1355C142.44 24.9634 142.59 24.7054 142.702 24.3613L143.102 24.5161C142.939 25.0925 142.698 25.514 142.38 25.7806C142.061 26.0473 141.64 26.1806 141.115 26.1806ZM146.254 26.1806C145.884 26.1806 145.574 26.1419 145.325 26.0645C145.076 25.9871 144.869 25.9097 144.706 25.8323C144.542 25.7548 144.4 25.7161 144.28 25.7161C144.073 25.7161 143.923 25.8495 143.828 26.1161H143.325C143.351 25.8925 143.368 25.6602 143.377 25.4194C143.385 25.1699 143.39 24.8946 143.39 24.5935C143.398 24.2839 143.398 23.9269 143.39 23.5226H143.88C144.017 24.2366 144.271 24.7742 144.641 25.1355C145.011 25.4882 145.493 25.6645 146.086 25.6645C146.508 25.6645 146.83 25.5742 147.054 25.3935C147.286 25.2129 147.402 24.9634 147.402 24.6452C147.402 24.3355 147.278 24.0817 147.028 23.8839C146.787 23.686 146.362 23.5011 145.751 23.329C144.968 23.0968 144.396 22.8 144.035 22.4387C143.673 22.0774 143.493 21.6258 143.493 21.0839C143.493 20.4989 143.686 20.0344 144.073 19.6903C144.46 19.3376 144.981 19.1613 145.635 19.1613C145.979 19.1613 146.267 19.2 146.499 19.2774C146.74 19.3462 146.942 19.4237 147.106 19.5097C147.269 19.5871 147.415 19.6258 147.544 19.6258C147.63 19.6258 147.703 19.5957 147.764 19.5355C147.824 19.4667 147.876 19.3634 147.919 19.2258H148.422C148.405 19.4151 148.392 19.6129 148.383 19.8194C148.374 20.0172 148.366 20.2495 148.357 20.5161C148.357 20.7742 148.362 21.0968 148.37 21.4839H147.867C147.755 20.9075 147.519 20.4602 147.157 20.1419C146.796 19.8237 146.362 19.6645 145.854 19.6645C145.501 19.6645 145.226 19.7462 145.028 19.9097C144.83 20.0731 144.731 20.3054 144.731 20.6065C144.731 20.9161 144.865 21.1785 145.131 21.3935C145.398 21.6 145.858 21.7978 146.512 21.9871C147.26 22.1935 147.802 22.4645 148.138 22.8C148.473 23.1269 148.641 23.5656 148.641 24.1161C148.641 24.7613 148.426 25.2688 147.996 25.6387C147.574 26 146.994 26.1806 146.254 26.1806Z" fill="white"/>
<rect x="2.5" y="3.5" width="194" height="37" rx="18.5" stroke="white" stroke-opacity="0.08"/>
<defs>
<filter id="filter0_n_51_569" x="0" y="0" width="200" height="44" filterUnits="userSpaceOnUse" color-interpolation-filters="sRGB">
<feFlood flood-opacity="0" result="BackgroundImageFix"/>
<feBlend mode="normal" in="SourceGraphic" in2="BackgroundImageFix" result="shape"/>
<feTurbulence type="fractalNoise" baseFrequency="0.25 0.25" stitchTiles="stitch" numOctaves="3" result="noise" seed="1431" />
<feColorMatrix in="noise" type="luminanceToAlpha" result="alphaNoise" />
<feComponentTransfer in="alphaNoise" result="coloredNoise1">
<feFuncA type="discrete" tableValues="1 1 1 1 1 1 1 1 1 1 1 1 1 1 1 1 1 1 1 1 1 1 1 1 1 1 1 1 1 1 1 1 1 1 1 1 1 1 1 1 1 1 1 1 1 1 1 1 1 1 1 0 0 0 0 0 0 0 0 0 0 0 0 0 0 0 0 0 0 0 0 0 0 0 0 0 0 0 0 0 0 0 0 0 0 0 0 0 0 0 0 0 0 0 0 0 0 0 0 0 "/>
</feComponentTransfer>
<feComposite operator="in" in2="shape" in="coloredNoise1" result="noise1Clipped" />
<feComponentTransfer in="alphaNoise" result="coloredNoise2">
<feFuncA type="discrete" tableValues="0 0 0 0 0 0 0 0 0 0 0 0 0 0 0 0 0 0 0 0 0 0 0 0 0 0 0 0 0 0 0 0 0 0 0 0 0 0 0 0 0 0 0 0 0 0 0 0 0 1 1 1 1 1 1 1 1 1 1 1 1 1 1 1 1 1 1 1 1 1 1 1 1 1 1 1 1 1 1 1 1 1 1 1 1 1 1 1 1 1 1 1 1 1 1 1 1 1 1 1 "/>
</feComponentTransfer>
<feComposite operator="in" in2="shape" in="coloredNoise2" result="noise2Clipped" />
<feFlood flood-color="rgba(0, 0, 0, 0.08)" result="color1Flood" />
<feComposite operator="in" in2="noise1Clipped" in="color1Flood" result="color1" />
<feFlood flood-color="rgba(255, 255, 255, 0)" result="color2Flood" />
<feComposite operator="in" in2="noise2Clipped" in="color2Flood" result="color2" />
<feMerge result="effect1_noise_51_569">
<feMergeNode in="shape" />
<feMergeNode in="color1" />
<feMergeNode in="color2" />
</feMerge>
</filter>
</defs>
</svg>
