<svg width="33" height="33" viewBox="0 0 33 33" fill="none" xmlns="http://www.w3.org/2000/svg">
<g clip-path="url(#clip0_51_538)">
<path d="M17.875 5.5C17.1156 5.5 16.5 6.11562 16.5 6.875C16.5 7.63439 17.1156 8.25 17.875 8.25C19.6251 8.25 20.9766 8.82735 21.8871 9.7379C22.7976 10.6485 23.375 12 23.375 13.75C23.375 14.5094 23.9906 15.125 24.75 15.125C25.5094 15.125 26.125 14.5094 26.125 13.75C26.125 11.375 25.3274 9.28905 23.8316 7.79335C22.3359 6.29765 20.2499 5.5 17.875 5.5Z" fill="white"/>
<path d="M6.89425 11.0084C7.05137 9.7658 8.66631 8.07694 9.94796 8.26434L9.94591 8.26229C11.0172 8.46586 11.8967 10.0783 12.4764 11.1409C12.5716 11.3155 12.6587 11.4752 12.7373 11.6114C13.1318 12.3118 12.8756 13.0214 12.5078 13.3208C12.4652 13.3551 12.4206 13.3905 12.3747 13.4269C11.8852 13.8156 11.2491 14.3205 11.398 14.8272C11.6875 15.8125 15.125 19.25 16.8157 20.2272C17.3334 20.5264 17.7358 19.9453 18.0806 19.4477C18.162 19.3302 18.2402 19.2173 18.316 19.1217C18.6039 18.7373 19.3141 18.5075 20.0128 18.887C21.0565 19.4947 22.0396 20.2011 22.9488 20.9962C23.4028 21.3757 23.5093 21.9366 23.1947 22.5294C22.6406 23.5734 21.0379 24.9502 19.8745 24.6704C17.8425 24.1818 9.625 20.9962 6.98545 11.7673C6.84724 11.3607 6.87012 11.1896 6.88996 11.0411L6.89425 11.0084Z" fill="white"/>
<path d="M17.875 9.625C17.1156 9.625 16.5 10.2406 16.5 11C16.5 11.7594 17.1156 12.375 17.875 12.375C18.1153 12.375 18.4706 12.509 18.7934 12.8317C19.1159 13.1543 19.25 13.5097 19.25 13.75C19.25 14.5094 19.8656 15.125 20.625 15.125C21.3844 15.125 22 14.5094 22 13.75C22 12.6153 21.4466 11.5957 20.7379 10.8871C20.0293 10.1785 19.0096 9.625 17.875 9.625Z" fill="white"/>
<path fill-rule="evenodd" clip-rule="evenodd" d="M10.3365 32.768C10.3756 32.7896 10.4157 32.8092 10.4568 32.8268C11.203 33.1478 12.1241 32.4313 13.9664 30.9984L15.8125 29.5626C19.5091 29.685 22.7068 29.1999 25.179 28.3349C27.9437 27.3674 30.1175 25.1937 31.0849 22.429C32.4181 18.619 32.4181 11.631 31.0849 7.82101C30.1175 5.05627 27.9437 2.88251 25.179 1.91507C20.7767 0.374653 12.1413 0.403389 7.8211 1.91507C5.05634 2.88251 2.88259 5.05627 1.91516 7.82101C0.581992 11.631 0.581992 18.619 1.91516 22.429C2.88259 25.1937 5.05634 27.3674 7.8211 28.3349C8.36348 28.5246 8.97012 28.7328 9.62502 28.8751C9.62502 31.209 9.62502 32.376 10.3365 32.768ZM12.375 28.7523V27.2126C12.375 26.8892 12.1495 26.6096 11.8332 26.542C10.7856 26.318 9.74431 26.0943 8.72937 25.7391C6.75454 25.0482 5.20186 23.4954 4.51084 21.5206C3.98574 20.02 3.66528 17.6624 3.66528 15.125C3.66528 12.5876 3.98574 10.2299 4.51084 8.72928C5.20186 6.75446 6.75454 5.20177 8.72937 4.51075C10.4724 3.90086 13.3611 3.52397 16.4722 3.52053C19.583 3.5171 22.4897 3.88753 24.2707 4.51075C26.2455 5.20177 27.7983 6.75446 28.4892 8.72928C29.0143 10.2299 29.3348 12.5876 29.3348 15.125C29.3348 17.6624 29.0143 20.02 28.4892 21.5206C27.7983 23.4954 26.2455 25.0482 24.2707 25.7391C21.3396 26.7647 18.2311 26.88 15.1579 26.7889C14.9973 26.7843 14.8398 26.8353 14.7131 26.9339L12.375 28.7523Z" fill="white"/>
</g>
<defs>
<clipPath id="clip0_51_538">
<rect width="33" height="33" fill="white"/>
</clipPath>
</defs>
</svg>
