<svg width="129" height="25" viewBox="0 0 129 25" fill="none" xmlns="http://www.w3.org/2000/svg">
<path d="M46.6777 0.421653L48.949 7.29097H49.0385L51.3055 0.421653H53.0442L49.9675 9.14893H48.0157L44.9433 0.421653H46.6777ZM55.9255 9.14893V2.60347H57.4681V9.14893H55.9255ZM56.701 1.67449C56.4567 1.67449 56.2465 1.59353 56.0704 1.4316C55.8942 1.26682 55.8062 1.06938 55.8062 0.839266C55.8062 0.606312 55.8942 0.408869 56.0704 0.246937C56.2465 0.082164 56.4567 -0.000222206 56.701 -0.000222206C56.9482 -0.000222206 57.1584 0.082164 57.3317 0.246937C57.5079 0.408869 57.5959 0.606312 57.5959 0.839266C57.5959 1.06938 57.5079 1.26682 57.3317 1.4316C57.1584 1.59353 56.9482 1.67449 56.701 1.67449ZM60.9226 9.14893V0.421653H62.4652V3.68586H62.5291C62.6086 3.52677 62.7209 3.35773 62.8657 3.17876C63.0106 2.99694 63.2067 2.84211 63.4538 2.71427C63.701 2.58358 64.0163 2.51824 64.3998 2.51824C64.9055 2.51824 65.3615 2.64751 65.7677 2.90603C66.1768 3.16171 66.5007 3.54097 66.7393 4.04381C66.9808 4.54381 67.1015 5.15745 67.1015 5.88472C67.1015 6.60347 66.9836 7.21427 66.7478 7.71711C66.5121 8.21995 66.191 8.60347 65.7848 8.86768C65.3785 9.13188 64.9183 9.26398 64.4041 9.26398C64.0291 9.26398 63.718 9.20148 63.4709 9.07648C63.2237 8.95148 63.0248 8.80091 62.8743 8.62478C62.7265 8.4458 62.6115 8.27677 62.5291 8.11768H62.4396V9.14893H60.9226ZM62.4353 5.8762C62.4353 6.29949 62.495 6.67023 62.6143 6.98841C62.7365 7.3066 62.9112 7.55518 63.1385 7.73415C63.3686 7.91029 63.647 7.99836 63.9737 7.99836C64.3146 7.99836 64.6001 7.90745 64.8302 7.72563C65.0603 7.54097 65.2336 7.28955 65.3501 6.97137C65.4694 6.65035 65.5291 6.28529 65.5291 5.8762C65.5291 5.46995 65.4709 5.10915 65.3544 4.79381C65.2379 4.47847 65.0646 4.23131 64.8345 4.05233C64.6044 3.87336 64.3174 3.78387 63.9737 3.78387C63.6442 3.78387 63.3643 3.87052 63.1342 4.04381C62.9041 4.21711 62.7294 4.46001 62.6101 4.77251C62.4936 5.08501 62.4353 5.4529 62.4353 5.8762ZM73.1107 9.27677C72.4545 9.27677 71.8877 9.1404 71.4104 8.86768C70.936 8.59211 70.5709 8.2029 70.3153 7.70006C70.0596 7.19438 69.9317 6.59921 69.9317 5.91455C69.9317 5.24126 70.0596 4.65035 70.3153 4.14182C70.5738 3.63046 70.9346 3.23273 71.3976 2.94864C71.8607 2.66171 72.4047 2.51824 73.0297 2.51824C73.4331 2.51824 73.8138 2.58358 74.1718 2.71427C74.5326 2.84211 74.8508 3.04097 75.1263 3.31086C75.4047 3.58074 75.6235 3.92449 75.7826 4.34211C75.9417 4.75688 76.0212 5.2512 76.0212 5.82506V6.29807H70.6562V5.2583H74.5425C74.5397 4.96285 74.4758 4.70006 74.3508 4.46995C74.2258 4.23699 74.051 4.05376 73.8266 3.92023C73.605 3.78671 73.3465 3.71995 73.051 3.71995C72.7357 3.71995 72.4587 3.79665 72.2201 3.95006C71.9814 4.10063 71.7954 4.29949 71.6618 4.54665C71.5312 4.79097 71.4644 5.05944 71.4616 5.35205V6.25972C71.4616 6.6404 71.5312 6.96711 71.6704 7.23983C71.8096 7.50972 72.0042 7.71711 72.2542 7.86199C72.5042 8.00404 72.7968 8.07506 73.132 8.07506C73.3564 8.07506 73.5596 8.04381 73.7414 7.98131C73.9232 7.91597 74.0809 7.8208 74.2144 7.6958C74.3479 7.5708 74.4488 7.41597 74.517 7.23131L75.9573 7.39324C75.8664 7.77393 75.6931 8.10631 75.4374 8.3904C75.1846 8.67165 74.8607 8.8904 74.4658 9.04665C74.0709 9.20006 73.6192 9.27677 73.1107 9.27677ZM79.1263 9.14893V2.60347H80.622V3.69438H80.6902C80.8095 3.31654 81.014 3.02535 81.3038 2.8208C81.5964 2.61341 81.9302 2.50972 82.3052 2.50972C82.3905 2.50972 82.4856 2.51398 82.5908 2.5225C82.6987 2.52819 82.7882 2.53813 82.8592 2.55233V3.97137C82.7939 3.94864 82.6902 3.92876 82.5481 3.91171C82.4089 3.89182 82.274 3.88188 82.1433 3.88188C81.8621 3.88188 81.6092 3.94296 81.3848 4.06512C81.1632 4.18444 80.9885 4.35063 80.8606 4.5637C80.7328 4.77677 80.6689 5.02251 80.6689 5.30091V9.14893H79.1263ZM2.27981 23.6333V17.7356H3.61788V23.6333H2.27981ZM-2.22027e-05 21.3535V20.0154H5.89771V21.3535H-2.22027e-05ZM12.5887 24.2682C12.2307 24.2626 11.8728 24.1944 11.5148 24.0637C11.1569 23.933 10.8302 23.7128 10.5347 23.4032C10.2393 23.0907 10.002 22.6688 9.82306 22.1376C9.64408 21.6035 9.55459 20.933 9.55459 20.1262C9.55459 19.3535 9.62704 18.6688 9.77192 18.0722C9.91681 17.4728 10.127 16.9685 10.4026 16.5594C10.6782 16.1475 11.0106 15.835 11.3998 15.6219C11.7918 15.4089 12.2336 15.3023 12.725 15.3023C13.2137 15.3023 13.6483 15.4003 14.029 15.5964C14.4125 15.7896 14.725 16.0594 14.9665 16.406C15.208 16.7526 15.3643 17.1518 15.4353 17.6035H14.3955C14.2989 17.2114 14.1114 16.8861 13.833 16.6276C13.5546 16.3691 13.1853 16.2398 12.725 16.2398C12.0489 16.2398 11.5162 16.5339 11.127 17.1219C10.7407 17.71 10.5461 18.5353 10.5432 19.5978H10.6114C10.7705 19.3563 10.9594 19.1503 11.1782 18.9799C11.3998 18.8066 11.6441 18.6731 11.9111 18.5793C12.1782 18.4856 12.4608 18.4387 12.7591 18.4387C13.2591 18.4387 13.7165 18.5637 14.1313 18.8137C14.5461 19.0609 14.8785 19.4032 15.1285 19.8407C15.3785 20.2753 15.5035 20.7739 15.5035 21.3364C15.5035 21.8762 15.3827 22.3705 15.1412 22.8194C14.8998 23.2654 14.5603 23.6205 14.1228 23.8847C13.6881 24.1461 13.1768 24.2739 12.5887 24.2682ZM12.5887 23.3307C12.9466 23.3307 13.2677 23.2413 13.5518 23.0623C13.8387 22.8833 14.0645 22.6432 14.2293 22.3421C14.3969 22.041 14.4807 21.7057 14.4807 21.3364C14.4807 20.9756 14.3998 20.6475 14.2378 20.3521C14.0787 20.0538 13.8586 19.8165 13.5773 19.6404C13.2989 19.4643 12.9807 19.3762 12.6228 19.3762C12.3529 19.3762 12.1015 19.4302 11.8685 19.5381C11.6356 19.6432 11.431 19.7881 11.2549 19.9728C11.0816 20.1574 10.9452 20.3691 10.8458 20.6077C10.7464 20.8435 10.6966 21.0921 10.6966 21.3535C10.6966 21.7001 10.7776 22.0239 10.9395 22.3251C11.1043 22.6262 11.3287 22.8691 11.6128 23.0538C11.8998 23.2384 12.225 23.3307 12.5887 23.3307ZM21.9281 24.2682C21.3656 24.2682 20.8642 24.1717 20.4238 23.9785C19.9863 23.7853 19.6383 23.5168 19.3798 23.1731C19.1241 22.8265 18.9849 22.4245 18.9622 21.9671H20.0361C20.0588 22.2484 20.1554 22.4913 20.3258 22.6958C20.4963 22.8975 20.7193 23.0538 20.9949 23.1646C21.2704 23.2753 21.5758 23.3307 21.9111 23.3307C22.2861 23.3307 22.6184 23.2654 22.9082 23.1347C23.198 23.004 23.4253 22.8222 23.59 22.5893C23.7548 22.3563 23.8372 22.0864 23.8372 21.7796C23.8372 21.4586 23.7576 21.1759 23.5986 20.9316C23.4395 20.6844 23.2065 20.4913 22.8997 20.3521C22.5929 20.2128 22.2179 20.1432 21.7747 20.1432H21.0758V19.2057H21.7747C22.1213 19.2057 22.4253 19.1432 22.6866 19.0182C22.9508 18.8932 23.1568 18.7171 23.3045 18.4898C23.4551 18.2626 23.5304 17.9955 23.5304 17.6887C23.5304 17.3932 23.465 17.1361 23.3344 16.9174C23.2037 16.6986 23.019 16.5282 22.7804 16.406C22.5446 16.2839 22.2662 16.2228 21.9451 16.2228C21.644 16.2228 21.3599 16.2782 21.0929 16.389C20.8287 16.4969 20.6128 16.6546 20.4451 16.862C20.2775 17.0665 20.1866 17.3137 20.1724 17.6035H19.1497C19.1667 17.1461 19.3045 16.7455 19.563 16.4018C19.8216 16.0552 20.1596 15.7853 20.5773 15.5921C20.9977 15.3989 21.4594 15.3023 21.9622 15.3023C22.502 15.3023 22.965 15.4117 23.3514 15.6305C23.7378 15.8464 24.0346 16.1319 24.242 16.487C24.4494 16.8421 24.5531 17.2256 24.5531 17.6376C24.5531 18.129 24.4238 18.5481 24.1653 18.8947C23.9096 19.2413 23.5616 19.4813 23.1213 19.6148V19.683C23.6724 19.7739 24.1028 20.0083 24.4125 20.3861C24.7221 20.7611 24.877 21.2256 24.877 21.7796C24.877 22.254 24.7477 22.6802 24.4892 23.058C24.2335 23.433 23.8841 23.7285 23.4409 23.9444C22.9977 24.1603 22.4934 24.2682 21.9281 24.2682ZM36.3733 15.3023C36.7312 15.3052 37.0892 15.3734 37.4471 15.5069C37.8051 15.6404 38.1318 15.862 38.4273 16.1717C38.7227 16.4785 38.9599 16.8975 39.1389 17.4288C39.3179 17.96 39.4074 18.6262 39.4074 19.4273C39.4074 20.2029 39.3335 20.8918 39.1858 21.4941C39.0409 22.0935 38.8307 22.5992 38.5551 23.0111C38.2824 23.4231 37.95 23.7356 37.5579 23.9486C37.1687 24.1617 36.7284 24.2682 36.2369 24.2682C35.7483 24.2682 35.3122 24.1717 34.9287 23.9785C34.548 23.7824 34.2355 23.5111 33.9912 23.1646C33.7497 22.8151 33.5949 22.4103 33.5267 21.9501H34.5665C34.6602 22.3506 34.8463 22.6816 35.1247 22.943C35.4059 23.2015 35.7767 23.3307 36.2369 23.3307C36.9102 23.3307 37.4415 23.0367 37.8307 22.4486C38.2227 21.8606 38.4187 21.0296 38.4187 19.9557H38.3505C38.1915 20.1944 38.0025 20.4003 37.7838 20.5736C37.565 20.7469 37.3221 20.8805 37.0551 20.9742C36.788 21.068 36.504 21.1148 36.2028 21.1148C35.7028 21.1148 35.244 20.9913 34.8264 20.7441C34.4116 20.4941 34.0792 20.1518 33.8292 19.7171C33.5821 19.2796 33.4585 18.7796 33.4585 18.2171C33.4585 17.683 33.5778 17.1944 33.8165 16.7512C34.0579 16.3052 34.396 15.9501 34.8307 15.6859C35.2682 15.4217 35.7824 15.2938 36.3733 15.3023ZM36.3733 16.2398C36.0153 16.2398 35.6929 16.3293 35.4059 16.5083C35.1219 16.6844 34.896 16.9231 34.7284 17.2242C34.5636 17.5225 34.4812 17.8535 34.4812 18.2171C34.4812 18.5807 34.5608 18.9117 34.7199 19.21C34.8818 19.5055 35.102 19.7413 35.3804 19.9174C35.6616 20.0907 35.9812 20.1773 36.3392 20.1773C36.6091 20.1773 36.8605 20.1248 37.0934 20.0197C37.3264 19.9117 37.5295 19.7654 37.7028 19.5807C37.879 19.3932 38.0167 19.1816 38.1162 18.9458C38.2156 18.7072 38.2653 18.4586 38.2653 18.2001C38.2653 17.8592 38.1829 17.5396 38.0182 17.2413C37.8562 16.943 37.6318 16.7015 37.3449 16.5168C37.0608 16.3322 36.7369 16.2398 36.3733 16.2398ZM45.7809 24.2682C45.4229 24.2626 45.065 24.1944 44.707 24.0637C44.3491 23.933 44.0224 23.7128 43.7269 23.4032C43.4314 23.0907 43.1942 22.6688 43.0152 22.1376C42.8363 21.6035 42.7468 20.933 42.7468 20.1262C42.7468 19.3535 42.8192 18.6688 42.9641 18.0722C43.109 17.4728 43.3192 16.9685 43.5948 16.5594C43.8704 16.1475 44.2027 15.835 44.592 15.6219C44.984 15.4089 45.4258 15.3023 45.9172 15.3023C46.4059 15.3023 46.8405 15.4003 47.2212 15.5964C47.6047 15.7896 47.9172 16.0594 48.1587 16.406C48.4002 16.7526 48.5564 17.1518 48.6275 17.6035H47.5877C47.4911 17.2114 47.3036 16.8861 47.0252 16.6276C46.7468 16.3691 46.3775 16.2398 45.9172 16.2398C45.2411 16.2398 44.7084 16.5339 44.3192 17.1219C43.9329 17.71 43.7383 18.5353 43.7354 19.5978H43.8036C43.9627 19.3563 44.1516 19.1503 44.3704 18.9799C44.592 18.8066 44.8363 18.6731 45.1033 18.5793C45.3704 18.4856 45.653 18.4387 45.9513 18.4387C46.4513 18.4387 46.9087 18.5637 47.3235 18.8137C47.7383 19.0609 48.0706 19.4032 48.3206 19.8407C48.5706 20.2753 48.6956 20.7739 48.6956 21.3364C48.6956 21.8762 48.5749 22.3705 48.3334 22.8194C48.092 23.2654 47.7525 23.6205 47.315 23.8847C46.8803 24.1461 46.3689 24.2739 45.7809 24.2682ZM45.7809 23.3307C46.1388 23.3307 46.4599 23.2413 46.7439 23.0623C47.0309 22.8833 47.2567 22.6432 47.4215 22.3421C47.5891 22.041 47.6729 21.7057 47.6729 21.3364C47.6729 20.9756 47.592 20.6475 47.43 20.3521C47.2709 20.0538 47.0508 19.8165 46.7695 19.6404C46.4911 19.4643 46.1729 19.3762 45.815 19.3762C45.5451 19.3762 45.2937 19.4302 45.0607 19.5381C44.8277 19.6432 44.6232 19.7881 44.4471 19.9728C44.2738 20.1574 44.1374 20.3691 44.038 20.6077C43.9385 20.8435 43.8888 21.0921 43.8888 21.3535C43.8888 21.7001 43.9698 22.0239 44.1317 22.3251C44.2965 22.6262 44.5209 22.8691 44.805 23.0538C45.092 23.2384 45.4172 23.3307 45.7809 23.3307ZM55.2396 15.4217V24.1489H54.1828V16.5296H54.1317L52.001 17.9444V16.8705L54.1828 15.4217H55.2396ZM67.6734 24.2682C67.1109 24.2682 66.6095 24.1717 66.1692 23.9785C65.7317 23.7853 65.3836 23.5168 65.1251 23.1731C64.8694 22.8265 64.7302 22.4245 64.7075 21.9671H65.7814C65.8041 22.2484 65.9007 22.4913 66.0711 22.6958C66.2416 22.8975 66.4646 23.0538 66.7402 23.1646C67.0157 23.2753 67.3211 23.3307 67.6564 23.3307C68.0314 23.3307 68.3638 23.2654 68.6535 23.1347C68.9433 23.004 69.1706 22.8222 69.3353 22.5893C69.5001 22.3563 69.5825 22.0864 69.5825 21.7796C69.5825 21.4586 69.503 21.1759 69.3439 20.9316C69.1848 20.6844 68.9518 20.4913 68.645 20.3521C68.3382 20.2128 67.9632 20.1432 67.52 20.1432H66.8211V19.2057H67.52C67.8666 19.2057 68.1706 19.1432 68.4319 19.0182C68.6961 18.8932 68.9021 18.7171 69.0498 18.4898C69.2004 18.2626 69.2757 17.9955 69.2757 17.6887C69.2757 17.3932 69.2103 17.1361 69.0797 16.9174C68.949 16.6986 68.7643 16.5282 68.5257 16.406C68.2899 16.2839 68.0115 16.2228 67.6905 16.2228C67.3893 16.2228 67.1052 16.2782 66.8382 16.389C66.574 16.4969 66.3581 16.6546 66.1905 16.862C66.0228 17.0665 65.9319 17.3137 65.9177 17.6035H64.895C64.9121 17.1461 65.0498 16.7455 65.3084 16.4018C65.5669 16.0552 65.905 15.7853 66.3226 15.5921C66.743 15.3989 67.2047 15.3023 67.7075 15.3023C68.2473 15.3023 68.7103 15.4117 69.0967 15.6305C69.4831 15.8464 69.78 16.1319 69.9873 16.487C70.1947 16.8421 70.2984 17.2256 70.2984 17.6376C70.2984 18.129 70.1692 18.5481 69.9106 18.8947C69.655 19.2413 69.3069 19.4813 68.8666 19.6148V19.683C69.4177 19.7739 69.8481 20.0083 70.1578 20.3861C70.4675 20.7611 70.6223 21.2256 70.6223 21.7796C70.6223 22.254 70.493 22.6802 70.2345 23.058C69.9788 23.433 69.6294 23.7285 69.1862 23.9444C68.743 24.1603 68.2388 24.2682 67.6734 24.2682ZM74.1652 24.1489V23.3819L77.0459 20.2285C77.3839 19.8592 77.6623 19.5381 77.8811 19.2654C78.0998 18.9898 78.2618 18.7313 78.3669 18.4898C78.4748 18.2455 78.5288 17.9898 78.5288 17.7228C78.5288 17.416 78.4549 17.1503 78.3072 16.9259C78.1623 16.7015 77.9635 16.5282 77.7106 16.406C77.4578 16.2839 77.1737 16.2228 76.8584 16.2228C76.5231 16.2228 76.2305 16.2924 75.9805 16.4316C75.7334 16.568 75.5416 16.7597 75.4052 17.0069C75.2717 17.254 75.2049 17.5438 75.2049 17.8762H74.1993C74.1993 17.3648 74.3172 16.916 74.553 16.5296C74.7888 16.1432 75.1098 15.8421 75.516 15.6262C75.9251 15.4103 76.3839 15.3023 76.8924 15.3023C77.4038 15.3023 77.8569 15.4103 78.2518 15.6262C78.6467 15.8421 78.9564 16.1333 79.1808 16.4998C79.4052 16.8663 79.5174 17.2739 79.5174 17.7228C79.5174 18.0438 79.4592 18.3577 79.3427 18.6646C79.2291 18.9685 79.0302 19.308 78.7461 19.683C78.4649 20.0552 78.0743 20.5097 77.5743 21.0467L75.614 23.1432V23.2114H79.6709V24.1489H74.1652ZM86.0263 24.2682C85.441 24.2682 84.924 24.1646 84.4751 23.9572C84.0291 23.7469 83.6811 23.4586 83.4311 23.0921C83.1811 22.7228 83.0575 22.3023 83.0603 21.8307C83.0575 21.4614 83.1299 21.1205 83.2777 20.808C83.4254 20.4927 83.6271 20.2299 83.8828 20.0197C84.1413 19.8066 84.4297 19.6717 84.7478 19.6148V19.5637C84.3302 19.4557 83.9978 19.2214 83.7507 18.8606C83.5035 18.4969 83.3814 18.0836 83.3842 17.6205C83.3814 17.1773 83.4936 16.781 83.7209 16.4316C83.9481 16.0822 84.2606 15.8066 84.6584 15.6049C85.0589 15.4032 85.5149 15.3023 86.0263 15.3023C86.5319 15.3023 86.9836 15.4032 87.3814 15.6049C87.7791 15.8066 88.0916 16.0822 88.3189 16.4316C88.549 16.781 88.6655 17.1773 88.6683 17.6205C88.6655 18.0836 88.539 18.4969 88.289 18.8606C88.0419 19.2214 87.7138 19.4557 87.3047 19.5637V19.6148C87.62 19.6717 87.9041 19.8066 88.1569 20.0197C88.4098 20.2299 88.6115 20.4927 88.7621 20.808C88.9126 21.1205 88.9893 21.4614 88.9922 21.8307C88.9893 22.3023 88.8615 22.7228 88.6086 23.0921C88.3586 23.4586 88.0106 23.7469 87.5646 23.9572C87.1214 24.1646 86.6086 24.2682 86.0263 24.2682ZM86.0263 23.3307C86.4211 23.3307 86.7621 23.2668 87.049 23.139C87.3359 23.0111 87.5575 22.8307 87.7138 22.5978C87.87 22.3648 87.9496 22.0921 87.9524 21.7796C87.9496 21.4501 87.8643 21.1589 87.6967 20.906C87.5291 20.6532 87.3004 20.4543 87.0106 20.3094C86.7237 20.1646 86.3956 20.0921 86.0263 20.0921C85.6541 20.0921 85.3217 20.1646 85.0291 20.3094C84.7393 20.4543 84.5106 20.6532 84.343 20.906C84.1782 21.1589 84.0973 21.4501 84.1001 21.7796C84.0973 22.0921 84.1726 22.3648 84.326 22.5978C84.4822 22.8307 84.7052 23.0111 84.995 23.139C85.2848 23.2668 85.6285 23.3307 86.0263 23.3307ZM86.0263 19.1887C86.3388 19.1887 86.6157 19.1262 86.8572 19.0012C87.1015 18.8762 87.2933 18.7015 87.4325 18.4771C87.5717 18.2526 87.6427 17.9898 87.6456 17.6887C87.6427 17.3932 87.5731 17.1361 87.4368 16.9174C87.3004 16.6958 87.1115 16.5253 86.87 16.406C86.6285 16.2839 86.3473 16.2228 86.0263 16.2228C85.6996 16.2228 85.414 16.2839 85.1697 16.406C84.9254 16.5253 84.7365 16.6958 84.603 16.9174C84.4694 17.1361 84.4041 17.3932 84.4069 17.6887C84.4041 17.9898 84.4709 18.2526 84.6072 18.4771C84.7464 18.7015 84.9382 18.8762 85.1825 19.0012C85.4268 19.1262 85.7081 19.1887 86.0263 19.1887ZM97.8731 24.1489L101.776 16.4273V16.3592H97.2765V15.4217H102.867V16.4103L98.981 24.1489H97.8731ZM109.005 24.2682C108.443 24.2682 107.942 24.1717 107.501 23.9785C107.064 23.7853 106.716 23.5168 106.457 23.1731C106.201 22.8265 106.062 22.4245 106.04 21.9671H107.113C107.136 22.2484 107.233 22.4913 107.403 22.6958C107.574 22.8975 107.797 23.0538 108.072 23.1646C108.348 23.2753 108.653 23.3307 108.988 23.3307C109.363 23.3307 109.696 23.2654 109.986 23.1347C110.275 23.004 110.503 22.8222 110.667 22.5893C110.832 22.3563 110.915 22.0864 110.915 21.7796C110.915 21.4586 110.835 21.1759 110.676 20.9316C110.517 20.6844 110.284 20.4913 109.977 20.3521C109.67 20.2128 109.295 20.1432 108.852 20.1432H108.153V19.2057H108.852C109.199 19.2057 109.503 19.1432 109.764 19.0182C110.028 18.8932 110.234 18.7171 110.382 18.4898C110.532 18.2626 110.608 17.9955 110.608 17.6887C110.608 17.3932 110.542 17.1361 110.412 16.9174C110.281 16.6986 110.096 16.5282 109.858 16.406C109.622 16.2839 109.344 16.2228 109.022 16.2228C108.721 16.2228 108.437 16.2782 108.17 16.389C107.906 16.4969 107.69 16.6546 107.522 16.862C107.355 17.0665 107.264 17.3137 107.25 17.6035H106.227C106.244 17.1461 106.382 16.7455 106.64 16.4018C106.899 16.0552 107.237 15.7853 107.655 15.5921C108.075 15.3989 108.537 15.3023 109.04 15.3023C109.579 15.3023 110.042 15.4117 110.429 15.6305C110.815 15.8464 111.112 16.1319 111.319 16.487C111.527 16.8421 111.63 17.2256 111.63 17.6376C111.63 18.129 111.501 18.5481 111.243 18.8947C110.987 19.2413 110.639 19.4813 110.199 19.6148V19.683C110.75 19.7739 111.18 20.0083 111.49 20.3861C111.799 20.7611 111.954 21.2256 111.954 21.7796C111.954 22.254 111.825 22.6802 111.567 23.058C111.311 23.433 110.961 23.7285 110.518 23.9444C110.075 24.1603 109.571 24.2682 109.005 24.2682ZM118.565 15.4217V24.1489H117.509V16.5296H117.457L115.327 17.9444V16.8705L117.509 15.4217H118.565ZM123.148 24.1489L127.051 16.4273V16.3592H122.551V15.4217H128.142V16.4103L124.256 24.1489H123.148Z" fill="white"/>
</svg>
