<svg width="51" height="171" viewBox="0 0 51 171" fill="none" xmlns="http://www.w3.org/2000/svg">
<rect x="1" y="60" width="50" height="51" rx="25" fill="#D9D9D9" fill-opacity="0.28"/>
<rect x="1" width="50" height="51" rx="25" fill="#D9D9D9" fill-opacity="0.28"/>
<path fill-rule="evenodd" clip-rule="evenodd" d="M26.5 32.75C30.5041 32.75 33.75 29.5041 33.75 25.5C33.75 21.4959 30.5041 18.25 26.5 18.25C22.4959 18.25 19.25 21.4959 19.25 25.5C19.25 29.5041 22.4959 32.75 26.5 32.75ZM26.5 30.3333C29.1693 30.3333 31.3333 28.1693 31.3333 25.5C31.3333 22.8306 29.1693 20.6667 26.5 20.6667C23.8306 20.6667 21.6667 22.8306 21.6667 25.5C21.6667 28.1693 23.8306 30.3333 26.5 30.3333Z" fill="#C3858F"/>
<path d="M33.7501 17.0417C33.0827 17.0417 32.5417 17.5827 32.5417 18.25C32.5417 18.9173 33.0827 19.4583 33.7501 19.4583C34.4174 19.4583 34.9584 18.9173 34.9584 18.25C34.9584 17.5827 34.4174 17.0417 33.7501 17.0417Z" fill="#C3858F"/>
<path fill-rule="evenodd" clip-rule="evenodd" d="M13.9985 16.1669C13.2083 17.7178 13.2083 19.748 13.2083 23.8083V27.1917C13.2083 31.252 13.2083 33.2823 13.9985 34.8331C14.6935 36.1973 15.8026 37.3064 17.1668 38.0014C18.7177 38.7917 20.7479 38.7917 24.8083 38.7917H28.1916C32.2519 38.7917 34.2822 38.7917 35.833 38.0014C37.1972 37.3064 38.3063 36.1973 39.0013 34.8331C39.7916 33.2823 39.7916 31.252 39.7916 27.1917V23.8083C39.7916 19.748 39.7916 17.7178 39.0013 16.1669C38.3063 14.8027 37.1972 13.6936 35.833 12.9985C34.2822 12.2083 32.2519 12.2083 28.1916 12.2083H24.8083C20.7479 12.2083 18.7177 12.2083 17.1668 12.9985C15.8026 13.6936 14.6935 14.8027 13.9985 16.1669ZM28.1916 14.625H24.8083C22.7382 14.625 21.331 14.6269 20.2433 14.7158C19.1838 14.8023 18.6419 14.9592 18.264 15.1518C17.3545 15.6152 16.6151 16.3546 16.1517 17.2641C15.9591 17.642 15.8022 18.1838 15.7157 19.2434C15.6268 20.3311 15.6249 21.7383 15.6249 23.8083V27.1917C15.6249 29.2618 15.6268 30.6689 15.7157 31.7566C15.8022 32.8162 15.9591 33.358 16.1517 33.736C16.6151 34.6454 17.3545 35.3848 18.264 35.8482C18.6419 36.0408 19.1838 36.1977 20.2433 36.2843C21.331 36.3731 22.7382 36.375 24.8083 36.375H28.1916C30.2617 36.375 31.6688 36.3731 32.7565 36.2843C33.8161 36.1977 34.358 36.0408 34.7359 35.8482C35.6453 35.3848 36.3847 34.6454 36.8481 33.736C37.0407 33.358 37.1977 32.8162 37.2842 31.7566C37.373 30.6689 37.3749 29.2618 37.3749 27.1917V23.8083C37.3749 21.7383 37.373 20.3311 37.2842 19.2434C37.1977 18.1838 37.0407 17.642 36.8481 17.2641C36.3847 16.3546 35.6453 15.6152 34.7359 15.1518C34.358 14.9592 33.8161 14.8023 32.7565 14.7158C31.6688 14.6269 30.2617 14.625 28.1916 14.625Z" fill="#C3858F"/>
<rect y="120" width="50" height="51" rx="25" fill="#D9D9D9" fill-opacity="0.28"/>
<path d="M40.9997 86.1574C40.9647 83.426 40.1134 80.761 38.5462 78.4763C36.979 76.1916 34.7614 74.3824 32.1543 73.2617C29.5471 72.141 26.6591 71.7556 23.8304 72.1508C21.0018 72.546 18.3501 73.7053 16.1879 75.4922C14.0256 77.2792 12.4427 79.6193 11.6257 82.2371C10.8087 84.8549 10.7914 87.6411 11.5761 90.268C12.3608 92.8948 13.9146 95.2525 16.0547 97.0638C18.1947 98.875 20.8319 100.064 23.6555 100.491V90.3321H19.9054V86.1574H23.6555V82.9861C23.5687 82.2487 23.6523 81.5021 23.9005 80.799C24.1488 80.0958 24.5555 79.4533 25.092 78.9168C25.6284 78.3803 26.2815 77.9628 27.0053 77.6938C27.729 77.4248 28.5059 77.3109 29.2806 77.3602C30.4053 77.3749 31.5273 77.4707 32.637 77.6469V81.2303H30.7619C30.4387 81.1913 30.1102 81.2223 29.8012 81.3209C29.492 81.4195 29.2099 81.5832 28.9759 81.7999C28.7419 82.0166 28.5619 82.2808 28.4492 82.5729C28.3364 82.8652 28.2938 83.1778 28.3244 83.4878V86.1933H32.487L31.812 90.368H28.3431V100.402C31.8868 99.866 35.1122 98.1345 37.4343 95.5211C39.7564 92.9077 41.0213 89.5857 40.9997 86.1574Z" fill="#C3858F"/>
<g clip-path="url(#clip0_80_209)">
<path d="M26.875 135.5C26.1156 135.5 25.5 136.116 25.5 136.875C25.5 137.634 26.1156 138.25 26.875 138.25C28.6251 138.25 29.9766 138.827 30.8871 139.738C31.7976 140.648 32.375 142 32.375 143.75C32.375 144.509 32.9906 145.125 33.75 145.125C34.5094 145.125 35.125 144.509 35.125 143.75C35.125 141.375 34.3274 139.289 32.8316 137.793C31.3359 136.298 29.2499 135.5 26.875 135.5Z" fill="#C3858F"/>
<path d="M15.8942 141.008C16.0514 139.766 17.6663 138.077 18.948 138.264L18.9459 138.262C20.0172 138.466 20.8967 140.078 21.4764 141.141C21.5716 141.315 21.6587 141.475 21.7373 141.611C22.1318 142.312 21.8756 143.021 21.5078 143.321C21.4652 143.355 21.4206 143.391 21.3747 143.427C20.8852 143.816 20.2491 144.32 20.398 144.827C20.6875 145.812 24.125 149.25 25.8157 150.227C26.3334 150.526 26.7358 149.945 27.0806 149.448C27.162 149.33 27.2402 149.217 27.316 149.122C27.6039 148.737 28.3141 148.507 29.0128 148.887C30.0565 149.495 31.0396 150.201 31.9488 150.996C32.4028 151.376 32.5093 151.937 32.1947 152.529C31.6406 153.573 30.0379 154.95 28.8745 154.67C26.8425 154.182 18.625 150.996 15.9855 141.767C15.8472 141.361 15.8701 141.19 15.89 141.041L15.8942 141.008Z" fill="#C3858F"/>
<path d="M26.875 139.625C26.1156 139.625 25.5 140.241 25.5 141C25.5 141.759 26.1156 142.375 26.875 142.375C27.1153 142.375 27.4706 142.509 27.7934 142.832C28.1159 143.154 28.25 143.51 28.25 143.75C28.25 144.509 28.8656 145.125 29.625 145.125C30.3844 145.125 31 144.509 31 143.75C31 142.615 30.4466 141.596 29.7379 140.887C29.0293 140.179 28.0096 139.625 26.875 139.625Z" fill="#C3858F"/>
<path fill-rule="evenodd" clip-rule="evenodd" d="M19.3365 162.768C19.3756 162.789 19.4157 162.809 19.4568 162.827C20.203 163.148 21.1241 162.431 22.9664 160.998L24.8125 159.562C28.5091 159.685 31.7068 159.2 34.179 158.335C36.9437 157.367 39.1175 155.194 40.0849 152.429C41.4181 148.619 41.4181 141.631 40.0849 137.821C39.1175 135.056 36.9437 132.882 34.179 131.915C29.7767 130.375 21.1413 130.403 16.8211 131.915C14.0563 132.882 11.8826 135.056 10.9152 137.821C9.58199 141.631 9.58199 148.619 10.9152 152.429C11.8826 155.194 14.0563 157.367 16.8211 158.335C17.3635 158.524 17.9701 158.733 18.625 158.875C18.625 161.209 18.625 162.376 19.3365 162.768ZM21.375 158.752V157.212C21.375 156.889 21.1495 156.61 20.8332 156.542C19.7856 156.318 18.7443 156.094 17.7294 155.739C15.7545 155.048 14.2019 153.495 13.5108 151.521C12.9857 150.02 12.6653 147.662 12.6653 145.125C12.6653 142.587 12.9857 140.23 13.5108 138.729C14.2019 136.754 15.7545 135.202 17.7294 134.511C19.4724 133.901 22.3611 133.524 25.4722 133.52C28.583 133.517 31.4897 133.887 33.2707 134.511C35.2455 135.202 36.7983 136.754 37.4892 138.729C38.0143 140.23 38.3348 142.587 38.3348 145.125C38.3348 147.662 38.0143 150.02 37.4892 151.521C36.7983 153.495 35.2455 155.048 33.2707 155.739C30.3396 156.765 27.2311 156.88 24.1579 156.789C23.9973 156.784 23.8398 156.835 23.7131 156.934L21.375 158.752Z" fill="#C3858F"/>
</g>
<defs>
<clipPath id="clip0_80_209">
<rect width="33" height="33" fill="white" transform="translate(9 130)"/>
</clipPath>
</defs>
</svg>
