<svg width="50" height="51" viewBox="0 0 50 51" fill="none" xmlns="http://www.w3.org/2000/svg">
<rect width="50" height="51" rx="25" fill="#D9D9D9" fill-opacity="0.28"/>
<path fill-rule="evenodd" clip-rule="evenodd" d="M25.5 32.75C29.5041 32.75 32.75 29.5041 32.75 25.5C32.75 21.4959 29.5041 18.25 25.5 18.25C21.4959 18.25 18.25 21.4959 18.25 25.5C18.25 29.5041 21.4959 32.75 25.5 32.75ZM25.5 30.3333C28.1693 30.3333 30.3333 28.1693 30.3333 25.5C30.3333 22.8306 28.1693 20.6667 25.5 20.6667C22.8306 20.6667 20.6667 22.8306 20.6667 25.5C20.6667 28.1693 22.8306 30.3333 25.5 30.3333Z" fill="#C3858F"/>
<path d="M32.7501 17.0417C32.0827 17.0417 31.5417 17.5827 31.5417 18.25C31.5417 18.9173 32.0827 19.4583 32.7501 19.4583C33.4174 19.4583 33.9584 18.9173 33.9584 18.25C33.9584 17.5827 33.4174 17.0417 32.7501 17.0417Z" fill="#C3858F"/>
<path fill-rule="evenodd" clip-rule="evenodd" d="M12.9985 16.1669C12.2083 17.7178 12.2083 19.748 12.2083 23.8083V27.1917C12.2083 31.252 12.2083 33.2823 12.9985 34.8331C13.6935 36.1973 14.8026 37.3064 16.1668 38.0014C17.7177 38.7917 19.7479 38.7917 23.8083 38.7917H27.1916C31.2519 38.7917 33.2822 38.7917 34.833 38.0014C36.1972 37.3064 37.3063 36.1973 38.0013 34.8331C38.7916 33.2823 38.7916 31.252 38.7916 27.1917V23.8083C38.7916 19.748 38.7916 17.7178 38.0013 16.1669C37.3063 14.8027 36.1972 13.6936 34.833 12.9985C33.2822 12.2083 31.2519 12.2083 27.1916 12.2083H23.8083C19.7479 12.2083 17.7177 12.2083 16.1668 12.9985C14.8026 13.6936 13.6935 14.8027 12.9985 16.1669ZM27.1916 14.625H23.8083C21.7382 14.625 20.331 14.6269 19.2433 14.7158C18.1838 14.8023 17.6419 14.9592 17.264 15.1518C16.3545 15.6152 15.6151 16.3546 15.1517 17.2641C14.9591 17.642 14.8022 18.1838 14.7157 19.2434C14.6268 20.3311 14.6249 21.7383 14.6249 23.8083V27.1917C14.6249 29.2618 14.6268 30.6689 14.7157 31.7566C14.8022 32.8162 14.9591 33.358 15.1517 33.736C15.6151 34.6454 16.3545 35.3848 17.264 35.8482C17.6419 36.0408 18.1838 36.1977 19.2433 36.2843C20.331 36.3731 21.7382 36.375 23.8083 36.375H27.1916C29.2617 36.375 30.6688 36.3731 31.7565 36.2843C32.8161 36.1977 33.358 36.0408 33.7359 35.8482C34.6453 35.3848 35.3847 34.6454 35.8481 33.736C36.0407 33.358 36.1977 32.8162 36.2842 31.7566C36.373 30.6689 36.3749 29.2618 36.3749 27.1917V23.8083C36.3749 21.7383 36.373 20.3311 36.2842 19.2434C36.1977 18.1838 36.0407 17.642 35.8481 17.2641C35.3847 16.3546 34.6453 15.6152 33.7359 15.1518C33.358 14.9592 32.8161 14.8023 31.7565 14.7158C30.6688 14.6269 29.2617 14.625 27.1916 14.625Z" fill="#C3858F"/>
</svg>
